<svg xmlns="http://www.w3.org/2000/svg" width="67.933" height="78.72" viewBox="0 0 67.933 78.72">
  <g id="Grupo_131922" data-name="Grupo 131922" transform="translate(8360.52 6130.104)">
    <g id="portapapeles" transform="translate(-8392.654 -6130.104)">
      <g id="Grupo_129634" data-name="Grupo 129634" transform="translate(54.913)">
        <g id="Grupo_129633" data-name="Grupo 129633">
          <path id="Trazado_194796" data-name="Trazado 194796" d="M164.245,0H148.262a3.207,3.207,0,0,0-3.2,3.2v7.992a3.207,3.207,0,0,0,3.2,3.2h15.983a3.207,3.207,0,0,0,3.2-3.2V3.2A3.207,3.207,0,0,0,164.245,0Z" transform="translate(-145.065)" fill="#30610c"/>
        </g>
      </g>
      <g id="Grupo_129636" data-name="Grupo 129636" transform="translate(34.135 6.394)">
        <g id="Grupo_129635" data-name="Grupo 129635" transform="translate(0)">
          <path id="Trazado_194797" data-name="Trazado 194797" d="M91.675,34.135h-9.59v6.393a6.414,6.414,0,0,1-6.394,6.394H56.511a6.414,6.414,0,0,1-6.394-6.394V34.135h-9.59a6.413,6.413,0,0,0-6.393,6.393v57.54a6.413,6.413,0,0,0,6.393,6.394H91.675a6.413,6.413,0,0,0,6.393-6.394V40.528A6.413,6.413,0,0,0,91.675,34.135ZM46.921,59.708H66.1V66.1H46.921ZM78.887,91.675H46.921V85.281H78.887Zm6.394-12.787H46.921V72.495h38.36Z" transform="translate(-34.135 -34.135)" fill="none" stroke="#30610c" stroke-width="4"/>
        </g>
      </g>
    </g>
  </g>
</svg>
