<svg xmlns="http://www.w3.org/2000/svg" xmlns:xlink="http://www.w3.org/1999/xlink" width="309" height="331.537" viewBox="0 0 309 331.537">
  <defs>
    <filter id="paris-4345139_1920" x="0" y="0" width="309" height="331.537" filterUnits="userSpaceOnUse">
      <feOffset dy="3" input="SourceAlpha"/>
      <feGaussianBlur stdDeviation="3" result="blur"/>
      <feFlood flood-opacity="0.161"/>
      <feComposite operator="in" in2="blur"/>
      <feComposite in="SourceGraphic"/>
    </filter>
    <clipPath id="clip-path">
      <circle id="Elipse_6234" data-name="Elipse 6234" cx="55" cy="55" r="55" transform="translate(252.679 2558)" fill="#fece10" stroke="#fece10" stroke-width="13"/>
    </clipPath>
  </defs>
  <g id="Grupo_131949" data-name="Grupo 131949" transform="translate(-171 -2698.944)">
    <g transform="matrix(1, 0, 0, 1, 171, 2698.94)" filter="url(#paris-4345139_1920)">
      <path id="paris-4345139_1920-2" data-name="paris-4345139_1920" d="M20,0H271a20,20,0,0,1,20,20V293.537a20,20,0,0,1-20,20H20a20,20,0,0,1-20-20V20A20,20,0,0,1,20,0Z" transform="translate(9 6)" fill="#438815"/>
    </g>
    <path id="Trazado_196415" data-name="Trazado 196415" d="M12.949,21H9.541L4.5,12.152V21H1.074V6.781H4.5l5.029,8.848V6.781h3.418Zm1.6-5.381a6.236,6.236,0,0,1,.615-2.817,4.4,4.4,0,0,1,1.768-1.9,5.323,5.323,0,0,1,2.705-.664,4.858,4.858,0,0,1,3.74,1.47,5.64,5.64,0,0,1,1.367,4v.117a5.472,5.472,0,0,1-1.372,3.921,4.871,4.871,0,0,1-3.716,1.45,4.927,4.927,0,0,1-3.623-1.353,5.29,5.29,0,0,1-1.475-3.667Zm3.291.205a3.932,3.932,0,0,0,.459,2.148,1.529,1.529,0,0,0,1.357.684q1.758,0,1.8-2.705v-.332q0-2.842-1.816-2.842-1.65,0-1.787,2.451Zm11.465-5.391.107,1.24a3.633,3.633,0,0,1,3.018-1.436,2.675,2.675,0,0,1,2.705,1.592,3.516,3.516,0,0,1,3.105-1.592q3.213,0,3.3,3.887V21h-3.3V14.33a2.014,2.014,0,0,0-.273-1.182,1.164,1.164,0,0,0-1-.371,1.559,1.559,0,0,0-1.455.869l.01.137V21h-3.3V14.35a2.117,2.117,0,0,0-.264-1.2,1.161,1.161,0,0,0-1.006-.371,1.578,1.578,0,0,0-1.445.869V21H26.221V10.434ZM46.895,21h-3.3V10.434h3.3ZM43.4,7.709a1.469,1.469,0,0,1,.508-1.152,2.159,2.159,0,0,1,2.637,0,1.469,1.469,0,0,1,.508,1.152,1.469,1.469,0,0,1-.508,1.152,2.159,2.159,0,0,1-2.637,0A1.469,1.469,0,0,1,43.4,7.709Zm8.545,2.725.107,1.24a3.583,3.583,0,0,1,3.018-1.436,3.015,3.015,0,0,1,2.466.986,4.7,4.7,0,0,1,.845,2.969V21h-3.3V14.33a1.783,1.783,0,0,0-.322-1.177,1.491,1.491,0,0,0-1.172-.376,1.569,1.569,0,0,0-1.436.762V21H48.857V10.434ZM66.152,21a3.716,3.716,0,0,1-.312-.947A3.06,3.06,0,0,1,63.3,21.2a3.749,3.749,0,0,1-2.539-.9,2.875,2.875,0,0,1-1.045-2.271,2.955,2.955,0,0,1,1.27-2.6,6.468,6.468,0,0,1,3.691-.879h1.016v-.559q0-1.462-1.26-1.462a1.03,1.03,0,0,0-1.172,1.158H59.971a2.95,2.95,0,0,1,1.3-2.487,5.479,5.479,0,0,1,3.325-.956,4.8,4.8,0,0,1,3.193.986,3.429,3.429,0,0,1,1.2,2.705v4.678a4.79,4.79,0,0,0,.449,2.227V21Zm-2.061-2.148a1.836,1.836,0,0,0,1.021-.264,1.653,1.653,0,0,0,.581-.6V16.3h-.957q-1.719,0-1.719,1.543a.942.942,0,0,0,.3.728A1.1,1.1,0,0,0,64.092,18.852ZM74.287,21h-3.3V6h3.3Z" transform="translate(281.679 2907.944)" fill="#fff"/>
    <path id="Trazado_196417" data-name="Trazado 196417" d="M57.5,0A57.5,57.5,0,1,1,0,57.5,57.5,57.5,0,0,1,57.5,0Z" transform="translate(270 2767)" fill="#fff"/>
    <g id="Enmascarar_grupo_132" data-name="Enmascarar grupo 132" transform="translate(19.321 211)" clip-path="url(#clip-path)">
      <g id="ciencia-de-los-datos" transform="translate(264.679 2568)">
        <g id="Grupo_129856" data-name="Grupo 129856" transform="translate(1.426 1.426)">
          <g id="Grupo_129830" data-name="Grupo 129830" transform="translate(0 74.132)">
            <path id="Trazado_195184" data-name="Trazado 195184" d="M1.855,98.306h5.7v11.4h-5.7Z" transform="translate(-1.855 -98.306)" fill="#ef7385"/>
          </g>
          <g id="Grupo_129831" data-name="Grupo 129831" transform="translate(22.81 68.429)">
            <path id="Trazado_195185" data-name="Trazado 195185" d="M31.532,90.887h5.7v17.107h-5.7Z" transform="translate(-31.532 -90.887)" fill="#ef7385"/>
          </g>
          <g id="Grupo_129832" data-name="Grupo 129832" transform="translate(11.405 71.281)">
            <path id="Trazado_195186" data-name="Trazado 195186" d="M16.694,94.6h5.7v14.256h-5.7Z" transform="translate(-16.694 -94.597)" fill="#ef7385"/>
          </g>
          <g id="Grupo_129833" data-name="Grupo 129833" transform="translate(2.851 35.64)">
            <path id="Trazado_195187" data-name="Trazado 195187" d="M27.441,61.86l.69.46A15.688,15.688,0,0,1,5.565,48.226h8.554a7.127,7.127,0,0,0,10.031,6.51,7.505,7.505,0,0,0,3.291,7.124Z" transform="translate(-5.565 -48.226)" fill="#fcd770"/>
          </g>
          <g id="Grupo_129834" data-name="Grupo 129834" transform="translate(65.578 8.554)">
            <path id="Trazado_195188" data-name="Trazado 195188" d="M104.285,15.835V35.794a2.85,2.85,0,0,1-2.851,2.851h-11.4a2.85,2.85,0,0,1-2.851-2.851V15.835a2.85,2.85,0,0,1,2.851-2.851h11.4A2.85,2.85,0,0,1,104.285,15.835Z" transform="translate(-87.177 -12.984)" fill="#fcd770"/>
          </g>
          <g id="Grupo_129835" data-name="Grupo 129835" transform="translate(74.132 62.727)">
            <path id="Trazado_195189" data-name="Trazado 195189" d="M98.306,83.468a11.406,11.406,0,0,1,8.065,19.47l0,0-8.064-8.064Z" transform="translate(-98.306 -83.468)" fill="#fcd770"/>
          </g>
          <g id="Grupo_129836" data-name="Grupo 129836" transform="translate(62.727 74.132)">
            <path id="Trazado_195190" data-name="Trazado 195190" d="M102.936,106.37l0,0a11.406,11.406,0,0,1-19.47-8.065h11.4Z" transform="translate(-83.468 -98.306)" fill="#b4dd7f"/>
          </g>
          <g id="Grupo_129837" data-name="Grupo 129837" transform="translate(72.706 39.917)">
            <path id="Trazado_195191" data-name="Trazado 195191" d="M99.3,53.79a2.851,2.851,0,1,1,0,5.7H96.452v-5.7Z" transform="translate(-96.452 -53.79)" fill="#f0d0b4"/>
          </g>
          <g id="Grupo_129838" data-name="Grupo 129838" transform="translate(62.727 62.727)">
            <path id="Trazado_195192" data-name="Trazado 195192" d="M94.873,83.468v11.4h-11.4A11.4,11.4,0,0,1,94.873,83.468Z" transform="translate(-83.468 -83.468)" fill="#ef7385"/>
          </g>
          <g id="Grupo_129839" data-name="Grupo 129839" transform="translate(47.045 30.695)">
            <path id="Trazado_195193" data-name="Trazado 195193" d="M77.321,51.014h11.4v5.7a2.85,2.85,0,0,1-2.851,2.851H77.552a6.256,6.256,0,0,1-5.934-4.277V70.972a4.277,4.277,0,0,1-4.277,4.277L65.916,65.27a27.011,27.011,0,0,1-2.851-12.078v-.752l5.7-4.277-1.819-6.369v0l.884.127a8.554,8.554,0,0,1,5.907,3.724Z" transform="translate(-63.065 -41.792)" fill="#b4dd7f"/>
          </g>
          <g id="Grupo_129840" data-name="Grupo 129840" transform="translate(29.938)">
            <path id="Trazado_195194" data-name="Trazado 195194" d="M66.467,10.409a8.57,8.57,0,0,1-1.392,4.678,2.842,2.842,0,0,0-1.459-.4H59.348a5.484,5.484,0,0,1-5.325-4.159,2.039,2.039,0,0,0-3.8-.417l-.862,1.725h-.813a2.038,2.038,0,0,0-2.039,2.039v.813H43.658a2.842,2.842,0,0,0-1.459.4A8.554,8.554,0,0,1,49.36,1.855h8.554a8.554,8.554,0,0,1,8.554,8.554Z" transform="translate(-40.806 -1.855)" fill="#656d78"/>
          </g>
          <g id="Grupo_129841" data-name="Grupo 129841" transform="translate(49.896 12.83)">
            <path id="Trazado_195195" data-name="Trazado 195195" d="M71.085,18.949a2.851,2.851,0,0,1-1.459,5.3H66.774v-5.7h2.851A2.842,2.842,0,0,1,71.085,18.949Z" transform="translate(-66.774 -18.548)" fill="#f0d0b4"/>
          </g>
          <g id="Grupo_129842" data-name="Grupo 129842" transform="translate(47.045 30.141)">
            <path id="Trazado_195196" data-name="Trazado 195196" d="M66.948,41.627,68.767,48l-5.7,4.277v-11.2l3.883.554Z" transform="translate(-63.065 -41.071)" fill="#a0d468"/>
          </g>
          <g id="Grupo_129843" data-name="Grupo 129843" transform="translate(34.215 54.173)">
            <path id="Trazado_195197" data-name="Trazado 195197" d="M54.925,102.277a4.277,4.277,0,0,0-8.554,0V82.318L47.8,72.339H62.053l1.426,9.979v19.959a4.277,4.277,0,0,0-8.554,0Z" transform="translate(-46.371 -72.339)" fill="#d3a06c"/>
          </g>
          <g id="Grupo_129844" data-name="Grupo 129844" transform="translate(42.768 79.834)">
            <path id="Trazado_195198" data-name="Trazado 195198" d="M66.054,110a1.424,1.424,0,0,1-1.426,1.426h-5.7A1.425,1.425,0,0,1,57.5,110a4.277,4.277,0,0,1,8.554,0Z" transform="translate(-57.5 -105.726)" fill="#969faa"/>
          </g>
          <g id="Grupo_129845" data-name="Grupo 129845" transform="translate(35.64 7.128)">
            <path id="Trazado_195199" data-name="Trazado 195199" d="M62.482,22.534v1.887a7.123,7.123,0,0,1-3.174,5.931l-.469.314a1.426,1.426,0,0,0-.634,1.185v2.089l-2.851,4.277L52.5,33.939V31.85a1.426,1.426,0,0,0-.634-1.185l-.469-.314a7.123,7.123,0,0,1-3.174-5.931v-8.4a2.038,2.038,0,0,1,2.039-2.039h.813l.862-1.725a2.039,2.039,0,0,1,3.8.417,5.484,5.484,0,0,0,5.325,4.159h1.417Z" transform="translate(-48.226 -11.129)" fill="#f0d0b4"/>
          </g>
          <g id="Grupo_129846" data-name="Grupo 129846" transform="translate(35.64 29.938)">
            <path id="Trazado_195200" data-name="Trazado 195200" d="M62.482,65.042H48.226a27.011,27.011,0,0,0,2.851-12.078V41.01l1.426-.2,2.851,4.277,2.851-4.277,1.426.2V52.963A27.011,27.011,0,0,0,62.482,65.042Z" transform="translate(-48.226 -40.806)" fill="#e6e9ed"/>
          </g>
          <g id="Grupo_129847" data-name="Grupo 129847" transform="translate(34.215 79.834)">
            <path id="Trazado_195201" data-name="Trazado 195201" d="M54.925,110a1.424,1.424,0,0,1-1.426,1.426H47.8A1.425,1.425,0,0,1,46.371,110a4.277,4.277,0,0,1,8.554,0Z" transform="translate(-46.371 -105.726)" fill="#969faa"/>
          </g>
          <g id="Grupo_129848" data-name="Grupo 129848" transform="translate(21.384 30.697)">
            <path id="Trazado_195202" data-name="Trazado 195202" d="M38.231,63.845,33.71,60.831l-.69-.46a7.51,7.51,0,0,1-1.144-11.556l2.078-2.078,2.261-2.261a8.555,8.555,0,0,1,4.838-2.418l.711-.1,1.137-.162-1.819,6.369,5.7,4.277v.752A27.011,27.011,0,0,1,43.934,65.27L42.508,75.25a4.277,4.277,0,0,1-4.277-4.277Z" transform="translate(-29.677 -41.794)" fill="#b4dd7f"/>
          </g>
          <g id="Grupo_129849" data-name="Grupo 129849" transform="translate(32.789 30.141)">
            <path id="Trazado_195203" data-name="Trazado 195203" d="M50.219,41.071v11.2L44.516,48l1.819-6.369Z" transform="translate(-44.516 -41.071)" fill="#a0d468"/>
          </g>
          <g id="Grupo_129850" data-name="Grupo 129850" transform="translate(29.938 12.83)">
            <path id="Trazado_195204" data-name="Trazado 195204" d="M46.509,18.548v5.7H43.658a2.851,2.851,0,1,1,0-5.7Z" transform="translate(-40.806 -18.548)" fill="#f0d0b4"/>
          </g>
          <g id="Grupo_129851" data-name="Grupo 129851" transform="translate(18.533 19.959)">
            <path id="Trazado_195205" data-name="Trazado 195205" d="M40.906,38.723l-.711.1a8.555,8.555,0,0,0-4.838,2.418L33.1,43.5a7.128,7.128,0,0,0-7.128-7.128V27.823A15.689,15.689,0,0,1,40.906,38.723Z" transform="translate(-25.968 -27.823)" fill="#e6e9ed"/>
          </g>
          <g id="Grupo_129852" data-name="Grupo 129852" transform="translate(24.235 4.277)">
            <circle id="Elipse_6235" data-name="Elipse 6235" cx="2.851" cy="2.851" r="2.851" fill="#ef7385"/>
          </g>
          <g id="Grupo_129853" data-name="Grupo 129853" transform="translate(2.851 19.959)">
            <path id="Trazado_195206" data-name="Trazado 195206" d="M21.246,27.823v8.554A7.128,7.128,0,0,0,14.118,43.5H5.565A15.682,15.682,0,0,1,21.246,27.823Z" transform="translate(-5.565 -27.823)" fill="#ef7385"/>
          </g>
          <g id="Grupo_129854" data-name="Grupo 129854" transform="translate(12.831 4.277)">
            <circle id="Elipse_6236" data-name="Elipse 6236" cx="2.851" cy="2.851" r="2.851" fill="#ef7385"/>
          </g>
          <g id="Grupo_129855" data-name="Grupo 129855" transform="translate(1.426 4.277)">
            <circle id="Elipse_6237" data-name="Elipse 6237" cx="2.851" cy="2.851" r="2.851" fill="#ef7385"/>
          </g>
        </g>
        <g id="Grupo_129857" data-name="Grupo 129857" transform="translate(0 0)">
          <path id="Trazado_195207" data-name="Trazado 195207" d="M63.817,51.322h8.322a4.284,4.284,0,0,0,4.032-2.851h1.671a4.277,4.277,0,0,0,0-8.554H64.348L61.19,35.18A9.991,9.991,0,0,0,54.3,30.837l-4.969-.71v-.852l.468-.312a8.536,8.536,0,0,0,3.809-7.117v-.462h1.426A4.274,4.274,0,0,0,58.3,14.351,9.977,9.977,0,0,0,49.329,0H40.776a9.988,9.988,0,0,0-8.757,5.2,4.276,4.276,0,1,0-.91,7.261,9.932,9.932,0,0,0,.7,1.891,4.274,4.274,0,0,0,3.267,7.033H36.5v.462a8.536,8.536,0,0,0,3.809,7.117l.468.312v.852l-4.074.582a17.1,17.1,0,1,0-9.13,22.077l3.225,2.15V61.3a5.713,5.713,0,0,0,4.277,5.522V85.537a2.855,2.855,0,0,0,2.851,2.851h5.7A2.83,2.83,0,0,0,45.052,88a2.83,2.83,0,0,0,1.426.386h5.7a2.855,2.855,0,0,0,2.851-2.851V66.823A5.713,5.713,0,0,0,59.309,61.3V49.862a7.669,7.669,0,0,0,4.508,1.46Zm14.025-8.554a1.426,1.426,0,0,1,0,2.851H76.416V42.768ZM53.391,37.94l-2.636,1.977V33.211l1.34.191ZM43.627,59.876V80.6a5.682,5.682,0,0,0-5.7,0V65.68l1.236-8.655H50.944L52.18,65.68V80.6a5.682,5.682,0,0,0-5.7,0V59.876ZM38.01,33.4l1.34-.191v6.706L36.713,37.94Zm2.116,20.771A28.594,28.594,0,0,0,42.2,43.521V33.933l2.851,4.277L47.9,33.933v9.587a28.594,28.594,0,0,0,2.075,10.652Zm14.906-35.64H53.606V15.682h1.426a1.426,1.426,0,1,1,0,2.851ZM29.371,9.979A1.426,1.426,0,1,1,30.8,8.554,1.427,1.427,0,0,1,29.371,9.979Zm5.7,8.554a1.426,1.426,0,0,1,0-2.851H36.5v2.851Zm1.483-5.7H35.073a4.284,4.284,0,0,0-.8.075,7.124,7.124,0,0,1,6.5-10.054h8.554a7.124,7.124,0,0,1,6.5,10.054,4.284,4.284,0,0,0-.8-.075H50.764a4.059,4.059,0,0,1-3.943-3.079,3.464,3.464,0,0,0-6.459-.709l-.468.937A3.467,3.467,0,0,0,36.556,12.83Zm2.794,9.016v-8.4a.613.613,0,0,1,.613-.613h1.694l1.256-2.513a.613.613,0,0,1,1.142.125,6.906,6.906,0,0,0,6.7,5.238v6.165a5.691,5.691,0,0,1-2.539,4.745l-.468.312a2.846,2.846,0,0,0-1.27,2.372v1.657L45.052,33.07l-1.426-2.138V29.275a2.846,2.846,0,0,0-1.27-2.372l-.468-.312A5.691,5.691,0,0,1,39.35,21.846Zm-5.544,9.336A10.047,10.047,0,0,0,29.2,33.8l-.343.343a8.58,8.58,0,0,0-6.612-5.507V22.883A14.192,14.192,0,0,1,33.806,31.182ZM22.452,42.528A5.7,5.7,0,1,1,26.491,36.5l-1.632,1.632a8.869,8.869,0,0,0-2.407,4.392ZM19.391,22.881v5.752a8.573,8.573,0,0,0-7.007,7.007H6.632A14.281,14.281,0,0,1,19.391,22.881ZM6.632,38.491h5.752a8.544,8.544,0,0,0,9.92,7,8.9,8.9,0,0,0,2.536,5.26A14.273,14.273,0,0,1,6.632,38.491ZM33.648,61.3V41.343H30.8v3.039l-2.061-1.374L27.154,45.38,30.8,47.808v3.7l-2.994-2a6.082,6.082,0,0,1-.927-9.362l4.338-4.338a7.178,7.178,0,0,1,3.7-1.96l-1.483,5.19,5.917,4.438v.04a25.714,25.714,0,0,1-2.7,11.44l-.1.207L35.3,63.888A2.855,2.855,0,0,1,33.648,61.3Zm4.277,24.235a2.851,2.851,0,0,1,5.7-.037v.037Zm8.554,0a2.851,2.851,0,0,1,5.7-.035v.035ZM56.457,61.3A2.855,2.855,0,0,1,54.8,63.888l-1.246-8.72-.1-.207a25.713,25.713,0,0,1-2.7-11.44v-.04l5.917-4.438-1.445-5.058a7.135,7.135,0,0,1,3.591,2.777l3.122,4.683-1.056,2.111,2.55,1.275,1.031-2.063h9.1v4.277a1.427,1.427,0,0,1-1.426,1.426H63.817a4.82,4.82,0,0,1-4.508-3.108v-4.02H56.457Z" transform="translate(-0.858 0)"/>
          <path id="Trazado_195208" data-name="Trazado 195208" d="M89.6,39.641H101a4.282,4.282,0,0,0,4.277-4.277V15.406A4.282,4.282,0,0,0,101,11.129H89.6a4.282,4.282,0,0,0-4.277,4.277V35.364A4.282,4.282,0,0,0,89.6,39.641ZM101,36.79H89.6a1.427,1.427,0,0,1-1.426-1.426V31.088H102.43v4.277A1.427,1.427,0,0,1,101,36.79ZM88.174,28.236v-5.7H102.43v5.7ZM89.6,13.98H101a1.427,1.427,0,0,1,1.426,1.426v4.277H88.174V15.406A1.427,1.427,0,0,1,89.6,13.98Z" transform="translate(-19.744 -2.575)"/>
          <path id="Trazado_195209" data-name="Trazado 195209" d="M22.81,106.14H19.959V91.883H11.4V106.14H8.554v-11.4H0v14.256H31.363V89.032H22.81Zm-17.107,0H2.851V97.586H5.7Zm8.554-11.4h2.851v11.4H14.256Zm11.4-2.851h2.851V106.14H25.661Z" transform="translate(0 -20.603)"/>
          <path id="Trazado_195210" data-name="Trazado 195210" d="M94.443,81.613a12.83,12.83,0,1,0,12.831,12.83A12.845,12.845,0,0,0,94.443,81.613Zm9.979,12.83a9.927,9.927,0,0,1-1.99,5.973l-6.564-6.564V84.568A9.993,9.993,0,0,1,104.423,94.443Zm-11.4-9.876v8.45h-8.45A10,10,0,0,1,93.018,84.568Zm-8.45,11.3h9.285l6.564,6.564a9.973,9.973,0,0,1-15.849-6.564Z" transform="translate(-18.886 -18.886)"/>
          <path id="Trazado_195211" data-name="Trazado 195211" d="M3.71,74.194H20.817v2.851H3.71Z" transform="translate(-0.858 -17.169)"/>
          <path id="Trazado_195212" data-name="Trazado 195212" d="M3.71,81.613H6.561v2.851H3.71Z" transform="translate(-0.858 -18.886)"/>
          <path id="Trazado_195213" data-name="Trazado 195213" d="M11.129,81.613h11.4v2.851h-11.4Z" transform="translate(-2.575 -18.886)"/>
          <path id="Trazado_195214" data-name="Trazado 195214" d="M6.132,14.118A4.277,4.277,0,1,0,1.855,9.841,4.282,4.282,0,0,0,6.132,14.118Zm0-5.7A1.426,1.426,0,1,1,4.706,9.841,1.427,1.427,0,0,1,6.132,8.416Z" transform="translate(-0.429 -1.288)"/>
          <path id="Trazado_195215" data-name="Trazado 195215" d="M20.97,14.118a4.277,4.277,0,1,0-4.277-4.277A4.282,4.282,0,0,0,20.97,14.118Zm0-5.7a1.426,1.426,0,1,1-1.426,1.426A1.427,1.427,0,0,1,20.97,8.416Z" transform="translate(-3.863 -1.288)"/>
        </g>
      </g>
    </g>
    <g id="Trazado_196418" data-name="Trazado 196418" transform="translate(270 2767)" fill="none">
      <path d="M57.5,0A57.5,57.5,0,1,1,0,57.5,57.5,57.5,0,0,1,57.5,0Z" stroke="none"/>
      <path d="M 57.5 4 C 50.27577972412109 4 43.26978302001953 5.413978576660156 36.67662048339844 8.202651977539062 C 33.50738525390625 9.543128967285156 30.45034790039062 11.20247650146484 27.59043884277344 13.13459777832031 C 24.75665283203125 15.04905700683594 22.09176635742188 17.24781799316406 19.66978454589844 19.66978454589844 C 17.24781799316406 22.09176635742188 15.04905700683594 24.75665283203125 13.13459777832031 27.59043884277344 C 11.20247650146484 30.45034790039062 9.543128967285156 33.50738525390625 8.202651977539062 36.67662048339844 C 5.413978576660156 43.26978302001953 4 50.27577972412109 4 57.5 C 4 64.72421264648438 5.413978576660156 71.73021697998047 8.202651977539062 78.32337951660156 C 9.543128967285156 81.49261474609375 11.20247650146484 84.54965209960938 13.13459777832031 87.40956115722656 C 15.04905700683594 90.24334716796875 17.24781799316406 92.90823364257812 19.66978454589844 95.33021545410156 C 22.09176635742188 97.75218200683594 24.75665283203125 99.95094299316406 27.59043884277344 101.8654022216797 C 30.45034790039062 103.7975311279297 33.50738525390625 105.4568710327148 36.67662048339844 106.7973480224609 C 43.26978302001953 109.5860214233398 50.27577972412109 111 57.5 111 C 64.72421264648438 111 71.73021697998047 109.5860214233398 78.32337951660156 106.7973480224609 C 81.49261474609375 105.4568710327148 84.54965209960938 103.7975311279297 87.40956115722656 101.8654022216797 C 90.24334716796875 99.95094299316406 92.90823364257812 97.75218200683594 95.33021545410156 95.33021545410156 C 97.75218200683594 92.90823364257812 99.95094299316406 90.24334716796875 101.8654022216797 87.40956115722656 C 103.7975311279297 84.54965209960938 105.4568710327148 81.49261474609375 106.7973480224609 78.32337951660156 C 109.5860214233398 71.73021697998047 111 64.72421264648438 111 57.5 C 111 50.27577972412109 109.5860214233398 43.26978302001953 106.7973480224609 36.67662048339844 C 105.4568710327148 33.50738525390625 103.7975311279297 30.45034790039062 101.8654022216797 27.59043884277344 C 99.95094299316406 24.75665283203125 97.75218200683594 22.09176635742188 95.33021545410156 19.66978454589844 C 92.90823364257812 17.24781799316406 90.24334716796875 15.04905700683594 87.40956115722656 13.13459777832031 C 84.54965209960938 11.20247650146484 81.49261474609375 9.543128967285156 78.32337951660156 8.202651977539062 C 71.73021697998047 5.413978576660156 64.72421264648438 4 57.5 4 M 57.5 0 C 89.25636291503906 0 115 25.74363708496094 115 57.5 C 115 89.25636291503906 89.25636291503906 115 57.5 115 C 25.74363708496094 115 0 89.25636291503906 0 57.5 C 0 25.74363708496094 25.74363708496094 0 57.5 0 Z" stroke="none" fill="#fece10"/>
    </g>
    <g id="paris-4345139_1920-3" data-name="paris-4345139_1920" transform="translate(180 2704.944)" fill="#438815">
      <path d="M 271.0000915527344 313.0370178222656 L 20.00000762939453 313.0370178222656 C 17.3673152923584 313.0370178222656 14.81362247467041 312.5215148925781 12.40989208221436 311.5048217773438 C 10.08789157867432 310.522705078125 8.002429962158203 309.1165771484375 6.211430549621582 307.3255920410156 C 4.420430183410645 305.5345764160156 3.014314889907837 303.4491271972656 2.032199621200562 301.1271362304688 C 1.015507340431213 298.723388671875 0.5000073313713074 296.1697082519531 0.5000073313713074 293.5370178222656 L 0.5000073313713074 20.00000953674316 C 0.5000073313713074 17.36731719970703 1.015507340431213 14.81362438201904 2.032199621200562 12.40989398956299 C 3.014314889907837 10.08789348602295 4.420430183410645 8.002431869506836 6.211430549621582 6.211431980133057 C 8.002429962158203 4.420432090759277 10.08789157867432 3.014316558837891 12.40989208221436 2.032201290130615 C 14.81362247467041 1.015508890151978 17.3673152923584 0.5000089406967163 20.00000762939453 0.5000089406967163 L 271.0000915527344 0.5000089406967163 C 273.6327819824219 0.5000089406967163 276.1864624023438 1.015508890151978 278.5902099609375 2.032201290130615 C 280.9122009277344 3.014316558837891 282.9976501464844 4.420432090759277 284.7886657714844 6.211431980133057 C 286.5796508789062 8.002431869506836 287.9857788085938 10.08789348602295 288.9678955078125 12.40989398956299 C 289.9845886230469 14.81362438201904 290.5000915527344 17.36731719970703 290.5000915527344 20.00000953674316 L 290.5000915527344 293.5370178222656 C 290.5000915527344 296.1697082519531 289.9845886230469 298.723388671875 288.9678955078125 301.1271362304688 C 287.9857788085938 303.4491271972656 286.5796508789062 305.5345764160156 284.7886657714844 307.3255920410156 C 282.9976501464844 309.1165771484375 280.9122009277344 310.522705078125 278.5902099609375 311.5048217773438 C 276.1864624023438 312.5215148925781 273.6327819824219 313.0370178222656 271.0000915527344 313.0370178222656 Z" stroke="none"/>
      <path d="M 20 1 C 17.43460083007812 1 14.9464111328125 1.502227783203125 12.6046142578125 2.492706298828125 C 10.34225463867188 3.44964599609375 8.310211181640625 4.8197021484375 6.564971923828125 6.564971923828125 C 4.8197021484375 8.310211181640625 3.449615478515625 10.34225463867188 2.492706298828125 12.60464477539062 C 1.502197265625 14.9464111328125 1 17.43460083007812 1 20 L 1 293.5370178222656 C 1 296.1024169921875 1.502197265625 298.5906066894531 2.492706298828125 300.932373046875 C 3.449615478515625 303.1947631835938 4.8197021484375 305.226806640625 6.564971923828125 306.9720458984375 C 8.310211181640625 308.71728515625 10.34225463867188 310.0873718261719 12.6046142578125 311.0443115234375 C 14.9464111328125 312.0347900390625 17.43460083007812 312.5370178222656 20 312.5370178222656 L 271.0000915527344 312.5370178222656 C 273.5654907226562 312.5370178222656 276.0536804199219 312.0347900390625 278.3954162597656 311.0443115234375 C 280.6578063964844 310.0873718261719 282.6898498535156 308.71728515625 284.4350891113281 306.9720458984375 C 286.1803894042969 305.226806640625 287.5504760742188 303.1947631835938 288.5073852539062 300.932373046875 C 289.4978942871094 298.5906066894531 290.0000915527344 296.1024169921875 290.0000915527344 293.5370178222656 L 290.0000915527344 20 C 290.0000915527344 17.43460083007812 289.4978942871094 14.9464111328125 288.5073852539062 12.60464477539062 C 287.5504760742188 10.34225463867188 286.1803894042969 8.310211181640625 284.4350891113281 6.564971923828125 C 282.6898498535156 4.8197021484375 280.6578063964844 3.44964599609375 278.3954162597656 2.492706298828125 C 276.0536804199219 1.502227783203125 273.5654907226562 1 271.0000915527344 1 L 20 1 M 20 0 L 271.0000915527344 0 C 282.0457458496094 0 291.0000915527344 8.954315185546875 291.0000915527344 20 L 291.0000915527344 293.5370178222656 C 291.0000915527344 304.5827026367188 282.0457458496094 313.5370178222656 271.0000915527344 313.5370178222656 L 20 313.5370178222656 C 8.95428466796875 313.5370178222656 0 304.5827026367188 0 293.5370178222656 L 0 20 C 0 8.954315185546875 8.95428466796875 0 20 0 Z" stroke="none" fill="#438815"/>
    </g>
    <path id="Trazado_196416" data-name="Trazado 196416" d="M12.949,21H9.541L4.5,12.152V21H1.074V6.781H4.5l5.029,8.848V6.781h3.418Zm1.6-5.381a6.236,6.236,0,0,1,.615-2.817,4.4,4.4,0,0,1,1.768-1.9,5.323,5.323,0,0,1,2.705-.664,4.858,4.858,0,0,1,3.74,1.47,5.64,5.64,0,0,1,1.367,4v.117a5.472,5.472,0,0,1-1.372,3.921,4.871,4.871,0,0,1-3.716,1.45,4.927,4.927,0,0,1-3.623-1.353,5.29,5.29,0,0,1-1.475-3.667Zm3.291.205a3.932,3.932,0,0,0,.459,2.148,1.529,1.529,0,0,0,1.357.684q1.758,0,1.8-2.705v-.332q0-2.842-1.816-2.842-1.65,0-1.787,2.451Zm11.465-5.391.107,1.24a3.633,3.633,0,0,1,3.018-1.436,2.675,2.675,0,0,1,2.705,1.592,3.516,3.516,0,0,1,3.105-1.592q3.213,0,3.3,3.887V21h-3.3V14.33a2.014,2.014,0,0,0-.273-1.182,1.164,1.164,0,0,0-1-.371,1.559,1.559,0,0,0-1.455.869l.01.137V21h-3.3V14.35a2.117,2.117,0,0,0-.264-1.2,1.161,1.161,0,0,0-1.006-.371,1.578,1.578,0,0,0-1.445.869V21H26.221V10.434ZM46.895,21h-3.3V10.434h3.3ZM43.4,7.709a1.469,1.469,0,0,1,.508-1.152,2.159,2.159,0,0,1,2.637,0,1.469,1.469,0,0,1,.508,1.152,1.469,1.469,0,0,1-.508,1.152,2.159,2.159,0,0,1-2.637,0A1.469,1.469,0,0,1,43.4,7.709Zm8.545,2.725.107,1.24a3.583,3.583,0,0,1,3.018-1.436,3.015,3.015,0,0,1,2.466.986,4.7,4.7,0,0,1,.845,2.969V21h-3.3V14.33a1.783,1.783,0,0,0-.322-1.177,1.491,1.491,0,0,0-1.172-.376,1.569,1.569,0,0,0-1.436.762V21H48.857V10.434ZM66.152,21a3.716,3.716,0,0,1-.312-.947A3.06,3.06,0,0,1,63.3,21.2a3.749,3.749,0,0,1-2.539-.9,2.875,2.875,0,0,1-1.045-2.271,2.955,2.955,0,0,1,1.27-2.6,6.468,6.468,0,0,1,3.691-.879h1.016v-.559q0-1.462-1.26-1.462a1.03,1.03,0,0,0-1.172,1.158H59.971a2.95,2.95,0,0,1,1.3-2.487,5.479,5.479,0,0,1,3.325-.956,4.8,4.8,0,0,1,3.193.986,3.429,3.429,0,0,1,1.2,2.705v4.678a4.79,4.79,0,0,0,.449,2.227V21Zm-2.061-2.148a1.836,1.836,0,0,0,1.021-.264,1.653,1.653,0,0,0,.581-.6V16.3h-.957q-1.719,0-1.719,1.543a.942.942,0,0,0,.3.728A1.1,1.1,0,0,0,64.092,18.852ZM74.287,21h-3.3V6h3.3Z" transform="translate(281.679 2907.944)" fill="#fff"/>
    <path id="Trazado_196419" data-name="Trazado 196419" d="M57.5,0A57.5,57.5,0,1,1,0,57.5,57.5,57.5,0,0,1,57.5,0Z" transform="translate(270 2767)" fill="#fff"/>
    <g id="Enmascarar_grupo_143" data-name="Enmascarar grupo 143" transform="translate(19.321 211)" clip-path="url(#clip-path)">
      <g id="ciencia-de-los-datos-2" data-name="ciencia-de-los-datos" transform="translate(264.679 2568)">
        <g id="Grupo_131933" data-name="Grupo 131933" transform="translate(1.426 1.426)">
          <g id="Grupo_131907" data-name="Grupo 131907" transform="translate(0 74.132)">
            <path id="Trazado_196314" data-name="Trazado 196314" d="M1.855,98.306h5.7v11.4h-5.7Z" transform="translate(-1.855 -98.306)" fill="#ef7385"/>
          </g>
          <g id="Grupo_131908" data-name="Grupo 131908" transform="translate(22.81 68.429)">
            <path id="Trazado_196315" data-name="Trazado 196315" d="M31.532,90.887h5.7v17.107h-5.7Z" transform="translate(-31.532 -90.887)" fill="#ef7385"/>
          </g>
          <g id="Grupo_131909" data-name="Grupo 131909" transform="translate(11.405 71.281)">
            <path id="Trazado_196316" data-name="Trazado 196316" d="M16.694,94.6h5.7v14.256h-5.7Z" transform="translate(-16.694 -94.597)" fill="#ef7385"/>
          </g>
          <g id="Grupo_131910" data-name="Grupo 131910" transform="translate(2.851 35.64)">
            <path id="Trazado_196317" data-name="Trazado 196317" d="M27.441,61.86l.69.46A15.688,15.688,0,0,1,5.565,48.226h8.554a7.127,7.127,0,0,0,10.031,6.51,7.505,7.505,0,0,0,3.291,7.124Z" transform="translate(-5.565 -48.226)" fill="#fcd770"/>
          </g>
          <g id="Grupo_131911" data-name="Grupo 131911" transform="translate(65.578 8.554)">
            <path id="Trazado_196318" data-name="Trazado 196318" d="M104.285,15.835V35.794a2.85,2.85,0,0,1-2.851,2.851h-11.4a2.85,2.85,0,0,1-2.851-2.851V15.835a2.85,2.85,0,0,1,2.851-2.851h11.4A2.85,2.85,0,0,1,104.285,15.835Z" transform="translate(-87.177 -12.984)" fill="#fcd770"/>
          </g>
          <g id="Grupo_131912" data-name="Grupo 131912" transform="translate(74.132 62.727)">
            <path id="Trazado_196319" data-name="Trazado 196319" d="M98.306,83.468a11.406,11.406,0,0,1,8.065,19.47l0,0-8.064-8.064Z" transform="translate(-98.306 -83.468)" fill="#fcd770"/>
          </g>
          <g id="Grupo_131913" data-name="Grupo 131913" transform="translate(62.727 74.132)">
            <path id="Trazado_196320" data-name="Trazado 196320" d="M102.936,106.37l0,0a11.406,11.406,0,0,1-19.47-8.065h11.4Z" transform="translate(-83.468 -98.306)" fill="#b4dd7f"/>
          </g>
          <g id="Grupo_131914" data-name="Grupo 131914" transform="translate(72.706 39.917)">
            <path id="Trazado_196321" data-name="Trazado 196321" d="M99.3,53.79a2.851,2.851,0,1,1,0,5.7H96.452v-5.7Z" transform="translate(-96.452 -53.79)" fill="#f0d0b4"/>
          </g>
          <g id="Grupo_131915" data-name="Grupo 131915" transform="translate(62.727 62.727)">
            <path id="Trazado_196322" data-name="Trazado 196322" d="M94.873,83.468v11.4h-11.4A11.4,11.4,0,0,1,94.873,83.468Z" transform="translate(-83.468 -83.468)" fill="#ef7385"/>
          </g>
          <g id="Grupo_131916" data-name="Grupo 131916" transform="translate(47.045 30.695)">
            <path id="Trazado_196323" data-name="Trazado 196323" d="M77.321,51.014h11.4v5.7a2.85,2.85,0,0,1-2.851,2.851H77.552a6.256,6.256,0,0,1-5.934-4.277V70.972a4.277,4.277,0,0,1-4.277,4.277L65.916,65.27a27.011,27.011,0,0,1-2.851-12.078v-.752l5.7-4.277-1.819-6.369v0l.884.127a8.554,8.554,0,0,1,5.907,3.724Z" transform="translate(-63.065 -41.792)" fill="#b4dd7f"/>
          </g>
          <g id="Grupo_131917" data-name="Grupo 131917" transform="translate(29.938)">
            <path id="Trazado_196324" data-name="Trazado 196324" d="M66.467,10.409a8.57,8.57,0,0,1-1.392,4.678,2.842,2.842,0,0,0-1.459-.4H59.348a5.484,5.484,0,0,1-5.325-4.159,2.039,2.039,0,0,0-3.8-.417l-.862,1.725h-.813a2.038,2.038,0,0,0-2.039,2.039v.813H43.658a2.842,2.842,0,0,0-1.459.4A8.554,8.554,0,0,1,49.36,1.855h8.554a8.554,8.554,0,0,1,8.554,8.554Z" transform="translate(-40.806 -1.855)" fill="#656d78"/>
          </g>
          <g id="Grupo_131918" data-name="Grupo 131918" transform="translate(49.896 12.83)">
            <path id="Trazado_196325" data-name="Trazado 196325" d="M71.085,18.949a2.851,2.851,0,0,1-1.459,5.3H66.774v-5.7h2.851A2.842,2.842,0,0,1,71.085,18.949Z" transform="translate(-66.774 -18.548)" fill="#f0d0b4"/>
          </g>
          <g id="Grupo_131919" data-name="Grupo 131919" transform="translate(47.045 30.141)">
            <path id="Trazado_196326" data-name="Trazado 196326" d="M66.948,41.627,68.767,48l-5.7,4.277v-11.2l3.883.554Z" transform="translate(-63.065 -41.071)" fill="#a0d468"/>
          </g>
          <g id="Grupo_131920" data-name="Grupo 131920" transform="translate(34.215 54.173)">
            <path id="Trazado_196327" data-name="Trazado 196327" d="M54.925,102.277a4.277,4.277,0,0,0-8.554,0V82.318L47.8,72.339H62.053l1.426,9.979v19.959a4.277,4.277,0,0,0-8.554,0Z" transform="translate(-46.371 -72.339)" fill="#d3a06c"/>
          </g>
          <g id="Grupo_131921" data-name="Grupo 131921" transform="translate(42.768 79.834)">
            <path id="Trazado_196328" data-name="Trazado 196328" d="M66.054,110a1.424,1.424,0,0,1-1.426,1.426h-5.7A1.425,1.425,0,0,1,57.5,110a4.277,4.277,0,0,1,8.554,0Z" transform="translate(-57.5 -105.726)" fill="#969faa"/>
          </g>
          <g id="Grupo_131922" data-name="Grupo 131922" transform="translate(35.64 7.128)">
            <path id="Trazado_196329" data-name="Trazado 196329" d="M62.482,22.534v1.887a7.123,7.123,0,0,1-3.174,5.931l-.469.314a1.426,1.426,0,0,0-.634,1.185v2.089l-2.851,4.277L52.5,33.939V31.85a1.426,1.426,0,0,0-.634-1.185l-.469-.314a7.123,7.123,0,0,1-3.174-5.931v-8.4a2.038,2.038,0,0,1,2.039-2.039h.813l.862-1.725a2.039,2.039,0,0,1,3.8.417,5.484,5.484,0,0,0,5.325,4.159h1.417Z" transform="translate(-48.226 -11.129)" fill="#f0d0b4"/>
          </g>
          <g id="Grupo_131923" data-name="Grupo 131923" transform="translate(35.64 29.938)">
            <path id="Trazado_196330" data-name="Trazado 196330" d="M62.482,65.042H48.226a27.011,27.011,0,0,0,2.851-12.078V41.01l1.426-.2,2.851,4.277,2.851-4.277,1.426.2V52.963A27.011,27.011,0,0,0,62.482,65.042Z" transform="translate(-48.226 -40.806)" fill="#e6e9ed"/>
          </g>
          <g id="Grupo_131924" data-name="Grupo 131924" transform="translate(34.215 79.834)">
            <path id="Trazado_196331" data-name="Trazado 196331" d="M54.925,110a1.424,1.424,0,0,1-1.426,1.426H47.8A1.425,1.425,0,0,1,46.371,110a4.277,4.277,0,0,1,8.554,0Z" transform="translate(-46.371 -105.726)" fill="#969faa"/>
          </g>
          <g id="Grupo_131925" data-name="Grupo 131925" transform="translate(21.384 30.697)">
            <path id="Trazado_196332" data-name="Trazado 196332" d="M38.231,63.845,33.71,60.831l-.69-.46a7.51,7.51,0,0,1-1.144-11.556l2.078-2.078,2.261-2.261a8.555,8.555,0,0,1,4.838-2.418l.711-.1,1.137-.162-1.819,6.369,5.7,4.277v.752A27.011,27.011,0,0,1,43.934,65.27L42.508,75.25a4.277,4.277,0,0,1-4.277-4.277Z" transform="translate(-29.677 -41.794)" fill="#b4dd7f"/>
          </g>
          <g id="Grupo_131926" data-name="Grupo 131926" transform="translate(32.789 30.141)">
            <path id="Trazado_196333" data-name="Trazado 196333" d="M50.219,41.071v11.2L44.516,48l1.819-6.369Z" transform="translate(-44.516 -41.071)" fill="#a0d468"/>
          </g>
          <g id="Grupo_131927" data-name="Grupo 131927" transform="translate(29.938 12.83)">
            <path id="Trazado_196334" data-name="Trazado 196334" d="M46.509,18.548v5.7H43.658a2.851,2.851,0,1,1,0-5.7Z" transform="translate(-40.806 -18.548)" fill="#f0d0b4"/>
          </g>
          <g id="Grupo_131928" data-name="Grupo 131928" transform="translate(18.533 19.959)">
            <path id="Trazado_196335" data-name="Trazado 196335" d="M40.906,38.723l-.711.1a8.555,8.555,0,0,0-4.838,2.418L33.1,43.5a7.128,7.128,0,0,0-7.128-7.128V27.823A15.689,15.689,0,0,1,40.906,38.723Z" transform="translate(-25.968 -27.823)" fill="#e6e9ed"/>
          </g>
          <g id="Grupo_131929" data-name="Grupo 131929" transform="translate(24.235 4.277)">
            <circle id="Elipse_6333" data-name="Elipse 6333" cx="2.851" cy="2.851" r="2.851" fill="#ef7385"/>
          </g>
          <g id="Grupo_131930" data-name="Grupo 131930" transform="translate(2.851 19.959)">
            <path id="Trazado_196336" data-name="Trazado 196336" d="M21.246,27.823v8.554A7.128,7.128,0,0,0,14.118,43.5H5.565A15.682,15.682,0,0,1,21.246,27.823Z" transform="translate(-5.565 -27.823)" fill="#ef7385"/>
          </g>
          <g id="Grupo_131931" data-name="Grupo 131931" transform="translate(12.831 4.277)">
            <circle id="Elipse_6334" data-name="Elipse 6334" cx="2.851" cy="2.851" r="2.851" fill="#ef7385"/>
          </g>
          <g id="Grupo_131932" data-name="Grupo 131932" transform="translate(1.426 4.277)">
            <circle id="Elipse_6335" data-name="Elipse 6335" cx="2.851" cy="2.851" r="2.851" fill="#ef7385"/>
          </g>
        </g>
        <g id="Grupo_131934" data-name="Grupo 131934" transform="translate(0 0)">
          <path id="Trazado_196337" data-name="Trazado 196337" d="M63.817,51.322h8.322a4.284,4.284,0,0,0,4.032-2.851h1.671a4.277,4.277,0,0,0,0-8.554H64.348L61.19,35.18A9.991,9.991,0,0,0,54.3,30.837l-4.969-.71v-.852l.468-.312a8.536,8.536,0,0,0,3.809-7.117v-.462h1.426A4.274,4.274,0,0,0,58.3,14.351,9.977,9.977,0,0,0,49.329,0H40.776a9.988,9.988,0,0,0-8.757,5.2,4.276,4.276,0,1,0-.91,7.261,9.932,9.932,0,0,0,.7,1.891,4.274,4.274,0,0,0,3.267,7.033H36.5v.462a8.536,8.536,0,0,0,3.809,7.117l.468.312v.852l-4.074.582a17.1,17.1,0,1,0-9.13,22.077l3.225,2.15V61.3a5.713,5.713,0,0,0,4.277,5.522V85.537a2.855,2.855,0,0,0,2.851,2.851h5.7A2.83,2.83,0,0,0,45.052,88a2.83,2.83,0,0,0,1.426.386h5.7a2.855,2.855,0,0,0,2.851-2.851V66.823A5.713,5.713,0,0,0,59.309,61.3V49.862a7.669,7.669,0,0,0,4.508,1.46Zm14.025-8.554a1.426,1.426,0,0,1,0,2.851H76.416V42.768ZM53.391,37.94l-2.636,1.977V33.211l1.34.191ZM43.627,59.876V80.6a5.682,5.682,0,0,0-5.7,0V65.68l1.236-8.655H50.944L52.18,65.68V80.6a5.682,5.682,0,0,0-5.7,0V59.876ZM38.01,33.4l1.34-.191v6.706L36.713,37.94Zm2.116,20.771A28.594,28.594,0,0,0,42.2,43.521V33.933l2.851,4.277L47.9,33.933v9.587a28.594,28.594,0,0,0,2.075,10.652Zm14.906-35.64H53.606V15.682h1.426a1.426,1.426,0,1,1,0,2.851ZM29.371,9.979A1.426,1.426,0,1,1,30.8,8.554,1.427,1.427,0,0,1,29.371,9.979Zm5.7,8.554a1.426,1.426,0,0,1,0-2.851H36.5v2.851Zm1.483-5.7H35.073a4.284,4.284,0,0,0-.8.075,7.124,7.124,0,0,1,6.5-10.054h8.554a7.124,7.124,0,0,1,6.5,10.054,4.284,4.284,0,0,0-.8-.075H50.764a4.059,4.059,0,0,1-3.943-3.079,3.464,3.464,0,0,0-6.459-.709l-.468.937A3.467,3.467,0,0,0,36.556,12.83Zm2.794,9.016v-8.4a.613.613,0,0,1,.613-.613h1.694l1.256-2.513a.613.613,0,0,1,1.142.125,6.906,6.906,0,0,0,6.7,5.238v6.165a5.691,5.691,0,0,1-2.539,4.745l-.468.312a2.846,2.846,0,0,0-1.27,2.372v1.657L45.052,33.07l-1.426-2.138V29.275a2.846,2.846,0,0,0-1.27-2.372l-.468-.312A5.691,5.691,0,0,1,39.35,21.846Zm-5.544,9.336A10.047,10.047,0,0,0,29.2,33.8l-.343.343a8.58,8.58,0,0,0-6.612-5.507V22.883A14.192,14.192,0,0,1,33.806,31.182ZM22.452,42.528A5.7,5.7,0,1,1,26.491,36.5l-1.632,1.632a8.869,8.869,0,0,0-2.407,4.392ZM19.391,22.881v5.752a8.573,8.573,0,0,0-7.007,7.007H6.632A14.281,14.281,0,0,1,19.391,22.881ZM6.632,38.491h5.752a8.544,8.544,0,0,0,9.92,7,8.9,8.9,0,0,0,2.536,5.26A14.273,14.273,0,0,1,6.632,38.491ZM33.648,61.3V41.343H30.8v3.039l-2.061-1.374L27.154,45.38,30.8,47.808v3.7l-2.994-2a6.082,6.082,0,0,1-.927-9.362l4.338-4.338a7.178,7.178,0,0,1,3.7-1.96l-1.483,5.19,5.917,4.438v.04a25.714,25.714,0,0,1-2.7,11.44l-.1.207L35.3,63.888A2.855,2.855,0,0,1,33.648,61.3Zm4.277,24.235a2.851,2.851,0,0,1,5.7-.037v.037Zm8.554,0a2.851,2.851,0,0,1,5.7-.035v.035ZM56.457,61.3A2.855,2.855,0,0,1,54.8,63.888l-1.246-8.72-.1-.207a25.713,25.713,0,0,1-2.7-11.44v-.04l5.917-4.438-1.445-5.058a7.135,7.135,0,0,1,3.591,2.777l3.122,4.683-1.056,2.111,2.55,1.275,1.031-2.063h9.1v4.277a1.427,1.427,0,0,1-1.426,1.426H63.817a4.82,4.82,0,0,1-4.508-3.108v-4.02H56.457Z" transform="translate(-0.858 0)"/>
          <path id="Trazado_196338" data-name="Trazado 196338" d="M89.6,39.641H101a4.282,4.282,0,0,0,4.277-4.277V15.406A4.282,4.282,0,0,0,101,11.129H89.6a4.282,4.282,0,0,0-4.277,4.277V35.364A4.282,4.282,0,0,0,89.6,39.641ZM101,36.79H89.6a1.427,1.427,0,0,1-1.426-1.426V31.088H102.43v4.277A1.427,1.427,0,0,1,101,36.79ZM88.174,28.236v-5.7H102.43v5.7ZM89.6,13.98H101a1.427,1.427,0,0,1,1.426,1.426v4.277H88.174V15.406A1.427,1.427,0,0,1,89.6,13.98Z" transform="translate(-19.744 -2.575)"/>
          <path id="Trazado_196339" data-name="Trazado 196339" d="M22.81,106.14H19.959V91.883H11.4V106.14H8.554v-11.4H0v14.256H31.363V89.032H22.81Zm-17.107,0H2.851V97.586H5.7Zm8.554-11.4h2.851v11.4H14.256Zm11.4-2.851h2.851V106.14H25.661Z" transform="translate(0 -20.603)"/>
          <path id="Trazado_196340" data-name="Trazado 196340" d="M94.443,81.613a12.83,12.83,0,1,0,12.831,12.83A12.845,12.845,0,0,0,94.443,81.613Zm9.979,12.83a9.927,9.927,0,0,1-1.99,5.973l-6.564-6.564V84.568A9.993,9.993,0,0,1,104.423,94.443Zm-11.4-9.876v8.45h-8.45A10,10,0,0,1,93.018,84.568Zm-8.45,11.3h9.285l6.564,6.564a9.973,9.973,0,0,1-15.849-6.564Z" transform="translate(-18.886 -18.886)"/>
          <path id="Trazado_196341" data-name="Trazado 196341" d="M3.71,74.194H20.817v2.851H3.71Z" transform="translate(-0.858 -17.169)"/>
          <path id="Trazado_196342" data-name="Trazado 196342" d="M3.71,81.613H6.561v2.851H3.71Z" transform="translate(-0.858 -18.886)"/>
          <path id="Trazado_196343" data-name="Trazado 196343" d="M11.129,81.613h11.4v2.851h-11.4Z" transform="translate(-2.575 -18.886)"/>
          <path id="Trazado_196344" data-name="Trazado 196344" d="M6.132,14.118A4.277,4.277,0,1,0,1.855,9.841,4.282,4.282,0,0,0,6.132,14.118Zm0-5.7A1.426,1.426,0,1,1,4.706,9.841,1.427,1.427,0,0,1,6.132,8.416Z" transform="translate(-0.429 -1.288)"/>
          <path id="Trazado_196345" data-name="Trazado 196345" d="M20.97,14.118a4.277,4.277,0,1,0-4.277-4.277A4.282,4.282,0,0,0,20.97,14.118Zm0-5.7a1.426,1.426,0,1,1-1.426,1.426A1.427,1.427,0,0,1,20.97,8.416Z" transform="translate(-3.863 -1.288)"/>
        </g>
      </g>
    </g>
    <g id="Trazado_196420" data-name="Trazado 196420" transform="translate(270 2767)" fill="none">
      <path d="M57.5,0A57.5,57.5,0,1,1,0,57.5,57.5,57.5,0,0,1,57.5,0Z" stroke="none"/>
      <path d="M 57.5 4 C 50.27577972412109 4 43.26978302001953 5.413978576660156 36.67662048339844 8.202651977539062 C 33.50738525390625 9.543128967285156 30.45034790039062 11.20247650146484 27.59043884277344 13.13459777832031 C 24.75665283203125 15.04905700683594 22.09176635742188 17.24781799316406 19.66978454589844 19.66978454589844 C 17.24781799316406 22.09176635742188 15.04905700683594 24.75665283203125 13.13459777832031 27.59043884277344 C 11.20247650146484 30.45034790039062 9.543128967285156 33.50738525390625 8.202651977539062 36.67662048339844 C 5.413978576660156 43.26978302001953 4 50.27577972412109 4 57.5 C 4 64.72421264648438 5.413978576660156 71.73021697998047 8.202651977539062 78.32337951660156 C 9.543128967285156 81.49261474609375 11.20247650146484 84.54965209960938 13.13459777832031 87.40956115722656 C 15.04905700683594 90.24334716796875 17.24781799316406 92.90823364257812 19.66978454589844 95.33021545410156 C 22.09176635742188 97.75218200683594 24.75665283203125 99.95094299316406 27.59043884277344 101.8654022216797 C 30.45034790039062 103.7975311279297 33.50738525390625 105.4568710327148 36.67662048339844 106.7973480224609 C 43.26978302001953 109.5860214233398 50.27577972412109 111 57.5 111 C 64.72421264648438 111 71.73021697998047 109.5860214233398 78.32337951660156 106.7973480224609 C 81.49261474609375 105.4568710327148 84.54965209960938 103.7975311279297 87.40956115722656 101.8654022216797 C 90.24334716796875 99.95094299316406 92.90823364257812 97.75218200683594 95.33021545410156 95.33021545410156 C 97.75218200683594 92.90823364257812 99.95094299316406 90.24334716796875 101.8654022216797 87.40956115722656 C 103.7975311279297 84.54965209960938 105.4568710327148 81.49261474609375 106.7973480224609 78.32337951660156 C 109.5860214233398 71.73021697998047 111 64.72421264648438 111 57.5 C 111 50.27577972412109 109.5860214233398 43.26978302001953 106.7973480224609 36.67662048339844 C 105.4568710327148 33.50738525390625 103.7975311279297 30.45034790039062 101.8654022216797 27.59043884277344 C 99.95094299316406 24.75665283203125 97.75218200683594 22.09176635742188 95.33021545410156 19.66978454589844 C 92.90823364257812 17.24781799316406 90.24334716796875 15.04905700683594 87.40956115722656 13.13459777832031 C 84.54965209960938 11.20247650146484 81.49261474609375 9.543128967285156 78.32337951660156 8.202651977539062 C 71.73021697998047 5.413978576660156 64.72421264648438 4 57.5 4 M 57.5 0 C 89.25636291503906 0 115 25.74363708496094 115 57.5 C 115 89.25636291503906 89.25636291503906 115 57.5 115 C 25.74363708496094 115 0 89.25636291503906 0 57.5 C 0 25.74363708496094 25.74363708496094 0 57.5 0 Z" stroke="none" fill="#fece10"/>
    </g>
  </g>
</svg>
