<svg xmlns="http://www.w3.org/2000/svg" xmlns:xlink="http://www.w3.org/1999/xlink" width="309" height="331.537" viewBox="0 0 309 331.537">
  <defs>
    <filter id="paris-4345139_1920" x="0" y="0" width="309" height="331.537" filterUnits="userSpaceOnUse">
      <feOffset dy="3" input="SourceAlpha"/>
      <feGaussianBlur stdDeviation="3" result="blur"/>
      <feFlood flood-opacity="0.161"/>
      <feComposite operator="in" in2="blur"/>
      <feComposite in="SourceGraphic"/>
    </filter>
    <clipPath id="clip-path">
      <circle id="Elipse_6238" data-name="Elipse 6238" cx="54.5" cy="54.5" r="54.5" transform="translate(577.958 2561.279)" fill="#fece10" stroke="#fece10" stroke-width="13"/>
    </clipPath>
    <filter id="paris-4345139_1920-2" x="0" y="0" width="309" height="331.537" filterUnits="userSpaceOnUse">
      <feOffset dy="3" input="SourceAlpha"/>
      <feGaussianBlur stdDeviation="3" result="blur-2"/>
      <feFlood flood-opacity="0.161"/>
      <feComposite operator="in" in2="blur-2"/>
      <feComposite in="SourceGraphic"/>
    </filter>
  </defs>
  <g id="Grupo_131950" data-name="Grupo 131950" transform="translate(-487.333 -2698.944)">
    <g transform="matrix(1, 0, 0, 1, 487.33, 2698.94)" filter="url(#paris-4345139_1920)">
      <path id="paris-4345139_1920-3" data-name="paris-4345139_1920" d="M20,0H271a20,20,0,0,1,20,20V293.537a20,20,0,0,1-20,20H20a20,20,0,0,1-20-20V20A20,20,0,0,1,20,0Z" transform="translate(9 6)" fill="#438815"/>
    </g>
    <path id="Trazado_196421" data-name="Trazado 196421" d="M13.115,14.184a8.385,8.385,0,0,1-.771,3.682,5.7,5.7,0,0,1-2.192,2.466,6.1,6.1,0,0,1-3.237.864,6.191,6.191,0,0,1-3.223-.835A5.692,5.692,0,0,1,1.5,17.973a8.144,8.144,0,0,1-.825-3.564v-.8A8.422,8.422,0,0,1,1.44,9.921a5.688,5.688,0,0,1,2.2-2.466,6.147,6.147,0,0,1,3.257-.869,6.087,6.087,0,0,1,3.223.859,5.79,5.79,0,0,1,2.2,2.446,8.18,8.18,0,0,1,.8,3.638Zm-3.486-.6a5.979,5.979,0,0,0-.708-3.218,2.271,2.271,0,0,0-2.026-1.1q-2.578,0-2.725,3.867l-.01,1.045A6.149,6.149,0,0,0,4.854,17.4,2.268,2.268,0,0,0,6.914,18.52a2.24,2.24,0,0,0,2-1.1,5.982,5.982,0,0,0,.713-3.174Zm11.494-.176-1.084-.078a1.947,1.947,0,0,0-1.992.977V21H14.756V10.434h3.086l.107,1.357a2.548,2.548,0,0,1,2.314-1.553,3.209,3.209,0,0,1,.918.117Zm.771,2.227a6.455,6.455,0,0,1,1.084-3.955,3.568,3.568,0,0,1,3.027-1.445,3.035,3.035,0,0,1,2.383,1.113V6h3.3V21H28.73l-.166-1.133A3.116,3.116,0,0,1,25.986,21.2,3.562,3.562,0,0,1,23,19.75,6.659,6.659,0,0,1,21.895,15.639Zm3.291.205q0,2.813,1.641,2.813a1.62,1.62,0,0,0,1.563-.918V13.715a1.576,1.576,0,0,0-1.543-.937q-1.523,0-1.65,2.461ZM37.031,21h-3.3V10.434h3.3Zm-3.5-13.291a1.469,1.469,0,0,1,.508-1.152,2.159,2.159,0,0,1,2.637,0,1.469,1.469,0,0,1,.508,1.152,1.469,1.469,0,0,1-.508,1.152,2.159,2.159,0,0,1-2.637,0A1.469,1.469,0,0,1,33.535,7.709Zm8.545,2.725.107,1.24a3.583,3.583,0,0,1,3.018-1.436,3.015,3.015,0,0,1,2.466.986,4.7,4.7,0,0,1,.845,2.969V21h-3.3V14.33a1.783,1.783,0,0,0-.322-1.177,1.491,1.491,0,0,0-1.172-.376,1.569,1.569,0,0,0-1.436.762V21H38.994V10.434ZM56.289,21a3.716,3.716,0,0,1-.312-.947A3.06,3.06,0,0,1,53.438,21.2a3.749,3.749,0,0,1-2.539-.9,2.875,2.875,0,0,1-1.045-2.271,2.955,2.955,0,0,1,1.27-2.6,6.468,6.468,0,0,1,3.691-.879H55.83v-.559q0-1.462-1.26-1.462A1.03,1.03,0,0,0,53.4,13.681H50.107a2.95,2.95,0,0,1,1.3-2.487,5.479,5.479,0,0,1,3.325-.956,4.8,4.8,0,0,1,3.193.986,3.429,3.429,0,0,1,1.2,2.705v4.678a4.79,4.79,0,0,0,.449,2.227V21Zm-2.061-2.148a1.836,1.836,0,0,0,1.021-.264,1.653,1.653,0,0,0,.581-.6V16.3h-.957q-1.719,0-1.719,1.543a.942.942,0,0,0,.3.728A1.1,1.1,0,0,0,54.229,18.852ZM64.424,21h-3.3V6h3.3Z" transform="translate(607.679 2907.944)" fill="#fff"/>
    <path id="Trazado_196423" data-name="Trazado 196423" d="M57.5,0A57.5,57.5,0,1,1,0,57.5,57.5,57.5,0,0,1,57.5,0Z" transform="translate(585 2767)" fill="#fff"/>
    <g id="Enmascarar_grupo_133" data-name="Enmascarar grupo 133" transform="translate(10.042 208.721)" clip-path="url(#clip-path)">
      <g id="informacion-personal" transform="translate(594.687 2578.008)">
        <g id="Grupo_129870" data-name="Grupo 129870" transform="translate(1.218 1.218)">
          <g id="Grupo_129858" data-name="Grupo 129858" transform="translate(8.529)">
            <path id="Trazado_195216" data-name="Trazado 195216" d="M63.576,1.855V16.476H62.357V7.947a1.222,1.222,0,0,0-1.218-1.218h-46.3V1.855Z" transform="translate(-14.839 -1.855)" fill="#f0d0b4"/>
          </g>
          <g id="Grupo_129859" data-name="Grupo 129859" transform="translate(6.092 4.874)">
            <path id="Trazado_195217" data-name="Trazado 195217" d="M61.084,10.493v8.529H32.6a1.222,1.222,0,0,1-1.1-.67l-1.755-3.533a1.222,1.222,0,0,0-1.1-.67H11.129V9.274H59.866a1.222,1.222,0,0,1,1.218,1.218Z" transform="translate(-11.129 -9.274)" fill="#e6e9ed"/>
          </g>
          <g id="Grupo_129860" data-name="Grupo 129860" transform="translate(0 26.805)">
            <path id="Trazado_195218" data-name="Trazado 195218" d="M1.855,87.743V42.661H53.029a12.173,12.173,0,0,0-4.874,9.747v8.98a14.419,14.419,0,0,0-2.437,8.078A14.607,14.607,0,0,0,62.776,83.88v3.862a1.222,1.222,0,0,1-1.218,1.218H3.073A1.222,1.222,0,0,1,1.855,87.743Z" transform="translate(-1.855 -42.661)" fill="#e6e9ed"/>
          </g>
          <g id="Grupo_129861" data-name="Grupo 129861" transform="translate(0 9.747)">
            <path id="Trazado_195219" data-name="Trazado 195219" d="M62.776,22.786v8.773a12.212,12.212,0,0,0-9.747,2.193H1.855V17.912a1.222,1.222,0,0,1,1.218-1.218H25.468a1.222,1.222,0,0,1,1.1.67L28.319,20.9a1.222,1.222,0,0,0,1.1.67H61.557A1.222,1.222,0,0,1,62.776,22.786Z" transform="translate(-1.855 -16.694)" fill="#5cd6b3"/>
          </g>
          <g id="Grupo_129862" data-name="Grupo 129862" transform="translate(17.058 31.679)">
            <path id="Trazado_195220" data-name="Trazado 195220" d="M32.7,67.139a6.1,6.1,0,0,0,3.448,5.5l-1.011,3.034a6.662,6.662,0,0,0-2.875,1.9,2.554,2.554,0,0,0-.171.207,8.835,8.835,0,0,1-4.264-7.554V61.046a10.966,10.966,0,0,1,21.932,0v9.175a8.835,8.835,0,0,1-4.264,7.554,6.509,6.509,0,0,0-3.046-2.108l-1.011-3.034L43.1,71.452a6.119,6.119,0,0,0,1.779-4.313V63.483a2.444,2.444,0,0,0-2.437-2.437H41.42a5.3,5.3,0,0,1-3.229-1.1l-3.533.707A2.438,2.438,0,0,0,32.7,63.045Z" transform="translate(-27.823 -50.081)" fill="#b27946"/>
          </g>
          <g id="Grupo_129863" data-name="Grupo 129863" transform="translate(19.495 57.266)">
            <path id="Trazado_195221" data-name="Trazado 195221" d="M40.061,92.688l3.655-3.655a6.509,6.509,0,0,1,3.046,2.108,6.6,6.6,0,0,1,1.365,2.888l.463,2.315H31.532L32,94.028A6.6,6.6,0,0,1,33.36,91.14a2.553,2.553,0,0,1,.171-.207,6.662,6.662,0,0,1,2.875-1.9Z" transform="translate(-31.532 -89.032)" fill="#ff826e"/>
          </g>
          <g id="Grupo_129864" data-name="Grupo 129864" transform="translate(24.368 54.232)">
            <path id="Trazado_195222" data-name="Trazado 195222" d="M39.963,84.414a6.153,6.153,0,0,0,5.288,0l1.011,3.034L42.607,91.1l-3.655-3.655Z" transform="translate(-38.952 -84.414)" fill="#f0d0b4"/>
          </g>
          <g id="Grupo_129865" data-name="Grupo 129865" transform="translate(21.932 41.548)">
            <path id="Trazado_195223" data-name="Trazado 195223" d="M45.647,76.607l-1.669,1.182a6.092,6.092,0,0,1-8.736-5.5V68.2A2.438,2.438,0,0,1,37.2,65.812l3.533-.707a5.3,5.3,0,0,0,3.229,1.1h1.023a2.444,2.444,0,0,1,2.437,2.437v3.655A6.119,6.119,0,0,1,45.647,76.607Z" transform="translate(-35.242 -65.105)" fill="#f0d0b4"/>
          </g>
          <g id="Grupo_129866" data-name="Grupo 129866" transform="translate(46.3 24.368)">
            <path id="Trazado_195224" data-name="Trazado 195224" d="M96.707,51.136V60.1a14.852,14.852,0,0,0-4.874-4.581V51.136a7.322,7.322,0,0,0-7.311-7.311,7.316,7.316,0,0,0-7.311,7.311v4.386a14.533,14.533,0,0,0-4.874,4.593v-8.98a12.184,12.184,0,0,1,24.368,0Z" transform="translate(-72.339 -38.952)" fill="#aab2bd"/>
          </g>
          <g id="Grupo_129867" data-name="Grupo 129867" transform="translate(43.863 38.989)">
            <path id="Trazado_195225" data-name="Trazado 195225" d="M90.561,63.159a14.852,14.852,0,0,1,4.874,4.581,14.623,14.623,0,1,1-26.805,8.09A14.634,14.634,0,0,1,90.561,63.159Z" transform="translate(-68.629 -61.21)" fill="#fcd770"/>
          </g>
          <g id="Grupo_129868" data-name="Grupo 129868" transform="translate(48.737 43.863)">
            <path id="Trazado_195226" data-name="Trazado 195226" d="M85.8,68.629a9.747,9.747,0,1,1-9.747,9.747A9.745,9.745,0,0,1,85.8,68.629Z" transform="translate(-76.048 -68.629)" fill="#ffeaa7"/>
          </g>
          <g id="Grupo_129869" data-name="Grupo 129869" transform="translate(56.047 48.737)">
            <circle id="Elipse_6239" data-name="Elipse 6239" cx="2.437" cy="2.437" r="2.437" fill="#5cd6b3"/>
          </g>
        </g>
        <g id="Grupo_129871" data-name="Grupo 129871">
          <path id="Trazado_195227" data-name="Trazado 195227" d="M88.978,74.194a3.646,3.646,0,0,0-1.218,7.086v5.1H90.2v-5.1a3.646,3.646,0,0,0-1.218-7.086Zm0,4.874A1.218,1.218,0,1,1,90.2,77.849,1.22,1.22,0,0,1,88.978,79.067Z" transform="translate(-29.275 -25.457)"/>
          <path id="Trazado_195228" data-name="Trazado 195228" d="M85.159,66.774A10.966,10.966,0,1,0,96.125,77.74,10.978,10.978,0,0,0,85.159,66.774Zm0,19.495a8.529,8.529,0,1,1,8.529-8.529A8.539,8.539,0,0,1,85.159,86.269Z" transform="translate(-25.457 -22.911)"/>
          <path id="Trazado_195229" data-name="Trazado 195229" d="M75.542,57.375a15.715,15.715,0,0,0-2.437-8.4V40.317a13.419,13.419,0,0,0-9.747-12.884V19.6a2.439,2.439,0,0,0-2.437-2.437H58.484V9.856a2.439,2.439,0,0,0-2.437-2.437H7.311V9.856H56.047v7.311H28.777l-1.763-3.527a2.425,2.425,0,0,0-2.18-1.346H2.437A2.439,2.439,0,0,0,0,14.73V75.651a2.439,2.439,0,0,0,2.437,2.437H60.921a2.439,2.439,0,0,0,2.437-2.437V72.772A15.857,15.857,0,0,0,75.542,57.375ZM70.668,40.317v5.655a15.9,15.9,0,0,0-2.437-1.923V40.317a8.529,8.529,0,1,0-17.058,0v3.732a15.9,15.9,0,0,0-2.437,1.923V40.317a10.966,10.966,0,1,1,21.932,0Zm-4.874,2.44a15.8,15.8,0,0,0-12.184,0v-2.44a6.092,6.092,0,0,1,12.184,0ZM24.834,14.73,26.6,18.257a2.425,2.425,0,0,0,2.18,1.346H60.921v7.373c-.4-.037-.807-.062-1.218-.062a13.318,13.318,0,0,0-7.682,2.437H2.437V14.73ZM60.921,75.651H2.437V31.788H49.372A13.341,13.341,0,0,0,46.3,40.317v8.656A15.809,15.809,0,0,0,59.7,73.214c.412,0,.815-.03,1.218-.062ZM59.7,70.777a13.4,13.4,0,1,1,13.4-13.4A13.418,13.418,0,0,1,59.7,70.777Z" transform="translate(0 -2.546)"/>
          <path id="Trazado_195230" data-name="Trazado 195230" d="M14.839,0H63.576V2.437H14.839Z" transform="translate(-5.091)"/>
          <path id="Trazado_195231" data-name="Trazado 195231" d="M11.129,25.968h2.437v4.874H11.129Z" transform="translate(-3.819 -8.91)"/>
          <path id="Trazado_195232" data-name="Trazado 195232" d="M18.548,25.968h2.437v4.874H18.548Z" transform="translate(-6.364 -8.91)"/>
          <path id="Trazado_195233" data-name="Trazado 195233" d="M25.968,25.968H28.4v4.874H25.968Z" transform="translate(-8.91 -8.91)"/>
          <path id="Trazado_195234" data-name="Trazado 195234" d="M7.419,103.871h4.874v2.437H7.419Z" transform="translate(-2.546 -35.639)"/>
          <path id="Trazado_195235" data-name="Trazado 195235" d="M18.548,103.871h4.874v2.437H18.548Z" transform="translate(-6.364 -35.639)"/>
          <path id="Trazado_195236" data-name="Trazado 195236" d="M7.419,96.452H19.6v2.437H7.419Z" transform="translate(-2.546 -33.094)"/>
          <path id="Trazado_195237" data-name="Trazado 195237" d="M7.419,89.032H9.856v2.437H7.419Z" transform="translate(-2.546 -30.548)"/>
          <path id="Trazado_195238" data-name="Trazado 195238" d="M14.839,89.032h7.311v2.437H14.839Z" transform="translate(-5.091 -30.548)"/>
          <path id="Trazado_195239" data-name="Trazado 195239" d="M42.739,75.6H40.806v2.437h1.932a5.342,5.342,0,0,0,3.8-1.575l-1.724-1.723A2.922,2.922,0,0,1,42.739,75.6Z" transform="translate(-14.001 -25.643)"/>
          <path id="Trazado_195240" data-name="Trazado 195240" d="M38.152,48.226A12.2,12.2,0,0,0,25.968,60.41v9.172a10.094,10.094,0,0,0,3.812,7.869,7.81,7.81,0,0,0-.888,2.337l-.755,3.772H48.167l-.754-3.772a7.81,7.81,0,0,0-.888-2.337,10.093,10.093,0,0,0,3.811-7.869V60.41A12.2,12.2,0,0,0,38.152,48.226Zm-7.042,32.9.172-.857a5.439,5.439,0,0,1,2.927-3.8l3.944,3.945L42.1,76.464a5.437,5.437,0,0,1,2.927,3.8l.171.857Zm7.042-9.747A4.879,4.879,0,0,1,33.278,66.5V62.408a1.219,1.219,0,0,1,.98-1.194l3.013-.6a6.565,6.565,0,0,0,3.515,1.017h1.021a1.22,1.22,0,0,1,1.218,1.218V66.5A4.879,4.879,0,0,1,38.152,71.376Zm0,2.437a7.306,7.306,0,0,0,1.88-.253l.381,1.144-2.261,2.26L35.891,74.7l.381-1.144A7.254,7.254,0,0,0,38.152,73.813Zm9.747-4.23a7.644,7.644,0,0,1-2.891,5.962A7.842,7.842,0,0,0,42.781,74.1l-.518-1.555a7.31,7.31,0,0,0,3.2-6.041V62.847a3.66,3.66,0,0,0-3.655-3.655H40.786a4.129,4.129,0,0,1-2.866-1.155L37.913,58l-.027,0a4.118,4.118,0,0,1-1.015-1.633l-2.311.771a6.6,6.6,0,0,0,.656,1.4l-1.434.286a3.665,3.665,0,0,0-2.94,3.585V66.5a7.308,7.308,0,0,0,3.2,6.041L33.524,74.1A7.816,7.816,0,0,0,31.3,75.544,7.642,7.642,0,0,1,28.4,69.582V60.41a9.747,9.747,0,0,1,19.495,0Z" transform="translate(-8.91 -16.547)"/>
        </g>
      </g>
    </g>
    <g id="Trazado_196424" data-name="Trazado 196424" transform="translate(585 2767)" fill="none">
      <path d="M57.5,0A57.5,57.5,0,1,1,0,57.5,57.5,57.5,0,0,1,57.5,0Z" stroke="none"/>
      <path d="M 57.5 4 C 50.27577972412109 4 43.26978302001953 5.413978576660156 36.67662048339844 8.202651977539062 C 33.50738525390625 9.543128967285156 30.45034790039062 11.20247650146484 27.59043884277344 13.13459777832031 C 24.75665283203125 15.04905700683594 22.09176635742188 17.24781799316406 19.66978454589844 19.66978454589844 C 17.24781799316406 22.09176635742188 15.04905700683594 24.75665283203125 13.13459777832031 27.59043884277344 C 11.20247650146484 30.45034790039062 9.543128967285156 33.50738525390625 8.202651977539062 36.67662048339844 C 5.413978576660156 43.26978302001953 4 50.27577972412109 4 57.5 C 4 64.72421264648438 5.413978576660156 71.73021697998047 8.202651977539062 78.32337951660156 C 9.543128967285156 81.49261474609375 11.20247650146484 84.54965209960938 13.13459777832031 87.40956115722656 C 15.04905700683594 90.24334716796875 17.24781799316406 92.90823364257812 19.66978454589844 95.33021545410156 C 22.09176635742188 97.75218200683594 24.75665283203125 99.95094299316406 27.59043884277344 101.8654022216797 C 30.45034790039062 103.7975311279297 33.50738525390625 105.4568710327148 36.67662048339844 106.7973480224609 C 43.26978302001953 109.5860214233398 50.27577972412109 111 57.5 111 C 64.72421264648438 111 71.73021697998047 109.5860214233398 78.32337951660156 106.7973480224609 C 81.49261474609375 105.4568710327148 84.54965209960938 103.7975311279297 87.40956115722656 101.8654022216797 C 90.24334716796875 99.95094299316406 92.90823364257812 97.75218200683594 95.33021545410156 95.33021545410156 C 97.75218200683594 92.90823364257812 99.95094299316406 90.24334716796875 101.8654022216797 87.40956115722656 C 103.7975311279297 84.54965209960938 105.4568710327148 81.49261474609375 106.7973480224609 78.32337951660156 C 109.5860214233398 71.73021697998047 111 64.72421264648438 111 57.5 C 111 50.27577972412109 109.5860214233398 43.26978302001953 106.7973480224609 36.67662048339844 C 105.4568710327148 33.50738525390625 103.7975311279297 30.45034790039062 101.8654022216797 27.59043884277344 C 99.95094299316406 24.75665283203125 97.75218200683594 22.09176635742188 95.33021545410156 19.66978454589844 C 92.90823364257812 17.24781799316406 90.24334716796875 15.04905700683594 87.40956115722656 13.13459777832031 C 84.54965209960938 11.20247650146484 81.49261474609375 9.543128967285156 78.32337951660156 8.202651977539062 C 71.73021697998047 5.413978576660156 64.72421264648438 4 57.5 4 M 57.5 0 C 89.25636291503906 0 115 25.74363708496094 115 57.5 C 115 89.25636291503906 89.25636291503906 115 57.5 115 C 25.74363708496094 115 0 89.25636291503906 0 57.5 C 0 25.74363708496094 25.74363708496094 0 57.5 0 Z" stroke="none" fill="#fece10"/>
    </g>
    <g transform="matrix(1, 0, 0, 1, 487.33, 2698.94)" filter="url(#paris-4345139_1920-2)">
      <path id="paris-4345139_1920-4" data-name="paris-4345139_1920" d="M20,0H271a20,20,0,0,1,20,20V293.537a20,20,0,0,1-20,20H20a20,20,0,0,1-20-20V20A20,20,0,0,1,20,0Z" transform="translate(9 6)" fill="#438815"/>
    </g>
    <path id="Trazado_196422" data-name="Trazado 196422" d="M13.115,14.184a8.385,8.385,0,0,1-.771,3.682,5.7,5.7,0,0,1-2.192,2.466,6.1,6.1,0,0,1-3.237.864,6.191,6.191,0,0,1-3.223-.835A5.692,5.692,0,0,1,1.5,17.973a8.144,8.144,0,0,1-.825-3.564v-.8A8.422,8.422,0,0,1,1.44,9.921a5.688,5.688,0,0,1,2.2-2.466,6.147,6.147,0,0,1,3.257-.869,6.087,6.087,0,0,1,3.223.859,5.79,5.79,0,0,1,2.2,2.446,8.18,8.18,0,0,1,.8,3.638Zm-3.486-.6a5.979,5.979,0,0,0-.708-3.218,2.271,2.271,0,0,0-2.026-1.1q-2.578,0-2.725,3.867l-.01,1.045A6.149,6.149,0,0,0,4.854,17.4,2.268,2.268,0,0,0,6.914,18.52a2.24,2.24,0,0,0,2-1.1,5.982,5.982,0,0,0,.713-3.174Zm11.494-.176-1.084-.078a1.947,1.947,0,0,0-1.992.977V21H14.756V10.434h3.086l.107,1.357a2.548,2.548,0,0,1,2.314-1.553,3.209,3.209,0,0,1,.918.117Zm.771,2.227a6.455,6.455,0,0,1,1.084-3.955,3.568,3.568,0,0,1,3.027-1.445,3.035,3.035,0,0,1,2.383,1.113V6h3.3V21H28.73l-.166-1.133A3.116,3.116,0,0,1,25.986,21.2,3.562,3.562,0,0,1,23,19.75,6.659,6.659,0,0,1,21.895,15.639Zm3.291.205q0,2.813,1.641,2.813a1.62,1.62,0,0,0,1.563-.918V13.715a1.576,1.576,0,0,0-1.543-.937q-1.523,0-1.65,2.461ZM37.031,21h-3.3V10.434h3.3Zm-3.5-13.291a1.469,1.469,0,0,1,.508-1.152,2.159,2.159,0,0,1,2.637,0,1.469,1.469,0,0,1,.508,1.152,1.469,1.469,0,0,1-.508,1.152,2.159,2.159,0,0,1-2.637,0A1.469,1.469,0,0,1,33.535,7.709Zm8.545,2.725.107,1.24a3.583,3.583,0,0,1,3.018-1.436,3.015,3.015,0,0,1,2.466.986,4.7,4.7,0,0,1,.845,2.969V21h-3.3V14.33a1.783,1.783,0,0,0-.322-1.177,1.491,1.491,0,0,0-1.172-.376,1.569,1.569,0,0,0-1.436.762V21H38.994V10.434ZM56.289,21a3.716,3.716,0,0,1-.312-.947A3.06,3.06,0,0,1,53.438,21.2a3.749,3.749,0,0,1-2.539-.9,2.875,2.875,0,0,1-1.045-2.271,2.955,2.955,0,0,1,1.27-2.6,6.468,6.468,0,0,1,3.691-.879H55.83v-.559q0-1.462-1.26-1.462A1.03,1.03,0,0,0,53.4,13.681H50.107a2.95,2.95,0,0,1,1.3-2.487,5.479,5.479,0,0,1,3.325-.956,4.8,4.8,0,0,1,3.193.986,3.429,3.429,0,0,1,1.2,2.705v4.678a4.79,4.79,0,0,0,.449,2.227V21Zm-2.061-2.148a1.836,1.836,0,0,0,1.021-.264,1.653,1.653,0,0,0,.581-.6V16.3h-.957q-1.719,0-1.719,1.543a.942.942,0,0,0,.3.728A1.1,1.1,0,0,0,54.229,18.852ZM64.424,21h-3.3V6h3.3Z" transform="translate(607.679 2907.944)" fill="#fff"/>
    <path id="Trazado_196425" data-name="Trazado 196425" d="M57.5,0A57.5,57.5,0,1,1,0,57.5,57.5,57.5,0,0,1,57.5,0Z" transform="translate(585 2767)" fill="#fff"/>
    <g id="Enmascarar_grupo_144" data-name="Enmascarar grupo 144" transform="translate(10.042 208.721)" clip-path="url(#clip-path)">
      <g id="informacion-personal-2" data-name="informacion-personal" transform="translate(594.687 2578.008)">
        <g id="Grupo_131947" data-name="Grupo 131947" transform="translate(1.218 1.218)">
          <g id="Grupo_131935" data-name="Grupo 131935" transform="translate(8.529)">
            <path id="Trazado_196346" data-name="Trazado 196346" d="M63.576,1.855V16.476H62.357V7.947a1.222,1.222,0,0,0-1.218-1.218h-46.3V1.855Z" transform="translate(-14.839 -1.855)" fill="#f0d0b4"/>
          </g>
          <g id="Grupo_131936" data-name="Grupo 131936" transform="translate(6.092 4.874)">
            <path id="Trazado_196347" data-name="Trazado 196347" d="M61.084,10.493v8.529H32.6a1.222,1.222,0,0,1-1.1-.67l-1.755-3.533a1.222,1.222,0,0,0-1.1-.67H11.129V9.274H59.866a1.222,1.222,0,0,1,1.218,1.218Z" transform="translate(-11.129 -9.274)" fill="#e6e9ed"/>
          </g>
          <g id="Grupo_131937" data-name="Grupo 131937" transform="translate(0 26.805)">
            <path id="Trazado_196348" data-name="Trazado 196348" d="M1.855,87.743V42.661H53.029a12.173,12.173,0,0,0-4.874,9.747v8.98a14.419,14.419,0,0,0-2.437,8.078A14.607,14.607,0,0,0,62.776,83.88v3.862a1.222,1.222,0,0,1-1.218,1.218H3.073A1.222,1.222,0,0,1,1.855,87.743Z" transform="translate(-1.855 -42.661)" fill="#e6e9ed"/>
          </g>
          <g id="Grupo_131938" data-name="Grupo 131938" transform="translate(0 9.747)">
            <path id="Trazado_196349" data-name="Trazado 196349" d="M62.776,22.786v8.773a12.212,12.212,0,0,0-9.747,2.193H1.855V17.912a1.222,1.222,0,0,1,1.218-1.218H25.468a1.222,1.222,0,0,1,1.1.67L28.319,20.9a1.222,1.222,0,0,0,1.1.67H61.557A1.222,1.222,0,0,1,62.776,22.786Z" transform="translate(-1.855 -16.694)" fill="#5cd6b3"/>
          </g>
          <g id="Grupo_131939" data-name="Grupo 131939" transform="translate(17.058 31.679)">
            <path id="Trazado_196350" data-name="Trazado 196350" d="M32.7,67.139a6.1,6.1,0,0,0,3.448,5.5l-1.011,3.034a6.662,6.662,0,0,0-2.875,1.9,2.554,2.554,0,0,0-.171.207,8.835,8.835,0,0,1-4.264-7.554V61.046a10.966,10.966,0,0,1,21.932,0v9.175a8.835,8.835,0,0,1-4.264,7.554,6.509,6.509,0,0,0-3.046-2.108l-1.011-3.034L43.1,71.452a6.119,6.119,0,0,0,1.779-4.313V63.483a2.444,2.444,0,0,0-2.437-2.437H41.42a5.3,5.3,0,0,1-3.229-1.1l-3.533.707A2.438,2.438,0,0,0,32.7,63.045Z" transform="translate(-27.823 -50.081)" fill="#b27946"/>
          </g>
          <g id="Grupo_131940" data-name="Grupo 131940" transform="translate(19.495 57.266)">
            <path id="Trazado_196351" data-name="Trazado 196351" d="M40.061,92.688l3.655-3.655a6.509,6.509,0,0,1,3.046,2.108,6.6,6.6,0,0,1,1.365,2.888l.463,2.315H31.532L32,94.028A6.6,6.6,0,0,1,33.36,91.14a2.553,2.553,0,0,1,.171-.207,6.662,6.662,0,0,1,2.875-1.9Z" transform="translate(-31.532 -89.032)" fill="#ff826e"/>
          </g>
          <g id="Grupo_131941" data-name="Grupo 131941" transform="translate(24.368 54.232)">
            <path id="Trazado_196352" data-name="Trazado 196352" d="M39.963,84.414a6.153,6.153,0,0,0,5.288,0l1.011,3.034L42.607,91.1l-3.655-3.655Z" transform="translate(-38.952 -84.414)" fill="#f0d0b4"/>
          </g>
          <g id="Grupo_131942" data-name="Grupo 131942" transform="translate(21.932 41.548)">
            <path id="Trazado_196353" data-name="Trazado 196353" d="M45.647,76.607l-1.669,1.182a6.092,6.092,0,0,1-8.736-5.5V68.2A2.438,2.438,0,0,1,37.2,65.812l3.533-.707a5.3,5.3,0,0,0,3.229,1.1h1.023a2.444,2.444,0,0,1,2.437,2.437v3.655A6.119,6.119,0,0,1,45.647,76.607Z" transform="translate(-35.242 -65.105)" fill="#f0d0b4"/>
          </g>
          <g id="Grupo_131943" data-name="Grupo 131943" transform="translate(46.3 24.368)">
            <path id="Trazado_196354" data-name="Trazado 196354" d="M96.707,51.136V60.1a14.852,14.852,0,0,0-4.874-4.581V51.136a7.322,7.322,0,0,0-7.311-7.311,7.316,7.316,0,0,0-7.311,7.311v4.386a14.533,14.533,0,0,0-4.874,4.593v-8.98a12.184,12.184,0,0,1,24.368,0Z" transform="translate(-72.339 -38.952)" fill="#aab2bd"/>
          </g>
          <g id="Grupo_131944" data-name="Grupo 131944" transform="translate(43.863 38.989)">
            <path id="Trazado_196355" data-name="Trazado 196355" d="M90.561,63.159a14.852,14.852,0,0,1,4.874,4.581,14.623,14.623,0,1,1-26.805,8.09A14.634,14.634,0,0,1,90.561,63.159Z" transform="translate(-68.629 -61.21)" fill="#fcd770"/>
          </g>
          <g id="Grupo_131945" data-name="Grupo 131945" transform="translate(48.737 43.863)">
            <path id="Trazado_196356" data-name="Trazado 196356" d="M85.8,68.629a9.747,9.747,0,1,1-9.747,9.747A9.745,9.745,0,0,1,85.8,68.629Z" transform="translate(-76.048 -68.629)" fill="#ffeaa7"/>
          </g>
          <g id="Grupo_131946" data-name="Grupo 131946" transform="translate(56.047 48.737)">
            <circle id="Elipse_6338" data-name="Elipse 6338" cx="2.437" cy="2.437" r="2.437" fill="#5cd6b3"/>
          </g>
        </g>
        <g id="Grupo_131948" data-name="Grupo 131948">
          <path id="Trazado_196357" data-name="Trazado 196357" d="M88.978,74.194a3.646,3.646,0,0,0-1.218,7.086v5.1H90.2v-5.1a3.646,3.646,0,0,0-1.218-7.086Zm0,4.874A1.218,1.218,0,1,1,90.2,77.849,1.22,1.22,0,0,1,88.978,79.067Z" transform="translate(-29.275 -25.457)"/>
          <path id="Trazado_196358" data-name="Trazado 196358" d="M85.159,66.774A10.966,10.966,0,1,0,96.125,77.74,10.978,10.978,0,0,0,85.159,66.774Zm0,19.495a8.529,8.529,0,1,1,8.529-8.529A8.539,8.539,0,0,1,85.159,86.269Z" transform="translate(-25.457 -22.911)"/>
          <path id="Trazado_196359" data-name="Trazado 196359" d="M75.542,57.375a15.715,15.715,0,0,0-2.437-8.4V40.317a13.419,13.419,0,0,0-9.747-12.884V19.6a2.439,2.439,0,0,0-2.437-2.437H58.484V9.856a2.439,2.439,0,0,0-2.437-2.437H7.311V9.856H56.047v7.311H28.777l-1.763-3.527a2.425,2.425,0,0,0-2.18-1.346H2.437A2.439,2.439,0,0,0,0,14.73V75.651a2.439,2.439,0,0,0,2.437,2.437H60.921a2.439,2.439,0,0,0,2.437-2.437V72.772A15.857,15.857,0,0,0,75.542,57.375ZM70.668,40.317v5.655a15.9,15.9,0,0,0-2.437-1.923V40.317a8.529,8.529,0,1,0-17.058,0v3.732a15.9,15.9,0,0,0-2.437,1.923V40.317a10.966,10.966,0,1,1,21.932,0Zm-4.874,2.44a15.8,15.8,0,0,0-12.184,0v-2.44a6.092,6.092,0,0,1,12.184,0ZM24.834,14.73,26.6,18.257a2.425,2.425,0,0,0,2.18,1.346H60.921v7.373c-.4-.037-.807-.062-1.218-.062a13.318,13.318,0,0,0-7.682,2.437H2.437V14.73ZM60.921,75.651H2.437V31.788H49.372A13.341,13.341,0,0,0,46.3,40.317v8.656A15.809,15.809,0,0,0,59.7,73.214c.412,0,.815-.03,1.218-.062ZM59.7,70.777a13.4,13.4,0,1,1,13.4-13.4A13.418,13.418,0,0,1,59.7,70.777Z" transform="translate(0 -2.546)"/>
          <path id="Trazado_196360" data-name="Trazado 196360" d="M14.839,0H63.576V2.437H14.839Z" transform="translate(-5.091)"/>
          <path id="Trazado_196361" data-name="Trazado 196361" d="M11.129,25.968h2.437v4.874H11.129Z" transform="translate(-3.819 -8.91)"/>
          <path id="Trazado_196362" data-name="Trazado 196362" d="M18.548,25.968h2.437v4.874H18.548Z" transform="translate(-6.364 -8.91)"/>
          <path id="Trazado_196363" data-name="Trazado 196363" d="M25.968,25.968H28.4v4.874H25.968Z" transform="translate(-8.91 -8.91)"/>
          <path id="Trazado_196364" data-name="Trazado 196364" d="M7.419,103.871h4.874v2.437H7.419Z" transform="translate(-2.546 -35.639)"/>
          <path id="Trazado_196365" data-name="Trazado 196365" d="M18.548,103.871h4.874v2.437H18.548Z" transform="translate(-6.364 -35.639)"/>
          <path id="Trazado_196366" data-name="Trazado 196366" d="M7.419,96.452H19.6v2.437H7.419Z" transform="translate(-2.546 -33.094)"/>
          <path id="Trazado_196367" data-name="Trazado 196367" d="M7.419,89.032H9.856v2.437H7.419Z" transform="translate(-2.546 -30.548)"/>
          <path id="Trazado_196368" data-name="Trazado 196368" d="M14.839,89.032h7.311v2.437H14.839Z" transform="translate(-5.091 -30.548)"/>
          <path id="Trazado_196369" data-name="Trazado 196369" d="M42.739,75.6H40.806v2.437h1.932a5.342,5.342,0,0,0,3.8-1.575l-1.724-1.723A2.922,2.922,0,0,1,42.739,75.6Z" transform="translate(-14.001 -25.643)"/>
          <path id="Trazado_196370" data-name="Trazado 196370" d="M38.152,48.226A12.2,12.2,0,0,0,25.968,60.41v9.172a10.094,10.094,0,0,0,3.812,7.869,7.81,7.81,0,0,0-.888,2.337l-.755,3.772H48.167l-.754-3.772a7.81,7.81,0,0,0-.888-2.337,10.093,10.093,0,0,0,3.811-7.869V60.41A12.2,12.2,0,0,0,38.152,48.226Zm-7.042,32.9.172-.857a5.439,5.439,0,0,1,2.927-3.8l3.944,3.945L42.1,76.464a5.437,5.437,0,0,1,2.927,3.8l.171.857Zm7.042-9.747A4.879,4.879,0,0,1,33.278,66.5V62.408a1.219,1.219,0,0,1,.98-1.194l3.013-.6a6.565,6.565,0,0,0,3.515,1.017h1.021a1.22,1.22,0,0,1,1.218,1.218V66.5A4.879,4.879,0,0,1,38.152,71.376Zm0,2.437a7.306,7.306,0,0,0,1.88-.253l.381,1.144-2.261,2.26L35.891,74.7l.381-1.144A7.254,7.254,0,0,0,38.152,73.813Zm9.747-4.23a7.644,7.644,0,0,1-2.891,5.962A7.842,7.842,0,0,0,42.781,74.1l-.518-1.555a7.31,7.31,0,0,0,3.2-6.041V62.847a3.66,3.66,0,0,0-3.655-3.655H40.786a4.129,4.129,0,0,1-2.866-1.155L37.913,58l-.027,0a4.118,4.118,0,0,1-1.015-1.633l-2.311.771a6.6,6.6,0,0,0,.656,1.4l-1.434.286a3.665,3.665,0,0,0-2.94,3.585V66.5a7.308,7.308,0,0,0,3.2,6.041L33.524,74.1A7.816,7.816,0,0,0,31.3,75.544,7.642,7.642,0,0,1,28.4,69.582V60.41a9.747,9.747,0,0,1,19.495,0Z" transform="translate(-8.91 -16.547)"/>
        </g>
      </g>
    </g>
    <g id="Trazado_196426" data-name="Trazado 196426" transform="translate(585 2767)" fill="none">
      <path d="M57.5,0A57.5,57.5,0,1,1,0,57.5,57.5,57.5,0,0,1,57.5,0Z" stroke="none"/>
      <path d="M 57.5 4 C 50.27577972412109 4 43.26978302001953 5.413978576660156 36.67662048339844 8.202651977539062 C 33.50738525390625 9.543128967285156 30.45034790039062 11.20247650146484 27.59043884277344 13.13459777832031 C 24.75665283203125 15.04905700683594 22.09176635742188 17.24781799316406 19.66978454589844 19.66978454589844 C 17.24781799316406 22.09176635742188 15.04905700683594 24.75665283203125 13.13459777832031 27.59043884277344 C 11.20247650146484 30.45034790039062 9.543128967285156 33.50738525390625 8.202651977539062 36.67662048339844 C 5.413978576660156 43.26978302001953 4 50.27577972412109 4 57.5 C 4 64.72421264648438 5.413978576660156 71.73021697998047 8.202651977539062 78.32337951660156 C 9.543128967285156 81.49261474609375 11.20247650146484 84.54965209960938 13.13459777832031 87.40956115722656 C 15.04905700683594 90.24334716796875 17.24781799316406 92.90823364257812 19.66978454589844 95.33021545410156 C 22.09176635742188 97.75218200683594 24.75665283203125 99.95094299316406 27.59043884277344 101.8654022216797 C 30.45034790039062 103.7975311279297 33.50738525390625 105.4568710327148 36.67662048339844 106.7973480224609 C 43.26978302001953 109.5860214233398 50.27577972412109 111 57.5 111 C 64.72421264648438 111 71.73021697998047 109.5860214233398 78.32337951660156 106.7973480224609 C 81.49261474609375 105.4568710327148 84.54965209960938 103.7975311279297 87.40956115722656 101.8654022216797 C 90.24334716796875 99.95094299316406 92.90823364257812 97.75218200683594 95.33021545410156 95.33021545410156 C 97.75218200683594 92.90823364257812 99.95094299316406 90.24334716796875 101.8654022216797 87.40956115722656 C 103.7975311279297 84.54965209960938 105.4568710327148 81.49261474609375 106.7973480224609 78.32337951660156 C 109.5860214233398 71.73021697998047 111 64.72421264648438 111 57.5 C 111 50.27577972412109 109.5860214233398 43.26978302001953 106.7973480224609 36.67662048339844 C 105.4568710327148 33.50738525390625 103.7975311279297 30.45034790039062 101.8654022216797 27.59043884277344 C 99.95094299316406 24.75665283203125 97.75218200683594 22.09176635742188 95.33021545410156 19.66978454589844 C 92.90823364257812 17.24781799316406 90.24334716796875 15.04905700683594 87.40956115722656 13.13459777832031 C 84.54965209960938 11.20247650146484 81.49261474609375 9.543128967285156 78.32337951660156 8.202651977539062 C 71.73021697998047 5.413978576660156 64.72421264648438 4 57.5 4 M 57.5 0 C 89.25636291503906 0 115 25.74363708496094 115 57.5 C 115 89.25636291503906 89.25636291503906 115 57.5 115 C 25.74363708496094 115 0 89.25636291503906 0 57.5 C 0 25.74363708496094 25.74363708496094 0 57.5 0 Z" stroke="none" fill="#fece10"/>
    </g>
  </g>
</svg>
