<svg xmlns="http://www.w3.org/2000/svg" xmlns:xlink="http://www.w3.org/1999/xlink" width="309" height="331.537" viewBox="0 0 309 331.537">
  <defs>
    <filter id="paris-4345139_1920" x="0" y="0" width="309" height="331.537" filterUnits="userSpaceOnUse">
      <feOffset dy="3" input="SourceAlpha"/>
      <feGaussianBlur stdDeviation="3" result="blur"/>
      <feFlood flood-opacity="0.161"/>
      <feComposite operator="in" in2="blur"/>
      <feComposite in="SourceGraphic"/>
    </filter>
    <clipPath id="clip-path">
      <circle id="Elipse_6240" data-name="Elipse 6240" cx="55.821" cy="55.821" r="55.821" transform="translate(897.718 2561.038)" fill="#fece10" stroke="#fece10" stroke-width="13"/>
    </clipPath>
    <filter id="paris-4345139_1920-2" x="0" y="0" width="309" height="331.537" filterUnits="userSpaceOnUse">
      <feOffset dy="3" input="SourceAlpha"/>
      <feGaussianBlur stdDeviation="3" result="blur-2"/>
      <feFlood flood-opacity="0.161"/>
      <feComposite operator="in" in2="blur-2"/>
      <feComposite in="SourceGraphic"/>
    </filter>
  </defs>
  <g id="Grupo_131951" data-name="Grupo 131951" transform="translate(-802.464 -2698.944)">
    <g transform="matrix(1, 0, 0, 1, 802.46, 2698.94)" filter="url(#paris-4345139_1920)">
      <path id="paris-4345139_1920-3" data-name="paris-4345139_1920" d="M20,0H271a20,20,0,0,1,20,20V293.537a20,20,0,0,1-20,20H20a20,20,0,0,1-20-20V20A20,20,0,0,1,20,0Z" transform="translate(9 6)" fill="#438815"/>
    </g>
    <path id="Trazado_196427" data-name="Trazado 196427" d="M4.727,21H1.309V6.781H4.727ZM9.98,10.434l.107,1.24a3.583,3.583,0,0,1,3.018-1.436,3.015,3.015,0,0,1,2.466.986,4.7,4.7,0,0,1,.845,2.969V21h-3.3V14.33a1.783,1.783,0,0,0-.322-1.177,1.491,1.491,0,0,0-1.172-.376,1.569,1.569,0,0,0-1.436.762V21H6.895V10.434ZM22.07,7.807v2.627h1.738v2.285H22.07v4.834a1.234,1.234,0,0,0,.215.83,1.152,1.152,0,0,0,.85.234,4.828,4.828,0,0,0,.82-.059v2.354A6.074,6.074,0,0,1,22.1,21.2a3.448,3.448,0,0,1-2.51-.8,3.282,3.282,0,0,1-.811-2.432V12.719H17.432V10.434h1.348V7.807ZM30.215,21.2a5.432,5.432,0,0,1-3.936-1.45,5.008,5.008,0,0,1-1.5-3.774V15.7a6.489,6.489,0,0,1,.6-2.861,4.395,4.395,0,0,1,1.753-1.919,5.292,5.292,0,0,1,2.734-.679,4.574,4.574,0,0,1,3.516,1.382,5.43,5.43,0,0,1,1.289,3.853v1.279H28.125a2.372,2.372,0,0,0,.771,1.4,2.3,2.3,0,0,0,1.543.508,2.958,2.958,0,0,0,2.441-1.094l1.5,1.777a4.2,4.2,0,0,1-1.743,1.353A5.891,5.891,0,0,1,30.215,21.2Zm-.371-8.418q-1.445,0-1.719,1.914h3.32v-.254a1.63,1.63,0,0,0-.4-1.226A1.593,1.593,0,0,0,29.844,12.777Zm12.539.635L41.3,13.334a1.947,1.947,0,0,0-1.992.977V21H36.016V10.434H39.1l.107,1.357a2.548,2.548,0,0,1,2.314-1.553,3.209,3.209,0,0,1,.918.117Zm5.576,3.672,1.67-6.65H53.1L49.648,21H46.289L42.842,10.434h3.477ZM59.883,21a3.716,3.716,0,0,1-.312-.947A3.06,3.06,0,0,1,57.031,21.2a3.749,3.749,0,0,1-2.539-.9,2.875,2.875,0,0,1-1.045-2.271,2.955,2.955,0,0,1,1.27-2.6,6.468,6.468,0,0,1,3.691-.879h1.016v-.559q0-1.462-1.26-1.462a1.03,1.03,0,0,0-1.172,1.158H53.7A2.95,2.95,0,0,1,55,11.194a5.479,5.479,0,0,1,3.325-.956,4.8,4.8,0,0,1,3.193.986,3.429,3.429,0,0,1,1.2,2.705v4.678a4.79,4.79,0,0,0,.449,2.227V21Zm-2.061-2.148a1.836,1.836,0,0,0,1.021-.264,1.653,1.653,0,0,0,.581-.6V16.3h-.957q-1.719,0-1.719,1.543a.942.942,0,0,0,.3.728A1.1,1.1,0,0,0,57.822,18.852ZM68.018,21h-3.3V6h3.3Zm1.611-5.381a6.236,6.236,0,0,1,.615-2.817,4.4,4.4,0,0,1,1.768-1.9,5.323,5.323,0,0,1,2.705-.664,4.858,4.858,0,0,1,3.74,1.47,5.64,5.64,0,0,1,1.367,4v.117a5.472,5.472,0,0,1-1.372,3.921,4.871,4.871,0,0,1-3.716,1.45,4.927,4.927,0,0,1-3.623-1.353,5.29,5.29,0,0,1-1.475-3.667Zm3.291.205a3.932,3.932,0,0,0,.459,2.148,1.529,1.529,0,0,0,1.357.684q1.758,0,1.8-2.705v-.332q0-2.842-1.816-2.842-1.65,0-1.787,2.451Zm13.887,2.207a.76.76,0,0,0-.439-.674,6.684,6.684,0,0,0-1.67-.527,7.615,7.615,0,0,1-2.031-.718,3.4,3.4,0,0,1-1.221-1.079,2.577,2.577,0,0,1-.42-1.455,2.92,2.92,0,0,1,1.2-2.4,4.948,4.948,0,0,1,3.145-.942,5.482,5.482,0,0,1,3.359.947A2.962,2.962,0,0,1,90,13.676H86.7q0-1.27-1.338-1.27a1.326,1.326,0,0,0-.869.288.892.892,0,0,0-.352.718.819.819,0,0,0,.43.713,4.06,4.06,0,0,0,1.372.449,11.857,11.857,0,0,1,1.655.42,3.007,3.007,0,0,1,2.383,2.939A2.767,2.767,0,0,1,88.7,20.287a5.631,5.631,0,0,1-3.325.908,5.747,5.747,0,0,1-2.422-.488,4.05,4.05,0,0,1-1.66-1.328,3.007,3.007,0,0,1-.6-1.768H83.77a1.272,1.272,0,0,0,.488,1.069,2.009,2.009,0,0,0,1.2.337,1.58,1.58,0,0,0,1.011-.273A.875.875,0,0,0,86.807,18.031Z" transform="translate(910.679 2907.944)" fill="#fff"/>
    <path id="Trazado_196429" data-name="Trazado 196429" d="M57.5,0A57.5,57.5,0,1,1,0,57.5,57.5,57.5,0,0,1,57.5,0Z" transform="translate(900 2770)" fill="#fff"/>
    <g id="Enmascarar_grupo_134" data-name="Enmascarar grupo 134" transform="translate(4.282 210.961)" clip-path="url(#clip-path)">
      <g id="Web_Analysis" data-name="Web Analysis" transform="translate(917.718 2581.038)">
        <path id="Trazado_195241" data-name="Trazado 195241" d="M71.052,6.873v7.463H2.4V6.873A4.478,4.478,0,0,1,6.873,2.4h59.7A4.478,4.478,0,0,1,71.052,6.873Z" transform="translate(-0.903 -0.903)" fill="#6fabe6"/>
        <path id="Trazado_195242" data-name="Trazado 195242" d="M73.756,6.873v4.478h-59.7A4.478,4.478,0,0,1,9.577,6.873c0-2.985-.09-3.567.269-4.478H69.278A4.478,4.478,0,0,1,73.756,6.873Z" transform="translate(-3.607 -0.903)" fill="#82bcf4"/>
        <path id="Trazado_195243" data-name="Trazado 195243" d="M71.052,21.563c0,56.716.119,52.731-.269,53.731a4.478,4.478,0,0,1-4.209,2.985H6.873A4.478,4.478,0,0,1,2.4,73.8V21.563Z" transform="translate(-0.903 -8.13)" fill="#dad7e5" opacity="0.51"/>
        <path id="Trazado_195244" data-name="Trazado 195244" d="M73.762,21.563c0,56.716.119,52.731-.269,53.731H14.061a4.478,4.478,0,0,1-4.478-4.478V21.563Z" transform="translate(-3.613 -8.13)" fill="none"/>
        <path id="Trazado_195245" data-name="Trazado 195245" d="M78.395,65.548a10.448,10.448,0,1,1-5.489-9.2,10.448,10.448,0,0,1,5.489,9.2Z" transform="translate(-21.679 -20.773)" fill="#9fdbf3"/>
        <path id="Trazado_195246" data-name="Trazado 195246" d="M80.2,65.548a10.254,10.254,0,0,1-1.716,5.746,10.3,10.3,0,0,1-5.746,1.716A10.448,10.448,0,0,1,64,56.817,10.448,10.448,0,0,1,80.2,65.548Z" transform="translate(-23.483 -20.773)" fill="#b2e5fb"/>
        <path id="Trazado_195247" data-name="Trazado 195247" d="M95.2,89.817a2.985,2.985,0,0,1-5.09,2.1l-7.836-7.836a10.671,10.671,0,0,0,4.209-4.209C94.9,88.325,95.2,88.19,95.2,89.817Z" transform="translate(-31.02 -30.116)" fill="#374f68"/>
        <path id="Trazado_195248" data-name="Trazado 195248" d="M95.846,88.325a2.985,2.985,0,0,1-4.672.612L85.1,82.862a10.089,10.089,0,0,0,2.448-2.985C95.846,88.176,95.607,87.862,95.846,88.325Z" transform="translate(-32.086 -30.116)" fill="#425b72"/>
        <path id="Trazado_195249" data-name="Trazado 195249" d="M16.771,83.854h5.97v8.955h-5.97Z" transform="translate(-6.323 -31.616)" fill="#db5669"/>
        <path id="Trazado_195250" data-name="Trazado 195250" d="M24.548,83.854v5.97a2.985,2.985,0,0,1-2.985-2.985V83.854Z" transform="translate(-8.13 -31.616)" fill="#f26674"/>
        <path id="Trazado_195251" data-name="Trazado 195251" d="M26.354,71.875h5.97V88.293h-5.97Z" transform="translate(-9.936 -27.099)" fill="#fc6"/>
        <path id="Trazado_195252" data-name="Trazado 195252" d="M34.131,71.875V85.308a2.985,2.985,0,0,1-2.985-2.985V71.875Z" transform="translate(-11.743 -27.099)" fill="#ffde76"/>
        <path id="Trazado_195253" data-name="Trazado 195253" d="M35.938,79.063h5.97V91h-5.97Z" transform="translate(-13.55 -29.809)" fill="#9dcc6b"/>
        <path id="Trazado_195254" data-name="Trazado 195254" d="M43.714,79.063v8.955a2.985,2.985,0,0,1-2.985-2.985v-5.97Z" transform="translate(-15.356 -29.809)" fill="#b5e08c"/>
        <path id="Trazado_195255" data-name="Trazado 195255" d="M65.671,0H5.97A5.97,5.97,0,0,0,0,5.97v59.7a5.97,5.97,0,0,0,5.97,5.97h59.7a5.97,5.97,0,0,0,5.97-5.97V5.97A5.97,5.97,0,0,0,65.671,0ZM2.985,5.97A2.985,2.985,0,0,1,5.97,2.985h59.7A2.985,2.985,0,0,1,68.656,5.97v5.97H2.985Zm65.671,59.7a2.985,2.985,0,0,1-2.985,2.985H5.97a2.985,2.985,0,0,1-2.985-2.985V14.925H68.656Z" transform="translate(0)"/>
        <path id="Trazado_195256" data-name="Trazado 195256" d="M14.536,10.016a1.493,1.493,0,1,0,.135,1.963A1.493,1.493,0,0,0,14.536,10.016Z" transform="translate(-4.521 -3.613)"/>
        <path id="Trazado_195257" data-name="Trazado 195257" d="M21.995,10.011a1.493,1.493,0,1,0,1.632-.327A1.493,1.493,0,0,0,21.995,10.011Z" transform="translate(-8.129 -3.608)"/>
        <path id="Trazado_195258" data-name="Trazado 195258" d="M32.071,9.707a1.493,1.493,0,1,0,1.4.139A1.493,1.493,0,0,0,32.071,9.707Z" transform="translate(-11.743 -3.618)"/>
        <path id="Trazado_195259" data-name="Trazado 195259" d="M71.714,75.632,78.8,82.721a4.478,4.478,0,1,0,6.328-6.313l-7.1-7.089a11.94,11.94,0,1,0-6.313,6.313Zm11.3,2.9a1.493,1.493,0,0,1-2.09,2.09l-6.567-6.552a11.7,11.7,0,0,0,2.1-2.1ZM67.043,55.692a8.955,8.955,0,1,1-8.955,8.955,8.955,8.955,0,0,1,8.955-8.955Z" transform="translate(-20.775 -19.871)"/>
        <path id="Trazado_195260" data-name="Trazado 195260" d="M11.074,53.848c.746,0,.254.239,9.06-7.089l3.552,2.358a1.493,1.493,0,0,0,1.881-.179l7.9-7.91V43.4a1.493,1.493,0,1,0,2.985,0c0-6.448,0-6.149-.119-6.537a1.493,1.493,0,0,0-1.373-.925h-5.97a1.493,1.493,0,0,0,0,2.985h2.373l-7.045,7.03-3.463-2.3a1.493,1.493,0,0,0-1.776.09l-8.955,7.463a1.493,1.493,0,0,0,.955,2.642Z" transform="translate(-3.611 -13.55)"/>
        <path id="Trazado_195261" data-name="Trazado 195261" d="M33.778,73.957H29.3V70.972a1.493,1.493,0,0,0-1.493-1.493h-5.97a1.493,1.493,0,0,0-1.493,1.493v5.97H15.868a1.493,1.493,0,0,0-1.493,1.493v8.955a1.493,1.493,0,0,0,1.493,1.493h17.91a1.493,1.493,0,0,0,1.493-1.493V75.449A1.493,1.493,0,0,0,33.778,73.957ZM17.36,79.927h2.985V85.9H17.36Zm5.97-7.463h2.985V85.9H23.33ZM32.285,85.9H29.3V76.942h2.985Z" transform="translate(-5.42 -26.196)"/>
        <path id="Trazado_195262" data-name="Trazado 195262" d="M66.18,34.131h20.9a1.493,1.493,0,0,0,0-2.985H66.18a1.493,1.493,0,0,0,0,2.985Z" transform="translate(-24.389 -11.743)"/>
        <path id="Trazado_195263" data-name="Trazado 195263" d="M66.18,43.714H79.613a1.493,1.493,0,0,0,0-2.985H66.18a1.493,1.493,0,1,0,0,2.985Z" transform="translate(-24.389 -15.356)"/>
      </g>
    </g>
    <g id="Trazado_196430" data-name="Trazado 196430" transform="translate(900 2770)" fill="none">
      <path d="M57.5,0A57.5,57.5,0,1,1,0,57.5,57.5,57.5,0,0,1,57.5,0Z" stroke="none"/>
      <path d="M 57.5 4 C 50.27577972412109 4 43.26978302001953 5.413978576660156 36.67662048339844 8.202651977539062 C 33.50738525390625 9.543128967285156 30.45034790039062 11.20247650146484 27.59043884277344 13.13459777832031 C 24.75665283203125 15.04905700683594 22.09176635742188 17.24781799316406 19.66978454589844 19.66978454589844 C 17.24781799316406 22.09176635742188 15.04905700683594 24.75665283203125 13.13459777832031 27.59043884277344 C 11.20247650146484 30.45034790039062 9.543128967285156 33.50738525390625 8.202651977539062 36.67662048339844 C 5.413978576660156 43.26978302001953 4 50.27577972412109 4 57.5 C 4 64.72421264648438 5.413978576660156 71.73021697998047 8.202651977539062 78.32337951660156 C 9.543128967285156 81.49261474609375 11.20247650146484 84.54965209960938 13.13459777832031 87.40956115722656 C 15.04905700683594 90.24334716796875 17.24781799316406 92.90823364257812 19.66978454589844 95.33021545410156 C 22.09176635742188 97.75218200683594 24.75665283203125 99.95094299316406 27.59043884277344 101.8654022216797 C 30.45034790039062 103.7975311279297 33.50738525390625 105.4568710327148 36.67662048339844 106.7973480224609 C 43.26978302001953 109.5860214233398 50.27577972412109 111 57.5 111 C 64.72421264648438 111 71.73021697998047 109.5860214233398 78.32337951660156 106.7973480224609 C 81.49261474609375 105.4568710327148 84.54965209960938 103.7975311279297 87.40956115722656 101.8654022216797 C 90.24334716796875 99.95094299316406 92.90823364257812 97.75218200683594 95.33021545410156 95.33021545410156 C 97.75218200683594 92.90823364257812 99.95094299316406 90.24334716796875 101.8654022216797 87.40956115722656 C 103.7975311279297 84.54965209960938 105.4568710327148 81.49261474609375 106.7973480224609 78.32337951660156 C 109.5860214233398 71.73021697998047 111 64.72421264648438 111 57.5 C 111 50.27577972412109 109.5860214233398 43.26978302001953 106.7973480224609 36.67662048339844 C 105.4568710327148 33.50738525390625 103.7975311279297 30.45034790039062 101.8654022216797 27.59043884277344 C 99.95094299316406 24.75665283203125 97.75218200683594 22.09176635742188 95.33021545410156 19.66978454589844 C 92.90823364257812 17.24781799316406 90.24334716796875 15.04905700683594 87.40956115722656 13.13459777832031 C 84.54965209960938 11.20247650146484 81.49261474609375 9.543128967285156 78.32337951660156 8.202651977539062 C 71.73021697998047 5.413978576660156 64.72421264648438 4 57.5 4 M 57.5 0 C 89.25636291503906 0 115 25.74363708496094 115 57.5 C 115 89.25636291503906 89.25636291503906 115 57.5 115 C 25.74363708496094 115 0 89.25636291503906 0 57.5 C 0 25.74363708496094 25.74363708496094 0 57.5 0 Z" stroke="none" fill="#fece10"/>
    </g>
    <g transform="matrix(1, 0, 0, 1, 802.46, 2698.94)" filter="url(#paris-4345139_1920-2)">
      <path id="paris-4345139_1920-4" data-name="paris-4345139_1920" d="M20,0H271a20,20,0,0,1,20,20V293.537a20,20,0,0,1-20,20H20a20,20,0,0,1-20-20V20A20,20,0,0,1,20,0Z" transform="translate(9 6)" fill="#438815"/>
    </g>
    <path id="Trazado_196428" data-name="Trazado 196428" d="M4.727,21H1.309V6.781H4.727ZM9.98,10.434l.107,1.24a3.583,3.583,0,0,1,3.018-1.436,3.015,3.015,0,0,1,2.466.986,4.7,4.7,0,0,1,.845,2.969V21h-3.3V14.33a1.783,1.783,0,0,0-.322-1.177,1.491,1.491,0,0,0-1.172-.376,1.569,1.569,0,0,0-1.436.762V21H6.895V10.434ZM22.07,7.807v2.627h1.738v2.285H22.07v4.834a1.234,1.234,0,0,0,.215.83,1.152,1.152,0,0,0,.85.234,4.828,4.828,0,0,0,.82-.059v2.354A6.074,6.074,0,0,1,22.1,21.2a3.448,3.448,0,0,1-2.51-.8,3.282,3.282,0,0,1-.811-2.432V12.719H17.432V10.434h1.348V7.807ZM30.215,21.2a5.432,5.432,0,0,1-3.936-1.45,5.008,5.008,0,0,1-1.5-3.774V15.7a6.489,6.489,0,0,1,.6-2.861,4.395,4.395,0,0,1,1.753-1.919,5.292,5.292,0,0,1,2.734-.679,4.574,4.574,0,0,1,3.516,1.382,5.43,5.43,0,0,1,1.289,3.853v1.279H28.125a2.372,2.372,0,0,0,.771,1.4,2.3,2.3,0,0,0,1.543.508,2.958,2.958,0,0,0,2.441-1.094l1.5,1.777a4.2,4.2,0,0,1-1.743,1.353A5.891,5.891,0,0,1,30.215,21.2Zm-.371-8.418q-1.445,0-1.719,1.914h3.32v-.254a1.63,1.63,0,0,0-.4-1.226A1.593,1.593,0,0,0,29.844,12.777Zm12.539.635L41.3,13.334a1.947,1.947,0,0,0-1.992.977V21H36.016V10.434H39.1l.107,1.357a2.548,2.548,0,0,1,2.314-1.553,3.209,3.209,0,0,1,.918.117Zm5.576,3.672,1.67-6.65H53.1L49.648,21H46.289L42.842,10.434h3.477ZM59.883,21a3.716,3.716,0,0,1-.312-.947A3.06,3.06,0,0,1,57.031,21.2a3.749,3.749,0,0,1-2.539-.9,2.875,2.875,0,0,1-1.045-2.271,2.955,2.955,0,0,1,1.27-2.6,6.468,6.468,0,0,1,3.691-.879h1.016v-.559q0-1.462-1.26-1.462a1.03,1.03,0,0,0-1.172,1.158H53.7A2.95,2.95,0,0,1,55,11.194a5.479,5.479,0,0,1,3.325-.956,4.8,4.8,0,0,1,3.193.986,3.429,3.429,0,0,1,1.2,2.705v4.678a4.79,4.79,0,0,0,.449,2.227V21Zm-2.061-2.148a1.836,1.836,0,0,0,1.021-.264,1.653,1.653,0,0,0,.581-.6V16.3h-.957q-1.719,0-1.719,1.543a.942.942,0,0,0,.3.728A1.1,1.1,0,0,0,57.822,18.852ZM68.018,21h-3.3V6h3.3Zm1.611-5.381a6.236,6.236,0,0,1,.615-2.817,4.4,4.4,0,0,1,1.768-1.9,5.323,5.323,0,0,1,2.705-.664,4.858,4.858,0,0,1,3.74,1.47,5.64,5.64,0,0,1,1.367,4v.117a5.472,5.472,0,0,1-1.372,3.921,4.871,4.871,0,0,1-3.716,1.45,4.927,4.927,0,0,1-3.623-1.353,5.29,5.29,0,0,1-1.475-3.667Zm3.291.205a3.932,3.932,0,0,0,.459,2.148,1.529,1.529,0,0,0,1.357.684q1.758,0,1.8-2.705v-.332q0-2.842-1.816-2.842-1.65,0-1.787,2.451Zm13.887,2.207a.76.76,0,0,0-.439-.674,6.684,6.684,0,0,0-1.67-.527,7.615,7.615,0,0,1-2.031-.718,3.4,3.4,0,0,1-1.221-1.079,2.577,2.577,0,0,1-.42-1.455,2.92,2.92,0,0,1,1.2-2.4,4.948,4.948,0,0,1,3.145-.942,5.482,5.482,0,0,1,3.359.947A2.962,2.962,0,0,1,90,13.676H86.7q0-1.27-1.338-1.27a1.326,1.326,0,0,0-.869.288.892.892,0,0,0-.352.718.819.819,0,0,0,.43.713,4.06,4.06,0,0,0,1.372.449,11.857,11.857,0,0,1,1.655.42,3.007,3.007,0,0,1,2.383,2.939A2.767,2.767,0,0,1,88.7,20.287a5.631,5.631,0,0,1-3.325.908,5.747,5.747,0,0,1-2.422-.488,4.05,4.05,0,0,1-1.66-1.328,3.007,3.007,0,0,1-.6-1.768H83.77a1.272,1.272,0,0,0,.488,1.069,2.009,2.009,0,0,0,1.2.337,1.58,1.58,0,0,0,1.011-.273A.875.875,0,0,0,86.807,18.031Z" transform="translate(910.679 2907.944)" fill="#fff"/>
    <path id="Trazado_196431" data-name="Trazado 196431" d="M57.5,0A57.5,57.5,0,1,1,0,57.5,57.5,57.5,0,0,1,57.5,0Z" transform="translate(900 2770)" fill="#fff"/>
    <g id="Enmascarar_grupo_145" data-name="Enmascarar grupo 145" transform="translate(4.282 210.961)" clip-path="url(#clip-path)">
      <g id="Web_Analysis-2" data-name="Web Analysis" transform="translate(917.718 2581.038)">
        <path id="Trazado_196371" data-name="Trazado 196371" d="M71.052,6.873v7.463H2.4V6.873A4.478,4.478,0,0,1,6.873,2.4h59.7A4.478,4.478,0,0,1,71.052,6.873Z" transform="translate(-0.903 -0.903)" fill="#6fabe6"/>
        <path id="Trazado_196372" data-name="Trazado 196372" d="M73.756,6.873v4.478h-59.7A4.478,4.478,0,0,1,9.577,6.873c0-2.985-.09-3.567.269-4.478H69.278A4.478,4.478,0,0,1,73.756,6.873Z" transform="translate(-3.607 -0.903)" fill="#82bcf4"/>
        <path id="Trazado_196373" data-name="Trazado 196373" d="M71.052,21.563c0,56.716.119,52.731-.269,53.731a4.478,4.478,0,0,1-4.209,2.985H6.873A4.478,4.478,0,0,1,2.4,73.8V21.563Z" transform="translate(-0.903 -8.13)" fill="#dad7e5" opacity="0.51"/>
        <path id="Trazado_196374" data-name="Trazado 196374" d="M73.762,21.563c0,56.716.119,52.731-.269,53.731H14.061a4.478,4.478,0,0,1-4.478-4.478V21.563Z" transform="translate(-3.613 -8.13)" fill="none"/>
        <path id="Trazado_196375" data-name="Trazado 196375" d="M78.395,65.548a10.448,10.448,0,1,1-5.489-9.2,10.448,10.448,0,0,1,5.489,9.2Z" transform="translate(-21.679 -20.773)" fill="#9fdbf3"/>
        <path id="Trazado_196376" data-name="Trazado 196376" d="M80.2,65.548a10.254,10.254,0,0,1-1.716,5.746,10.3,10.3,0,0,1-5.746,1.716A10.448,10.448,0,0,1,64,56.817,10.448,10.448,0,0,1,80.2,65.548Z" transform="translate(-23.483 -20.773)" fill="#b2e5fb"/>
        <path id="Trazado_196377" data-name="Trazado 196377" d="M95.2,89.817a2.985,2.985,0,0,1-5.09,2.1l-7.836-7.836a10.671,10.671,0,0,0,4.209-4.209C94.9,88.325,95.2,88.19,95.2,89.817Z" transform="translate(-31.02 -30.116)" fill="#374f68"/>
        <path id="Trazado_196378" data-name="Trazado 196378" d="M95.846,88.325a2.985,2.985,0,0,1-4.672.612L85.1,82.862a10.089,10.089,0,0,0,2.448-2.985C95.846,88.176,95.607,87.862,95.846,88.325Z" transform="translate(-32.086 -30.116)" fill="#425b72"/>
        <path id="Trazado_196379" data-name="Trazado 196379" d="M16.771,83.854h5.97v8.955h-5.97Z" transform="translate(-6.323 -31.616)" fill="#db5669"/>
        <path id="Trazado_196380" data-name="Trazado 196380" d="M24.548,83.854v5.97a2.985,2.985,0,0,1-2.985-2.985V83.854Z" transform="translate(-8.13 -31.616)" fill="#f26674"/>
        <path id="Trazado_196381" data-name="Trazado 196381" d="M26.354,71.875h5.97V88.293h-5.97Z" transform="translate(-9.936 -27.099)" fill="#fc6"/>
        <path id="Trazado_196382" data-name="Trazado 196382" d="M34.131,71.875V85.308a2.985,2.985,0,0,1-2.985-2.985V71.875Z" transform="translate(-11.743 -27.099)" fill="#ffde76"/>
        <path id="Trazado_196383" data-name="Trazado 196383" d="M35.938,79.063h5.97V91h-5.97Z" transform="translate(-13.55 -29.809)" fill="#9dcc6b"/>
        <path id="Trazado_196384" data-name="Trazado 196384" d="M43.714,79.063v8.955a2.985,2.985,0,0,1-2.985-2.985v-5.97Z" transform="translate(-15.356 -29.809)" fill="#b5e08c"/>
        <path id="Trazado_196385" data-name="Trazado 196385" d="M65.671,0H5.97A5.97,5.97,0,0,0,0,5.97v59.7a5.97,5.97,0,0,0,5.97,5.97h59.7a5.97,5.97,0,0,0,5.97-5.97V5.97A5.97,5.97,0,0,0,65.671,0ZM2.985,5.97A2.985,2.985,0,0,1,5.97,2.985h59.7A2.985,2.985,0,0,1,68.656,5.97v5.97H2.985Zm65.671,59.7a2.985,2.985,0,0,1-2.985,2.985H5.97a2.985,2.985,0,0,1-2.985-2.985V14.925H68.656Z" transform="translate(0)"/>
        <path id="Trazado_196386" data-name="Trazado 196386" d="M14.536,10.016a1.493,1.493,0,1,0,.135,1.963A1.493,1.493,0,0,0,14.536,10.016Z" transform="translate(-4.521 -3.613)"/>
        <path id="Trazado_196387" data-name="Trazado 196387" d="M21.995,10.011a1.493,1.493,0,1,0,1.632-.327A1.493,1.493,0,0,0,21.995,10.011Z" transform="translate(-8.129 -3.608)"/>
        <path id="Trazado_196388" data-name="Trazado 196388" d="M32.071,9.707a1.493,1.493,0,1,0,1.4.139A1.493,1.493,0,0,0,32.071,9.707Z" transform="translate(-11.743 -3.618)"/>
        <path id="Trazado_196389" data-name="Trazado 196389" d="M71.714,75.632,78.8,82.721a4.478,4.478,0,1,0,6.328-6.313l-7.1-7.089a11.94,11.94,0,1,0-6.313,6.313Zm11.3,2.9a1.493,1.493,0,0,1-2.09,2.09l-6.567-6.552a11.7,11.7,0,0,0,2.1-2.1ZM67.043,55.692a8.955,8.955,0,1,1-8.955,8.955,8.955,8.955,0,0,1,8.955-8.955Z" transform="translate(-20.775 -19.871)"/>
        <path id="Trazado_196390" data-name="Trazado 196390" d="M11.074,53.848c.746,0,.254.239,9.06-7.089l3.552,2.358a1.493,1.493,0,0,0,1.881-.179l7.9-7.91V43.4a1.493,1.493,0,1,0,2.985,0c0-6.448,0-6.149-.119-6.537a1.493,1.493,0,0,0-1.373-.925h-5.97a1.493,1.493,0,0,0,0,2.985h2.373l-7.045,7.03-3.463-2.3a1.493,1.493,0,0,0-1.776.09l-8.955,7.463a1.493,1.493,0,0,0,.955,2.642Z" transform="translate(-3.611 -13.55)"/>
        <path id="Trazado_196391" data-name="Trazado 196391" d="M33.778,73.957H29.3V70.972a1.493,1.493,0,0,0-1.493-1.493h-5.97a1.493,1.493,0,0,0-1.493,1.493v5.97H15.868a1.493,1.493,0,0,0-1.493,1.493v8.955a1.493,1.493,0,0,0,1.493,1.493h17.91a1.493,1.493,0,0,0,1.493-1.493V75.449A1.493,1.493,0,0,0,33.778,73.957ZM17.36,79.927h2.985V85.9H17.36Zm5.97-7.463h2.985V85.9H23.33ZM32.285,85.9H29.3V76.942h2.985Z" transform="translate(-5.42 -26.196)"/>
        <path id="Trazado_196392" data-name="Trazado 196392" d="M66.18,34.131h20.9a1.493,1.493,0,0,0,0-2.985H66.18a1.493,1.493,0,0,0,0,2.985Z" transform="translate(-24.389 -11.743)"/>
        <path id="Trazado_196393" data-name="Trazado 196393" d="M66.18,43.714H79.613a1.493,1.493,0,0,0,0-2.985H66.18a1.493,1.493,0,1,0,0,2.985Z" transform="translate(-24.389 -15.356)"/>
      </g>
    </g>
    <g id="Trazado_196432" data-name="Trazado 196432" transform="translate(900 2770)" fill="none">
      <path d="M57.5,0A57.5,57.5,0,1,1,0,57.5,57.5,57.5,0,0,1,57.5,0Z" stroke="none"/>
      <path d="M 57.5 4 C 50.27577972412109 4 43.26978302001953 5.413978576660156 36.67662048339844 8.202651977539062 C 33.50738525390625 9.543128967285156 30.45034790039062 11.20247650146484 27.59043884277344 13.13459777832031 C 24.75665283203125 15.04905700683594 22.09176635742188 17.24781799316406 19.66978454589844 19.66978454589844 C 17.24781799316406 22.09176635742188 15.04905700683594 24.75665283203125 13.13459777832031 27.59043884277344 C 11.20247650146484 30.45034790039062 9.543128967285156 33.50738525390625 8.202651977539062 36.67662048339844 C 5.413978576660156 43.26978302001953 4 50.27577972412109 4 57.5 C 4 64.72421264648438 5.413978576660156 71.73021697998047 8.202651977539062 78.32337951660156 C 9.543128967285156 81.49261474609375 11.20247650146484 84.54965209960938 13.13459777832031 87.40956115722656 C 15.04905700683594 90.24334716796875 17.24781799316406 92.90823364257812 19.66978454589844 95.33021545410156 C 22.09176635742188 97.75218200683594 24.75665283203125 99.95094299316406 27.59043884277344 101.8654022216797 C 30.45034790039062 103.7975311279297 33.50738525390625 105.4568710327148 36.67662048339844 106.7973480224609 C 43.26978302001953 109.5860214233398 50.27577972412109 111 57.5 111 C 64.72421264648438 111 71.73021697998047 109.5860214233398 78.32337951660156 106.7973480224609 C 81.49261474609375 105.4568710327148 84.54965209960938 103.7975311279297 87.40956115722656 101.8654022216797 C 90.24334716796875 99.95094299316406 92.90823364257812 97.75218200683594 95.33021545410156 95.33021545410156 C 97.75218200683594 92.90823364257812 99.95094299316406 90.24334716796875 101.8654022216797 87.40956115722656 C 103.7975311279297 84.54965209960938 105.4568710327148 81.49261474609375 106.7973480224609 78.32337951660156 C 109.5860214233398 71.73021697998047 111 64.72421264648438 111 57.5 C 111 50.27577972412109 109.5860214233398 43.26978302001953 106.7973480224609 36.67662048339844 C 105.4568710327148 33.50738525390625 103.7975311279297 30.45034790039062 101.8654022216797 27.59043884277344 C 99.95094299316406 24.75665283203125 97.75218200683594 22.09176635742188 95.33021545410156 19.66978454589844 C 92.90823364257812 17.24781799316406 90.24334716796875 15.04905700683594 87.40956115722656 13.13459777832031 C 84.54965209960938 11.20247650146484 81.49261474609375 9.543128967285156 78.32337951660156 8.202651977539062 C 71.73021697998047 5.413978576660156 64.72421264648438 4 57.5 4 M 57.5 0 C 89.25636291503906 0 115 25.74363708496094 115 57.5 C 115 89.25636291503906 89.25636291503906 115 57.5 115 C 25.74363708496094 115 0 89.25636291503906 0 57.5 C 0 25.74363708496094 25.74363708496094 0 57.5 0 Z" stroke="none" fill="#fece10"/>
    </g>
  </g>
</svg>
