<svg xmlns="http://www.w3.org/2000/svg" xmlns:xlink="http://www.w3.org/1999/xlink" width="309" height="331.537" viewBox="0 0 309 331.537">
  <defs>
    <filter id="paris-4345139_1920" x="0" y="0" width="309" height="331.537" filterUnits="userSpaceOnUse">
      <feOffset dy="3" input="SourceAlpha"/>
      <feGaussianBlur stdDeviation="3" result="blur"/>
      <feFlood flood-opacity="0.161"/>
      <feComposite operator="in" in2="blur"/>
      <feComposite in="SourceGraphic"/>
    </filter>
    <clipPath id="clip-path">
      <circle id="Elipse_6091" data-name="Elipse 6091" cx="54.5" cy="54.5" r="54.5" transform="translate(1208.359 2558.679)" fill="#fece10" stroke="#fece10" stroke-width="13"/>
    </clipPath>
    <filter id="paris-4345139_1920-2" x="0" y="0" width="309" height="331.537" filterUnits="userSpaceOnUse">
      <feOffset dy="3" input="SourceAlpha"/>
      <feGaussianBlur stdDeviation="3" result="blur-2"/>
      <feFlood flood-opacity="0.161"/>
      <feComposite operator="in" in2="blur-2"/>
      <feComposite in="SourceGraphic"/>
    </filter>
  </defs>
  <g id="Grupo_131952" data-name="Grupo 131952" transform="translate(-1120 -2698.944)">
    <g transform="matrix(1, 0, 0, 1, 1120, 2698.94)" filter="url(#paris-4345139_1920)">
      <path id="paris-4345139_1920-3" data-name="paris-4345139_1920" d="M20,0H271a20,20,0,0,1,20,20V293.537a20,20,0,0,1-20,20H20a20,20,0,0,1-20-20V20A20,20,0,0,1,20,0Z" transform="translate(9 6)" fill="#438815"/>
    </g>
    <path id="Trazado_196433" data-name="Trazado 196433" d="M27.177,16.176V21H23.749V6.781h5.674a6.608,6.608,0,0,1,2.886.6,4.526,4.526,0,0,1,1.943,1.709,4.667,4.667,0,0,1,.688,2.515,4.114,4.114,0,0,1-1.489,3.325,6.179,6.179,0,0,1-4.087,1.245Zm0-2.646h2.246a2.118,2.118,0,0,0,1.519-.5,1.85,1.85,0,0,0,.522-1.406,2.287,2.287,0,0,0-.537-1.592,1.9,1.9,0,0,0-1.465-.605H27.177Zm15.83-.117-1.084-.078a1.947,1.947,0,0,0-1.992.977V21H36.64V10.434h3.086l.107,1.357a2.548,2.548,0,0,1,2.314-1.553,3.209,3.209,0,0,1,.918.117Zm.42,2.207a6.236,6.236,0,0,1,.615-2.817,4.4,4.4,0,0,1,1.768-1.9,5.323,5.323,0,0,1,2.705-.664,4.858,4.858,0,0,1,3.74,1.47,5.64,5.64,0,0,1,1.367,4v.117a5.472,5.472,0,0,1-1.372,3.921,4.871,4.871,0,0,1-3.716,1.45,4.927,4.927,0,0,1-3.623-1.353,5.29,5.29,0,0,1-1.475-3.667Zm3.291.205a3.932,3.932,0,0,0,.459,2.148,1.529,1.529,0,0,0,1.357.684q1.758,0,1.8-2.705v-.332q0-2.842-1.816-2.842-1.65,0-1.787,2.451Zm18.164-.029a6.372,6.372,0,0,1-1.108,3.931A3.554,3.554,0,0,1,60.78,21.2a3.046,3.046,0,0,1-2.393-1.064v4.932H55.1V10.434h3.076l.1.977a3.046,3.046,0,0,1,2.49-1.172,3.582,3.582,0,0,1,3.037,1.44,6.45,6.45,0,0,1,1.084,3.96Zm-3.291-.205q0-2.812-1.641-2.812a1.549,1.549,0,0,0-1.562.84v4.16a1.6,1.6,0,0,0,1.582.879q1.572,0,1.621-2.715Zm4.326.029a6.236,6.236,0,0,1,.615-2.817A4.4,4.4,0,0,1,68.3,10.9,5.323,5.323,0,0,1,71,10.238a4.858,4.858,0,0,1,3.74,1.47,5.64,5.64,0,0,1,1.367,4v.117a5.472,5.472,0,0,1-1.372,3.921,4.871,4.871,0,0,1-3.716,1.45A4.927,4.927,0,0,1,67.4,19.843a5.29,5.29,0,0,1-1.475-3.667Zm3.291.205a3.932,3.932,0,0,0,.459,2.148,1.529,1.529,0,0,0,1.357.684q1.758,0,1.8-2.705v-.332q0-2.842-1.816-2.842-1.65,0-1.787,2.451Zm14.746-2.412-1.084-.078a1.947,1.947,0,0,0-1.992.977V21H77.587V10.434h3.086l.107,1.357a2.548,2.548,0,0,1,2.314-1.553,3.209,3.209,0,0,1,.918.117Zm5.469,5.244A1.464,1.464,0,0,0,90.5,18.28a1.379,1.379,0,0,0,.371-1.05h3.086a3.653,3.653,0,0,1-1.245,2.852A4.631,4.631,0,0,1,89.5,21.2a4.689,4.689,0,0,1-3.633-1.445,5.7,5.7,0,0,1-1.328-4v-.137a6.436,6.436,0,0,1,.591-2.827,4.3,4.3,0,0,1,1.7-1.885,5.081,5.081,0,0,1,2.637-.659,4.573,4.573,0,0,1,3.271,1.143,4.053,4.053,0,0,1,1.211,3.1H90.868a1.806,1.806,0,0,0-.4-1.26,1.382,1.382,0,0,0-1.074-.439q-1.279,0-1.494,1.631a11.508,11.508,0,0,0-.068,1.426,4.52,4.52,0,0,0,.381,2.207A1.319,1.319,0,0,0,89.423,18.656ZM98.817,21h-3.3V10.434h3.3Zm-3.5-13.291a1.469,1.469,0,0,1,.508-1.152,2.159,2.159,0,0,1,2.637,0,1.469,1.469,0,0,1,.508,1.152,1.469,1.469,0,0,1-.508,1.152,2.159,2.159,0,0,1-2.637,0A1.469,1.469,0,0,1,95.321,7.709Zm5.107,7.91a6.236,6.236,0,0,1,.615-2.817,4.4,4.4,0,0,1,1.768-1.9,5.323,5.323,0,0,1,2.705-.664,4.858,4.858,0,0,1,3.74,1.47,5.64,5.64,0,0,1,1.367,4v.117a5.472,5.472,0,0,1-1.372,3.921,4.871,4.871,0,0,1-3.716,1.45,4.927,4.927,0,0,1-3.623-1.353,5.29,5.29,0,0,1-1.475-3.667Zm3.291.205a3.932,3.932,0,0,0,.459,2.148,1.529,1.529,0,0,0,1.357.684q1.758,0,1.8-2.705v-.332q0-2.842-1.816-2.842-1.65,0-1.787,2.451ZM105.966,6h3.477l-2.715,3.066-2.686,0Zm9.131,4.434.107,1.24a3.583,3.583,0,0,1,3.018-1.436,3.015,3.015,0,0,1,2.466.986,4.7,4.7,0,0,1,.845,2.969V21h-3.3V14.33a1.783,1.783,0,0,0-.322-1.177,1.491,1.491,0,0,0-1.172-.376,1.569,1.569,0,0,0-1.436.762V21h-3.291V10.434Zm12.822,5.186a6.236,6.236,0,0,1,.615-2.817,4.4,4.4,0,0,1,1.768-1.9,5.323,5.323,0,0,1,2.705-.664,4.858,4.858,0,0,1,3.74,1.47,5.64,5.64,0,0,1,1.367,4v.117a5.472,5.472,0,0,1-1.372,3.921,4.871,4.871,0,0,1-3.716,1.45,4.927,4.927,0,0,1-3.623-1.353,5.29,5.29,0,0,1-1.475-3.667Zm3.291.205a3.932,3.932,0,0,0,.459,2.148,1.529,1.529,0,0,0,1.357.684q1.758,0,1.8-2.705v-.332q0-2.842-1.816-2.842-1.65,0-1.787,2.451Zm19.727-2.412-1.084-.078a1.947,1.947,0,0,0-1.992.977V21h-3.291V10.434h3.086l.107,1.357a2.548,2.548,0,0,1,2.314-1.553,3.209,3.209,0,0,1,.918.117ZM157.782,21a3.716,3.716,0,0,1-.312-.947,3.06,3.06,0,0,1-2.539,1.143,3.749,3.749,0,0,1-2.539-.9,2.875,2.875,0,0,1-1.045-2.271,2.955,2.955,0,0,1,1.27-2.6,6.468,6.468,0,0,1,3.691-.879h1.016v-.559q0-1.462-1.26-1.462a1.03,1.03,0,0,0-1.172,1.158H151.6a2.95,2.95,0,0,1,1.3-2.487,5.479,5.479,0,0,1,3.325-.956,4.8,4.8,0,0,1,3.193.986,3.429,3.429,0,0,1,1.2,2.705v4.678a4.79,4.79,0,0,0,.449,2.227V21Zm-2.061-2.148a1.836,1.836,0,0,0,1.021-.264,1.653,1.653,0,0,0,.581-.6V16.3h-.957q-1.719,0-1.719,1.543a.942.942,0,0,0,.3.728A1.1,1.1,0,0,0,155.722,18.852Zm10.605-.391h4.814V21h-8.975V19.164l4.688-6.191h-4.482V10.434h8.662v1.777Zm6-2.842a6.236,6.236,0,0,1,.615-2.817,4.4,4.4,0,0,1,1.768-1.9,5.323,5.323,0,0,1,2.705-.664,4.858,4.858,0,0,1,3.74,1.47,5.64,5.64,0,0,1,1.367,4v.117a5.472,5.472,0,0,1-1.372,3.921,4.871,4.871,0,0,1-3.716,1.45,4.927,4.927,0,0,1-3.623-1.353,5.29,5.29,0,0,1-1.475-3.667Zm3.291.205a3.932,3.932,0,0,0,.459,2.148,1.529,1.529,0,0,0,1.357.684q1.758,0,1.8-2.705v-.332q0-2.842-1.816-2.842-1.65,0-1.787,2.451ZM177.86,6h3.477l-2.715,3.066-2.686,0Zm9.131,4.434.107,1.24a3.583,3.583,0,0,1,3.018-1.436,3.015,3.015,0,0,1,2.466.986,4.7,4.7,0,0,1,.845,2.969V21h-3.3V14.33a1.783,1.783,0,0,0-.322-1.177,1.491,1.491,0,0,0-1.172-.376,1.569,1.569,0,0,0-1.436.762V21h-3.291V10.434Z" transform="translate(1165.679 2907.944)" fill="#fff"/>
    <path id="Trazado_196435" data-name="Trazado 196435" d="M57.5,0A57.5,57.5,0,1,1,0,57.5,57.5,57.5,0,0,1,57.5,0Z" transform="translate(1215 2772)" fill="#fff"/>
    <g id="Enmascarar_grupo_135" data-name="Enmascarar grupo 135" transform="translate(9.641 216.32)" clip-path="url(#clip-path)">
      <g id="proporcion" transform="translate(1228.221 2568)">
        <path id="Trazado_195264" data-name="Trazado 195264" d="M15.333,82.417h7.53v18.072h-7.53Z" transform="translate(-13.827 -17.659)" fill="#92b1f9"/>
        <path id="Trazado_195265" data-name="Trazado 195265" d="M70.788,84.333,43.083,90.339l-9.042-6.005H24.96v15.06h4.535l13.616,7.53L71.96,88.651a2.315,2.315,0,0,0-1.172-4.317Z" transform="translate(-15.89 -18.07)" fill="#dfdeed"/>
        <path id="Trazado_195266" data-name="Trazado 195266" d="M65.167,1.917V29.024H92.274A27.108,27.108,0,0,0,65.167,1.917Z" transform="translate(-24.505 -0.411)" fill="#92b1f9"/>
        <path id="Trazado_195267" data-name="Trazado 195267" d="M72.833,11.5V25.054H86.387A13.554,13.554,0,0,0,72.833,11.5Z" transform="translate(-26.148 -2.464)" fill="#f73445"/>
        <path id="Trazado_195268" data-name="Trazado 195268" d="M50.108,9.583A27.108,27.108,0,1,0,77.215,36.691H50.108Z" transform="translate(-15.47 -2.053)" fill="#fed966"/>
        <path id="Trazado_195269" data-name="Trazado 195269" d="M68.314,82.006A1.54,1.54,0,0,0,68,82.04L40.912,87.911,32.4,82.257a1.507,1.507,0,0,0-.834-.251H23.959A1.506,1.506,0,0,0,22.453,80.5H14.923a1.506,1.506,0,0,0-1.506,1.505h0v18.072a1.506,1.506,0,0,0,1.505,1.506h7.531a1.506,1.506,0,0,0,1.506-1.505h2.674l13.276,7.342a1.507,1.507,0,0,0,1.535-.046l28.8-18.242a3.821,3.821,0,0,0-1.928-7.126ZM20.947,98.572H16.429V83.512h4.518ZM68.681,86.557l-28.094,17.8-12.836-7.1a1.509,1.509,0,0,0-.729-.188H23.959V85.018h7.155L41.02,91.6a2.245,2.245,0,0,1,.635,3.111c-.025.038-.052.075-.079.112a2.277,2.277,0,0,1-3.075.524l-6.1-4.051L30.734,93.8l6.1,4.051a5.249,5.249,0,0,0,7.133-7.522l24.475-5.306a.774.774,0,0,1,.666.595.8.8,0,0,1-.427.937Z" transform="translate(-13.417 -17.249)"/>
        <path id="Trazado_195270" data-name="Trazado 195270" d="M93.37,28.614A28.646,28.646,0,0,0,64.756,0,1.506,1.506,0,0,0,63.25,1.505h0V28.614a1.506,1.506,0,0,0,1.505,1.506H91.864a1.506,1.506,0,0,0,1.506-1.505ZM66.262,27.108V3.056A25.639,25.639,0,0,1,90.314,27.108Z" transform="translate(-24.094 0)"/>
        <path id="Trazado_195271" data-name="Trazado 195271" d="M72.423,9.583a1.506,1.506,0,0,0-1.506,1.505h0V24.643a1.506,1.506,0,0,0,1.505,1.506H85.976a1.506,1.506,0,0,0,1.506-1.505h0A15.077,15.077,0,0,0,72.423,9.583Zm1.506,13.554V12.689A12.073,12.073,0,0,1,84.376,23.137Z" transform="translate(-25.737 -2.053)"/>
        <path id="Trazado_195272" data-name="Trazado 195272" d="M76.8,34.774H51.2V9.173A1.506,1.506,0,0,0,49.7,7.667h0A28.614,28.614,0,1,0,78.311,36.28a1.506,1.506,0,0,0-1.505-1.506ZM49.7,61.882a25.6,25.6,0,0,1-1.506-51.159V36.28A1.506,1.506,0,0,0,49.7,37.786H75.255A25.635,25.635,0,0,1,49.7,61.882Z" transform="translate(-15.059 -1.643)"/>
      </g>
    </g>
    <g id="Trazado_196436" data-name="Trazado 196436" transform="translate(1215 2772)" fill="none">
      <path d="M57.5,0A57.5,57.5,0,1,1,0,57.5,57.5,57.5,0,0,1,57.5,0Z" stroke="none"/>
      <path d="M 57.5 4 C 50.27577972412109 4 43.26978302001953 5.413978576660156 36.67662048339844 8.202651977539062 C 33.50738525390625 9.543128967285156 30.45034790039062 11.20247650146484 27.59043884277344 13.13459777832031 C 24.75665283203125 15.04905700683594 22.09176635742188 17.24781799316406 19.66978454589844 19.66978454589844 C 17.24781799316406 22.09176635742188 15.04905700683594 24.75665283203125 13.13459777832031 27.59043884277344 C 11.20247650146484 30.45034790039062 9.543128967285156 33.50738525390625 8.202651977539062 36.67662048339844 C 5.413978576660156 43.26978302001953 4 50.27577972412109 4 57.5 C 4 64.72421264648438 5.413978576660156 71.73021697998047 8.202651977539062 78.32337951660156 C 9.543128967285156 81.49261474609375 11.20247650146484 84.54965209960938 13.13459777832031 87.40956115722656 C 15.04905700683594 90.24334716796875 17.24781799316406 92.90823364257812 19.66978454589844 95.33021545410156 C 22.09176635742188 97.75218200683594 24.75665283203125 99.95094299316406 27.59043884277344 101.8654022216797 C 30.45034790039062 103.7975311279297 33.50738525390625 105.4568710327148 36.67662048339844 106.7973480224609 C 43.26978302001953 109.5860214233398 50.27577972412109 111 57.5 111 C 64.72421264648438 111 71.73021697998047 109.5860214233398 78.32337951660156 106.7973480224609 C 81.49261474609375 105.4568710327148 84.54965209960938 103.7975311279297 87.40956115722656 101.8654022216797 C 90.24334716796875 99.95094299316406 92.90823364257812 97.75218200683594 95.33021545410156 95.33021545410156 C 97.75218200683594 92.90823364257812 99.95094299316406 90.24334716796875 101.8654022216797 87.40956115722656 C 103.7975311279297 84.54965209960938 105.4568710327148 81.49261474609375 106.7973480224609 78.32337951660156 C 109.5860214233398 71.73021697998047 111 64.72421264648438 111 57.5 C 111 50.27577972412109 109.5860214233398 43.26978302001953 106.7973480224609 36.67662048339844 C 105.4568710327148 33.50738525390625 103.7975311279297 30.45034790039062 101.8654022216797 27.59043884277344 C 99.95094299316406 24.75665283203125 97.75218200683594 22.09176635742188 95.33021545410156 19.66978454589844 C 92.90823364257812 17.24781799316406 90.24334716796875 15.04905700683594 87.40956115722656 13.13459777832031 C 84.54965209960938 11.20247650146484 81.49261474609375 9.543128967285156 78.32337951660156 8.202651977539062 C 71.73021697998047 5.413978576660156 64.72421264648438 4 57.5 4 M 57.5 0 C 89.25636291503906 0 115 25.74363708496094 115 57.5 C 115 89.25636291503906 89.25636291503906 115 57.5 115 C 25.74363708496094 115 0 89.25636291503906 0 57.5 C 0 25.74363708496094 25.74363708496094 0 57.5 0 Z" stroke="none" fill="#fece10"/>
    </g>
    <g transform="matrix(1, 0, 0, 1, 1120, 2698.94)" filter="url(#paris-4345139_1920-2)">
      <path id="paris-4345139_1920-4" data-name="paris-4345139_1920" d="M20,0H271a20,20,0,0,1,20,20V293.537a20,20,0,0,1-20,20H20a20,20,0,0,1-20-20V20A20,20,0,0,1,20,0Z" transform="translate(9 6)" fill="#438815"/>
    </g>
    <path id="Trazado_196434" data-name="Trazado 196434" d="M27.177,16.176V21H23.749V6.781h5.674a6.608,6.608,0,0,1,2.886.6,4.526,4.526,0,0,1,1.943,1.709,4.667,4.667,0,0,1,.688,2.515,4.114,4.114,0,0,1-1.489,3.325,6.179,6.179,0,0,1-4.087,1.245Zm0-2.646h2.246a2.118,2.118,0,0,0,1.519-.5,1.85,1.85,0,0,0,.522-1.406,2.287,2.287,0,0,0-.537-1.592,1.9,1.9,0,0,0-1.465-.605H27.177Zm15.83-.117-1.084-.078a1.947,1.947,0,0,0-1.992.977V21H36.64V10.434h3.086l.107,1.357a2.548,2.548,0,0,1,2.314-1.553,3.209,3.209,0,0,1,.918.117Zm.42,2.207a6.236,6.236,0,0,1,.615-2.817,4.4,4.4,0,0,1,1.768-1.9,5.323,5.323,0,0,1,2.705-.664,4.858,4.858,0,0,1,3.74,1.47,5.64,5.64,0,0,1,1.367,4v.117a5.472,5.472,0,0,1-1.372,3.921,4.871,4.871,0,0,1-3.716,1.45,4.927,4.927,0,0,1-3.623-1.353,5.29,5.29,0,0,1-1.475-3.667Zm3.291.205a3.932,3.932,0,0,0,.459,2.148,1.529,1.529,0,0,0,1.357.684q1.758,0,1.8-2.705v-.332q0-2.842-1.816-2.842-1.65,0-1.787,2.451Zm18.164-.029a6.372,6.372,0,0,1-1.108,3.931A3.554,3.554,0,0,1,60.78,21.2a3.046,3.046,0,0,1-2.393-1.064v4.932H55.1V10.434h3.076l.1.977a3.046,3.046,0,0,1,2.49-1.172,3.582,3.582,0,0,1,3.037,1.44,6.45,6.45,0,0,1,1.084,3.96Zm-3.291-.205q0-2.812-1.641-2.812a1.549,1.549,0,0,0-1.562.84v4.16a1.6,1.6,0,0,0,1.582.879q1.572,0,1.621-2.715Zm4.326.029a6.236,6.236,0,0,1,.615-2.817A4.4,4.4,0,0,1,68.3,10.9,5.323,5.323,0,0,1,71,10.238a4.858,4.858,0,0,1,3.74,1.47,5.64,5.64,0,0,1,1.367,4v.117a5.472,5.472,0,0,1-1.372,3.921,4.871,4.871,0,0,1-3.716,1.45A4.927,4.927,0,0,1,67.4,19.843a5.29,5.29,0,0,1-1.475-3.667Zm3.291.205a3.932,3.932,0,0,0,.459,2.148,1.529,1.529,0,0,0,1.357.684q1.758,0,1.8-2.705v-.332q0-2.842-1.816-2.842-1.65,0-1.787,2.451Zm14.746-2.412-1.084-.078a1.947,1.947,0,0,0-1.992.977V21H77.587V10.434h3.086l.107,1.357a2.548,2.548,0,0,1,2.314-1.553,3.209,3.209,0,0,1,.918.117Zm5.469,5.244A1.464,1.464,0,0,0,90.5,18.28a1.379,1.379,0,0,0,.371-1.05h3.086a3.653,3.653,0,0,1-1.245,2.852A4.631,4.631,0,0,1,89.5,21.2a4.689,4.689,0,0,1-3.633-1.445,5.7,5.7,0,0,1-1.328-4v-.137a6.436,6.436,0,0,1,.591-2.827,4.3,4.3,0,0,1,1.7-1.885,5.081,5.081,0,0,1,2.637-.659,4.573,4.573,0,0,1,3.271,1.143,4.053,4.053,0,0,1,1.211,3.1H90.868a1.806,1.806,0,0,0-.4-1.26,1.382,1.382,0,0,0-1.074-.439q-1.279,0-1.494,1.631a11.508,11.508,0,0,0-.068,1.426,4.52,4.52,0,0,0,.381,2.207A1.319,1.319,0,0,0,89.423,18.656ZM98.817,21h-3.3V10.434h3.3Zm-3.5-13.291a1.469,1.469,0,0,1,.508-1.152,2.159,2.159,0,0,1,2.637,0,1.469,1.469,0,0,1,.508,1.152,1.469,1.469,0,0,1-.508,1.152,2.159,2.159,0,0,1-2.637,0A1.469,1.469,0,0,1,95.321,7.709Zm5.107,7.91a6.236,6.236,0,0,1,.615-2.817,4.4,4.4,0,0,1,1.768-1.9,5.323,5.323,0,0,1,2.705-.664,4.858,4.858,0,0,1,3.74,1.47,5.64,5.64,0,0,1,1.367,4v.117a5.472,5.472,0,0,1-1.372,3.921,4.871,4.871,0,0,1-3.716,1.45,4.927,4.927,0,0,1-3.623-1.353,5.29,5.29,0,0,1-1.475-3.667Zm3.291.205a3.932,3.932,0,0,0,.459,2.148,1.529,1.529,0,0,0,1.357.684q1.758,0,1.8-2.705v-.332q0-2.842-1.816-2.842-1.65,0-1.787,2.451ZM105.966,6h3.477l-2.715,3.066-2.686,0Zm9.131,4.434.107,1.24a3.583,3.583,0,0,1,3.018-1.436,3.015,3.015,0,0,1,2.466.986,4.7,4.7,0,0,1,.845,2.969V21h-3.3V14.33a1.783,1.783,0,0,0-.322-1.177,1.491,1.491,0,0,0-1.172-.376,1.569,1.569,0,0,0-1.436.762V21h-3.291V10.434Zm12.822,5.186a6.236,6.236,0,0,1,.615-2.817,4.4,4.4,0,0,1,1.768-1.9,5.323,5.323,0,0,1,2.705-.664,4.858,4.858,0,0,1,3.74,1.47,5.64,5.64,0,0,1,1.367,4v.117a5.472,5.472,0,0,1-1.372,3.921,4.871,4.871,0,0,1-3.716,1.45,4.927,4.927,0,0,1-3.623-1.353,5.29,5.29,0,0,1-1.475-3.667Zm3.291.205a3.932,3.932,0,0,0,.459,2.148,1.529,1.529,0,0,0,1.357.684q1.758,0,1.8-2.705v-.332q0-2.842-1.816-2.842-1.65,0-1.787,2.451Zm19.727-2.412-1.084-.078a1.947,1.947,0,0,0-1.992.977V21h-3.291V10.434h3.086l.107,1.357a2.548,2.548,0,0,1,2.314-1.553,3.209,3.209,0,0,1,.918.117ZM157.782,21a3.716,3.716,0,0,1-.312-.947,3.06,3.06,0,0,1-2.539,1.143,3.749,3.749,0,0,1-2.539-.9,2.875,2.875,0,0,1-1.045-2.271,2.955,2.955,0,0,1,1.27-2.6,6.468,6.468,0,0,1,3.691-.879h1.016v-.559q0-1.462-1.26-1.462a1.03,1.03,0,0,0-1.172,1.158H151.6a2.95,2.95,0,0,1,1.3-2.487,5.479,5.479,0,0,1,3.325-.956,4.8,4.8,0,0,1,3.193.986,3.429,3.429,0,0,1,1.2,2.705v4.678a4.79,4.79,0,0,0,.449,2.227V21Zm-2.061-2.148a1.836,1.836,0,0,0,1.021-.264,1.653,1.653,0,0,0,.581-.6V16.3h-.957q-1.719,0-1.719,1.543a.942.942,0,0,0,.3.728A1.1,1.1,0,0,0,155.722,18.852Zm10.605-.391h4.814V21h-8.975V19.164l4.688-6.191h-4.482V10.434h8.662v1.777Zm6-2.842a6.236,6.236,0,0,1,.615-2.817,4.4,4.4,0,0,1,1.768-1.9,5.323,5.323,0,0,1,2.705-.664,4.858,4.858,0,0,1,3.74,1.47,5.64,5.64,0,0,1,1.367,4v.117a5.472,5.472,0,0,1-1.372,3.921,4.871,4.871,0,0,1-3.716,1.45,4.927,4.927,0,0,1-3.623-1.353,5.29,5.29,0,0,1-1.475-3.667Zm3.291.205a3.932,3.932,0,0,0,.459,2.148,1.529,1.529,0,0,0,1.357.684q1.758,0,1.8-2.705v-.332q0-2.842-1.816-2.842-1.65,0-1.787,2.451ZM177.86,6h3.477l-2.715,3.066-2.686,0Zm9.131,4.434.107,1.24a3.583,3.583,0,0,1,3.018-1.436,3.015,3.015,0,0,1,2.466.986,4.7,4.7,0,0,1,.845,2.969V21h-3.3V14.33a1.783,1.783,0,0,0-.322-1.177,1.491,1.491,0,0,0-1.172-.376,1.569,1.569,0,0,0-1.436.762V21h-3.291V10.434Z" transform="translate(1165.679 2907.944)" fill="#fff"/>
    <path id="Trazado_196437" data-name="Trazado 196437" d="M57.5,0A57.5,57.5,0,1,1,0,57.5,57.5,57.5,0,0,1,57.5,0Z" transform="translate(1215 2772)" fill="#fff"/>
    <g id="Enmascarar_grupo_146" data-name="Enmascarar grupo 146" transform="translate(9.641 216.32)" clip-path="url(#clip-path)">
      <g id="proporcion-2" data-name="proporcion" transform="translate(1228.221 2568)">
        <path id="Trazado_196394" data-name="Trazado 196394" d="M15.333,82.417h7.53v18.072h-7.53Z" transform="translate(-13.827 -17.659)" fill="#92b1f9"/>
        <path id="Trazado_196395" data-name="Trazado 196395" d="M70.788,84.333,43.083,90.339l-9.042-6.005H24.96v15.06h4.535l13.616,7.53L71.96,88.651a2.315,2.315,0,0,0-1.172-4.317Z" transform="translate(-15.89 -18.07)" fill="#dfdeed"/>
        <path id="Trazado_196396" data-name="Trazado 196396" d="M65.167,1.917V29.024H92.274A27.108,27.108,0,0,0,65.167,1.917Z" transform="translate(-24.505 -0.411)" fill="#92b1f9"/>
        <path id="Trazado_196397" data-name="Trazado 196397" d="M72.833,11.5V25.054H86.387A13.554,13.554,0,0,0,72.833,11.5Z" transform="translate(-26.148 -2.464)" fill="#f73445"/>
        <path id="Trazado_196398" data-name="Trazado 196398" d="M50.108,9.583A27.108,27.108,0,1,0,77.215,36.691H50.108Z" transform="translate(-15.47 -2.053)" fill="#fed966"/>
        <path id="Trazado_196399" data-name="Trazado 196399" d="M68.314,82.006A1.54,1.54,0,0,0,68,82.04L40.912,87.911,32.4,82.257a1.507,1.507,0,0,0-.834-.251H23.959A1.506,1.506,0,0,0,22.453,80.5H14.923a1.506,1.506,0,0,0-1.506,1.505h0v18.072a1.506,1.506,0,0,0,1.505,1.506h7.531a1.506,1.506,0,0,0,1.506-1.505h2.674l13.276,7.342a1.507,1.507,0,0,0,1.535-.046l28.8-18.242a3.821,3.821,0,0,0-1.928-7.126ZM20.947,98.572H16.429V83.512h4.518ZM68.681,86.557l-28.094,17.8-12.836-7.1a1.509,1.509,0,0,0-.729-.188H23.959V85.018h7.155L41.02,91.6a2.245,2.245,0,0,1,.635,3.111c-.025.038-.052.075-.079.112a2.277,2.277,0,0,1-3.075.524l-6.1-4.051L30.734,93.8l6.1,4.051a5.249,5.249,0,0,0,7.133-7.522l24.475-5.306a.774.774,0,0,1,.666.595.8.8,0,0,1-.427.937Z" transform="translate(-13.417 -17.249)"/>
        <path id="Trazado_196400" data-name="Trazado 196400" d="M93.37,28.614A28.646,28.646,0,0,0,64.756,0,1.506,1.506,0,0,0,63.25,1.505h0V28.614a1.506,1.506,0,0,0,1.505,1.506H91.864a1.506,1.506,0,0,0,1.506-1.505ZM66.262,27.108V3.056A25.639,25.639,0,0,1,90.314,27.108Z" transform="translate(-24.094 0)"/>
        <path id="Trazado_196401" data-name="Trazado 196401" d="M72.423,9.583a1.506,1.506,0,0,0-1.506,1.505h0V24.643a1.506,1.506,0,0,0,1.505,1.506H85.976a1.506,1.506,0,0,0,1.506-1.505h0A15.077,15.077,0,0,0,72.423,9.583Zm1.506,13.554V12.689A12.073,12.073,0,0,1,84.376,23.137Z" transform="translate(-25.737 -2.053)"/>
        <path id="Trazado_196402" data-name="Trazado 196402" d="M76.8,34.774H51.2V9.173A1.506,1.506,0,0,0,49.7,7.667h0A28.614,28.614,0,1,0,78.311,36.28a1.506,1.506,0,0,0-1.505-1.506ZM49.7,61.882a25.6,25.6,0,0,1-1.506-51.159V36.28A1.506,1.506,0,0,0,49.7,37.786H75.255A25.635,25.635,0,0,1,49.7,61.882Z" transform="translate(-15.059 -1.643)"/>
      </g>
    </g>
    <g id="Trazado_196438" data-name="Trazado 196438" transform="translate(1215 2772)" fill="none">
      <path d="M57.5,0A57.5,57.5,0,1,1,0,57.5,57.5,57.5,0,0,1,57.5,0Z" stroke="none"/>
      <path d="M 57.5 4 C 50.27577972412109 4 43.26978302001953 5.413978576660156 36.67662048339844 8.202651977539062 C 33.50738525390625 9.543128967285156 30.45034790039062 11.20247650146484 27.59043884277344 13.13459777832031 C 24.75665283203125 15.04905700683594 22.09176635742188 17.24781799316406 19.66978454589844 19.66978454589844 C 17.24781799316406 22.09176635742188 15.04905700683594 24.75665283203125 13.13459777832031 27.59043884277344 C 11.20247650146484 30.45034790039062 9.543128967285156 33.50738525390625 8.202651977539062 36.67662048339844 C 5.413978576660156 43.26978302001953 4 50.27577972412109 4 57.5 C 4 64.72421264648438 5.413978576660156 71.73021697998047 8.202651977539062 78.32337951660156 C 9.543128967285156 81.49261474609375 11.20247650146484 84.54965209960938 13.13459777832031 87.40956115722656 C 15.04905700683594 90.24334716796875 17.24781799316406 92.90823364257812 19.66978454589844 95.33021545410156 C 22.09176635742188 97.75218200683594 24.75665283203125 99.95094299316406 27.59043884277344 101.8654022216797 C 30.45034790039062 103.7975311279297 33.50738525390625 105.4568710327148 36.67662048339844 106.7973480224609 C 43.26978302001953 109.5860214233398 50.27577972412109 111 57.5 111 C 64.72421264648438 111 71.73021697998047 109.5860214233398 78.32337951660156 106.7973480224609 C 81.49261474609375 105.4568710327148 84.54965209960938 103.7975311279297 87.40956115722656 101.8654022216797 C 90.24334716796875 99.95094299316406 92.90823364257812 97.75218200683594 95.33021545410156 95.33021545410156 C 97.75218200683594 92.90823364257812 99.95094299316406 90.24334716796875 101.8654022216797 87.40956115722656 C 103.7975311279297 84.54965209960938 105.4568710327148 81.49261474609375 106.7973480224609 78.32337951660156 C 109.5860214233398 71.73021697998047 111 64.72421264648438 111 57.5 C 111 50.27577972412109 109.5860214233398 43.26978302001953 106.7973480224609 36.67662048339844 C 105.4568710327148 33.50738525390625 103.7975311279297 30.45034790039062 101.8654022216797 27.59043884277344 C 99.95094299316406 24.75665283203125 97.75218200683594 22.09176635742188 95.33021545410156 19.66978454589844 C 92.90823364257812 17.24781799316406 90.24334716796875 15.04905700683594 87.40956115722656 13.13459777832031 C 84.54965209960938 11.20247650146484 81.49261474609375 9.543128967285156 78.32337951660156 8.202651977539062 C 71.73021697998047 5.413978576660156 64.72421264648438 4 57.5 4 M 57.5 0 C 89.25636291503906 0 115 25.74363708496094 115 57.5 C 115 89.25636291503906 89.25636291503906 115 57.5 115 C 25.74363708496094 115 0 89.25636291503906 0 57.5 C 0 25.74363708496094 25.74363708496094 0 57.5 0 Z" stroke="none" fill="#fece10"/>
    </g>
  </g>
</svg>
