<svg xmlns="http://www.w3.org/2000/svg" width="113.902" height="110.547" viewBox="0 0 113.902 110.547">
  <g id="Grupo_131983" data-name="Grupo 131983" transform="translate(619.578 9372)">
    <g id="transparencia" transform="translate(-619.578 -9379.54)">
      <g id="Grupo_129819" data-name="Grupo 129819" transform="translate(1.669 9.208)">
        <g id="Grupo_129816" data-name="Grupo 129816" transform="translate(6.389 6.389)">
          <path id="Trazado_195160" data-name="Trazado 195160" d="M102.777,394.429v10.062a1.018,1.018,0,0,1-1.016,1.016H36.219v5.372a1.239,1.239,0,0,0,1.239,1.239h70.691a1.239,1.239,0,0,0,1.239-1.239V391.31A25.975,25.975,0,0,1,102.777,394.429Z" transform="translate(-36.219 -313.992)" fill="#fe9738"/>
          <path id="Trazado_195161" data-name="Trazado 195161" d="M340.775,43.759H335.4V74.232a25.972,25.972,0,0,1,6.192,2.847l.419-.872V45A1.238,1.238,0,0,0,340.775,43.759Z" transform="translate(-268.844 -43.759)" fill="#fe9738"/>
        </g>
        <path id="Trazado_195162" data-name="Trazado 195162" d="M47.961,461.276v-5.15H36.219v5.15a1.239,1.239,0,0,0,1.239,1.239H49.2A1.239,1.239,0,0,1,47.961,461.276Z" transform="translate(-29.83 -358)" fill="#fe860a"/>
        <g id="Grupo_129817" data-name="Grupo 129817">
          <path id="Trazado_195163" data-name="Trazado 195163" d="M54.2,95.376A26.157,26.157,0,0,1,80.669,51.969V16.279A1.239,1.239,0,0,0,79.43,15.04H8.739A1.239,1.239,0,0,0,7.5,16.279v95.648a1.239,1.239,0,0,0,1.239,1.239H79.43a1.239,1.239,0,0,0,1.239-1.239V101.8A26.152,26.152,0,0,1,54.2,95.376Z" transform="translate(-7.5 -15.04)" fill="#fff3de"/>
        </g>
        <g id="Grupo_129818" data-name="Grupo 129818" transform="translate(0 0)">
          <path id="Trazado_195164" data-name="Trazado 195164" d="M19.179,111.927V16.279a1.239,1.239,0,0,1,1.239-1.239H8.739A1.239,1.239,0,0,0,7.5,16.279v95.648a1.239,1.239,0,0,0,1.239,1.239H20.418A1.239,1.239,0,0,1,19.179,111.927Z" transform="translate(-7.5 -15.04)" fill="#ffe5c2"/>
        </g>
      </g>
      <g id="Grupo_129824" data-name="Grupo 129824" transform="translate(40.711 44.897)">
        <path id="Trazado_195165" data-name="Trazado 195165" d="M382.938,370.46l-6.841-6.841a26.056,26.056,0,0,1-2.3,2.632,26.346,26.346,0,0,1-2.631,2.3l6.839,6.839Z" transform="translate(-329.307 -321.761)" fill="#e5e1e5"/>
        <g id="Grupo_129820" data-name="Grupo 129820" transform="translate(47.891 47.891)">
          <path id="Trazado_195166" data-name="Trazado 195166" d="M415.725,414.007l5.822-5.822a1.239,1.239,0,0,0,0-1.752L406.214,391.1a1.239,1.239,0,0,0-1.752,0l-5.822,5.822a1.239,1.239,0,0,0,0,1.752l15.333,15.333A1.239,1.239,0,0,0,415.725,414.007Z" transform="translate(-398.278 -390.738)" fill="#baafb9"/>
        </g>
        <g id="Grupo_129821" data-name="Grupo 129821" transform="translate(47.891 47.89)">
          <path id="Trazado_195167" data-name="Trazado 195167" d="M405.648,398.673a1.239,1.239,0,0,1,0-1.752l3.194-3.194-2.628-2.628a1.239,1.239,0,0,0-1.752,0l-5.822,5.822a1.239,1.239,0,0,0,0,1.752l15.333,15.333a1.239,1.239,0,0,0,1.752,0l2.628-2.628Z" transform="translate(-398.278 -390.737)" fill="#aa9ea9"/>
        </g>
        <g id="Grupo_129823" data-name="Grupo 129823">
          <path id="Trazado_195168" data-name="Trazado 195168" d="M230.9,187.081c-2.751,1.407-4.062,3.324-5.283,7.1a.654.654,0,0,1-1.243,0c-1.6-4.958-3.355-6.711-8.312-8.312a.654.654,0,0,1,0-1.243c3.717-1.2,5.633-2.487,7.034-5.145a26.157,26.157,0,1,0,7.8,7.6Z" transform="translate(-183.001 -175.465)" fill="#aa9ea9"/>
          <path id="Trazado_195169" data-name="Trazado 195169" d="M248.235,216.811a.654.654,0,0,1-1.243,0c-1.6-4.958-3.355-6.711-8.312-8.312a.654.654,0,0,1,0-1.243c.66-.213,1.262-.429,1.816-.655A19.684,19.684,0,1,0,249,214.728c-.266.625-.518,1.316-.766,2.083Z" transform="translate(-205.617 -198.092)" fill="#b3dafe"/>
          <g id="Grupo_129822" data-name="Grupo 129822" transform="translate(6.471 6.47)">
            <path id="Trazado_195170" data-name="Trazado 195170" d="M227.188,238.151a19.687,19.687,0,0,1,9.251-33.042,19.685,19.685,0,1,0,0,38.249A19.589,19.589,0,0,1,227.188,238.151Z" transform="translate(-212.088 -204.55)" fill="#8ac9fe"/>
          </g>
        </g>
      </g>
      <g id="Grupo_129825" data-name="Grupo 129825" transform="translate(73.322 45.299)">
        <path id="Trazado_195171" data-name="Trazado 195171" d="M338.354,177.721c-1.6,4.957-3.355,6.711-8.312,8.312a.654.654,0,0,0,0,1.243c4.958,1.6,6.711,3.355,8.312,8.312a.654.654,0,0,0,1.243,0c1.6-4.958,3.355-6.711,8.312-8.312a.654.654,0,0,0,0-1.243c-4.957-1.6-6.711-3.355-8.312-8.312A.654.654,0,0,0,338.354,177.721Z" transform="translate(-329.591 -177.27)" fill="#fed402"/>
      </g>
      <g id="Grupo_129827" data-name="Grupo 129827" transform="translate(73.323 51.78)">
        <g id="Grupo_129826" data-name="Grupo 129826">
          <path id="Trazado_195172" data-name="Trazado 195172" d="M334.765,206.4a14.661,14.661,0,0,1-4.722,2.281.654.654,0,0,0,0,1.243c4.957,1.6,6.711,3.355,8.312,8.312a.654.654,0,0,0,1.243,0,14.75,14.75,0,0,1,2.259-4.694C340.431,209.535,338.747,207.835,334.765,206.4Z" transform="translate(-329.592 -206.405)" fill="#fac600"/>
        </g>
      </g>
      <g id="Grupo_129828" data-name="Grupo 129828" transform="translate(0 7.54)">
        <path id="Trazado_195173" data-name="Trazado 195173" d="M99.125,73.849h29.808a1.668,1.668,0,0,0,0-3.337H99.125a1.668,1.668,0,0,0,0,3.337Z" transform="translate(-75.776 -56.503)"/>
        <path id="Trazado_195174" data-name="Trazado 195174" d="M141.512,129.687a1.668,1.668,0,0,0,1.668,1.668h29.732a1.668,1.668,0,1,0,0-3.337H143.18A1.668,1.668,0,0,0,141.512,129.687Z" transform="translate(-110.031 -101.217)"/>
        <path id="Trazado_195175" data-name="Trazado 195175" d="M55.408,131.356H69.236a1.668,1.668,0,1,0,0-3.337H55.408a1.668,1.668,0,1,0,0,3.337Z" transform="translate(-41.785 -101.217)"/>
        <path id="Trazado_195176" data-name="Trazado 195176" d="M55.408,167.787H86.827a1.668,1.668,0,1,0,0-3.337H55.408a1.668,1.668,0,1,0,0,3.337Z" transform="translate(-41.785 -129.543)"/>
        <path id="Trazado_195177" data-name="Trazado 195177" d="M55.408,361.9H75.43a1.668,1.668,0,1,0,0-3.337H55.408a1.668,1.668,0,1,0,0,3.337Z" transform="translate(-41.785 -280.474)"/>
        <path id="Trazado_195178" data-name="Trazado 195178" d="M113.052,107.3l-4.245-4.244a1.668,1.668,0,1,0-2.359,2.359l3.941,3.941-5.214,5.214L90.449,99.848l5.214-5.214,5.279,5.279a1.668,1.668,0,0,0,2.36-2.359l-5.583-5.583a2.91,2.91,0,0,0-3.239-.6l-4.637-4.637a27.909,27.909,0,0,0,1.194-29.46c.35-.129.721-.257,1.117-.385a2.322,2.322,0,0,0,0-4.419c-4.448-1.436-5.8-2.789-7.237-7.238a2.313,2.313,0,0,0-2.021-1.6v-26.8a2.911,2.911,0,0,0-2.907-2.907H76.506V10.447A2.911,2.911,0,0,0,73.6,7.54H2.907A2.911,2.911,0,0,0,0,10.447V106.1A2.911,2.911,0,0,0,2.907,109H6.389v3.482A2.91,2.91,0,0,0,9.3,115.392h15.4a1.668,1.668,0,0,0,0-3.337H9.726V109H73.6a2.911,2.911,0,0,0,2.907-2.907V97.142a27.677,27.677,0,0,0,3.052-1.336v16.249H32.48a1.668,1.668,0,1,0,0,3.337H79.988a2.91,2.91,0,0,0,2.907-2.907V94.371l4.294,4.294a2.91,2.91,0,0,0,.6,3.239l15.333,15.333a2.911,2.911,0,0,0,4.112,0l5.822-5.822a2.911,2.911,0,0,0,0-4.112ZM88.58,54.683a10.753,10.753,0,0,0-5.873,5.873,10.755,10.755,0,0,0-5.873-5.873,10.752,10.752,0,0,0,5.873-5.873A10.751,10.751,0,0,0,88.58,54.683ZM73.26,56.893c4.448,1.436,5.8,2.789,7.237,7.237a2.314,2.314,0,0,0,2.209,1.606h0a2.321,2.321,0,0,0,1.246-.362,17.977,17.977,0,1,1-12.1-11.637,2.322,2.322,0,0,0,1.4,3.156Zm10.413-10.63v0Zm-10.5,59.4H3.337V10.877H73.169V26.108a1.668,1.668,0,0,0,3.337,0V17.266h3.052V46.282a27.51,27.51,0,0,0-3.052-1.343V33.894a1.668,1.668,0,0,0-3.337,0V43.946a28.009,28.009,0,0,0-6.3-.718c-.842,0-1.678.039-2.506.113a1.667,1.667,0,0,0-1.477-.894H50.99a1.668,1.668,0,1,0,0,3.337h4.2a27.759,27.759,0,0,0-7.131,4.767H13.624a1.668,1.668,0,1,0,0,3.337H44.967A27.59,27.59,0,0,0,40.8,61.317H13.624a1.668,1.668,0,0,0,0,3.337H39.8a28,28,0,0,0-.692,4.767H13.624a1.668,1.668,0,1,0,0,3.337H39.11a27.968,27.968,0,0,0,.705,4.767H13.624a1.668,1.668,0,1,0,0,3.337H40.832a27.6,27.6,0,0,0,2.335,4.767H39.344a1.668,1.668,0,0,0,0,3.337h6.236q.762.9,1.611,1.757a27.9,27.9,0,0,0,3.563,3.011H13.624a1.668,1.668,0,1,0,0,3.337h43.4a27.964,27.964,0,0,0,16.15,1.068Zm-23.618-17.3a24.494,24.494,0,0,1,28.914-38.89,7.539,7.539,0,0,1-2.831,2.1,21.378,21.378,0,1,0,10.312,9.915,7.243,7.243,0,0,1,2.117-2.681A24.483,24.483,0,0,1,49.552,88.365Zm35.658,3.6q.679-.6,1.329-1.243c.432-.432.842-.879,1.24-1.333l4.2,4.2L89.41,96.168Z" transform="translate(0 -7.54)"/>
        <path id="Trazado_195179" data-name="Trazado 195179" d="M257.457,248.4a1.668,1.668,0,0,0,1.668,1.668h15.811a1.668,1.668,0,1,0,0-3.337H259.125A1.669,1.669,0,0,0,257.457,248.4Z" transform="translate(-200.182 -193.523)"/>
        <path id="Trazado_195180" data-name="Trazado 195180" d="M247.911,276.336A1.668,1.668,0,0,0,249.579,278h20.059a1.668,1.668,0,0,0,0-3.337H249.579A1.668,1.668,0,0,0,247.911,276.336Z" transform="translate(-192.76 -215.242)"/>
        <path id="Trazado_195181" data-name="Trazado 195181" d="M269.638,302.6H249.579a1.668,1.668,0,1,0,0,3.337h20.059a1.668,1.668,0,0,0,0-3.337Z" transform="translate(-192.76 -236.961)"/>
        <path id="Trazado_195182" data-name="Trazado 195182" d="M282,330.535H271.855a1.668,1.668,0,0,0,0,3.337H282a1.668,1.668,0,1,0,0-3.337Z" transform="translate(-210.08 -258.68)"/>
        <path id="Trazado_195183" data-name="Trazado 195183" d="M402.141,153.358h1.553v1.553a1.668,1.668,0,1,0,3.337,0v-1.553h1.553a1.668,1.668,0,0,0,0-3.337h-1.553v-1.552a1.668,1.668,0,1,0-3.337,0v1.553h-1.553a1.668,1.668,0,1,0,0,3.337Z" transform="translate(-311.382 -115.82)"/>
      </g>
    </g>
  </g>
</svg>
