<svg xmlns="http://www.w3.org/2000/svg" xmlns:xlink="http://www.w3.org/1999/xlink" width="309" height="331.537" viewBox="0 0 309 331.537">
  <defs>
    <filter id="paris-4345139_1920" x="0" y="0" width="309" height="331.537" filterUnits="userSpaceOnUse">
      <feOffset dy="3" input="SourceAlpha"/>
      <feGaussianBlur stdDeviation="3" result="blur"/>
      <feFlood flood-opacity="0.161"/>
      <feComposite operator="in" in2="blur"/>
      <feComposite in="SourceGraphic"/>
    </filter>
    <clipPath id="clip-path">
      <circle id="Elipse_6245" data-name="Elipse 6245" cx="54.5" cy="54.5" r="54.5" transform="translate(1208.359 2558.679)" fill="#fece10" stroke="#fece10" stroke-width="4"/>
    </clipPath>
  </defs>
  <g id="Grupo_131910" data-name="Grupo 131910" transform="translate(-2652.522 8993.537)">
    <g id="Grupo_131909" data-name="Grupo 131909">
      <g transform="matrix(1, 0, 0, 1, 2652.52, -8993.54)" filter="url(#paris-4345139_1920)">
        <rect id="paris-4345139_1920-2" data-name="paris-4345139_1920" width="291" height="313.537" rx="20" transform="translate(9 6)" fill="#fece10"/>
      </g>
      <text id="Far_far_away_behind" data-name="Far far away, behind" transform="translate(2701.202 -8789.537)" fill="#12263f" font-size="16" font-family="Roboto-Regular, Roboto"><tspan x="-73.684" y="17">Los datos se pueden </tspan><tspan x="-76.496" y="41">categorizar, clasificar, </tspan><tspan x="-92.715" y="65">espaciar uniformemente y </tspan><tspan x="-78.98" y="89">tienen un cero natural.</tspan></text>
      <text id="Proporción_o_razón" data-name="Proporción o razón" transform="translate(2717.202 -8830.769)" fill="#12263f" font-size="20" font-family="Roboto-Black, Roboto" font-weight="800"><tspan x="0" y="21">Proporción o razón</tspan></text>
      <g id="Grupo_129960" data-name="Grupo 129960" transform="translate(-563 -305)">
        <g id="Enmascarar_grupo_136" data-name="Enmascarar grupo 136" transform="translate(2107.641 -11219.68)" clip-path="url(#clip-path)">
          <g id="proporcion" transform="translate(1228.221 2568)">
            <path id="Trazado_195313" data-name="Trazado 195313" d="M15.333,82.417h7.53v18.072h-7.53Z" transform="translate(-13.827 -17.659)" fill="#92b1f9"/>
            <path id="Trazado_195314" data-name="Trazado 195314" d="M70.788,84.333,43.083,90.339l-9.042-6.005H24.96v15.06h4.535l13.616,7.53L71.96,88.651a2.315,2.315,0,0,0-1.172-4.317Z" transform="translate(-15.89 -18.07)" fill="#dfdeed"/>
            <path id="Trazado_195315" data-name="Trazado 195315" d="M65.167,1.917V29.024H92.274A27.108,27.108,0,0,0,65.167,1.917Z" transform="translate(-24.505 -0.411)" fill="#92b1f9"/>
            <path id="Trazado_195316" data-name="Trazado 195316" d="M72.833,11.5V25.054H86.387A13.554,13.554,0,0,0,72.833,11.5Z" transform="translate(-26.148 -2.464)" fill="#f73445"/>
            <path id="Trazado_195317" data-name="Trazado 195317" d="M50.108,9.583A27.108,27.108,0,1,0,77.215,36.691H50.108Z" transform="translate(-15.47 -2.053)" fill="#fed966"/>
            <path id="Trazado_195318" data-name="Trazado 195318" d="M68.314,82.006A1.54,1.54,0,0,0,68,82.04L40.912,87.911,32.4,82.257a1.507,1.507,0,0,0-.834-.251H23.959A1.506,1.506,0,0,0,22.453,80.5H14.923a1.506,1.506,0,0,0-1.506,1.505h0v18.072a1.506,1.506,0,0,0,1.505,1.506h7.531a1.506,1.506,0,0,0,1.506-1.505h2.674l13.276,7.342a1.507,1.507,0,0,0,1.535-.046l28.8-18.242a3.821,3.821,0,0,0-1.928-7.126ZM20.947,98.572H16.429V83.512h4.518ZM68.681,86.557l-28.094,17.8-12.836-7.1a1.509,1.509,0,0,0-.729-.188H23.959V85.018h7.155L41.02,91.6a2.245,2.245,0,0,1,.635,3.111c-.025.038-.052.075-.079.112a2.277,2.277,0,0,1-3.075.524l-6.1-4.051L30.734,93.8l6.1,4.051a5.249,5.249,0,0,0,7.133-7.522l24.475-5.306a.774.774,0,0,1,.666.595.8.8,0,0,1-.427.937Z" transform="translate(-13.417 -17.249)"/>
            <path id="Trazado_195319" data-name="Trazado 195319" d="M93.37,28.614A28.646,28.646,0,0,0,64.756,0,1.506,1.506,0,0,0,63.25,1.505h0V28.614a1.506,1.506,0,0,0,1.505,1.506H91.864a1.506,1.506,0,0,0,1.506-1.505ZM66.262,27.108V3.056A25.639,25.639,0,0,1,90.314,27.108Z" transform="translate(-24.094 0)"/>
            <path id="Trazado_195320" data-name="Trazado 195320" d="M72.423,9.583a1.506,1.506,0,0,0-1.506,1.505h0V24.643a1.506,1.506,0,0,0,1.505,1.506H85.976a1.506,1.506,0,0,0,1.506-1.505h0A15.077,15.077,0,0,0,72.423,9.583Zm1.506,13.554V12.689A12.073,12.073,0,0,1,84.376,23.137Z" transform="translate(-25.737 -2.053)"/>
            <path id="Trazado_195321" data-name="Trazado 195321" d="M76.8,34.774H51.2V9.173A1.506,1.506,0,0,0,49.7,7.667h0A28.614,28.614,0,1,0,78.311,36.28a1.506,1.506,0,0,0-1.505-1.506ZM49.7,61.882a25.6,25.6,0,0,1-1.506-51.159V36.28A1.506,1.506,0,0,0,49.7,37.786H75.255A25.635,25.635,0,0,1,49.7,61.882Z" transform="translate(-15.059 -1.643)"/>
          </g>
        </g>
        <g id="Elipse_6244" data-name="Elipse 6244" transform="translate(3313 -8664)" fill="none" stroke="#438815" stroke-width="4">
          <circle cx="57.5" cy="57.5" r="57.5" stroke="none"/>
          <circle cx="57.5" cy="57.5" r="55.5" fill="none"/>
        </g>
      </g>
    </g>
  </g>
</svg>
