<svg xmlns="http://www.w3.org/2000/svg" width="132.557" height="132.557" viewBox="0 0 132.557 132.557">
  <g id="Grupo_131969" data-name="Grupo 131969" transform="translate(-655.657 -1248.391)">
    <g id="minimizar" transform="translate(655.657 1248.391)">
      <g id="Grupo_129754" data-name="Grupo 129754" transform="translate(2.138 2.138)">
        <g id="Grupo_129742" data-name="Grupo 129742" transform="translate(76.969 72.693)">
          <path id="Trazado_195034" data-name="Trazado 195034" d="M71.208,55.268v.6a7.726,7.726,0,0,1-4.276,6.927l-.706-2.138A7.767,7.767,0,0,0,60.369,55.5l-6.778.385a8.568,8.568,0,0,0-8.039,8.552v.492H43.414a6.4,6.4,0,0,0-3.57,1.09,20.614,20.614,0,0,1,1.2-22.706,22.762,22.762,0,0,1,1.988-2.288A20.487,20.487,0,0,1,57.568,35h6.222a15.482,15.482,0,0,1,13.833,8.552l.257.043A12.984,12.984,0,0,1,88.312,56.337,21.532,21.532,0,0,1,85.854,66.3,6.379,6.379,0,0,0,81.9,64.932H79.76V60.656a9.575,9.575,0,0,1-5.3-1.625,9.368,9.368,0,0,1-3.228-3.763Z" transform="translate(-37 -35)" fill="#656d78"/>
        </g>
        <g id="Grupo_129743" data-name="Grupo 129743" transform="translate(92.662 115.453)">
          <path id="Trazado_195035" data-name="Trazado 195035" d="M64.266,65.6v.021a14.906,14.906,0,0,1-7.825,2.2H52.165a14.906,14.906,0,0,1-7.825-2.2V65.6L47.889,55H60.717Z" transform="translate(-44.34 -55)" fill="#e6e9ed"/>
        </g>
        <g id="Grupo_129744" data-name="Grupo 129744" transform="translate(119.558 102.625)">
          <path id="Trazado_195036" data-name="Trazado 195036" d="M59.229,61.828H57.091l-.171-.021a11.471,11.471,0,0,0,.171-2.117V49h2.138a6.414,6.414,0,0,1,0,12.828Z" transform="translate(-56.92 -49)" fill="#f0d0b4"/>
        </g>
        <g id="Grupo_129745" data-name="Grupo 129745" transform="translate(76.969 102.625)">
          <path id="Trazado_195037" data-name="Trazado 195037" d="M39.844,50.09A6.4,6.4,0,0,1,43.414,49h2.138V59.69a11.47,11.47,0,0,0,.171,2.117l-.171.021H43.414a6.411,6.411,0,0,1-3.57-11.738Z" transform="translate(-37 -49)" fill="#f0d0b4"/>
        </g>
        <g id="Grupo_129746" data-name="Grupo 129746" transform="translate(85.521 92.961)">
          <path id="Trazado_195038" data-name="Trazado 195038" d="M69.906,48.243a9.575,9.575,0,0,0,5.3,1.625V64.834a11.47,11.47,0,0,1-.171,2.117,14.794,14.794,0,0,1-6.97,10.626l-3.549-10.6H51.69l-3.549,10.6a14.794,14.794,0,0,1-6.97-10.626A11.47,11.47,0,0,1,41,64.834V53.652A8.568,8.568,0,0,1,49.039,45.1l6.778-.385a7.767,7.767,0,0,1,5.858,5.153l.706,2.138a7.726,7.726,0,0,0,4.276-6.927v-.6h.021a9.368,9.368,0,0,0,3.228,3.763Z" transform="translate(-41 -44.48)" fill="#f0d0b4"/>
        </g>
        <g id="Grupo_129747" data-name="Grupo 129747" transform="translate(85.521)">
          <path id="Trazado_195039" data-name="Trazado 195039" d="M83.76,22.38A21.388,21.388,0,1,1,77.5,7.264,21.313,21.313,0,0,1,83.76,22.38Z" transform="translate(-41 -1)" fill="#69d6f4"/>
        </g>
        <g id="Grupo_129748" data-name="Grupo 129748" transform="translate(51.557 51.557)">
          <circle id="Elipse_6223" data-name="Elipse 6223" cx="12.944" cy="12.944" r="12.944" transform="translate(0 0)" fill="#ff826e"/>
        </g>
        <g id="Grupo_129749" data-name="Grupo 129749" transform="translate(68.417 62.002)">
          <path id="Trazado_195040" data-name="Trazado 195040" d="M37.276,30a4.252,4.252,0,0,1,4.191,3.506,12,12,0,0,1-.834,3.4A4.271,4.271,0,1,1,37.276,30Z" transform="translate(-33 -30)" fill="#fc6e51"/>
        </g>
        <g id="Grupo_129750" data-name="Grupo 129750" transform="translate(53.45 53.45)">
          <path id="Trazado_195041" data-name="Trazado 195041" d="M30.276,26A4.276,4.276,0,1,1,26,30.276a3.206,3.206,0,0,1,.086-.791,12.853,12.853,0,0,1,3.4-3.4A3.206,3.206,0,0,1,30.276,26Z" transform="translate(-26 -26)" fill="#fc6e51"/>
        </g>
        <g id="Grupo_129751" data-name="Grupo 129751" transform="translate(0 85.521)">
          <path id="Trazado_195042" data-name="Trazado 195042" d="M22.38,41A21.38,21.38,0,1,1,1,62.38,21.388,21.388,0,0,1,22.38,41Z" transform="translate(-1 -41)" fill="#ff826e"/>
        </g>
        <g id="Grupo_129752" data-name="Grupo 129752" transform="translate(8.552 94.073)">
          <path id="Trazado_195043" data-name="Trazado 195043" d="M30.656,55.69v4.276A2.144,2.144,0,0,1,28.518,62.1H22.1v6.414a2.144,2.144,0,0,1-2.138,2.138H15.69a2.144,2.144,0,0,1-2.138-2.138V62.1H7.138A2.144,2.144,0,0,1,5,59.966V55.69a2.144,2.144,0,0,1,2.138-2.138h6.414V47.138A2.144,2.144,0,0,1,15.69,45h4.276A2.144,2.144,0,0,1,22.1,47.138v6.414h6.414A2.144,2.144,0,0,1,30.656,55.69Z" transform="translate(-5 -45)" fill="#e6e9ed"/>
        </g>
        <g id="Grupo_129753" data-name="Grupo 129753" transform="translate(0 0)">
          <path id="Trazado_195044" data-name="Trazado 195044" d="M18.1,7.414V5.276a4.18,4.18,0,0,1,1.261-3.015A4.18,4.18,0,0,1,22.38,1a4.289,4.289,0,0,1,4.276,4.276V11.69a4.307,4.307,0,0,1,4.276-4.276,4.289,4.289,0,0,1,4.276,4.276V22.38A17.1,17.1,0,0,1,1,22.38V13.828A2.144,2.144,0,0,1,3.138,11.69,6.405,6.405,0,0,1,9.552,18.1V7.414a4.289,4.289,0,0,1,4.276-4.276A4.18,4.18,0,0,1,16.843,4.4,4.18,4.18,0,0,1,18.1,7.414Z" transform="translate(-1 -1)" fill="#f0d0b4"/>
        </g>
      </g>
      <g id="Grupo_129755" data-name="Grupo 129755">
        <path id="Trazado_195045" data-name="Trazado 195045" d="M63.518,47.036A23.518,23.518,0,1,0,40,23.518,23.546,23.546,0,0,0,63.518,47.036ZM44.4,21.38a19.149,19.149,0,0,1,4.1-9.858l2.925,2.925,3.023-3.023L51.522,8.5A19.149,19.149,0,0,1,61.38,4.4v4.15h4.276V4.4a19.149,19.149,0,0,1,9.858,4.1L72.59,11.423l3.023,3.023,2.925-2.925a19.149,19.149,0,0,1,4.1,9.858h-4.15v4.276h4.15a19.149,19.149,0,0,1-4.1,9.858L75.613,32.59,72.59,35.613l2.925,2.925a19.149,19.149,0,0,1-9.858,4.1v-4.15H61.38v4.15a19.149,19.149,0,0,1-9.858-4.1l2.925-2.925L51.423,32.59,48.5,35.515a19.149,19.149,0,0,1-4.1-9.858h4.15V21.38Z" transform="translate(45.521)"/>
        <path id="Trazado_195046" data-name="Trazado 195046" d="M23.518,40A23.518,23.518,0,1,0,47.036,63.518,23.546,23.546,0,0,0,23.518,40Zm0,42.76A19.242,19.242,0,1,1,42.76,63.518,19.266,19.266,0,0,1,23.518,82.76Z" transform="translate(0 45.521)"/>
        <path id="Trazado_195047" data-name="Trazado 195047" d="M56.552,6H52.276v8.552H48v4.276h8.552Z" transform="translate(54.625 6.828)"/>
        <path id="Trazado_195048" data-name="Trazado 195048" d="M25.38,52.552V48.276A4.28,4.28,0,0,0,21.1,44H16.828a4.28,4.28,0,0,0-4.276,4.276v4.276H8.276A4.28,4.28,0,0,0,4,56.828V61.1A4.28,4.28,0,0,0,8.276,65.38h4.276v4.276a4.28,4.28,0,0,0,4.276,4.276H21.1a4.28,4.28,0,0,0,4.276-4.276V65.38h4.276A4.28,4.28,0,0,0,33.932,61.1V56.828a4.28,4.28,0,0,0-4.276-4.276ZM29.656,61.1H21.1v8.552H16.828V61.1H8.276V56.828h8.552V48.276H21.1v8.552h8.552Z" transform="translate(4.552 50.073)"/>
        <path id="Trazado_195049" data-name="Trazado 195049" d="M19.242,42.76A19.266,19.266,0,0,0,38.484,23.518V12.828A6.422,6.422,0,0,0,32.07,6.414a6.342,6.342,0,0,0-2.138.393V6.414A6.4,6.4,0,0,0,18.111,3a6.343,6.343,0,0,0-3.145-.857A6.422,6.422,0,0,0,8.552,8.552v3.327A8.464,8.464,0,0,0,4.276,10.69,4.28,4.28,0,0,0,0,14.966v8.552A19.266,19.266,0,0,0,19.242,42.76ZM4.276,14.966a4.28,4.28,0,0,1,4.276,4.276V22.7l1.182.59A5.572,5.572,0,0,1,12.828,28.3v1.633H17.1V28.3a9.808,9.808,0,0,0-4.276-8.135V8.552a2.138,2.138,0,1,1,4.276,0V21.38H21.38V6.414a2.138,2.138,0,0,1,4.276,0V21.38h4.276V12.828a2.138,2.138,0,0,1,4.276,0v10.69a14.966,14.966,0,1,1-29.932,0Z"/>
        <circle id="Elipse_6224" data-name="Elipse 6224" cx="2.397" cy="2.397" r="2.397" transform="translate(93.966 104.513)"/>
        <ellipse id="Elipse_6225" data-name="Elipse 6225" cx="1.918" cy="2.397" rx="1.918" ry="2.397" transform="translate(111.225 104.513)"/>
        <path id="Trazado_195050" data-name="Trazado 195050" d="M98.386,58.745a17.5,17.5,0,0,0-15.255-8.813H76.923a22.636,22.636,0,0,0-16.651,7.316l-4.785-4.785a14.875,14.875,0,0,0,2.826-6.807H62.76v4.276h4.276V37.1H62.76V41.38H58.313a14.852,14.852,0,0,0-2.826-6.807l3.149-3.149,3.023,3.023,3.023-3.023-9.072-9.072-3.023,3.023L55.611,28.4l-3.149,3.149a14.854,14.854,0,0,0-6.805-2.824V24.276h4.276V20H37.1v4.276H41.38v4.447a14.852,14.852,0,0,0-6.807,2.826L31.423,28.4l3.023-3.023-3.023-3.023-9.072,9.072,3.023,3.023L28.4,31.426l3.149,3.149a14.854,14.854,0,0,0-2.824,6.805H24.276V37.1H20V49.932h4.276V45.656h4.447a14.852,14.852,0,0,0,2.826,6.807L28.4,55.613,25.377,52.59l-3.023,3.023,9.072,9.072,3.023-3.023-3.023-3.023,3.149-3.149a14.875,14.875,0,0,0,6.807,2.826V62.76H37.106v4.276H49.934V62.76H45.658V58.313a14.852,14.852,0,0,0,6.807-2.826l5.189,5.189a22.391,22.391,0,0,0-1.107,21.9A8.527,8.527,0,0,0,62.76,96.969h.562A17.119,17.119,0,0,0,79.864,109.8H84.14a17.121,17.121,0,0,0,16.542-12.828h.562a8.561,8.561,0,0,0,8.552-8.552,8.468,8.468,0,0,0-2.061-5.5,23.525,23.525,0,0,0,2.061-9.508,15.169,15.169,0,0,0-11.411-14.66ZM54.059,44.989a10.473,10.473,0,0,1-.524,2.14,2.08,2.08,0,0,1-1.465.665,2.138,2.138,0,1,1,0-4.276,2.1,2.1,0,0,1,1.988,1.471ZM39.242,37.1a2.133,2.133,0,0,1-4.265.053A10.693,10.693,0,0,1,37.1,35.028,2.157,2.157,0,0,1,39.242,37.1Zm-6.414,6.414a10.431,10.431,0,0,1,.156-1.539,6.351,6.351,0,0,0,4.12,1.539A6.422,6.422,0,0,0,43.518,37.1a6.351,6.351,0,0,0-1.539-4.12,10.431,10.431,0,0,1,1.539-.156,10.7,10.7,0,0,1,9.856,6.562,6.267,6.267,0,0,0-1.3-.148,6.4,6.4,0,0,0-1.839,12.527,10.586,10.586,0,0,1-6.713,2.439A10.7,10.7,0,0,1,32.828,43.518Zm44.094,10.69h6.209a13.262,13.262,0,0,1,11.926,7.37l.468.936,1.276.252a10.881,10.881,0,0,1,8.719,10.639,19.3,19.3,0,0,1-1.338,7.013,8.445,8.445,0,0,0-2.938-.554V75.588H99.107a7.3,7.3,0,0,1-6.812-4.612L90.4,66.243l-3.97,1.589,1.894,4.734c.028.066.064.126.092.192v.188a5.57,5.57,0,0,1-1.11,3.352,9.954,9.954,0,0,0-7.179-5.83,5.662,5.662,0,0,1-4.539-5.537V60.622H71.312V64.93a9.862,9.862,0,0,0,1.973,5.877l-.472.028a10.682,10.682,0,0,0-9.893,9.029h-.16a8.45,8.45,0,0,0-2.578.44,18.381,18.381,0,0,1,16.741-26.1ZM87.531,92.693H76.474l-9.437-9.437V81.506a6.422,6.422,0,0,1,6.031-6.4l6.4-.383a5.654,5.654,0,0,1,4.077,3.692l1.488,4.466,2.2-1.1a9.834,9.834,0,0,0,4.479-4.56,11.512,11.512,0,0,0,5.255,2.452v3.585ZM58.484,88.417A4.28,4.28,0,0,1,62.76,84.14v8.552A4.28,4.28,0,0,1,58.484,88.417Zm8.552,4.276V89.3l6.106,6.106-2.17,6.51A12.779,12.779,0,0,1,67.036,92.693Zm12.828,12.828a12.713,12.713,0,0,1-5.212-1.118l2.478-7.434h9.747l2.478,7.434a12.731,12.731,0,0,1-5.215,1.118Zm13.168-3.6-2.17-6.51L96.969,89.3v3.391a12.779,12.779,0,0,1-3.936,9.226Zm8.212-9.226V84.14a4.276,4.276,0,1,1,0,8.552Z" transform="translate(22.76 22.76)"/>
        <path id="Trazado_195051" data-name="Trazado 195051" d="M7.553,21.654A58,58,0,0,0,6.784,59.4l4.069-1.313a53.742,53.742,0,0,1,.712-34.95Z" transform="translate(4.552 24.643)"/>
        <path id="Trazado_195052" data-name="Trazado 195052" d="M44,8.276a53.432,53.432,0,0,1,16.448,2.578L61.76,6.786A57.921,57.921,0,0,0,19.577,9.407l1.811,3.874A52.989,52.989,0,0,1,44,8.276Z" transform="translate(22.279 4.552)"/>
        <path id="Trazado_195053" data-name="Trazado 195053" d="M60.97,49.331a58.527,58.527,0,0,0,.678-8.877,57.7,57.7,0,0,0-2.784-17.761l-4.069,1.313a53.494,53.494,0,0,1,2.576,16.448,54.161,54.161,0,0,1-.629,8.227Z" transform="translate(62.358 25.825)"/>
        <path id="Trazado_195054" data-name="Trazado 195054" d="M24.006,54.794l-1.313,4.069a57.635,57.635,0,0,0,17.761,2.786,58.149,58.149,0,0,0,11.1-1.067l-.819-4.2a54.023,54.023,0,0,1-26.727-1.591Z" transform="translate(25.825 62.356)"/>
      </g>
    </g>
  </g>
</svg>
