<svg xmlns="http://www.w3.org/2000/svg" width="129.302" height="129.302" viewBox="0 0 129.302 129.302">
  <g id="Grupo_131971" data-name="Grupo 131971" transform="translate(-1692.575 10195.004)">
    <g id="informacion-personal" transform="translate(1692.575 -10195.004)">
      <g id="Grupo_129768" data-name="Grupo 129768" transform="translate(2.086 2.086)">
        <g id="Grupo_129756" data-name="Grupo 129756" transform="translate(14.599)">
          <path id="Trazado_195055" data-name="Trazado 195055" d="M91.421,1V26.026H89.335v-14.6A2.092,2.092,0,0,0,87.25,9.342H8V1Z" transform="translate(-8 -1)" fill="#f0d0b4"/>
        </g>
        <g id="Grupo_129757" data-name="Grupo 129757" transform="translate(10.428 8.342)">
          <path id="Trazado_195056" data-name="Trazado 195056" d="M91.506,7.086v14.6H42.747a2.092,2.092,0,0,1-1.877-1.147l-3-6.048a2.092,2.092,0,0,0-1.877-1.147H6V5H89.421a2.092,2.092,0,0,1,2.086,2.086Z" transform="translate(-6 -5)" fill="#e6e9ed"/>
        </g>
        <g id="Grupo_129758" data-name="Grupo 129758" transform="translate(0 45.881)">
          <path id="Trazado_195057" data-name="Trazado 195057" d="M1,100.164V23H88.592A20.836,20.836,0,0,0,80.25,39.684v15.37a24.681,24.681,0,0,0-4.171,13.827,25,25,0,0,0,29.2,24.672v6.611a2.092,2.092,0,0,1-2.086,2.086H3.086A2.092,2.092,0,0,1,1,100.164Z" transform="translate(-1 -23)" fill="#e6e9ed"/>
        </g>
        <g id="Grupo_129759" data-name="Grupo 129759" transform="translate(0 16.684)">
          <path id="Trazado_195058" data-name="Trazado 195058" d="M105.276,19.428V34.443A20.9,20.9,0,0,0,88.592,38.2H1V11.086A2.092,2.092,0,0,1,3.086,9H41.417a2.092,2.092,0,0,1,1.877,1.147l3,6.048a2.092,2.092,0,0,0,1.877,1.147H103.19a2.092,2.092,0,0,1,2.086,2.086Z" transform="translate(-1 -9)" fill="#5cd6b3"/>
        </g>
        <g id="Grupo_129760" data-name="Grupo 129760" transform="translate(29.197 54.224)">
          <path id="Trazado_195059" data-name="Trazado 195059" d="M23.342,56.2a10.435,10.435,0,0,0,5.9,9.406L27.513,70.8a11.4,11.4,0,0,0-4.922,3.253,4.37,4.37,0,0,0-.292.355A15.123,15.123,0,0,1,15,61.474V45.77a18.77,18.77,0,0,1,37.539,0v15.7a15.123,15.123,0,0,1-7.3,12.93A11.142,11.142,0,0,0,40.026,70.8L38.3,65.6l2.857-2.023A10.473,10.473,0,0,0,44.2,56.2V49.941a4.183,4.183,0,0,0-4.171-4.171H38.274a9.066,9.066,0,0,1-5.527-1.877L26.7,45.1a4.173,4.173,0,0,0-3.358,4.088Z" transform="translate(-15 -27)" fill="#b27946"/>
        </g>
        <g id="Grupo_129761" data-name="Grupo 129761" transform="translate(33.368 98.019)">
          <path id="Trazado_195060" data-name="Trazado 195060" d="M31.6,54.257,37.855,48a11.142,11.142,0,0,1,5.214,3.608A11.3,11.3,0,0,1,45.4,56.551l.792,3.962H17l.792-3.962a11.3,11.3,0,0,1,2.336-4.943,4.368,4.368,0,0,1,.292-.355A11.4,11.4,0,0,1,25.342,48Z" transform="translate(-17 -48)" fill="#ff826e"/>
        </g>
        <g id="Grupo_129762" data-name="Grupo 129762" transform="translate(41.71 92.826)">
          <path id="Trazado_195061" data-name="Trazado 195061" d="M22.731,45.51a10.532,10.532,0,0,0,9.051,0L33.513,50.7,27.257,56.96,21,50.7Z" transform="translate(-21 -45.51)" fill="#f0d0b4"/>
        </g>
        <g id="Grupo_129763" data-name="Grupo 129763" transform="translate(37.539 71.116)">
          <path id="Trazado_195062" data-name="Trazado 195062" d="M36.81,54.787,33.953,56.81A10.428,10.428,0,0,1,19,47.4V40.4a4.173,4.173,0,0,1,3.358-4.088l6.048-1.21a9.066,9.066,0,0,0,5.527,1.877h1.752a4.183,4.183,0,0,1,4.171,4.171V47.4A10.473,10.473,0,0,1,36.81,54.787Z" transform="translate(-19 -35.1)" fill="#f0d0b4"/>
        </g>
        <g id="Grupo_129764" data-name="Grupo 129764" transform="translate(79.25 41.71)">
          <path id="Trazado_195063" data-name="Trazado 195063" d="M80.71,41.855V57.2a25.421,25.421,0,0,0-8.342-7.842V41.855A12.532,12.532,0,0,0,59.855,29.342,12.523,12.523,0,0,0,47.342,41.855v7.508A24.875,24.875,0,0,0,39,57.225V41.855a20.855,20.855,0,0,1,41.71,0Z" transform="translate(-39 -21)" fill="#aab2bd"/>
        </g>
        <g id="Grupo_129765" data-name="Grupo 129765" transform="translate(75.079 66.737)">
          <path id="Trazado_195064" data-name="Trazado 195064" d="M74.539,36.337a25.422,25.422,0,0,1,8.342,7.842A25.03,25.03,0,1,1,37,58.026,25.048,25.048,0,0,1,74.539,36.337Z" transform="translate(-37 -33)" fill="#fcd770"/>
        </g>
        <g id="Grupo_129766" data-name="Grupo 129766" transform="translate(83.421 75.079)">
          <path id="Trazado_195065" data-name="Trazado 195065" d="M57.684,37A16.684,16.684,0,1,1,41,53.684,16.68,16.68,0,0,1,57.684,37Z" transform="translate(-41 -37)" fill="#ffeaa7"/>
        </g>
        <g id="Grupo_129767" data-name="Grupo 129767" transform="translate(96.427 82.993)">
          <ellipse id="Elipse_6226" data-name="Elipse 6226" cx="3.918" cy="4.478" rx="3.918" ry="4.478" transform="translate(0 0)" fill="#5cd6b3"/>
        </g>
      </g>
      <g id="Grupo_129769" data-name="Grupo 129769">
        <path id="Trazado_195066" data-name="Trazado 195066" d="M52.257,40a6.241,6.241,0,0,0-2.086,12.129v8.726h4.171V52.129A6.241,6.241,0,0,0,52.257,40Zm0,8.342a2.086,2.086,0,1,1,2.086-2.086A2.088,2.088,0,0,1,52.257,48.342Z" transform="translate(49.934 43.421)"/>
        <path id="Trazado_195067" data-name="Trazado 195067" d="M58.77,36a18.77,18.77,0,1,0,18.77,18.77A18.791,18.791,0,0,0,58.77,36Zm0,33.368a14.6,14.6,0,1,1,14.6-14.6A14.616,14.616,0,0,1,58.77,69.368Z" transform="translate(43.421 39.079)"/>
        <path id="Trazado_195068" data-name="Trazado 195068" d="M129.3,89.506a26.9,26.9,0,0,0-4.171-14.382V60.309a22.969,22.969,0,0,0-16.684-22.052v-13.4a4.175,4.175,0,0,0-4.171-4.171H100.1V8.171A4.175,4.175,0,0,0,95.934,4H12.513V8.171H95.934V20.684H49.256l-3.018-6.038a4.15,4.15,0,0,0-3.731-2.3H4.171A4.175,4.175,0,0,0,0,16.513V120.789a4.175,4.175,0,0,0,4.171,4.171h100.1a4.175,4.175,0,0,0,4.171-4.171v-4.928A27.141,27.141,0,0,0,129.3,89.506Zm-8.342-29.2v9.679a27.22,27.22,0,0,0-4.171-3.291V60.309a14.6,14.6,0,1,0-29.2,0V66.7a27.22,27.22,0,0,0-4.171,3.291V60.309a18.77,18.77,0,1,1,37.539,0Zm-8.342,4.177a27.037,27.037,0,0,0-20.855,0V60.309a10.428,10.428,0,1,1,20.855,0ZM42.507,16.513l3.018,6.038a4.15,4.15,0,0,0,3.731,2.3h55.02V37.475c-.688-.063-1.381-.106-2.086-.106a22.8,22.8,0,0,0-13.149,4.171H4.171V16.513Zm61.769,104.276H4.171V45.71H84.507a22.834,22.834,0,0,0-5.258,14.6V75.125a27.06,27.06,0,0,0,22.941,41.494c.7,0,1.4-.052,2.086-.106Zm-2.086-8.342a22.941,22.941,0,1,1,22.941-22.941A22.968,22.968,0,0,1,102.19,112.447Z" transform="translate(0 4.342)"/>
        <path id="Trazado_195069" data-name="Trazado 195069" d="M8,0H91.421V4.171H8Z" transform="translate(8.684)"/>
        <path id="Trazado_195070" data-name="Trazado 195070" d="M6,14h4.171v8.342H6Z" transform="translate(6.513 15.197)"/>
        <path id="Trazado_195071" data-name="Trazado 195071" d="M10,14h4.171v8.342H10Z" transform="translate(10.855 15.197)"/>
        <path id="Trazado_195072" data-name="Trazado 195072" d="M14,14h4.171v8.342H14Z" transform="translate(15.197 15.197)"/>
        <path id="Trazado_195073" data-name="Trazado 195073" d="M4,56h8.342v4.171H4Z" transform="translate(4.342 60.789)"/>
        <path id="Trazado_195074" data-name="Trazado 195074" d="M10,56h8.342v4.171H10Z" transform="translate(10.855 60.789)"/>
        <path id="Trazado_195075" data-name="Trazado 195075" d="M4,52H24.855v4.171H4Z" transform="translate(4.342 56.447)"/>
        <path id="Trazado_195076" data-name="Trazado 195076" d="M4,48H8.171v4.171H4Z" transform="translate(4.342 52.105)"/>
        <path id="Trazado_195077" data-name="Trazado 195077" d="M8,48H20.513v4.171H8Z" transform="translate(8.684 52.105)"/>
        <path id="Trazado_195078" data-name="Trazado 195078" d="M25.308,41.767H22v4.171h3.308a9.145,9.145,0,0,0,6.511-2.7l-2.951-2.949a5,5,0,0,1-3.56,1.474Z" transform="translate(23.881 43.739)"/>
        <path id="Trazado_195079" data-name="Trazado 195079" d="M34.855,26A20.879,20.879,0,0,0,14,46.855v15.7a17.277,17.277,0,0,0,6.526,13.468,13.368,13.368,0,0,0-1.52,4L17.712,86.48H52l-1.291-6.457a13.368,13.368,0,0,0-1.52-4A17.275,17.275,0,0,0,55.71,62.555v-15.7A20.879,20.879,0,0,0,34.855,26ZM22.8,82.309l.294-1.466A9.31,9.31,0,0,1,28.1,74.334l6.751,6.753,6.753-6.753a9.306,9.306,0,0,1,5.009,6.509l.292,1.466ZM34.855,65.625a8.35,8.35,0,0,1-8.342-8.342V50.275a2.086,2.086,0,0,1,1.677-2.044L33.347,47.2a11.237,11.237,0,0,0,6.017,1.741h1.748A2.088,2.088,0,0,1,43.2,51.026v6.257A8.35,8.35,0,0,1,34.855,65.625Zm0,4.171a12.506,12.506,0,0,0,3.218-.434l.653,1.958-3.871,3.869-3.871-3.871.653-1.958A12.417,12.417,0,0,0,34.855,69.8Zm16.684-7.241a13.085,13.085,0,0,1-4.949,10.2,13.424,13.424,0,0,0-3.812-2.476l-.886-2.661a12.512,12.512,0,0,0,5.477-10.34V51.026a6.264,6.264,0,0,0-6.257-6.257H39.364a7.067,7.067,0,0,1-4.905-1.977l-.013-.067-.046.008a7.049,7.049,0,0,1-1.737-2.795l-3.956,1.32a11.294,11.294,0,0,0,1.122,2.39l-2.455.49a6.273,6.273,0,0,0-5.032,6.136v7.007a12.509,12.509,0,0,0,5.479,10.34l-.886,2.661a13.379,13.379,0,0,0-3.812,2.476,13.08,13.08,0,0,1-4.951-10.2v-15.7a16.684,16.684,0,0,1,33.368,0Z" transform="translate(15.197 28.224)"/>
      </g>
    </g>
  </g>
</svg>
