<svg xmlns="http://www.w3.org/2000/svg" width="81.091" height="73.106" viewBox="0 0 81.091 73.106">
  <g id="Grupo_131968" data-name="Grupo 131968" transform="translate(-451.295 -1886.31)">
    <g id="lenguajes-informaticos" transform="translate(451.295 1886.311)">
      <path id="Trazado_196302" data-name="Trazado 196302" d="M195.091,271.559a18.617,18.617,0,0,1-.971,2.893,8.9,8.9,0,0,1-8.067,5.195c-1.478.063-2.956,0-4.561,0v.971c0,4.414.021,8.806.042,13.219,0,.824-.106,1.542-.929,1.922a1.765,1.765,0,0,1-2.091-.634c-4.9-4.941-9.82-9.883-14.7-14.846a1.878,1.878,0,0,0-1.52-.612q-19.354.032-38.708,0a9.226,9.226,0,0,1-9.144-6.441c-.169-.486-.3-.992-.443-1.5V230.866a.992.992,0,0,0,.127-.19,9.345,9.345,0,0,1,9.63-7.877c9.482.063,18.942.021,28.424.021h33.408a8.8,8.8,0,0,1,7.771,3.949,22.1,22.1,0,0,1,1.732,4.1Zm-16.746,18.689v-.866c0-3.632-.021-7.285-.021-10.918a1.69,1.69,0,0,1,1.943-1.943c1.711-.021,3.421,0,5.153,0,3.991,0,6.525-2.513,6.525-6.525V232.618c0-4.1-2.513-6.61-6.61-6.61H123.82c-4.1,0-6.631,2.513-6.631,6.589,0,12.438.063,24.855-.042,37.293a6.45,6.45,0,0,0,6.694,6.673c13.135-.106,26.291-.042,39.426-.042a2.775,2.775,0,0,1,2.112.866c1.732,1.795,3.505,3.569,5.3,5.343C173.171,285.2,175.726,287.693,178.345,290.248Z" transform="translate(-114 -222.799)" fill="#30610c"/>
      <path id="Trazado_196303" data-name="Trazado 196303" d="M362.612,378.807a26.989,26.989,0,0,1-.211,3.463,5.313,5.313,0,0,1-10.474-.422,37.323,37.323,0,0,1,0-6.145,5.2,5.2,0,0,1,5.617-4.625,5.345,5.345,0,0,1,4.984,5.11c.021.866,0,1.732,0,2.619Zm-3.231-.021c0-.76.021-1.52,0-2.3a2.158,2.158,0,0,0-2.091-2.238,2.07,2.07,0,0,0-2.238,2.048c-.063,1.647-.063,3.315,0,4.984a2.1,2.1,0,0,0,2.26,2.048,2.138,2.138,0,0,0,2.069-2.175C359.4,380.37,359.381,379.588,359.381,378.786Z" transform="translate(-301.583 -339.761)" fill="#30610c"/>
      <path id="Trazado_196304" data-name="Trazado 196304" d="M362.612,276.1a21.7,21.7,0,0,1-.021,3.315,5.3,5.3,0,0,1-10.5-.359,38.987,38.987,0,0,1,.021-6.082,5.189,5.189,0,0,1,5.638-4.6,5.326,5.326,0,0,1,4.963,5.11c.021.866,0,1.732,0,2.619Zm-3.083-.063c0-.76.021-1.52,0-2.3a2.169,2.169,0,0,0-2.112-2.217,2.1,2.1,0,0,0-2.217,2.091c-.063,1.626-.063,3.273,0,4.9a2.1,2.1,0,0,0,2.217,2.091,2.124,2.124,0,0,0,2.112-2.2C359.55,277.62,359.529,276.818,359.529,276.036Z" transform="translate(-301.73 -258.741)" fill="#30610c"/>
      <path id="Trazado_196305" data-name="Trazado 196305" d="M209,275.933a25.7,25.7,0,0,1,.211-3.379,5.243,5.243,0,0,1,5.469-4.266,5.159,5.159,0,0,1,5,4.709,38.98,38.98,0,0,1,0,6.082,5.194,5.194,0,0,1-5.6,4.646,5.327,5.327,0,0,1-5-5.174c-.021-.866,0-1.732,0-2.619Zm3.231.063c0,.781-.021,1.584,0,2.365a2.152,2.152,0,0,0,2.07,2.175,2.054,2.054,0,0,0,2.238-1.964q.127-2.566,0-5.132a2.041,2.041,0,0,0-2.238-1.964,2.165,2.165,0,0,0-2.091,2.154C212.21,274.413,212.231,275.215,212.231,276Z" transform="translate(-188.938 -258.681)" fill="#30610c"/>
      <path id="Trazado_196306" data-name="Trazado 196306" d="M184.181,378.865a31.432,31.432,0,0,1-.19,3.463,5.23,5.23,0,0,1-5.554,4.266,5.173,5.173,0,0,1-4.941-4.773,37.912,37.912,0,0,1,.021-6,5.2,5.2,0,0,1,5.6-4.646,5.329,5.329,0,0,1,5,5.089c.021.866,0,1.732,0,2.619A.078.078,0,0,1,184.181,378.865Zm-3.231.042c0-.76.021-1.52,0-2.3a2.143,2.143,0,0,0-2.048-2.26,2.09,2.09,0,0,0-2.281,2.091c-.063,1.626-.063,3.273,0,4.9a2.081,2.081,0,0,0,2.217,2.069,2.169,2.169,0,0,0,2.112-2.217C180.971,380.428,180.95,379.668,180.95,378.907Z" transform="translate(-160.846 -339.84)" fill="#30610c"/>
      <path id="Trazado_196307" data-name="Trazado 196307" d="M255.666,378.727c0,.845.021,1.689,0,2.534a5.326,5.326,0,0,1-10.643.106c-.063-1.774-.063-3.548,0-5.3A5.253,5.253,0,0,1,250.429,371a5.307,5.307,0,0,1,5.237,5.174C255.687,377.037,255.666,377.882,255.666,378.727Zm-3.189,0c0-.824.021-1.626,0-2.45a2.1,2.1,0,0,0-2.154-2.069,2.079,2.079,0,0,0-2.154,2.069c-.042,1.668-.042,3.315,0,4.984a2.156,2.156,0,0,0,4.308-.042C252.519,380.353,252.5,379.55,252.477,378.727Z" transform="translate(-217.316 -339.702)" fill="#30610c"/>
      <path id="Trazado_196308" data-name="Trazado 196308" d="M283.768,276.029v5.85c0,1.183-.591,1.858-1.584,1.858-.971,0-1.584-.7-1.584-1.858v-11.72c0-1.161.612-1.858,1.584-1.858.992,0,1.563.676,1.584,1.858Z" transform="translate(-245.418 -258.692)" fill="#30610c"/>
      <path id="Trazado_196309" data-name="Trazado 196309" d="M316.4,276.108v-5.85c0-1.183.591-1.858,1.584-1.858s1.584.676,1.584,1.858v11.72c0,1.161-.612,1.858-1.6,1.858s-1.563-.676-1.563-1.858Z" transform="translate(-273.658 -258.771)" fill="#30610c"/>
      <path id="Trazado_196310" data-name="Trazado 196310" d="M316.4,378.908v-5.849c0-1.183.591-1.858,1.563-1.858.992,0,1.6.7,1.6,1.858v11.72c0,1.161-.612,1.858-1.584,1.858-.993,0-1.584-.676-1.584-1.858Z" transform="translate(-273.658 -339.862)" fill="#30610c"/>
      <path id="Trazado_196311" data-name="Trazado 196311" d="M423.421,276.1v-5.7a3.249,3.249,0,0,1,.106-1.014,1.441,1.441,0,0,1,1.542-.993,1.409,1.409,0,0,1,1.394,1.077,3.736,3.736,0,0,1,.106,1.1v11.087c0,.211,0,.422-.021.634a1.575,1.575,0,0,1-1.668,1.542A1.508,1.508,0,0,1,423.4,282.2c0-2.048.021-4.076.021-6.1Z" transform="translate(-358.062 -258.758)" fill="#30610c"/>
      <path id="Trazado_196312" data-name="Trazado 196312" d="M176.608,276.148c0,2.027.021,4.055,0,6.1a1.5,1.5,0,0,1-1.225,1.542,1.535,1.535,0,0,1-1.732-.8,2.284,2.284,0,0,1-.211-.908c-.021-3.991-.021-7.961,0-11.952a1.56,1.56,0,0,1,1.626-1.732,1.535,1.535,0,0,1,1.52,1.753c.042,1.985.021,3.991.021,6Z" transform="translate(-160.876 -258.769)" fill="#30610c"/>
      <path id="Trazado_196313" data-name="Trazado 196313" d="M423.342,378.829v-5.7a2.855,2.855,0,0,1,.084-.95A1.456,1.456,0,0,1,424.9,371.1a1.439,1.439,0,0,1,1.478,1.077,3.249,3.249,0,0,1,.106,1.014v11.234a4.593,4.593,0,0,1-.021.549,1.563,1.563,0,0,1-1.668,1.542,1.537,1.537,0,0,1-1.5-1.626c.021-2.006.042-4.033.042-6.061Z" transform="translate(-357.984 -339.783)" fill="#30610c"/>
    </g>
  </g>
</svg>
