<svg xmlns="http://www.w3.org/2000/svg" xmlns:xlink="http://www.w3.org/1999/xlink" width="1030" height="721.677" viewBox="0 0 1030 721.677">
  <defs>
    <filter id="Trazado_196418" x="411" y="40.982" width="199" height="121" filterUnits="userSpaceOnUse">
      <feOffset dy="3" input="SourceAlpha"/>
      <feGaussianBlur stdDeviation="3" result="blur"/>
      <feFlood flood-opacity="0.161"/>
      <feComposite operator="in" in2="blur"/>
      <feComposite in="SourceGraphic"/>
    </filter>
    <filter id="Trazado_196419" x="137" y="220.982" width="199" height="121" filterUnits="userSpaceOnUse">
      <feOffset dy="3" input="SourceAlpha"/>
      <feGaussianBlur stdDeviation="3" result="blur-2"/>
      <feFlood flood-opacity="0.161"/>
      <feComposite operator="in" in2="blur-2"/>
      <feComposite in="SourceGraphic"/>
    </filter>
    <filter id="Trazado_196420" x="214" y="534.982" width="199" height="121" filterUnits="userSpaceOnUse">
      <feOffset dy="3" input="SourceAlpha"/>
      <feGaussianBlur stdDeviation="3" result="blur-3"/>
      <feFlood flood-opacity="0.161"/>
      <feComposite operator="in" in2="blur-3"/>
      <feComposite in="SourceGraphic"/>
    </filter>
    <filter id="Trazado_196297" x="694" y="220.982" width="199" height="121" filterUnits="userSpaceOnUse">
      <feOffset dy="3" input="SourceAlpha"/>
      <feGaussianBlur stdDeviation="3" result="blur-4"/>
      <feFlood flood-opacity="0.161"/>
      <feComposite operator="in" in2="blur-4"/>
      <feComposite in="SourceGraphic"/>
    </filter>
    <filter id="Trazado_191674" x="614" y="524.982" width="199" height="121" filterUnits="userSpaceOnUse">
      <feOffset dy="3" input="SourceAlpha"/>
      <feGaussianBlur stdDeviation="3" result="blur-5"/>
      <feFlood flood-opacity="0.161"/>
      <feComposite operator="in" in2="blur-5"/>
      <feComposite in="SourceGraphic"/>
    </filter>
  </defs>
  <g id="Grupo_131950" data-name="Grupo 131950" transform="translate(-285 -662.454)">
    <path id="Trazado_196417" data-name="Trazado 196417" d="M40,0H990a40,40,0,0,1,40,40V664a40,40,0,0,1-40,40H40A40,40,0,0,1,0,664V40A40,40,0,0,1,40,0Z" transform="translate(285 663.484)" fill="#f6f6f6"/>
    <g transform="matrix(1, 0, 0, 1, 285, 662.45)" filter="url(#Trazado_196418)">
      <path id="Trazado_196418-2" data-name="Trazado 196418" d="M25,0H156a25,25,0,0,1,25,25V78a25,25,0,0,1-25,25H25A25,25,0,0,1,0,78V25A25,25,0,0,1,25,0Z" transform="translate(420 46.98)" fill="#bbbff2"/>
    </g>
    <g transform="matrix(1, 0, 0, 1, 285, 662.45)" filter="url(#Trazado_196419)">
      <path id="Trazado_196419-2" data-name="Trazado 196419" d="M25,0H156a25,25,0,0,1,25,25V78a25,25,0,0,1-25,25H25A25,25,0,0,1,0,78V25A25,25,0,0,1,25,0Z" transform="translate(146 226.98)" fill="#bae49b"/>
    </g>
    <g transform="matrix(1, 0, 0, 1, 285, 662.45)" filter="url(#Trazado_196420)">
      <path id="Trazado_196420-2" data-name="Trazado 196420" d="M25,0H156a25,25,0,0,1,25,25V78a25,25,0,0,1-25,25H25A25,25,0,0,1,0,78V25A25,25,0,0,1,25,0Z" transform="translate(223 540.98)" fill="#f2e4ac"/>
    </g>
    <g transform="matrix(1, 0, 0, 1, 285, 662.45)" filter="url(#Trazado_196297)">
      <path id="Trazado_196297-2" data-name="Trazado 196297" d="M25,0H156a25,25,0,0,1,25,25V78a25,25,0,0,1-25,25H25A25,25,0,0,1,0,78V25A25,25,0,0,1,25,0Z" transform="translate(703 226.98)" fill="#bae49b"/>
    </g>
    <g transform="matrix(1, 0, 0, 1, 285, 662.45)" filter="url(#Trazado_191674)">
      <path id="Trazado_191674-2" data-name="Trazado 191674" d="M25,0H156a25,25,0,0,1,25,25V78a25,25,0,0,1-25,25H25A25,25,0,0,1,0,78V25A25,25,0,0,1,25,0Z" transform="translate(623 530.98)" fill="#f2e4ac"/>
    </g>
    <path id="Trazado_196421" data-name="Trazado 196421" d="M7.348,0H4.377V-9.457L1.459-8.6v-2.25L7.075-12.8h.272Zm5.739-2.874a1.686,1.686,0,0,1,1.169.417,1.37,1.37,0,0,1,.466,1.068,1.37,1.37,0,0,1-.466,1.068A1.686,1.686,0,0,1,13.087.1a1.672,1.672,0,0,1-1.173-.422,1.379,1.379,0,0,1-.461-1.063,1.379,1.379,0,0,1,.461-1.063A1.672,1.672,0,0,1,13.087-2.874ZM32.01,0H28.942V-5.344H24.4V0H21.313V-12.8H24.4v5.08h4.544V-12.8H32.01Zm7.172,0A3.344,3.344,0,0,1,38.9-.853,2.754,2.754,0,0,1,36.615.176,3.374,3.374,0,0,1,34.33-.637a2.588,2.588,0,0,1-.94-2.043,2.66,2.66,0,0,1,1.143-2.338,5.821,5.821,0,0,1,3.322-.791h.914v-.5q0-1.316-1.134-1.316A.927.927,0,0,0,36.58-6.587H33.618a2.655,2.655,0,0,1,1.173-2.239,4.931,4.931,0,0,1,2.993-.86,4.323,4.323,0,0,1,2.874.888,3.086,3.086,0,0,1,1.081,2.435v4.21a4.311,4.311,0,0,0,.4,2V0ZM37.327-1.934a1.652,1.652,0,0,0,.918-.237,1.487,1.487,0,0,0,.523-.536V-4.228h-.861q-1.547,0-1.547,1.389a.848.848,0,0,0,.272.655A.986.986,0,0,0,37.327-1.934Zm11.8-4.9-.976-.07a1.752,1.752,0,0,0-1.793.879V0H43.4V-9.51h2.777l.1,1.222a2.294,2.294,0,0,1,2.083-1.4,2.888,2.888,0,0,1,.826.105Zm.694,2a5.809,5.809,0,0,1,.976-3.56,3.211,3.211,0,0,1,2.725-1.3,2.731,2.731,0,0,1,2.145,1V-13.5h2.971V0H55.978l-.149-1.02a2.8,2.8,0,0,1-2.32,1.2,3.205,3.205,0,0,1-2.689-1.3A5.993,5.993,0,0,1,49.825-4.825Zm2.962.185q0,2.531,1.477,2.531a1.458,1.458,0,0,0,1.406-.826V-6.557A1.419,1.419,0,0,0,54.281-7.4Q52.91-7.4,52.8-5.186Zm15.75.738L69.5-9.51h2.839L70.093,0h-2.5L66.015-5.643,64.433,0h-2.5L59.687-9.51h2.839l.94,5.739L64.978-9.51h2.065ZM78.75,0a3.344,3.344,0,0,1-.281-.853A2.754,2.754,0,0,1,76.184.176,3.374,3.374,0,0,1,73.9-.637a2.588,2.588,0,0,1-.94-2.043A2.66,2.66,0,0,1,74.1-5.019a5.821,5.821,0,0,1,3.322-.791h.914v-.5q0-1.316-1.134-1.316a.927.927,0,0,0-1.055,1.042H73.187A2.655,2.655,0,0,1,74.36-8.825a4.931,4.931,0,0,1,2.993-.86,4.323,4.323,0,0,1,2.874.888,3.086,3.086,0,0,1,1.081,2.435v4.21a4.311,4.311,0,0,0,.4,2V0ZM76.9-1.934a1.652,1.652,0,0,0,.918-.237,1.487,1.487,0,0,0,.523-.536V-4.228h-.861q-1.547,0-1.547,1.389a.848.848,0,0,0,.272.655A.986.986,0,0,0,76.9-1.934Zm11.8-4.9-.976-.07a1.752,1.752,0,0,0-1.793.879V0H82.969V-9.51h2.777l.1,1.222a2.294,2.294,0,0,1,2.083-1.4,2.888,2.888,0,0,1,.826.105Zm5.669,7a4.889,4.889,0,0,1-3.542-1.305,4.507,4.507,0,0,1-1.354-3.4v-.246a5.84,5.84,0,0,1,.541-2.575,3.955,3.955,0,0,1,1.578-1.727,4.763,4.763,0,0,1,2.461-.611,4.117,4.117,0,0,1,3.164,1.244,4.887,4.887,0,0,1,1.16,3.467v1.151H92.487a2.135,2.135,0,0,0,.694,1.257,2.066,2.066,0,0,0,1.389.457,2.662,2.662,0,0,0,2.2-.984l1.354,1.6A3.784,3.784,0,0,1,96.552-.277,5.3,5.3,0,0,1,94.368.176ZM94.034-7.4q-1.3,0-1.547,1.723h2.988v-.229a1.467,1.467,0,0,0-.36-1.1A1.434,1.434,0,0,0,94.034-7.4Z" transform="translate(744 767.436)"/>
    <path id="Trazado_196422" data-name="Trazado 196422" d="M-58.632-6.251l.782-6.546h7.479v2.3h-5.071l-.29,2.542a3.493,3.493,0,0,1,.831-.327,3.79,3.79,0,0,1,1.006-.141,3.754,3.754,0,0,1,2.931,1.129,4.549,4.549,0,0,1,1.024,3.168,4.541,4.541,0,0,1-.549,2.228A3.776,3.776,0,0,1-52.031-.36a4.87,4.87,0,0,1-2.347.536,5.24,5.24,0,0,1-2.259-.5,4.052,4.052,0,0,1-1.652-1.361,3.308,3.308,0,0,1-.589-1.954h2.971a1.68,1.68,0,0,0,.448,1.114,1.423,1.423,0,0,0,1.063.412q1.494,0,1.494-2.21,0-2.044-1.828-2.044a1.824,1.824,0,0,0-1.547.667ZM-46.5-2.874a1.686,1.686,0,0,1,1.169.417,1.37,1.37,0,0,1,.466,1.068,1.37,1.37,0,0,1-.466,1.068A1.686,1.686,0,0,1-46.5.1a1.672,1.672,0,0,1-1.173-.422,1.379,1.379,0,0,1-.461-1.063,1.379,1.379,0,0,1,.461-1.063A1.672,1.672,0,0,1-46.5-2.874Zm11.312.5h5.37V0h-8.455V-12.8h3.085ZM-24.056.176A4.889,4.889,0,0,1-27.6-1.129a4.507,4.507,0,0,1-1.354-3.4v-.246a5.84,5.84,0,0,1,.541-2.575,3.955,3.955,0,0,1,1.578-1.727,4.763,4.763,0,0,1,2.461-.611,4.117,4.117,0,0,1,3.164,1.244,4.887,4.887,0,0,1,1.16,3.467v1.151h-5.889a2.135,2.135,0,0,0,.694,1.257,2.066,2.066,0,0,0,1.389.457,2.662,2.662,0,0,0,2.2-.984l1.354,1.6A3.784,3.784,0,0,1-21.872-.277,5.3,5.3,0,0,1-24.056.176ZM-24.39-7.4q-1.3,0-1.547,1.723h2.988v-.229a1.467,1.467,0,0,0-.36-1.1A1.434,1.434,0,0,0-24.39-7.4Zm8.253-2.109.1,1.116a3.225,3.225,0,0,1,2.716-1.292A2.713,2.713,0,0,1-11.1-8.8a4.226,4.226,0,0,1,.76,2.672V0h-2.971V-6a1.6,1.6,0,0,0-.29-1.059A1.342,1.342,0,0,0-14.66-7.4a1.413,1.413,0,0,0-1.292.686V0h-2.962V-9.51Zm7.084,4.685a6.421,6.421,0,0,1,.475-2.549A3.821,3.821,0,0,1-7.216-9.083a3.591,3.591,0,0,1,2.065-.6,2.855,2.855,0,0,1,2.32,1l.105-.826H-.035V-.36A4.009,4.009,0,0,1-.62,1.824,3.75,3.75,0,0,1-2.312,3.248a6.219,6.219,0,0,1-2.566.5,5.365,5.365,0,0,1-2.026-.4A3.657,3.657,0,0,1-8.4,2.32L-7.163.58a2.716,2.716,0,0,0,2.18.976A1.764,1.764,0,0,0-3.015-.466v-.3a2.781,2.781,0,0,1-2.153.94A3.437,3.437,0,0,1-7.98-1.156,5.517,5.517,0,0,1-9.053-4.72Zm2.971.185a3.383,3.383,0,0,0,.439,1.85,1.386,1.386,0,0,0,1.23.681,1.573,1.573,0,0,0,1.4-.642v-4a1.534,1.534,0,0,0-1.38-.65,1.4,1.4,0,0,0-1.239.708A3.858,3.858,0,0,0-6.082-4.641ZM7.313-1.028a3.054,3.054,0,0,1-2.54,1.2A3,3,0,0,1,2.4-.734a3.826,3.826,0,0,1-.8-2.615V-9.51H4.562v6.179A1.065,1.065,0,0,0,5.748-2.109,1.548,1.548,0,0,0,7.2-2.839V-9.51h2.979V0H7.4ZM17.156,0a3.344,3.344,0,0,1-.281-.853A2.754,2.754,0,0,1,14.59.176,3.374,3.374,0,0,1,12.3-.637a2.588,2.588,0,0,1-.94-2.043,2.66,2.66,0,0,1,1.143-2.338,5.821,5.821,0,0,1,3.322-.791h.914v-.5q0-1.316-1.134-1.316a.927.927,0,0,0-1.055,1.042H11.593a2.655,2.655,0,0,1,1.173-2.239,4.931,4.931,0,0,1,2.993-.86,4.323,4.323,0,0,1,2.874.888,3.086,3.086,0,0,1,1.081,2.435v4.21a4.311,4.311,0,0,0,.4,2V0ZM15.3-1.934a1.652,1.652,0,0,0,.918-.237,1.487,1.487,0,0,0,.523-.536V-4.228h-.861q-1.547,0-1.547,1.389a.848.848,0,0,0,.272.655A.986.986,0,0,0,15.3-1.934ZM24.539-9.51V.325a3.452,3.452,0,0,1-.967,2.6,3.714,3.714,0,0,1-2.672.914,6.308,6.308,0,0,1-1.4-.149V1.45a5.667,5.667,0,0,0,.835.079A1.084,1.084,0,0,0,21.568.308V-9.51Zm-3.19-2.452A1.322,1.322,0,0,1,21.806-13a1.724,1.724,0,0,1,1.187-.4,1.724,1.724,0,0,1,1.187.4,1.322,1.322,0,0,1,.457,1.037,1.322,1.322,0,0,1-.457,1.037,1.724,1.724,0,0,1-1.187.4,1.724,1.724,0,0,1-1.187-.4A1.322,1.322,0,0,1,21.349-11.962ZM30.814.176a4.889,4.889,0,0,1-3.542-1.305,4.507,4.507,0,0,1-1.354-3.4v-.246a5.84,5.84,0,0,1,.541-2.575,3.955,3.955,0,0,1,1.578-1.727A4.763,4.763,0,0,1,30.5-9.686a4.117,4.117,0,0,1,3.164,1.244,4.887,4.887,0,0,1,1.16,3.467v1.151H28.934a2.135,2.135,0,0,0,.694,1.257,2.066,2.066,0,0,0,1.389.457,2.662,2.662,0,0,0,2.2-.984l1.354,1.6A3.784,3.784,0,0,1,33-.277,5.3,5.3,0,0,1,30.814.176ZM30.48-7.4q-1.3,0-1.547,1.723h2.988v-.229a1.467,1.467,0,0,0-.36-1.1A1.434,1.434,0,0,0,30.48-7.4Zm9.642,2.575a5.809,5.809,0,0,1,.976-3.56,3.211,3.211,0,0,1,2.725-1.3,2.731,2.731,0,0,1,2.145,1V-13.5h2.971V0H46.274l-.149-1.02A2.8,2.8,0,0,1,43.8.176a3.205,3.205,0,0,1-2.689-1.3A5.993,5.993,0,0,1,40.122-4.825Zm2.962.185q0,2.531,1.477,2.531a1.458,1.458,0,0,0,1.406-.826V-6.557A1.419,1.419,0,0,0,44.578-7.4q-1.371,0-1.485,2.215ZM55.222.176A4.889,4.889,0,0,1,51.68-1.129a4.507,4.507,0,0,1-1.354-3.4v-.246a5.84,5.84,0,0,1,.541-2.575,3.955,3.955,0,0,1,1.578-1.727,4.763,4.763,0,0,1,2.461-.611,4.117,4.117,0,0,1,3.164,1.244,4.887,4.887,0,0,1,1.16,3.467v1.151H53.341a2.135,2.135,0,0,0,.694,1.257,2.066,2.066,0,0,0,1.389.457,2.662,2.662,0,0,0,2.2-.984l1.354,1.6A3.784,3.784,0,0,1,57.406-.277,5.3,5.3,0,0,1,55.222.176ZM54.888-7.4q-1.3,0-1.547,1.723h2.988v-.229a1.467,1.467,0,0,0-.36-1.1A1.434,1.434,0,0,0,54.888-7.4ZM-41.256,24a3.344,3.344,0,0,1-.281-.853,2.754,2.754,0,0,1-2.285,1.028,3.374,3.374,0,0,1-2.285-.813,2.588,2.588,0,0,1-.94-2.043,2.66,2.66,0,0,1,1.143-2.338,5.821,5.821,0,0,1,3.322-.791h.914v-.5q0-1.316-1.134-1.316a.927.927,0,0,0-1.055,1.042h-2.962a2.655,2.655,0,0,1,1.173-2.239,4.931,4.931,0,0,1,2.993-.86,4.323,4.323,0,0,1,2.874.888A3.086,3.086,0,0,1-38.7,17.637v4.21a4.311,4.311,0,0,0,.4,2V24Zm-1.854-1.934a1.652,1.652,0,0,0,.918-.237,1.487,1.487,0,0,0,.523-.536V19.772h-.861q-1.547,0-1.547,1.389a.848.848,0,0,0,.272.655A.986.986,0,0,0-43.11,22.066Zm10.072-.176a1.317,1.317,0,0,0,.967-.338,1.241,1.241,0,0,0,.334-.945h2.777a3.288,3.288,0,0,1-1.121,2.566,4.168,4.168,0,0,1-2.887,1,4.22,4.22,0,0,1-3.27-1.3,5.125,5.125,0,0,1-1.2-3.6v-.123A5.792,5.792,0,0,1-36.9,16.6a3.872,3.872,0,0,1,1.534-1.7,4.573,4.573,0,0,1,2.373-.593,4.116,4.116,0,0,1,2.944,1.028,3.647,3.647,0,0,1,1.09,2.786h-2.777A1.626,1.626,0,0,0-32.1,17a1.244,1.244,0,0,0-.967-.4q-1.151,0-1.345,1.468a10.357,10.357,0,0,0-.062,1.283,4.068,4.068,0,0,0,.343,1.986A1.187,1.187,0,0,0-33.038,21.891Zm9.352,0a1.317,1.317,0,0,0,.967-.338,1.241,1.241,0,0,0,.334-.945h2.777a3.288,3.288,0,0,1-1.121,2.566,4.168,4.168,0,0,1-2.887,1,4.22,4.22,0,0,1-3.27-1.3,5.125,5.125,0,0,1-1.2-3.6v-.123a5.792,5.792,0,0,1,.532-2.544,3.872,3.872,0,0,1,1.534-1.7,4.573,4.573,0,0,1,2.373-.593A4.116,4.116,0,0,1-20.7,15.343a3.647,3.647,0,0,1,1.09,2.786h-2.777A1.626,1.626,0,0,0-22.746,17a1.244,1.244,0,0,0-.967-.4q-1.151,0-1.345,1.468a10.357,10.357,0,0,0-.062,1.283,4.068,4.068,0,0,0,.343,1.986A1.187,1.187,0,0,0-23.687,21.891Zm9.932,2.285A4.889,4.889,0,0,1-17.3,22.871a4.507,4.507,0,0,1-1.354-3.4v-.246a5.84,5.84,0,0,1,.541-2.575,3.955,3.955,0,0,1,1.578-1.727,4.763,4.763,0,0,1,2.461-.611,4.117,4.117,0,0,1,3.164,1.244,4.887,4.887,0,0,1,1.16,3.467v1.151h-5.889a2.135,2.135,0,0,0,.694,1.257,2.066,2.066,0,0,0,1.389.457,2.662,2.662,0,0,0,2.2-.984l1.354,1.6a3.784,3.784,0,0,1-1.569,1.217A5.3,5.3,0,0,1-13.755,24.176Zm-.334-7.576q-1.3,0-1.547,1.723h2.988v-.229a1.467,1.467,0,0,0-.36-1.1A1.434,1.434,0,0,0-14.089,16.6Zm10.512,4.729a.684.684,0,0,0-.4-.606,6.016,6.016,0,0,0-1.5-.475A6.853,6.853,0,0,1-7.3,19.6a3.062,3.062,0,0,1-1.1-.971,2.319,2.319,0,0,1-.378-1.31A2.628,2.628,0,0,1-7.7,15.163a4.453,4.453,0,0,1,2.83-.848,4.934,4.934,0,0,1,3.023.853A2.666,2.666,0,0,1-.7,17.408H-3.674q0-1.143-1.2-1.143a1.194,1.194,0,0,0-.782.259.8.8,0,0,0-.316.646.737.737,0,0,0,.387.642,3.654,3.654,0,0,0,1.235.4,10.671,10.671,0,0,1,1.49.378A2.706,2.706,0,0,1-.721,21.24a2.491,2.491,0,0,1-1.156,2.118,5.068,5.068,0,0,1-2.993.817,5.172,5.172,0,0,1-2.18-.439,3.645,3.645,0,0,1-1.494-1.2,2.707,2.707,0,0,1-.536-1.591h2.769a1.145,1.145,0,0,0,.439.962,1.808,1.808,0,0,0,1.081.3,1.422,1.422,0,0,0,.91-.246A.787.787,0,0,0-3.577,21.328ZM.29,19.157a5.613,5.613,0,0,1,.554-2.536,3.96,3.96,0,0,1,1.591-1.709,4.791,4.791,0,0,1,2.435-.6,4.373,4.373,0,0,1,3.366,1.323,5.076,5.076,0,0,1,1.23,3.6v.105a4.925,4.925,0,0,1-1.235,3.529,4.384,4.384,0,0,1-3.344,1.305,4.434,4.434,0,0,1-3.261-1.217A4.761,4.761,0,0,1,.3,19.658Zm2.962.185a3.538,3.538,0,0,0,.413,1.934,1.376,1.376,0,0,0,1.222.615q1.582,0,1.617-2.435v-.3Q6.5,16.6,4.869,16.6q-1.485,0-1.608,2.206ZM20.61,24a3.344,3.344,0,0,1-.281-.853,2.754,2.754,0,0,1-2.285,1.028,3.374,3.374,0,0,1-2.285-.813,2.588,2.588,0,0,1-.94-2.043,2.66,2.66,0,0,1,1.143-2.338,5.821,5.821,0,0,1,3.322-.791H20.2v-.5q0-1.316-1.134-1.316a.927.927,0,0,0-1.055,1.042H15.047a2.655,2.655,0,0,1,1.173-2.239,4.931,4.931,0,0,1,2.993-.86,4.323,4.323,0,0,1,2.874.888,3.086,3.086,0,0,1,1.081,2.435v4.21a4.311,4.311,0,0,0,.4,2V24Zm-1.854-1.934a1.652,1.652,0,0,0,.918-.237,1.487,1.487,0,0,0,.523-.536V19.772h-.861q-1.547,0-1.547,1.389a.848.848,0,0,0,.272.655A.986.986,0,0,0,18.756,22.066ZM32.414,24H29.443V10.5h2.971Zm7.181,0a3.344,3.344,0,0,1-.281-.853,2.754,2.754,0,0,1-2.285,1.028,3.374,3.374,0,0,1-2.285-.813,2.588,2.588,0,0,1-.94-2.043,2.66,2.66,0,0,1,1.143-2.338,5.821,5.821,0,0,1,3.322-.791h.914v-.5q0-1.316-1.134-1.316a.927.927,0,0,0-1.055,1.042H34.031A2.655,2.655,0,0,1,35.2,15.175a4.931,4.931,0,0,1,2.993-.86,4.323,4.323,0,0,1,2.874.888,3.086,3.086,0,0,1,1.081,2.435v4.21a4.311,4.311,0,0,0,.4,2V24ZM37.74,22.066a1.652,1.652,0,0,0,.918-.237,1.487,1.487,0,0,0,.523-.536V19.772H38.32q-1.547,0-1.547,1.389a.848.848,0,0,0,.272.655A.986.986,0,0,0,37.74,22.066ZM-46.6,43.324a5.8,5.8,0,0,1-.967,3.595,3.238,3.238,0,0,1-2.725,1.257,2.81,2.81,0,0,1-2.338-1.151l-.123.976h-2.654V34.5h2.962v4.755a2.711,2.711,0,0,1,2.136-.94,3.239,3.239,0,0,1,2.742,1.274,5.826,5.826,0,0,1,.967,3.586Zm-2.971-.189a3.866,3.866,0,0,0-.365-1.952,1.229,1.229,0,0,0-1.121-.584,1.418,1.418,0,0,0-1.389.763v3.773a1.426,1.426,0,0,0,1.406.755,1.258,1.258,0,0,0,1.327-1.018A7.309,7.309,0,0,0-49.57,43.135ZM-39.937,48a3.344,3.344,0,0,1-.281-.853A2.754,2.754,0,0,1-42.5,48.176a3.374,3.374,0,0,1-2.285-.813,2.588,2.588,0,0,1-.94-2.043,2.66,2.66,0,0,1,1.143-2.338,5.821,5.821,0,0,1,3.322-.791h.914v-.5q0-1.316-1.134-1.316a.927.927,0,0,0-1.055,1.042H-45.5a2.655,2.655,0,0,1,1.173-2.239,4.931,4.931,0,0,1,2.993-.86,4.323,4.323,0,0,1,2.874.888,3.086,3.086,0,0,1,1.081,2.435v4.21a4.311,4.311,0,0,0,.4,2V48Zm-1.854-1.934a1.652,1.652,0,0,0,.918-.237,1.487,1.487,0,0,0,.523-.536V43.772h-.861q-1.547,0-1.547,1.389a.848.848,0,0,0,.272.655A.986.986,0,0,0-41.792,46.066Zm11.03-.738a.684.684,0,0,0-.4-.606,6.016,6.016,0,0,0-1.5-.475,6.853,6.853,0,0,1-1.828-.646,3.062,3.062,0,0,1-1.1-.971,2.319,2.319,0,0,1-.378-1.31,2.628,2.628,0,0,1,1.081-2.158,4.453,4.453,0,0,1,2.83-.848,4.934,4.934,0,0,1,3.023.853,2.666,2.666,0,0,1,1.143,2.241h-2.971q0-1.143-1.2-1.143a1.194,1.194,0,0,0-.782.259.8.8,0,0,0-.316.646.737.737,0,0,0,.387.642,3.654,3.654,0,0,0,1.235.4,10.671,10.671,0,0,1,1.49.378,2.706,2.706,0,0,1,2.145,2.646,2.491,2.491,0,0,1-1.156,2.118,5.068,5.068,0,0,1-2.993.817,5.172,5.172,0,0,1-2.18-.439,3.645,3.645,0,0,1-1.494-1.2,2.707,2.707,0,0,1-.536-1.591H-33.5a1.145,1.145,0,0,0,.439.962,1.808,1.808,0,0,0,1.081.3,1.422,1.422,0,0,0,.91-.246A.787.787,0,0,0-30.762,45.328Zm8.842,2.848a4.889,4.889,0,0,1-3.542-1.305,4.507,4.507,0,0,1-1.354-3.4v-.246a5.84,5.84,0,0,1,.541-2.575A3.955,3.955,0,0,1-24.7,38.925a4.763,4.763,0,0,1,2.461-.611,4.117,4.117,0,0,1,3.164,1.244,4.887,4.887,0,0,1,1.16,3.467v1.151H-23.8a2.135,2.135,0,0,0,.694,1.257,2.066,2.066,0,0,0,1.389.457,2.662,2.662,0,0,0,2.2-.984l1.354,1.6a3.784,3.784,0,0,1-1.569,1.217A5.3,5.3,0,0,1-21.92,48.176Zm-.334-7.576q-1.3,0-1.547,1.723h2.988v-.229a1.467,1.467,0,0,0-.36-1.1A1.434,1.434,0,0,0-22.254,40.6Zm9.642,2.575a5.809,5.809,0,0,1,.976-3.56,3.211,3.211,0,0,1,2.725-1.3,2.731,2.731,0,0,1,2.145,1V34.5H-3.8V48H-6.46l-.149-1.02a2.8,2.8,0,0,1-2.32,1.2,3.205,3.205,0,0,1-2.689-1.3A5.993,5.993,0,0,1-12.612,43.175Zm2.962.185q0,2.531,1.477,2.531a1.458,1.458,0,0,0,1.406-.826V41.443A1.419,1.419,0,0,0-8.156,40.6q-1.371,0-1.485,2.215ZM2.487,48.176a4.889,4.889,0,0,1-3.542-1.305,4.507,4.507,0,0,1-1.354-3.4v-.246a5.84,5.84,0,0,1,.541-2.575A3.955,3.955,0,0,1-.29,38.925a4.763,4.763,0,0,1,2.461-.611,4.117,4.117,0,0,1,3.164,1.244A4.887,4.887,0,0,1,6.5,43.025v1.151H.606A2.135,2.135,0,0,0,1.3,45.434a2.066,2.066,0,0,0,1.389.457,2.662,2.662,0,0,0,2.2-.984l1.354,1.6a3.784,3.784,0,0,1-1.569,1.217A5.3,5.3,0,0,1,2.487,48.176ZM2.153,40.6q-1.3,0-1.547,1.723H3.595v-.229a1.467,1.467,0,0,0-.36-1.1A1.434,1.434,0,0,0,2.153,40.6Zm9.642,2.575a5.809,5.809,0,0,1,.976-3.56,3.211,3.211,0,0,1,2.725-1.3,2.731,2.731,0,0,1,2.145,1V34.5H20.61V48H17.947L17.8,46.98a2.8,2.8,0,0,1-2.32,1.2,3.205,3.205,0,0,1-2.689-1.3A5.993,5.993,0,0,1,11.795,43.175Zm2.962.185q0,2.531,1.477,2.531a1.458,1.458,0,0,0,1.406-.826V41.443a1.419,1.419,0,0,0-1.389-.844q-1.371,0-1.485,2.215ZM27.65,48a3.344,3.344,0,0,1-.281-.853,2.754,2.754,0,0,1-2.285,1.028,3.374,3.374,0,0,1-2.285-.813,2.588,2.588,0,0,1-.94-2.043A2.66,2.66,0,0,1,23,42.981a5.821,5.821,0,0,1,3.322-.791h.914v-.5q0-1.316-1.134-1.316a.927.927,0,0,0-1.055,1.042H22.087a2.655,2.655,0,0,1,1.173-2.239,4.931,4.931,0,0,1,2.993-.86,4.323,4.323,0,0,1,2.874.888,3.086,3.086,0,0,1,1.081,2.435v4.21a4.311,4.311,0,0,0,.4,2V48ZM25.8,46.066a1.652,1.652,0,0,0,.918-.237,1.487,1.487,0,0,0,.523-.536V43.772h-.861q-1.547,0-1.547,1.389a.848.848,0,0,0,.272.655A.986.986,0,0,0,25.8,46.066Zm9.5-9.94V38.49h1.564v2.057H35.3V44.9a1.111,1.111,0,0,0,.193.747,1.037,1.037,0,0,0,.765.211,4.345,4.345,0,0,0,.738-.053v2.118a5.466,5.466,0,0,1-1.67.255,3.1,3.1,0,0,1-2.259-.721,2.954,2.954,0,0,1-.729-2.188v-4.72H31.122V38.49h1.213V36.126Zm2.092,7.031a5.613,5.613,0,0,1,.554-2.536,3.96,3.96,0,0,1,1.591-1.709,4.791,4.791,0,0,1,2.435-.6,4.373,4.373,0,0,1,3.366,1.323,5.076,5.076,0,0,1,1.23,3.6v.105a4.925,4.925,0,0,1-1.235,3.529,4.384,4.384,0,0,1-3.344,1.305,4.434,4.434,0,0,1-3.261-1.217,4.761,4.761,0,0,1-1.327-3.3Zm2.962.185a3.538,3.538,0,0,0,.413,1.934,1.376,1.376,0,0,0,1.222.615q1.582,0,1.617-2.435v-.3q0-2.558-1.635-2.558-1.485,0-1.608,2.206Zm12.5,1.986a.684.684,0,0,0-.4-.606,6.016,6.016,0,0,0-1.5-.475,6.853,6.853,0,0,1-1.828-.646,3.062,3.062,0,0,1-1.1-.971,2.319,2.319,0,0,1-.378-1.31,2.628,2.628,0,0,1,1.081-2.158,4.453,4.453,0,0,1,2.83-.848,4.934,4.934,0,0,1,3.023.853,2.666,2.666,0,0,1,1.143,2.241H52.752q0-1.143-1.2-1.143a1.194,1.194,0,0,0-.782.259.8.8,0,0,0-.316.646.737.737,0,0,0,.387.642,3.654,3.654,0,0,0,1.235.4,10.671,10.671,0,0,1,1.49.378,2.706,2.706,0,0,1,2.145,2.646,2.491,2.491,0,0,1-1.156,2.118,5.068,5.068,0,0,1-2.993.817,5.172,5.172,0,0,1-2.18-.439,3.645,3.645,0,0,1-1.494-1.2,2.707,2.707,0,0,1-.536-1.591h2.769a1.145,1.145,0,0,0,.439.962,1.808,1.808,0,0,0,1.081.3,1.422,1.422,0,0,0,.91-.246A.787.787,0,0,0,52.849,45.328Z" transform="translate(522 923.436)"/>
    <path id="Trazado_196423" data-name="Trazado 196423" d="M8.6-5h1.3v2.285H8.6V0H5.643V-2.716H.694L.519-4.526l5.124-8.244V-12.8H8.6ZM3.34-5h2.3V-8.938l-.185.3Zm9.747,2.127a1.686,1.686,0,0,1,1.169.417,1.37,1.37,0,0,1,.466,1.068,1.37,1.37,0,0,1-.466,1.068A1.686,1.686,0,0,1,13.087.1a1.672,1.672,0,0,1-1.173-.422,1.379,1.379,0,0,1-.461-1.063,1.379,1.379,0,0,1,.461-1.063A1.672,1.672,0,0,1,13.087-2.874ZM24.4-4.342V0H21.313V-12.8H26.42a5.948,5.948,0,0,1,2.6.541,4.074,4.074,0,0,1,1.749,1.538,4.2,4.2,0,0,1,.62,2.263,3.7,3.7,0,0,1-1.34,2.993,5.561,5.561,0,0,1-3.678,1.121Zm0-2.382H26.42a1.906,1.906,0,0,0,1.367-.448,1.665,1.665,0,0,0,.47-1.266,2.059,2.059,0,0,0-.483-1.433,1.712,1.712,0,0,0-1.318-.545H24.4Zm14.247-.105L37.67-6.9a1.752,1.752,0,0,0-1.793.879V0H32.915V-9.51h2.777l.1,1.222a2.294,2.294,0,0,1,2.083-1.4,2.888,2.888,0,0,1,.826.105Zm.378,1.986a5.613,5.613,0,0,1,.554-2.536,3.96,3.96,0,0,1,1.591-1.709,4.791,4.791,0,0,1,2.435-.6,4.373,4.373,0,0,1,3.366,1.323,5.076,5.076,0,0,1,1.23,3.6v.105a4.925,4.925,0,0,1-1.235,3.529A4.384,4.384,0,0,1,43.62.176a4.434,4.434,0,0,1-3.261-1.217,4.761,4.761,0,0,1-1.327-3.3Zm2.962.185A3.538,3.538,0,0,0,42.4-2.725a1.376,1.376,0,0,0,1.222.615q1.582,0,1.617-2.435v-.3Q45.237-7.4,43.6-7.4q-1.485,0-1.608,2.206Zm11.54,2.549a1.317,1.317,0,0,0,.967-.338,1.241,1.241,0,0,0,.334-.945H57.6A3.288,3.288,0,0,1,56.483-.826a4.168,4.168,0,0,1-2.887,1,4.22,4.22,0,0,1-3.27-1.3,5.125,5.125,0,0,1-1.2-3.6v-.123A5.792,5.792,0,0,1,49.663-7.4a3.872,3.872,0,0,1,1.534-1.7,4.573,4.573,0,0,1,2.373-.593,4.116,4.116,0,0,1,2.944,1.028A3.647,3.647,0,0,1,57.6-5.871H54.826A1.626,1.626,0,0,0,54.466-7a1.244,1.244,0,0,0-.967-.4q-1.151,0-1.345,1.468a10.357,10.357,0,0,0-.062,1.283,4.068,4.068,0,0,0,.343,1.986A1.187,1.187,0,0,0,53.525-2.109ZM63.457.176a4.889,4.889,0,0,1-3.542-1.305,4.507,4.507,0,0,1-1.354-3.4v-.246A5.84,5.84,0,0,1,59.1-7.348,3.955,3.955,0,0,1,60.68-9.075a4.763,4.763,0,0,1,2.461-.611A4.117,4.117,0,0,1,66.3-8.442a4.887,4.887,0,0,1,1.16,3.467v1.151H61.576a2.135,2.135,0,0,0,.694,1.257,2.066,2.066,0,0,0,1.389.457,2.662,2.662,0,0,0,2.2-.984l1.354,1.6A3.784,3.784,0,0,1,65.641-.277,5.3,5.3,0,0,1,63.457.176ZM63.123-7.4q-1.3,0-1.547,1.723h2.988v-.229a1.467,1.467,0,0,0-.36-1.1A1.434,1.434,0,0,0,63.123-7.4Zm5.159,2.575a5.809,5.809,0,0,1,.976-3.56,3.211,3.211,0,0,1,2.725-1.3,2.731,2.731,0,0,1,2.145,1V-13.5H77.1V0H74.435l-.149-1.02a2.8,2.8,0,0,1-2.32,1.2,3.205,3.205,0,0,1-2.689-1.3A5.993,5.993,0,0,1,68.282-4.825Zm2.962.185q0,2.531,1.477,2.531a1.458,1.458,0,0,0,1.406-.826V-6.557A1.419,1.419,0,0,0,72.738-7.4q-1.371,0-1.485,2.215ZM81.905,0H78.935V-9.51h2.971ZM78.759-11.962A1.322,1.322,0,0,1,79.216-13a1.724,1.724,0,0,1,1.187-.4,1.724,1.724,0,0,1,1.187.4,1.322,1.322,0,0,1,.457,1.037,1.322,1.322,0,0,1-.457,1.037,1.724,1.724,0,0,1-1.187.4,1.724,1.724,0,0,1-1.187-.4A1.322,1.322,0,0,1,78.759-11.962Zm7.77,2.452.1,1.116a3.27,3.27,0,0,1,2.716-1.292,2.407,2.407,0,0,1,2.435,1.433A3.165,3.165,0,0,1,94.57-9.686q2.892,0,2.971,3.5V0H94.57V-6a1.813,1.813,0,0,0-.246-1.063,1.048,1.048,0,0,0-.9-.334,1.4,1.4,0,0,0-1.31.782l.009.123V0H89.156V-5.985a1.906,1.906,0,0,0-.237-1.081,1.045,1.045,0,0,0-.905-.334,1.42,1.42,0,0,0-1.3.782V0H83.751V-9.51ZM102.357,0H99.387V-9.51h2.971ZM99.211-11.962A1.322,1.322,0,0,1,99.668-13a1.724,1.724,0,0,1,1.187-.4,1.724,1.724,0,0,1,1.187.4,1.322,1.322,0,0,1,.457,1.037,1.322,1.322,0,0,1-.457,1.037,1.724,1.724,0,0,1-1.187.4,1.724,1.724,0,0,1-1.187-.4A1.322,1.322,0,0,1,99.211-11.962ZM108.782.176a4.889,4.889,0,0,1-3.542-1.305,4.507,4.507,0,0,1-1.354-3.4v-.246a5.84,5.84,0,0,1,.541-2.575A3.955,3.955,0,0,1,106-9.075a4.763,4.763,0,0,1,2.461-.611,4.117,4.117,0,0,1,3.164,1.244,4.887,4.887,0,0,1,1.16,3.467v1.151H106.9a2.135,2.135,0,0,0,.694,1.257,2.066,2.066,0,0,0,1.389.457,2.662,2.662,0,0,0,2.2-.984l1.354,1.6a3.784,3.784,0,0,1-1.569,1.217A5.3,5.3,0,0,1,108.782.176ZM108.448-7.4q-1.3,0-1.547,1.723h2.988v-.229a1.467,1.467,0,0,0-.36-1.1A1.434,1.434,0,0,0,108.448-7.4ZM116.7-9.51l.1,1.116a3.225,3.225,0,0,1,2.716-1.292,2.713,2.713,0,0,1,2.219.888,4.226,4.226,0,0,1,.76,2.672V0h-2.971V-6a1.6,1.6,0,0,0-.29-1.059,1.342,1.342,0,0,0-1.055-.338,1.413,1.413,0,0,0-1.292.686V0h-2.962V-9.51Zm10.881-2.364V-9.51h1.564v2.057h-1.564V-3.1a1.111,1.111,0,0,0,.193.747,1.037,1.037,0,0,0,.765.211,4.345,4.345,0,0,0,.738-.053V-.079a5.466,5.466,0,0,1-1.67.255,3.1,3.1,0,0,1-2.259-.721,2.954,2.954,0,0,1-.729-2.188v-4.72h-1.213V-9.51h1.213v-2.364Zm2.092,7.031a5.613,5.613,0,0,1,.554-2.536,3.96,3.96,0,0,1,1.591-1.709,4.791,4.791,0,0,1,2.435-.6,4.373,4.373,0,0,1,3.366,1.323,5.076,5.076,0,0,1,1.23,3.6v.105a4.925,4.925,0,0,1-1.235,3.529A4.384,4.384,0,0,1,134.271.176a4.434,4.434,0,0,1-3.261-1.217,4.761,4.761,0,0,1-1.327-3.3Zm2.962.185a3.538,3.538,0,0,0,.413,1.934,1.376,1.376,0,0,0,1.222.615q1.582,0,1.617-2.435v-.3q0-2.558-1.635-2.558-1.485,0-1.608,2.206Z" transform="translate(530 1262.436)"/>
    <path id="Trazado_196424" data-name="Trazado 196424" d="M9.712,0H.782V-1.934L4.9-6.258A4.909,4.909,0,0,0,6.416-9.009a1.913,1.913,0,0,0-.36-1.257A1.287,1.287,0,0,0,5.01-10.7a1.3,1.3,0,0,0-1.1.576,2.366,2.366,0,0,0-.422,1.437H.519a4.2,4.2,0,0,1,.589-2.175,4.129,4.129,0,0,1,1.635-1.56,4.856,4.856,0,0,1,2.338-.562,4.777,4.777,0,0,1,3.195.958A3.42,3.42,0,0,1,9.4-9.272,4,4,0,0,1,9.114-7.8,6.456,6.456,0,0,1,8.24-6.3a22.029,22.029,0,0,1-1.912,2.1L4.676-2.285H9.712Zm3.375-2.874a1.686,1.686,0,0,1,1.169.417,1.37,1.37,0,0,1,.466,1.068,1.37,1.37,0,0,1-.466,1.068A1.686,1.686,0,0,1,13.087.1a1.672,1.672,0,0,1-1.173-.422,1.379,1.379,0,0,1-.461-1.063,1.379,1.379,0,0,1,.461-1.063A1.672,1.672,0,0,1,13.087-2.874ZM27.914-3.4a1.268,1.268,0,0,0-.479-1.055,5.954,5.954,0,0,0-1.683-.782,16.147,16.147,0,0,1-1.969-.782Q21.3-7.242,21.3-9.378a3.011,3.011,0,0,1,.62-1.876,4.008,4.008,0,0,1,1.753-1.266,6.823,6.823,0,0,1,2.549-.453,5.969,5.969,0,0,1,2.474.492,3.917,3.917,0,0,1,1.7,1.4A3.661,3.661,0,0,1,31-9H27.923a1.547,1.547,0,0,0-.479-1.213,1.867,1.867,0,0,0-1.3-.431,2.106,2.106,0,0,0-1.305.365,1.119,1.119,0,0,0-.479.927,1.127,1.127,0,0,0,.527.892,6.65,6.65,0,0,0,1.854.826,11.36,11.36,0,0,1,2.18.918A3.663,3.663,0,0,1,31-3.419,3.125,3.125,0,0,1,29.733-.782a5.629,5.629,0,0,1-3.472.958,6.888,6.888,0,0,1-2.817-.558,4.247,4.247,0,0,1-1.9-1.529,3.985,3.985,0,0,1-.637-2.237H24a1.963,1.963,0,0,0,.532,1.516,2.513,2.513,0,0,0,1.727.488,1.985,1.985,0,0,0,1.208-.33A1.088,1.088,0,0,0,27.914-3.4Zm4.157-1.441a5.613,5.613,0,0,1,.554-2.536,3.96,3.96,0,0,1,1.591-1.709,4.791,4.791,0,0,1,2.435-.6,4.373,4.373,0,0,1,3.366,1.323,5.076,5.076,0,0,1,1.23,3.6v.105a4.925,4.925,0,0,1-1.235,3.529A4.384,4.384,0,0,1,36.668.176a4.434,4.434,0,0,1-3.261-1.217,4.761,4.761,0,0,1-1.327-3.3Zm2.962.185a3.538,3.538,0,0,0,.413,1.934,1.376,1.376,0,0,0,1.222.615q1.582,0,1.617-2.435v-.3q0-2.558-1.635-2.558-1.485,0-1.608,2.206ZM43.207,0V-7.453h-1.38V-9.51h1.38v-.756a3.286,3.286,0,0,1,.958-2.522,3.785,3.785,0,0,1,2.689-.9,5.89,5.89,0,0,1,1.389.185l.009,2.18a2.706,2.706,0,0,0-.729-.079q-1.345,0-1.345,1.16v.729h1.854v2.057H46.178V0Zm9.316-11.874V-9.51h1.564v2.057H52.523V-3.1a1.111,1.111,0,0,0,.193.747,1.037,1.037,0,0,0,.765.211A4.345,4.345,0,0,0,54.22-2.2V-.079a5.466,5.466,0,0,1-1.67.255,3.1,3.1,0,0,1-2.259-.721,2.954,2.954,0,0,1-.729-2.188v-4.72H48.349V-9.51h1.213v-2.364ZM63.466-3.9l.958-5.607h2.839L65.021,0h-2.5L60.943-5.643,59.361,0h-2.5L54.615-9.51h2.839l.94,5.739L59.906-9.51h2.065ZM73.679,0A3.344,3.344,0,0,1,73.4-.853,2.754,2.754,0,0,1,71.112.176a3.374,3.374,0,0,1-2.285-.813,2.588,2.588,0,0,1-.94-2.043,2.66,2.66,0,0,1,1.143-2.338,5.821,5.821,0,0,1,3.322-.791h.914v-.5q0-1.316-1.134-1.316a.927.927,0,0,0-1.055,1.042H68.115a2.655,2.655,0,0,1,1.173-2.239,4.931,4.931,0,0,1,2.993-.86,4.323,4.323,0,0,1,2.874.888,3.086,3.086,0,0,1,1.081,2.435v4.21a4.311,4.311,0,0,0,.4,2V0ZM71.824-1.934a1.652,1.652,0,0,0,.918-.237,1.487,1.487,0,0,0,.523-.536V-4.228H72.4q-1.547,0-1.547,1.389a.848.848,0,0,0,.272.655A.986.986,0,0,0,71.824-1.934Zm11.8-4.9-.976-.07a1.752,1.752,0,0,0-1.793.879V0H77.9V-9.51h2.777l.1,1.222a2.294,2.294,0,0,1,2.083-1.4,2.888,2.888,0,0,1,.826.105Zm5.669,7a4.889,4.889,0,0,1-3.542-1.305,4.507,4.507,0,0,1-1.354-3.4v-.246a5.84,5.84,0,0,1,.541-2.575A3.955,3.955,0,0,1,86.52-9.075a4.763,4.763,0,0,1,2.461-.611,4.117,4.117,0,0,1,3.164,1.244A4.887,4.887,0,0,1,93.3-4.975v1.151H87.416a2.135,2.135,0,0,0,.694,1.257,2.066,2.066,0,0,0,1.389.457,2.662,2.662,0,0,0,2.2-.984l1.354,1.6A3.784,3.784,0,0,1,91.481-.277,5.3,5.3,0,0,1,89.3.176ZM88.963-7.4q-1.3,0-1.547,1.723H90.4v-.229a1.467,1.467,0,0,0-.36-1.1A1.434,1.434,0,0,0,88.963-7.4Z" transform="translate(1032 947.436)"/>
    <path id="Trazado_196425" data-name="Trazado 196425" d="M3.489-7.638h1.4A1.453,1.453,0,0,0,6.548-9.264a1.406,1.406,0,0,0-.4-1.033,1.5,1.5,0,0,0-1.116-.4,1.606,1.606,0,0,0-1.024.343,1.046,1.046,0,0,0-.435.853H.615a3.032,3.032,0,0,1,.563-1.8,3.715,3.715,0,0,1,1.56-1.235,5.334,5.334,0,0,1,2.193-.444,5.241,5.241,0,0,1,3.357.976A3.243,3.243,0,0,1,9.51-9.325,2.7,2.7,0,0,1,9-7.765,3.6,3.6,0,0,1,7.532-6.574a3.441,3.441,0,0,1,1.6,1.121,2.951,2.951,0,0,1,.58,1.859A3.3,3.3,0,0,1,8.394-.853,5.472,5.472,0,0,1,4.931.176,5.675,5.675,0,0,1,2.6-.3,3.656,3.656,0,0,1,.967-1.63,3.45,3.45,0,0,1,.413-3.56H3.393a1.334,1.334,0,0,0,.475,1.02,1.676,1.676,0,0,0,1.169.431,1.755,1.755,0,0,0,1.248-.435A1.454,1.454,0,0,0,6.75-3.656a1.7,1.7,0,0,0-.483-1.371,2.021,2.021,0,0,0-1.336-.4H3.489Zm9.6,4.764a1.686,1.686,0,0,1,1.169.417,1.37,1.37,0,0,1,.466,1.068,1.37,1.37,0,0,1-.466,1.068A1.686,1.686,0,0,1,13.087.1a1.672,1.672,0,0,1-1.173-.422,1.379,1.379,0,0,1-.461-1.063,1.379,1.379,0,0,1,.461-1.063A1.672,1.672,0,0,1,13.087-2.874ZM21.313,0V-12.8h4.122a6.064,6.064,0,0,1,3.05.769A5.406,5.406,0,0,1,30.6-9.857a6.554,6.554,0,0,1,.769,3.142v.589a6.592,6.592,0,0,1-.743,3.151A5.429,5.429,0,0,1,28.534-.8a5.93,5.93,0,0,1-3.01.8ZM24.4-10.415v8.042h1.072a2.4,2.4,0,0,0,2.039-.945,4.63,4.63,0,0,0,.712-2.808V-6.68a4.592,4.592,0,0,0-.712-2.795,2.442,2.442,0,0,0-2.074-.94ZM38.171,0a3.344,3.344,0,0,1-.281-.853A2.754,2.754,0,0,1,35.6.176a3.374,3.374,0,0,1-2.285-.813,2.588,2.588,0,0,1-.94-2.043,2.66,2.66,0,0,1,1.143-2.338,5.821,5.821,0,0,1,3.322-.791h.914v-.5q0-1.316-1.134-1.316a.927.927,0,0,0-1.055,1.042H32.607a2.655,2.655,0,0,1,1.173-2.239,4.931,4.931,0,0,1,2.993-.86,4.323,4.323,0,0,1,2.874.888,3.086,3.086,0,0,1,1.081,2.435v4.21a4.311,4.311,0,0,0,.4,2V0ZM36.316-1.934a1.652,1.652,0,0,0,.918-.237,1.487,1.487,0,0,0,.523-.536V-4.228H36.9q-1.547,0-1.547,1.389a.848.848,0,0,0,.272.655A.986.986,0,0,0,36.316-1.934Zm9.5-9.94V-9.51h1.564v2.057H45.817V-3.1a1.111,1.111,0,0,0,.193.747,1.037,1.037,0,0,0,.765.211,4.345,4.345,0,0,0,.738-.053V-.079a5.466,5.466,0,0,1-1.67.255,3.1,3.1,0,0,1-2.259-.721,2.954,2.954,0,0,1-.729-2.188v-4.72H41.643V-9.51h1.213v-2.364Zm2.092,7.031a5.613,5.613,0,0,1,.554-2.536,3.96,3.96,0,0,1,1.591-1.709,4.791,4.791,0,0,1,2.435-.6,4.373,4.373,0,0,1,3.366,1.323,5.076,5.076,0,0,1,1.23,3.6v.105A4.925,4.925,0,0,1,55.85-1.129,4.384,4.384,0,0,1,52.506.176a4.434,4.434,0,0,1-3.261-1.217,4.761,4.761,0,0,1-1.327-3.3Zm2.962.185a3.538,3.538,0,0,0,.413,1.934,1.376,1.376,0,0,0,1.222.615q1.582,0,1.617-2.435v-.3q0-2.558-1.635-2.558Q51-7.4,50.88-5.194Zm12.5,1.986a.684.684,0,0,0-.4-.606,6.016,6.016,0,0,0-1.5-.475A6.853,6.853,0,0,1,59.643-4.4a3.062,3.062,0,0,1-1.1-.971,2.319,2.319,0,0,1-.378-1.31,2.628,2.628,0,0,1,1.081-2.158,4.453,4.453,0,0,1,2.83-.848,4.934,4.934,0,0,1,3.023.853,2.666,2.666,0,0,1,1.143,2.241H63.272q0-1.143-1.2-1.143a1.194,1.194,0,0,0-.782.259.8.8,0,0,0-.316.646.737.737,0,0,0,.387.642,3.654,3.654,0,0,0,1.235.4,10.671,10.671,0,0,1,1.49.378A2.706,2.706,0,0,1,66.226-2.76,2.491,2.491,0,0,1,65.07-.642a5.068,5.068,0,0,1-2.993.817A5.172,5.172,0,0,1,59.9-.264a3.645,3.645,0,0,1-1.494-1.2,2.707,2.707,0,0,1-.536-1.591h2.769a1.145,1.145,0,0,0,.439.962,1.808,1.808,0,0,0,1.081.3,1.422,1.422,0,0,0,.91-.246A.787.787,0,0,0,63.369-2.672Z" transform="translate(965 1251.436)"/>
    <path id="Trazado_196426" data-name="Trazado 196426" d="M278.8,0C432.774,0,557.6,124.822,557.6,278.8S432.774,557.6,278.8,557.6,0,432.774,0,278.8,124.822,0,278.8,0Z" transform="translate(639.405 663.1) rotate(21)" fill="none" stroke="#707070" stroke-width="1" stroke-dasharray="143.951 205.645"/>
    <path id="Trazado_196427" data-name="Trazado 196427" d="M0,0H2.388V18.537H0Z" transform="translate(758.199 944.687)" fill="#575756"/>
    <path id="Trazado_196428" data-name="Trazado 196428" d="M0,0H2.388V18.537H0Z" transform="translate(758.199 972.831)" fill="#575756"/>
    <path id="Trazado_196429" data-name="Trazado 196429" d="M0,0H2.388V18.537H0Z" transform="translate(758.199 1000.975)" fill="#575756"/>
    <path id="Trazado_196430" data-name="Trazado 196430" d="M0,0H2.388V18.537H0Z" transform="translate(758.199 1029.12)" fill="#575756"/>
    <g id="Grupo_131759" data-name="Grupo 131759" transform="translate(798.443 1075.114)">
      <rect id="Rectángulo_41951" data-name="Rectángulo 41951" width="2.388" height="1.99" fill="#575756"/>
    </g>
    <g id="Grupo_131760" data-name="Grupo 131760" transform="translate(798.443 1081.415)">
      <path id="Trazado_196238" data-name="Trazado 196238" d="M329.149,164.69H326.76v-4.31h2.389Zm0-8.621H326.76v-4.31h2.389Z" transform="translate(-326.76 -151.759)" fill="#575756"/>
    </g>
    <g id="Grupo_131761" data-name="Grupo 131761" transform="translate(798.443 1098.655)">
      <rect id="Rectángulo_41952" data-name="Rectángulo 41952" width="2.388" height="1.99" fill="#575756"/>
    </g>
    <path id="Trazado_196239" data-name="Trazado 196239" d="M336.2,168.841a6.124,6.124,0,1,1-6.125-6.125A6.125,6.125,0,0,1,336.2,168.841Z" transform="translate(469.562 937.929)" fill="#63bcb8"/>
    <path id="Trazado_196240" data-name="Trazado 196240" d="M297.915,171.742a3.871,3.871,0,1,1,3.87-3.872A3.877,3.877,0,0,1,297.915,171.742Zm0-5.355a1.483,1.483,0,1,0,1.483,1.483A1.485,1.485,0,0,0,297.915,166.388Z" transform="translate(446.981 938.898)" fill="#575756"/>
    <path id="Trazado_196241" data-name="Trazado 196241" d="M347.884,171.742a3.871,3.871,0,1,1,3.872-3.872A3.877,3.877,0,0,1,347.884,171.742Zm0-5.355a1.483,1.483,0,1,0,1.483,1.483A1.485,1.485,0,0,0,347.884,166.388Z" transform="translate(484.708 938.898)" fill="#575756"/>
    <g id="Grupo_131766" data-name="Grupo 131766" transform="translate(747.572 1105.576)">
      <rect id="Rectángulo_41953" data-name="Rectángulo 41953" width="1.99" height="2.388" fill="#575756"/>
    </g>
    <g id="Grupo_131767" data-name="Grupo 131767" transform="translate(753.376 1105.576)">
      <path id="Trazado_196242" data-name="Trazado 196242" d="M335.412,167.913H331.6v-2.387h3.815Zm-7.629,0h-3.815v-2.387h3.815Zm-7.629,0h-3.815v-2.387h3.815Zm-7.629,0H308.71v-2.387h3.815Zm-7.629,0h-3.815v-2.387H304.9Z" transform="translate(-301.081 -165.526)" fill="#575756"/>
    </g>
    <g id="Grupo_131768" data-name="Grupo 131768" transform="translate(791.523 1105.576)">
      <rect id="Rectángulo_41954" data-name="Rectángulo 41954" width="1.99" height="2.388" fill="#575756"/>
    </g>
    <g id="Grupo_131770" data-name="Grupo 131770" transform="translate(805.762 1105.576)">
      <rect id="Rectángulo_41955" data-name="Rectángulo 41955" width="1.99" height="2.388" fill="#575756"/>
    </g>
    <g id="Grupo_131771" data-name="Grupo 131771" transform="translate(811.779 1105.576)">
      <path id="Trazado_196243" data-name="Trazado 196243" d="M346.444,167.913h-4.028v-2.387h4.028Zm-8.055,0h-4.029v-2.387h4.029Z" transform="translate(-334.359 -165.526)" fill="#575756"/>
    </g>
    <g id="Grupo_131772" data-name="Grupo 131772" transform="translate(827.893 1105.576)">
      <rect id="Rectángulo_41956" data-name="Rectángulo 41956" width="1.99" height="2.388" fill="#575756"/>
    </g>
    <path id="Trazado_196244" data-name="Trazado 196244" d="M424.7,106.414H368.214V59.67l9.306-9.745H424.7Z" transform="translate(502.981 852.771)" fill="#63bcb8"/>
    <path id="Trazado_196431" data-name="Trazado 196431" d="M0,0H13.475V2.388H0Z" transform="translate(870.333 911.615) rotate(-46.322)" fill="#575756"/>
    <path id="Trazado_196245" data-name="Trazado 196245" d="M368.23,60.863l-.022-2.388,8.123-.076V49.925h2.388v10.84Z" transform="translate(502.977 852.771)" fill="#575756"/>
    <path id="Trazado_196432" data-name="Trazado 196432" d="M0,0H33.609V2.388H0Z" transform="translate(887.922 906.373)" fill="#575756"/>
    <path id="Trazado_196433" data-name="Trazado 196433" d="M0,0H33.609V2.388H0Z" transform="translate(887.922 912.851)" fill="#575756"/>
    <path id="Trazado_196434" data-name="Trazado 196434" d="M0,0H43.713V2.388H0Z" transform="translate(877.817 919.327)" fill="#575756"/>
    <path id="Trazado_196435" data-name="Trazado 196435" d="M0,0H43.713V2.388H0Z" transform="translate(877.817 925.804)" fill="#575756"/>
    <path id="Trazado_196436" data-name="Trazado 196436" d="M0,0H43.713V2.388H0Z" transform="translate(877.817 932.28)" fill="#575756"/>
    <path id="Trazado_196437" data-name="Trazado 196437" d="M0,0H43.713V2.388H0Z" transform="translate(877.817 938.757)" fill="#575756"/>
    <path id="Trazado_196438" data-name="Trazado 196438" d="M0,0H43.713V2.388H0Z" transform="translate(877.817 945.234)" fill="#575756"/>
    <path id="Trazado_196439" data-name="Trazado 196439" d="M0,0H43.713V2.388H0Z" transform="translate(877.817 951.711)" fill="#575756"/>
    <path id="Trazado_196246" data-name="Trazado 196246" d="M302.759,175.043l-4.563-3.815a2.6,2.6,0,0,0-1.669-.605h-7.259a2.6,2.6,0,0,0-2.6,2.6v26.451a2.6,2.6,0,0,0,2.6,2.6H317.7a2.6,2.6,0,0,0,2.6-2.6V178.251a2.6,2.6,0,0,0-2.6-2.6h-13.27A2.6,2.6,0,0,1,302.759,175.043Z" transform="translate(441.412 943.897)" fill="#63bcb8"/>
    <path id="Trazado_196440" data-name="Trazado 196440" d="M0,0H33.633V2.388H0Z" transform="translate(728.079 1138.488)" fill="#575756"/>
    <path id="Trazado_196247" data-name="Trazado 196247" d="M281.642,134.031l-7.462-6.241a4.254,4.254,0,0,0-2.731-.992H259.58a4.257,4.257,0,0,0-4.256,4.256v43.259a4.255,4.255,0,0,0,4.256,4.256h46.494a4.256,4.256,0,0,0,4.258-4.256V139.279a4.257,4.257,0,0,0-4.258-4.258h-21.7A4.253,4.253,0,0,1,281.642,134.031Z" transform="translate(417.748 910.811)" fill="#63bcb8"/>
    <path id="Trazado_196441" data-name="Trazado 196441" d="M0,0H55.006V2.388H0Z" transform="translate(673.073 1077.57)" fill="#575756"/>
    <path id="Trazado_196248" data-name="Trazado 196248" d="M308.471,109.667H261.977a9.841,9.841,0,0,1-9.828-9.83V56.578a9.84,9.84,0,0,1,9.828-9.828h11.871a9.837,9.837,0,0,1,6.3,2.287l7.1,5.935h21.222A9.841,9.841,0,0,1,318.3,64.8V99.837A9.842,9.842,0,0,1,308.471,109.667Zm-46.494-60.53a7.448,7.448,0,0,0-7.439,7.441V99.837a7.448,7.448,0,0,0,7.439,7.441h46.494a7.45,7.45,0,0,0,7.441-7.441V64.8a7.449,7.449,0,0,0-7.441-7.439H286.382l-7.762-6.492a7.46,7.46,0,0,0-4.772-1.732Z" transform="translate(415.351 850.373)" fill="#575756"/>
    <path id="Trazado_196249" data-name="Trazado 196249" d="M281.642,57.157l-7.462-6.241a4.254,4.254,0,0,0-2.731-.992H259.58a4.257,4.257,0,0,0-4.256,4.256V97.44a4.255,4.255,0,0,0,4.256,4.256h46.494a4.256,4.256,0,0,0,4.258-4.256V62.4a4.257,4.257,0,0,0-4.258-4.256h-21.7A4.263,4.263,0,0,1,281.642,57.157Z" transform="translate(417.748 852.771)" fill="#63bcb8"/>
    <path id="Trazado_196442" data-name="Trazado 196442" d="M0,0H55.006V2.388H0Z" transform="translate(673.072 942.655)" fill="#575756"/>
    <path id="Trazado_196250" data-name="Trazado 196250" d="M353.664,215.62H321.324a7.207,7.207,0,0,1-7.2-7.2V178.332a7.207,7.207,0,0,1,7.2-7.2h8.256a7.211,7.211,0,0,1,4.617,1.676l4.837,4.044h14.63a7.207,7.207,0,0,1,7.2,7.2v24.37A7.207,7.207,0,0,1,353.664,215.62Zm-32.339-42.1a4.818,4.818,0,0,0-4.812,4.814V208.42a4.818,4.818,0,0,0,4.812,4.814h32.339a4.818,4.818,0,0,0,4.812-4.814V184.05a4.817,4.817,0,0,0-4.812-4.81h-15.5l-5.5-4.6a4.829,4.829,0,0,0-3.087-1.12Z" transform="translate(462.143 944.281)" fill="#575756"/>
    <path id="Trazado_196251" data-name="Trazado 196251" d="M334.846,178.577l-5.191-4.34a2.955,2.955,0,0,0-1.9-.69H319.5a2.961,2.961,0,0,0-2.961,2.961V206.6a2.961,2.961,0,0,0,2.961,2.961H351.84A2.961,2.961,0,0,0,354.8,206.6V182.227a2.961,2.961,0,0,0-2.961-2.961H336.745A2.955,2.955,0,0,1,334.846,178.577Z" transform="translate(463.966 946.105)" fill="#63bcb8"/>
    <path id="Trazado_196443" data-name="Trazado 196443" d="M0,0H38.259V2.388H0Z" transform="translate(780.507 1147.083)" fill="#575756"/>
    <path id="Trazado_196444" data-name="Trazado 196444" d="M0,0H2.469V2.469H0Z" transform="translate(807.66 1049.612)" fill="#63bcb8"/>
    <path id="Trazado_196445" data-name="Trazado 196445" d="M0,0H2.469V2.469H0Z" transform="translate(789.83 1021.789)" fill="#63bcb8"/>
    <path id="Trazado_196446" data-name="Trazado 196446" d="M0,0H2.469V2.469H0Z" transform="translate(807.66 993.967)" fill="#63bcb8"/>
    <path id="Trazado_196447" data-name="Trazado 196447" d="M0,0H2.388V18.537H0Z" transform="translate(838.688 944.687)" fill="#575756"/>
    <path id="Trazado_196252" data-name="Trazado 196252" d="M345.266,94.826c-20.369,0-41.437-5.486-41.437-14.665S324.9,65.5,345.266,65.5s41.439,5.486,41.439,14.667S365.637,94.826,345.266,94.826Zm0-26.943c-23.359,0-39.051,6.348-39.051,12.278s15.692,12.276,39.051,12.276,39.051-6.348,39.051-12.276S368.627,67.884,345.266,67.884Z" transform="translate(454.37 864.525)" fill="#575756"/>
    <path id="Trazado_196448" data-name="Trazado 196448" d="M0,0H2.469V2.469H0Z" transform="translate(789.83 966.144)" fill="#63bcb8"/>
    <path id="Trazado_196253" data-name="Trazado 196253" d="M337.89,91.956h-7.236V84.72h7.236Zm-4.849-2.389h2.46V87.107h-2.46Z" transform="translate(474.623 879.041)" fill="#575756"/>
    <path id="Trazado_196254" data-name="Trazado 196254" d="M327.73,107.809h-7.236v-7.236h7.236Zm-4.849-2.387h2.462v-2.461h-2.462Z" transform="translate(466.952 891.01)" fill="#575756"/>
    <path id="Trazado_196255" data-name="Trazado 196255" d="M337.89,123.664h-7.236v-7.238h7.236Zm-4.849-2.389h2.46v-2.461h-2.46Z" transform="translate(474.623 902.979)" fill="#575756"/>
    <path id="Trazado_196256" data-name="Trazado 196256" d="M327.73,139.516h-7.236V132.28h7.236Zm-4.849-2.387h2.462v-2.462h-2.462Z" transform="translate(466.952 914.948)" fill="#575756"/>
    <path id="Trazado_196449" data-name="Trazado 196449" d="M25.345,0c14,0,25.345,3.207,25.345,7.164s-11.347,7.164-25.345,7.164S0,11.12,0,7.164,11.347,0,25.345,0Z" transform="translate(774.292 937.522)" fill="#63bcb8"/>
    <path id="Trazado_196450" data-name="Trazado 196450" d="M0,0H5.709V5.709H0Z" transform="translate(796.783 1047.992)" fill="#63bcb8"/>
    <path id="Trazado_196451" data-name="Trazado 196451" d="M0,0H5.709V5.709H0Z" transform="translate(796.783 1020.169)" fill="#63bcb8"/>
    <path id="Trazado_196452" data-name="Trazado 196452" d="M0,0H5.709V5.709H0Z" transform="translate(796.783 992.347)" fill="#63bcb8"/>
    <path id="Trazado_196453" data-name="Trazado 196453" d="M0,0H5.709V5.709H0Z" transform="translate(796.783 964.523)" fill="#63bcb8"/>
    <path id="Trazado_196454" data-name="Trazado 196454" d="M0,0H2.388V18.537H0Z" transform="translate(838.688 972.831)" fill="#575756"/>
    <path id="Trazado_196455" data-name="Trazado 196455" d="M0,0H2.388V18.537H0Z" transform="translate(838.688 1000.975)" fill="#575756"/>
    <path id="Trazado_196456" data-name="Trazado 196456" d="M0,0H2.388V18.537H0Z" transform="translate(838.688 1029.119)" fill="#575756"/>
    <path id="Trazado_196257" data-name="Trazado 196257" d="M345.266,99.079c-20.369,0-41.437-5.484-41.437-14.665h2.387c0,5.93,15.692,12.278,39.051,12.278s39.051-6.348,39.051-12.278h2.389C386.706,93.594,365.637,99.079,345.266,99.079Z" transform="translate(454.37 878.81)" fill="#575756"/>
    <path id="Trazado_196258" data-name="Trazado 196258" d="M345.266,115.088c-20.369,0-41.437-5.484-41.437-14.665h2.387c0,5.928,15.692,12.278,39.051,12.278s39.051-6.35,39.051-12.278h2.389C386.706,109.6,365.637,115.088,345.266,115.088Z" transform="translate(454.37 890.896)" fill="#575756"/>
    <path id="Trazado_196259" data-name="Trazado 196259" d="M345.266,131.1c-20.369,0-41.437-5.484-41.437-14.665h2.387c0,5.928,15.692,12.278,39.051,12.278s39.051-6.35,39.051-12.278h2.389C386.706,125.612,365.637,131.1,345.266,131.1Z" transform="translate(454.37 902.983)" fill="#575756"/>
    <path id="Trazado_196260" data-name="Trazado 196260" d="M345.266,147.106c-20.369,0-41.437-5.484-41.437-14.665h2.387c0,5.928,15.692,12.278,39.051,12.278s39.051-6.35,39.051-12.278h2.389C386.706,141.621,365.637,147.106,345.266,147.106Z" transform="translate(454.37 915.069)" fill="#575756"/>
    <path id="Trazado_196261" data-name="Trazado 196261" d="M345.266,106.747c-20.369,0-41.437-5.484-41.437-14.665a7.517,7.517,0,0,1,2.843-5.525l1.609,1.764a5.278,5.278,0,0,0-2.066,3.761c0,5.93,15.692,12.278,39.051,12.278s39.051-6.348,39.051-12.278a5.272,5.272,0,0,0-2.062-3.759l1.609-1.764a7.52,7.52,0,0,1,2.841,5.523C386.706,101.262,365.637,106.747,345.266,106.747Z" transform="translate(454.37 880.428)" fill="#575756"/>
    <path id="Trazado_196262" data-name="Trazado 196262" d="M345.266,122.968c-20.369,0-41.437-5.484-41.437-14.665a7.517,7.517,0,0,1,2.843-5.525l1.609,1.764a5.278,5.278,0,0,0-2.066,3.761c0,5.928,15.692,12.278,39.051,12.278s39.051-6.35,39.051-12.278a5.279,5.279,0,0,0-2.062-3.761l1.609-1.762a7.52,7.52,0,0,1,2.841,5.523C386.706,117.483,365.637,122.968,345.266,122.968Z" transform="translate(454.37 892.674)" fill="#575756"/>
    <path id="Trazado_196263" data-name="Trazado 196263" d="M345.266,139.189c-20.369,0-41.437-5.486-41.437-14.665A7.517,7.517,0,0,1,306.672,119l1.609,1.764a5.275,5.275,0,0,0-2.066,3.761c0,5.928,15.692,12.278,39.051,12.278s39.051-6.35,39.051-12.278a5.279,5.279,0,0,0-2.062-3.761L383.864,119a7.524,7.524,0,0,1,2.841,5.525C386.706,133.7,365.637,139.189,345.266,139.189Z" transform="translate(454.37 904.921)" fill="#575756"/>
    <path id="Trazado_196457" data-name="Trazado 196457" d="M0,0H2.388V11.253H0Z" transform="translate(764.068 958.979)" fill="#575756"/>
    <path id="Trazado_196458" data-name="Trazado 196458" d="M0,0H2.388V11.253H0Z" transform="translate(764.068 986.802)" fill="#575756"/>
    <path id="Trazado_196459" data-name="Trazado 196459" d="M0,0H2.388V11.253H0Z" transform="translate(764.068 1015.079)" fill="#575756"/>
    <path id="Trazado_196460" data-name="Trazado 196460" d="M0,0H2.388V11.253H0Z" transform="translate(764.068 1043.154)" fill="#575756"/>
    <path id="Trazado_196264" data-name="Trazado 196264" d="M368.209,88.065a1.19,1.19,0,0,1-.985-.518l-3.408-4.974a17.129,17.129,0,0,1-2.847,0l-3.406,4.974a1.2,1.2,0,0,1-1.283.481,24.1,24.1,0,0,1-2.808-.92,1.19,1.19,0,0,1-.756-1.143l.165-6.018a18.226,18.226,0,0,1-2.3-1.676l-5.674,2.02a1.193,1.193,0,0,1-1.322-.365,24.565,24.565,0,0,1-1.732-2.394,1.191,1.191,0,0,1,.06-1.371l3.668-4.767a17.9,17.9,0,0,1-.881-2.711l-5.77-1.7a1.193,1.193,0,0,1-.853-1.074c-.03-.49-.049-.981-.049-1.478s.019-.988.049-1.478a1.193,1.193,0,0,1,.853-1.074l5.77-1.7a17.9,17.9,0,0,1,.881-2.711L341.911,52.7a1.194,1.194,0,0,1-.06-1.372,24.327,24.327,0,0,1,1.732-2.392,1.193,1.193,0,0,1,1.322-.365l5.674,2.018a18.389,18.389,0,0,1,2.3-1.674l-.165-6.018a1.194,1.194,0,0,1,.756-1.144,24.312,24.312,0,0,1,2.808-.918,1.2,1.2,0,0,1,1.283.481l3.406,4.972a17.519,17.519,0,0,1,2.847,0l3.408-4.972a1.2,1.2,0,0,1,1.283-.481,24.1,24.1,0,0,1,2.808.918,1.2,1.2,0,0,1,.755,1.144l-.165,6.018a18.27,18.27,0,0,1,2.3,1.674l5.674-2.018a1.193,1.193,0,0,1,1.322.365,24.631,24.631,0,0,1,1.734,2.392,1.2,1.2,0,0,1-.06,1.372l-3.67,4.767a17.911,17.911,0,0,1,.883,2.711l5.769,1.7a1.2,1.2,0,0,1,.855,1.074c.028.49.049.981.049,1.478s-.021.988-.049,1.478a1.2,1.2,0,0,1-.855,1.074l-5.769,1.7a17.91,17.91,0,0,1-.883,2.711l3.67,4.767a1.194,1.194,0,0,1,.06,1.371,24.875,24.875,0,0,1-1.734,2.394,1.192,1.192,0,0,1-1.322.365l-5.674-2.02a18.231,18.231,0,0,1-2.3,1.676l.165,6.018a1.192,1.192,0,0,1-.755,1.143,24.213,24.213,0,0,1-2.808.92A1.251,1.251,0,0,1,368.209,88.065Zm-13.083-2.885c.321.112.637.218.951.312l3.322-4.851a1.2,1.2,0,0,1,1.125-.511,15.486,15.486,0,0,0,3.738,0,1.2,1.2,0,0,1,1.125.511l3.322,4.851q.471-.145.951-.312l-.161-5.87a1.189,1.189,0,0,1,.609-1.074,15.969,15.969,0,0,0,3.024-2.2,1.185,1.185,0,0,1,1.211-.249l5.534,1.969c.2-.263.395-.535.588-.814l-3.578-4.649a1.2,1.2,0,0,1-.139-1.23,15.671,15.671,0,0,0,1.157-3.554,1.191,1.191,0,0,1,.834-.914l5.63-1.66c.005-.165.007-.333.007-.5s0-.335-.007-.5l-5.63-1.658a1.2,1.2,0,0,1-.834-.914,15.714,15.714,0,0,0-1.157-3.556,1.192,1.192,0,0,1,.139-1.229l3.578-4.649c-.193-.281-.388-.553-.588-.814l-5.534,1.969a1.193,1.193,0,0,1-1.211-.249,15.913,15.913,0,0,0-3.024-2.2,1.193,1.193,0,0,1-.609-1.074l.161-5.87c-.319-.112-.635-.218-.951-.312l-3.322,4.849a1.194,1.194,0,0,1-1.123.511,15.325,15.325,0,0,0-3.74,0,1.194,1.194,0,0,1-1.125-.511l-3.322-4.849c-.314.095-.632.2-.951.312l.163,5.87a1.2,1.2,0,0,1-.611,1.074,15.849,15.849,0,0,0-3.022,2.2,1.2,1.2,0,0,1-1.213.249l-5.534-1.969q-.3.392-.588.814l3.58,4.649a1.2,1.2,0,0,1,.137,1.229,15.72,15.72,0,0,0-1.157,3.556,1.193,1.193,0,0,1-.834.914l-5.63,1.658c0,.167-.007.333-.007.5s0,.335.007.5l5.63,1.66a1.188,1.188,0,0,1,.834.914,15.706,15.706,0,0,0,1.157,3.554,1.2,1.2,0,0,1-.137,1.23l-3.58,4.649q.289.419.588.814l5.534-1.969a1.185,1.185,0,0,1,1.211.249,15.974,15.974,0,0,0,3.024,2.2,1.191,1.191,0,0,1,.611,1.074Zm24.5-17.6h0Z" transform="translate(480.188 845.882)" fill="#575756"/>
    <path id="Trazado_196265" data-name="Trazado 196265" d="M356.284,68.808a10.167,10.167,0,1,1,10.167-10.167A10.168,10.168,0,0,1,356.284,68.808Z" transform="translate(486.297 851.675)" fill="#63bcb8"/>
    <path id="Trazado_196266" data-name="Trazado 196266" d="M313.967,177.023a1.2,1.2,0,0,1-.986-.519l-2.68-3.912a14.109,14.109,0,0,1-2.074,0l-2.68,3.912a1.193,1.193,0,0,1-1.285.481,19.423,19.423,0,0,1-2.3-.751,1.192,1.192,0,0,1-.756-1.143l.132-4.735a15.093,15.093,0,0,1-1.678-1.22l-4.465,1.587a1.2,1.2,0,0,1-1.322-.363,20.333,20.333,0,0,1-1.418-1.959,1.194,1.194,0,0,1,.06-1.371l2.887-3.75a14.832,14.832,0,0,1-.642-1.976l-4.538-1.337a1.192,1.192,0,0,1-.855-1.072c-.025-.4-.04-.8-.04-1.209s.016-.809.04-1.209a1.192,1.192,0,0,1,.855-1.072l4.538-1.337a14.834,14.834,0,0,1,.642-1.976l-2.887-3.75a1.194,1.194,0,0,1-.06-1.371,20.547,20.547,0,0,1,1.418-1.959,1.2,1.2,0,0,1,1.322-.365l4.465,1.59a15.047,15.047,0,0,1,1.678-1.221l-.132-4.733a1.194,1.194,0,0,1,.756-1.144,19.656,19.656,0,0,1,2.3-.751,1.189,1.189,0,0,1,1.283.481l2.682,3.912a14.085,14.085,0,0,1,2.073,0l2.68-3.912a1.192,1.192,0,0,1,1.285-.481,19.762,19.762,0,0,1,2.3.751,1.2,1.2,0,0,1,.756,1.144l-.132,4.733a15.058,15.058,0,0,1,1.678,1.221l4.465-1.59a1.2,1.2,0,0,1,1.321.365,20.727,20.727,0,0,1,1.418,1.959,1.194,1.194,0,0,1-.06,1.371l-2.887,3.75a15.147,15.147,0,0,1,.642,1.974L328.3,155.4a1.192,1.192,0,0,1,.855,1.072c.025.4.04.8.04,1.209s-.016.807-.04,1.209a1.192,1.192,0,0,1-.855,1.072l-4.538,1.337a15.084,15.084,0,0,1-.642,1.976l2.887,3.75a1.194,1.194,0,0,1,.06,1.371,20.283,20.283,0,0,1-1.418,1.959,1.192,1.192,0,0,1-1.321.363l-4.465-1.587a15.1,15.1,0,0,1-1.678,1.22l.132,4.735a1.194,1.194,0,0,1-.756,1.143,19.443,19.443,0,0,1-2.3.751A1.171,1.171,0,0,1,313.967,177.023Zm-3.078-6.88a1.189,1.189,0,0,1,.984.519l2.592,3.782c.147-.046.295-.095.442-.146l-.126-4.579a1.2,1.2,0,0,1,.609-1.076,12.52,12.52,0,0,0,2.4-1.746,1.191,1.191,0,0,1,1.213-.247l4.316,1.536c.093-.125.184-.251.274-.381l-2.79-3.626a1.2,1.2,0,0,1-.139-1.23,12.516,12.516,0,0,0,.918-2.822,1.2,1.2,0,0,1,.834-.916l.449-.132h0l3.943-1.162c0-.077,0-.156,0-.233s0-.156,0-.233l-4.391-1.293a1.2,1.2,0,0,1-.835-.916,12.517,12.517,0,0,0-.918-2.822,1.192,1.192,0,0,1,.139-1.229l2.79-3.628q-.134-.195-.274-.379L319,148.72a1.2,1.2,0,0,1-1.213-.249,12.541,12.541,0,0,0-2.4-1.746,1.2,1.2,0,0,1-.611-1.076l.126-4.579c-.147-.051-.295-.1-.442-.146l-2.59,3.782a1.2,1.2,0,0,1-1.125.511,12.2,12.2,0,0,0-2.971,0,1.2,1.2,0,0,1-1.123-.509l-2.592-3.784c-.147.046-.295.095-.442.146l.125,4.581a1.2,1.2,0,0,1-.609,1.074,12.608,12.608,0,0,0-2.4,1.746,1.193,1.193,0,0,1-1.211.249l-4.317-1.536q-.137.184-.274.379l2.792,3.628a1.188,1.188,0,0,1,.137,1.229,12.591,12.591,0,0,0-.918,2.824,1.194,1.194,0,0,1-.834.914l-4.391,1.293c0,.077,0,.154,0,.233s0,.156,0,.233l4.393,1.3a1.192,1.192,0,0,1,.832.913,12.562,12.562,0,0,0,.918,2.824,1.188,1.188,0,0,1-.137,1.229l-2.792,3.628c.091.13.183.256.274.381l4.317-1.536a1.189,1.189,0,0,1,1.211.247,12.632,12.632,0,0,0,2.4,1.746,1.191,1.191,0,0,1,.609,1.074l-.125,4.581c.147.051.295.1.442.146l2.592-3.784a1.186,1.186,0,0,1,1.123-.509,12.2,12.2,0,0,0,2.971,0A1.256,1.256,0,0,1,310.889,170.143Z" transform="translate(443.423 919.528)" fill="#575756"/>
    <path id="Trazado_196461" data-name="Trazado 196461" d="M8.221,0A8.221,8.221,0,1,1,0,8.221,8.221,8.221,0,0,1,8.221,0Z" transform="translate(744.466 1068.991)" fill="#63bcb8"/>
    <path id="Trazado_196267" data-name="Trazado 196267" d="M411.143,160.154a19.137,19.137,0,1,1,0-.79Z" transform="translate(506.5 921.248)" fill="#63bcb8"/>
    <path id="Trazado_196268" data-name="Trazado 196268" d="M413.257,189.029H372.775l6.49-17.616h27.5Z" transform="translate(506.424 944.494)" fill="#63bcb8"/>
    <path id="Trazado_196269" data-name="Trazado 196269" d="M452.136,203.148H361.718a7.377,7.377,0,0,1-7.369-7.369V138.33a7.377,7.377,0,0,1,7.369-7.369h90.418a7.379,7.379,0,0,1,7.371,7.369v57.448A7.379,7.379,0,0,1,452.136,203.148Zm-90.418-69.8a4.988,4.988,0,0,0-4.982,4.981v57.448a4.988,4.988,0,0,0,4.982,4.981h90.418a4.986,4.986,0,0,0,4.983-4.981V138.33a4.986,4.986,0,0,0-4.983-4.981Z" transform="translate(492.512 913.953)" fill="#575756"/>
    <path id="Trazado_196270" data-name="Trazado 196270" d="M451.89,195.687H357.383V133.934H451.89ZM359.77,193.3H449.5V136.321H359.77Z" transform="translate(494.803 916.198)" fill="#575756"/>
    <path id="Trazado_196462" data-name="Trazado 196462" d="M0,0H52.973V2.388H0Z" transform="translate(873.327 1132.329)" fill="#575756"/>
    <path id="Trazado_196271" data-name="Trazado 196271" d="M395.429,190.256a27.08,27.08,0,1,1,27.08-27.08A27.11,27.11,0,0,1,395.429,190.256Zm0-51.773a24.693,24.693,0,1,0,24.693,24.693A24.721,24.721,0,0,0,395.429,138.484Z" transform="translate(503.083 917.831)" fill="#575756"/>
    <path id="Trazado_196272" data-name="Trazado 196272" d="M393.6,184.388h-.09V182h.09c.595,0,1.2-.026,1.8-.077.637-.056,1.279-.14,1.906-.254l.423,2.35c-.7.126-1.411.221-2.122.283C394.938,184.358,394.264,184.388,393.6,184.388Zm-4.312-.409a22.915,22.915,0,0,1-4.07-1.181l.874-2.222a20.567,20.567,0,0,0,3.645,1.058Zm12.52-1.093-.849-2.232a20.458,20.458,0,0,0,3.408-1.674l1.246,2.036A22.772,22.772,0,0,1,401.809,182.886Zm-20.374-2a23.123,23.123,0,0,1-3.368-2.571l1.616-1.757a20.815,20.815,0,0,0,3.02,2.3Zm27.573-2.41-1.6-1.773a20.629,20.629,0,0,0,2.575-2.792l1.9,1.45A23.21,23.21,0,0,1,409.008,178.477Zm-33.784-3.3a23.061,23.061,0,0,1-2.217-3.612l2.141-1.055a20.714,20.714,0,0,0,1.987,3.234Zm38.908-3.4L412,170.7a20.547,20.547,0,0,0,1.393-3.531l2.294.667A22.983,22.983,0,0,1,414.132,171.773ZM371.494,167.6a23.336,23.336,0,0,1-.756-4.166l2.378-.211a20.78,20.78,0,0,0,.679,3.736Zm45-3.933-2.376-.23c.063-.665.1-1.339.1-2,0-.595-.026-1.2-.077-1.8l-.009-.088,2.38-.2.007.084c.058.662.086,1.336.086,2C416.6,162.177,416.565,162.928,416.493,163.668Zm-43.364-4.244-2.376-.226a22.779,22.779,0,0,1,.8-4.165l2.292.663A20.5,20.5,0,0,0,373.128,159.425Zm40.316-3.6a20.5,20.5,0,0,0-1.36-3.543l2.138-1.06a22.945,22.945,0,0,1,1.522,3.958Zm-38.215-3.661-2.134-1.074a23.07,23.07,0,0,1,2.248-3.592l1.9,1.446A20.61,20.61,0,0,0,375.229,152.163Zm34.861-3.113a20.752,20.752,0,0,0-2.554-2.813l1.613-1.76A23.11,23.11,0,0,1,412,147.614Zm-30.279-2.9-1.6-1.769a23.057,23.057,0,0,1,3.387-2.545l1.251,2.034A20.6,20.6,0,0,0,379.811,146.145Zm24.7-2.208a20.8,20.8,0,0,0-3.392-1.706l.87-2.222a22.888,22.888,0,0,1,3.787,1.9Zm-18.259-1.753-.853-2.229a22.909,22.909,0,0,1,4.082-1.143l.427,2.35A20.539,20.539,0,0,0,386.252,142.184Zm11.22-1a20.474,20.474,0,0,0-3.779-.358l0-2.389a23.112,23.112,0,0,1,4.221.4Z" transform="translate(504.886 919.597)" fill="#575756"/>
    <path id="Trazado_196273" data-name="Trazado 196273" d="M390.278,159.758l-15.825-.056.005-1.193a16.362,16.362,0,0,1,32.706-.688l-2.385.109a13.974,13.974,0,0,0-27.878-.607l13.384.049Z" transform="translate(507.691 922.441)" fill="#575756"/>
    <path id="Trazado_196274" data-name="Trazado 196274" d="M383.9,155.917l-.384-.6a4.571,4.571,0,0,1,0-4.946l.384-.6,25.116,1.88v2.38Zm1.351-3.643a2.195,2.195,0,0,0,0,1.148l7.669-.574Z" transform="translate(513.988 928.159)" fill="#575756"/>
    <path id="Trazado_196275" data-name="Trazado 196275" d="M386.98,162.169a7.441,7.441,0,1,1,7.26-9.073l-2.329.523a5.053,5.053,0,1,0,0,2.218l2.329.521A7.489,7.489,0,0,1,386.98,162.169Z" transform="translate(511.531 926.279)" fill="#575756"/>
    <path id="Trazado_196276" data-name="Trazado 196276" d="M298.969,75.305a3.871,3.871,0,1,1,3.87-3.87A3.874,3.874,0,0,1,298.969,75.305Zm0-5.355a1.484,1.484,0,1,0,1.483,1.485A1.485,1.485,0,0,0,298.969,69.951Z" transform="translate(447.778 866.087)" fill="#575756"/>
    <path id="Trazado_196277" data-name="Trazado 196277" d="M299.795,109.678a5.79,5.79,0,1,1,5.79-5.79A5.8,5.8,0,0,1,299.795,109.678Zm0-9.191a3.4,3.4,0,1,0,3.4,3.4A3.406,3.406,0,0,0,299.795,100.487Z" transform="translate(446.953 889.141)" fill="#575756"/>
    <g id="Grupo_131850" data-name="Grupo 131850" transform="translate(696.705 964.796)">
      <path id="Trazado_196278" data-name="Trazado 196278" d="M272.662,93.051a3.871,3.871,0,1,1,3.87-3.87A3.874,3.874,0,0,1,272.662,93.051Zm0-5.353a1.483,1.483,0,1,0,1.483,1.483A1.485,1.485,0,0,0,272.662,87.7Z" transform="translate(-268.79 -85.31)" fill="#575756"/>
    </g>
    <g id="Grupo_131851" data-name="Grupo 131851" transform="translate(696.705 1019.538)">
      <path id="Trazado_196279" data-name="Trazado 196279" d="M272.662,124.243a3.871,3.871,0,1,1,3.87-3.87A3.874,3.874,0,0,1,272.662,124.243Zm0-5.355a1.484,1.484,0,1,0,1.483,1.485A1.486,1.486,0,0,0,272.662,118.889Z" transform="translate(-268.79 -116.502)" fill="#575756"/>
    </g>
    <g id="Grupo_131855" data-name="Grupo 131855" transform="translate(699.381 971.344)">
      <g id="Grupo_131852" data-name="Grupo 131852" transform="translate(0.001)">
        <rect id="Rectángulo_41987" data-name="Rectángulo 41987" width="2.388" height="1.99" fill="#575756"/>
      </g>
      <g id="Grupo_131853" data-name="Grupo 131853" transform="translate(0 6.118)">
        <path id="Trazado_196280" data-name="Trazado 196280" d="M272.7,129.679h-2.389v-4.128H272.7Zm0-8.256h-2.389V117.3H272.7Zm0-8.256h-2.389v-4.13H272.7Zm0-8.257h-2.389v-4.128H272.7Zm0-8.256h-2.389V92.527H272.7Z" transform="translate(-270.315 -92.527)" fill="#575756"/>
      </g>
      <g id="Grupo_131854" data-name="Grupo 131854" transform="translate(0.001 47.398)">
        <rect id="Rectángulo_41988" data-name="Rectángulo 41988" width="2.388" height="1.99" fill="#575756"/>
      </g>
    </g>
    <g id="Grupo_131859" data-name="Grupo 131859" transform="translate(700.576 991.835)">
      <g id="Grupo_131856" data-name="Grupo 131856" transform="translate(0 0)">
        <rect id="Rectángulo_41989" data-name="Rectángulo 41989" width="1.99" height="2.388" fill="#575756"/>
      </g>
      <g id="Grupo_131857" data-name="Grupo 131857" transform="translate(6.166)">
        <path id="Trazado_196281" data-name="Trazado 196281" d="M303.751,103.106h-4.179v-2.389h4.179Zm-8.354,0h-4.179v-2.389H295.4Zm-8.356,0h-4.179v-2.389h4.179Zm-8.354,0h-4.179v-2.389h4.179Z" transform="translate(-274.509 -100.717)" fill="#575756"/>
      </g>
      <g id="Grupo_131858" data-name="Grupo 131858" transform="translate(39.585 0)">
        <rect id="Rectángulo_41990" data-name="Rectángulo 41990" width="1.99" height="2.388" fill="#575756"/>
      </g>
    </g>
    <path id="Trazado_196282" data-name="Trazado 196282" d="M299.012,154.048h-2.389v-2.28h2.389Zm0-6.258h-2.389v-3.98h2.389Zm0-7.959h-2.389v-3.98h2.389Zm0-7.959h-2.389v-3.979h2.389Zm0-7.959h-2.389v-3.979h2.389Zm0-7.959h-2.389v-3.979h2.389Zm0-7.959h-2.389v-3.979h2.389Z" transform="translate(448.929 893.609)" fill="#575756"/>
    <path id="Trazado_196463" data-name="Trazado 196463" d="M0,0H2.388V3.979H0Z" transform="translate(745.553 984.454)" fill="#575756"/>
    <path id="Trazado_196464" data-name="Trazado 196464" d="M0,0H2.388V3.979H0Z" transform="translate(745.553 976.495)" fill="#575756"/>
    <path id="Trazado_196465" data-name="Trazado 196465" d="M0,0H2.388V3.979H0Z" transform="translate(745.553 968.536)" fill="#575756"/>
    <path id="Trazado_196466" data-name="Trazado 196466" d="M0,0H2.388V3.979H0Z" transform="translate(745.553 960.577)" fill="#575756"/>
    <path id="Trazado_196467" data-name="Trazado 196467" d="M0,0H2.388V3.979H0Z" transform="translate(745.553 952.619)" fill="#575756"/>
    <path id="Trazado_196468" data-name="Trazado 196468" d="M0,0H2.388V3.979H0Z" transform="translate(745.553 944.66)" fill="#575756"/>
    <path id="Trazado_196283" data-name="Trazado 196283" d="M386.141,93.051a3.871,3.871,0,1,1,3.87-3.87A3.875,3.875,0,0,1,386.141,93.051Zm0-5.353a1.483,1.483,0,1,0,1.483,1.483A1.485,1.485,0,0,0,386.141,87.7Z" transform="translate(513.592 879.486)" fill="#575756"/>
    <path id="Trazado_196284" data-name="Trazado 196284" d="M386.141,124.243a3.871,3.871,0,1,1,3.87-3.87A3.875,3.875,0,0,1,386.141,124.243Zm0-5.355a1.484,1.484,0,1,0,1.483,1.485A1.486,1.486,0,0,0,386.141,118.889Z" transform="translate(513.592 903.036)" fill="#575756"/>
    <path id="Trazado_196285" data-name="Trazado 196285" d="M359.781,128.6a3.871,3.871,0,1,1,3.872-3.872A3.874,3.874,0,0,1,359.781,128.6Zm0-5.355a1.483,1.483,0,1,0,1.483,1.483A1.485,1.485,0,0,0,359.781,123.247Z" transform="translate(493.692 906.326)" fill="#575756"/>
    <g id="Grupo_131866" data-name="Grupo 131866" transform="translate(898.539 971.344)">
      <rect id="Rectángulo_41997" data-name="Rectángulo 41997" width="2.388" height="1.99" fill="#575756"/>
    </g>
    <g id="Grupo_131867" data-name="Grupo 131867" transform="translate(898.539 977.461)">
      <path id="Trazado_196286" data-name="Trazado 196286" d="M386.182,129.679H383.8v-4.128h2.387Zm0-8.256H383.8V117.3h2.387Zm0-8.256H383.8v-4.13h2.387Zm0-8.257H383.8v-4.128h2.387Zm0-8.256H383.8V92.527h2.387Z" transform="translate(-383.795 -92.527)" fill="#575756"/>
    </g>
    <g id="Grupo_131868" data-name="Grupo 131868" transform="translate(898.539 1018.742)">
      <rect id="Rectángulo_41998" data-name="Rectángulo 41998" width="2.388" height="1.99" fill="#575756"/>
    </g>
    <g id="Grupo_131870" data-name="Grupo 131870" transform="translate(858.165 991.835)">
      <rect id="Rectángulo_41999" data-name="Rectángulo 41999" width="1.99" height="2.388" fill="#575756"/>
    </g>
    <g id="Grupo_131871" data-name="Grupo 131871" transform="translate(864.332 991.835)">
      <path id="Trazado_196287" data-name="Trazado 196287" d="M393.544,103.106h-4.177v-2.389h4.177Zm-8.354,0h-4.177v-2.389h4.177Zm-8.356,0h-4.177v-2.389h4.177Zm-8.354,0H364.3v-2.389h4.177Z" transform="translate(-364.304 -100.717)" fill="#575756"/>
    </g>
    <g id="Grupo_131872" data-name="Grupo 131872" transform="translate(897.75 991.835)">
      <rect id="Rectángulo_42000" data-name="Rectángulo 42000" width="1.99" height="2.388" fill="#575756"/>
    </g>
    <path id="Trazado_196288" data-name="Trazado 196288" d="M360.606,109.678a5.79,5.79,0,1,1,5.79-5.79A5.8,5.8,0,0,1,360.606,109.678Zm0-9.191a3.4,3.4,0,1,0,3.4,3.4A3.405,3.405,0,0,0,360.606,100.487Z" transform="translate(492.867 889.142)" fill="#575756"/>
    <path id="Trazado_196469" data-name="Trazado 196469" d="M0,0H2.388V3.979H0Z" transform="translate(852.279 1021.501)" fill="#575756"/>
    <path id="Trazado_196470" data-name="Trazado 196470" d="M0,0H2.388V3.979H0Z" transform="translate(852.279 1013.542)" fill="#575756"/>
    <path id="Trazado_196471" data-name="Trazado 196471" d="M0,0H2.388V3.979H0Z" transform="translate(852.279 1005.584)" fill="#575756"/>
    <path id="Trazado_196472" data-name="Trazado 196472" d="M0,0H2.388V3.979H0Z" transform="translate(852.279 997.625)" fill="#575756"/>
    <path id="Trazado_196289" data-name="Trazado 196289" d="M359.825,120.3h-2.389v-3.98h2.389Zm0-7.959h-2.389v-3.98h2.389Zm0-7.959h-2.389V100.4h2.389Zm0-7.959h-2.389V92.447h2.389Zm0-7.959h-2.389V84.488h2.389Zm0-7.959h-2.389V76.529h2.389Zm0-7.959h-2.389V70.271h2.389Z" transform="translate(494.843 868.131)" fill="#575756"/>
    <path id="Trazado_196473" data-name="Trazado 196473" d="M0,0H26.866V37.413H0Z" transform="translate(709.74 1000.976)" fill="#ededed"/>
    <path id="Trazado_196474" data-name="Trazado 196474" d="M0,0H26.866V37.413H0Z" transform="translate(863.17 1000.862)" fill="#ededed"/>
    <path id="Trazado_196475" data-name="Trazado 196475" d="M0,0H28.472V21.935H0Z" transform="translate(810.129 1073.423)" fill="#ededed"/>
    <path id="Trazado_196476" data-name="Trazado 196476" d="M0,0H9.838V29.226H0Z" transform="translate(780.507 1068.992)" fill="#ededed"/>
    <path id="Trazado_196477" data-name="Trazado 196477" d="M0,0H19.717V51.557H0Z" transform="translate(671.212 970.232)" fill="#ededed"/>
    <path id="Trazado_196478" data-name="Trazado 196478" d="M0,0H27.187V18.8H0Z" transform="translate(711.221 966.144)" fill="#ededed"/>
    <path id="Trazado_196479" data-name="Trazado 196479" d="M0,0H26.866V17.105H0Z" transform="translate(863.17 965.99)" fill="#ededed"/>
    <path id="Trazado_196480" data-name="Trazado 196480" d="M0,0H15.853V71.466H0Z" transform="translate(911.832 966.144)" fill="#ededed"/>
    <path id="Trazado_196481" data-name="Trazado 196481" d="M0,0H12.1V34.02H0Z" transform="translate(799.223 888.645)" fill="#ededed"/>
    <g id="Grupo_131888" data-name="Grupo 131888" transform="translate(747.435 905.879)">
      <g id="Grupo_131886" data-name="Grupo 131886" transform="translate(0 1.688)">
        <path id="Trazado_196290" data-name="Trazado 196290" d="M315.523,72.817A20.072,20.072,0,0,1,297.7,62.029l2.113-1.109A17.731,17.731,0,0,0,333.251,52.7h2.389A20.139,20.139,0,0,1,315.523,72.817Z" transform="translate(-297.696 -52.701)" fill="#575756"/>
      </g>
      <g id="Grupo_131887" data-name="Grupo 131887" transform="translate(29.745)">
        <path id="Trazado_196291" data-name="Trazado 196291" d="M326.965,60.432l-5.316-5.316-5.316,5.316-1.688-1.688,7-7.005,7,7.005Z" transform="translate(-314.645 -51.739)" fill="#575756"/>
      </g>
    </g>
    <g id="Grupo_131891" data-name="Grupo 131891" transform="translate(739.335 887.451)">
      <g id="Grupo_131889" data-name="Grupo 131889" transform="translate(5.81)">
        <path id="Trazado_196292" data-name="Trazado 196292" d="M298.78,61.355h-2.389a20.12,20.12,0,0,1,37.947-9.324l-2.117,1.109a17.73,17.73,0,0,0-33.442,8.215Z" transform="translate(-296.391 -41.239)" fill="#575756"/>
      </g>
      <g id="Grupo_131890" data-name="Grupo 131890" transform="translate(0 13.111)">
        <path id="Trazado_196293" data-name="Trazado 196293" d="M300.085,57.4l-7-7.005,1.688-1.688,5.316,5.316L305.4,48.71l1.688,1.688Z" transform="translate(-293.08 -48.71)" fill="#575756"/>
      </g>
    </g>
    <path id="Trazado_196294" data-name="Trazado 196294" d="M321.3,56.78a9.4,9.4,0,1,1-9.4-9.4A9.4,9.4,0,0,1,321.3,56.78Z" transform="translate(453.364 850.849)" fill="#ededed"/>
    <path id="Trazado_196295" data-name="Trazado 196295" d="M377.275,187.724l-31.69,14.369V175.4h31.69Z" transform="translate(485.896 947.508)" fill="#ededed"/>
    <path id="Trazado_196296" data-name="Trazado 196296" d="M297.752,193.462l-34.586-32.128h34.586Z" transform="translate(423.668 936.884)" fill="#ededed"/>
  </g>
</svg>
