<svg xmlns="http://www.w3.org/2000/svg" width="820" height="306.565" viewBox="0 0 820 306.565">
  <g id="Grupo_131956" data-name="Grupo 131956" transform="translate(-390 -1403.5)">
    <g id="Grupo_131955" data-name="Grupo 131955">
      <path id="Trazado_635" data-name="Trazado 635" d="M8.385,6.763,1.856.234A.8.8,0,0,0,.725.23l0,0L.24.715a.8.8,0,0,0,0,1.131l0,0L5.722,7.332.234,12.82a.8.8,0,0,0,0,1.131l0,0,.481.481a.8.8,0,0,0,1.131,0l0,0L8.385,7.9a.81.81,0,0,0,0-1.139Z" transform="translate(769.002 1488.025)" fill="#fece2f"/>
      <path id="Trazado_635-2" data-name="Trazado 635" d="M8.385,6.763,1.856.234A.8.8,0,0,0,.725.23l0,0L.24.715a.8.8,0,0,0,0,1.131l0,0L5.722,7.332.234,12.82a.8.8,0,0,0,0,1.131l0,0,.481.481a.8.8,0,0,0,1.131,0l0,0L8.385,7.9a.81.81,0,0,0,0-1.139Z" transform="translate(769.002 1462.025)" fill="#fece2f"/>
      <g id="Grupo_131901" data-name="Grupo 131901" transform="translate(0 5.818)">
        <path id="Image_Place_Holder" data-name="Image Place Holder" d="M0,0H820V305.565H0Z" transform="translate(390 1398.682)" fill="#54aa13"/>
        <path id="BG" d="M0,0H420V306.565H0Z" transform="translate(390 1397.682)" fill="#eff5ea" opacity="0.949"/>
        <text id="Por_otro_lado_se_encuentra_que_las_bases_de_datos_están_clasificadas_en:" data-name="Por otro lado, se encuentra que las bases de datos están clasificadas en:" transform="translate(495 1502.935)" fill="#12263f" font-size="18" font-family="Roboto-Black, Roboto" font-weight="800"><tspan x="0" y="19">Por otro lado, se </tspan><tspan x="0" y="44">encuentra que las </tspan><tspan x="0" y="69">bases de datos están </tspan><tspan x="0" y="94">clasificadas en:</tspan></text>
        <g id="Right" transform="translate(722 1434.682)">
          <rect id="BG-2" data-name="BG" width="450" height="237" fill="#fff" opacity="0.949"/>
        </g>
        <text id="Bases_de_datos_distribuidas_Bases_de_datos_relacionales_Bases_de_datos_orientadas_a_objetos_Base_de_datos_centralizadas_Bases_de_datos_de_código_abierto_Bases_de_datos_en_la_nube_Bases_de_datos_NoSQL_Bases_de_datos_de_gráficos" data-name="Bases de datos distribuidas
Bases de datos relacionales
Bases de datos orientadas a objetos
Base de datos centralizadas
Bases de datos de código abierto
Bases de datos en la nube
Bases de datos NoSQL
Bases de datos de gráficos" transform="translate(784.307 1458.363)" fill="#12263f" font-size="16" font-family="Roboto-Regular, Roboto"><tspan x="0" y="17">Bases de datos distribuidas</tspan><tspan x="0" y="41">Bases de datos relacionales</tspan><tspan x="0" y="65">Bases de datos orientadas a objetos</tspan><tspan x="0" y="89">Base de datos centralizadas</tspan><tspan x="0" y="113">Bases de datos de código abierto</tspan><tspan x="0" y="137">Bases de datos en la nube</tspan><tspan x="0" y="161">Bases de datos NoSQL</tspan><tspan x="0" y="185">Bases de datos de gráficos</tspan></text>
        <path id="Trazado_635-3" data-name="Trazado 635" d="M8.385,6.763,1.856.234A.8.8,0,0,0,.725.23l0,0L.24.715a.8.8,0,0,0,0,1.131l0,0L5.722,7.332.234,12.82a.8.8,0,0,0,0,1.131l0,0,.481.481a.8.8,0,0,0,1.131,0l0,0L8.385,7.9a.81.81,0,0,0,0-1.139Z" transform="translate(769.002 1510.97)" fill="#fece2f"/>
        <path id="Trazado_635-4" data-name="Trazado 635" d="M8.385,6.763,1.856.234A.8.8,0,0,0,.725.23l0,0L.24.715a.8.8,0,0,0,0,1.131l0,0L5.722,7.332.234,12.82a.8.8,0,0,0,0,1.131l0,0,.481.481a.8.8,0,0,0,1.131,0l0,0L8.385,7.9a.81.81,0,0,0,0-1.139Z" transform="translate(769.002 1483.97)" fill="#fece2f"/>
        <path id="Trazado_635-5" data-name="Trazado 635" d="M8.385,6.763,1.856.234A.8.8,0,0,0,.725.23l0,0L.24.715a.8.8,0,0,0,0,1.131l0,0L5.722,7.332.234,12.82a.8.8,0,0,0,0,1.131l0,0,.481.481a.8.8,0,0,0,1.131,0l0,0L8.385,7.9a.81.81,0,0,0,0-1.139Z" transform="translate(769.002 1461.026)" fill="#fece2f"/>
        <path id="Trazado_635-6" data-name="Trazado 635" d="M8.385,6.763,1.856.234A.8.8,0,0,0,.725.23l0,0L.24.715a.8.8,0,0,0,0,1.131l0,0L5.722,7.332.234,12.82a.8.8,0,0,0,0,1.131l0,0,.481.481a.8.8,0,0,0,1.131,0l0,0L8.385,7.9a.81.81,0,0,0,0-1.139Z" transform="translate(769.002 1533.913)" fill="#fece2f"/>
        <path id="Trazado_635-7" data-name="Trazado 635" d="M8.385,6.763,1.856.234A.8.8,0,0,0,.725.23l0,0L.24.715a.8.8,0,0,0,0,1.131l0,0L5.722,7.332.234,12.82a.8.8,0,0,0,0,1.131l0,0,.481.481a.8.8,0,0,0,1.131,0l0,0L8.385,7.9a.81.81,0,0,0,0-1.139Z" transform="translate(769.002 1602.745)" fill="#fece2f"/>
        <path id="Trazado_635-8" data-name="Trazado 635" d="M8.385,6.763,1.856.234A.8.8,0,0,0,.725.23l0,0L.24.715a.8.8,0,0,0,0,1.131l0,0L5.722,7.332.234,12.82a.8.8,0,0,0,0,1.131l0,0,.481.481a.8.8,0,0,0,1.131,0l0,0L8.385,7.9a.81.81,0,0,0,0-1.139Z" transform="translate(769.002 1625.689)" fill="#fece2f"/>
        <path id="Trazado_635-9" data-name="Trazado 635" d="M8.385,6.763,1.856.234A.8.8,0,0,0,.725.23l0,0L.24.715a.8.8,0,0,0,0,1.131l0,0L5.722,7.332.234,12.82a.8.8,0,0,0,0,1.131l0,0,.481.481a.8.8,0,0,0,1.131,0l0,0L8.385,7.9a.81.81,0,0,0,0-1.139Z" transform="translate(769.002 1556.857)" fill="#fece2f"/>
        <path id="Trazado_635-10" data-name="Trazado 635" d="M8.385,6.763,1.856.234A.8.8,0,0,0,.725.23l0,0L.24.715a.8.8,0,0,0,0,1.131l0,0L5.722,7.332.234,12.82a.8.8,0,0,0,0,1.131l0,0,.481.481a.8.8,0,0,0,1.131,0l0,0L8.385,7.9a.81.81,0,0,0,0-1.139Z" transform="translate(769.002 1579.802)" fill="#fece2f"/>
      </g>
    </g>
  </g>
</svg>
