<svg xmlns="http://www.w3.org/2000/svg" xmlns:xlink="http://www.w3.org/1999/xlink" width="84.721" height="84.767" viewBox="0 0 84.721 84.767">
  <defs>
    <linearGradient id="linear-gradient" x1="29.635" y1="3.802" x2="30.311" y2="3.658" gradientUnits="objectBoundingBox">
      <stop offset="0" stop-color="#74b0ff"/>
      <stop offset="0.361" stop-color="#b6c8ba"/>
      <stop offset="0.909" stop-color="#61926b"/>
      <stop offset="1" stop-color="#b8ffd9"/>
    </linearGradient>
  </defs>
  <g id="Grupo_132007" data-name="Grupo 132007" transform="translate(12026.286 11902.058)">
    <g id="Grupo_131737" data-name="Grupo 131737" transform="translate(-12026.286 -11902.058)">
      <path id="Trazado_194562" data-name="Trazado 194562" d="M481.346,99.563l-10.233,10.213,26.129,1.729,10.233-10.213Z" transform="translate(-426.733 -71.795)" fill="#6594b8"/>
      <path id="Trazado_194563" data-name="Trazado 194563" d="M494.336,86.094c-6.194-5.383-13.553-8.694-20.461-9.2l6.94,27.03,26.129,1.729A40.3,40.3,0,0,0,494.336,86.094Z" transform="translate(-426.202 -76.155)" fill="#2432ff"/>
      <path id="Trazado_194564" data-name="Trazado 194564" d="M474.215,77.368c6.908.507,14.268,3.819,20.462,9.2a43.411,43.411,0,0,1,6.8,7.479,43.361,43.361,0,0,0-7.138-7.955c-6.194-5.383-13.553-8.694-20.461-9.2l6.94,27.03.222.014Z" transform="translate(-426.202 -76.155)" fill="#ffd4eb"/>
      <path id="Trazado_194565" data-name="Trazado 194565" d="M475.525,76.892,465.292,87.105l6.94,27.03,10.233-10.213Z" transform="translate(-427.852 -76.155)" fill="url(#linear-gradient)"/>
      <path id="Trazado_194566" data-name="Trazado 194566" d="M500.057,154.152c.11-.093.223-.182.33-.277q.485-.431.943-.888l10.233-10.213q-.46.458-.944.887c-.107.1-.222.186-.331.279-.219.187-.438.376-.664.554-.136.107-.279.207-.417.312-.209.156-.416.316-.631.465-.153.107-.312.206-.469.31-.209.138-.415.279-.628.41-.166.1-.339.2-.508.3-.212.123-.422.249-.64.366-.177.1-.359.184-.539.274-.217.111-.433.223-.656.327-.187.087-.379.168-.57.25-.223.1-.445.2-.672.289-.2.079-.4.15-.6.224-.229.086-.458.172-.692.252s-.455.145-.684.216c-.2.062-.4.125-.6.182-.236.067-.478.125-.718.185-.205.052-.409.106-.618.154-.246.055-.5.1-.746.151-.21.041-.416.086-.628.122-.258.045-.52.08-.782.118-.21.03-.419.064-.631.091-.272.033-.55.056-.826.082-.209.019-.415.044-.626.06-.293.021-.594.031-.892.044-.2.01-.395.024-.6.029-.333.008-.673,0-1.01,0-.173,0-.341,0-.515,0q-.771-.016-1.558-.068c-.409-.027-.818-.064-1.227-.1l-.31-.032c-.4-.044-.794-.092-1.191-.148l-.038,0q-.613-.088-1.226-.2l-.31-.055c-.386-.072-.773-.147-1.158-.23l-.075-.016c-.408-.087-.814-.185-1.221-.285l-.308-.079q-.563-.143-1.126-.3l-.107-.03c-.4-.116-.807-.241-1.21-.37l-.306-.1c-.366-.12-.731-.243-1.1-.373l-.131-.045c-.4-.144-.8-.3-1.2-.451l-.3-.119q-.535-.213-1.067-.438l-.15-.063c-.4-.169-.789-.347-1.181-.527l-.293-.136q-.519-.245-1.036-.5c-.056-.027-.112-.054-.168-.082q-.583-.292-1.16-.6c-.1-.05-.19-.1-.284-.153q-.506-.272-1.006-.556l-.18-.1c-.38-.217-.759-.441-1.136-.668l-.274-.168q-.488-.3-.97-.607l-.194-.124q-.556-.359-1.105-.733l-.263-.18q-.472-.324-.938-.658l-.2-.142q-.54-.39-1.073-.8l-.25-.191q-.454-.349-.9-.706c-.068-.054-.137-.107-.205-.162q-.522-.42-1.036-.852c-.078-.066-.156-.134-.235-.2q-.436-.372-.867-.751l-.205-.181q-.5-.447-.994-.907c-.074-.068-.147-.137-.219-.206q-.419-.392-.827-.793l-.206-.2q-.479-.474-.948-.956c-.069-.072-.136-.143-.205-.213q-.4-.413-.784-.833c-.068-.073-.136-.144-.2-.218q-.454-.5-.9-1l-.186-.216c-.249-.287-.5-.578-.74-.87-.067-.079-.134-.157-.2-.237-.285-.346-.568-.694-.844-1.046l-.168-.216q-.352-.451-.7-.909l-.19-.253q-.4-.538-.787-1.086c-.05-.069-.1-.141-.148-.211q-.329-.47-.649-.948c-.054-.08-.109-.16-.162-.241q-.517-.778-1-1.573l-.112-.179q-.488-.8-.948-1.616l-.1-.17q-.461-.824-.891-1.661l-.08-.155q-.433-.849-.831-1.71c-.021-.045-.043-.089-.063-.135q-.4-.873-.768-1.759c-.015-.037-.032-.074-.048-.112q-.37-.9-.7-1.811l-.03-.081q-.336-.932-.632-1.871l-.014-.043q-.3-.96-.557-1.931c-3.052-11.582-.574-21.654,5.747-27.961L440.938,92.306c-6.319,6.307-8.8,16.38-5.746,27.961q.256.971.557,1.932l.014.044q.293.939.631,1.869l.031.081q.331.91.7,1.812l.047.11q.367.885.768,1.76c.02.045.043.091.063.136q.4.86.831,1.709l.08.155q.431.837.892,1.662c.031.056.063.112.1.168q.46.816.949,1.617l.111.179q.488.794,1.005,1.574c.017.025.032.051.049.076l.112.163q.32.478.65.949l.147.21q.388.549.788,1.089c.062.083.125.166.187.248q.343.458.7.911c.057.072.112.144.169.216q.415.528.845,1.047c.064.079.13.156.194.234q.368.44.744.874c.062.072.123.143.186.215q.444.506.9,1c.067.074.135.145.2.218q.39.422.787.835l.2.211q.469.485.949.957l.205.2q.41.4.827.793l.219.207q.492.458.994.9l.207.184q.429.379.866.749c.077.067.156.135.235.2q.513.433,1.036.852l.2.162q.449.358.9.7l.252.193c.354.268.712.534,1.072.794l.2.142q.467.334.938.658c.088.061.175.122.264.181.367.248.736.494,1.106.733l.192.122c.322.206.647.409.973.609l.273.166q.565.342,1.135.669l.185.1q.5.283,1,.553l.286.154c.385.2.77.4,1.159.6l.172.083q.515.256,1.032.5l.293.137q.588.272,1.182.527l.153.063q.531.227,1.066.439l.3.118c.4.155.8.306,1.2.45l.135.048q.546.193,1.092.372l.306.1c.4.129.806.254,1.21.371l.108.03q.562.159,1.124.3l.309.079c.407.1.813.2,1.22.286l.076.014c.385.083.77.159,1.157.229l.311.057c.409.072.817.138,1.226.2l.038,0q.6.084,1.191.148l.31.032c.409.042.818.077,1.226.1q.789.052,1.559.068c.173,0,.342,0,.514,0,.339,0,.677.006,1.011,0,.2,0,.4-.019.6-.027.3-.014.6-.024.893-.045.211-.016.416-.039.625-.06.277-.026.554-.049.826-.082.213-.026.421-.06.632-.091.261-.038.525-.073.782-.118.211-.036.418-.081.627-.122.25-.049.5-.1.748-.151.209-.048.411-.1.618-.154.24-.06.48-.118.717-.185.2-.057.4-.122.6-.182.179-.056.361-.1.538-.163.05-.017.1-.036.145-.052.235-.08.464-.167.694-.252.2-.074.4-.145.594-.224.229-.092.451-.191.674-.289.191-.083.383-.163.569-.25.223-.1.439-.217.657-.327.18-.091.362-.179.539-.274.217-.117.428-.243.64-.366.169-.1.341-.193.507-.3.213-.131.42-.271.627-.409.157-.1.317-.2.471-.311.215-.15.421-.309.63-.466.139-.1.281-.2.417-.31C499.618,154.529,499.837,154.339,500.057,154.152Z" transform="translate(-433.89 -75.155)" fill="#75ac4c"/>
      <path id="Trazado_194567" data-name="Trazado 194567" d="M515.66,115.929l-35.945-2.377-9.528-37.185-.277-.018c-19.718-1.3-31.516,14.415-26.137,34.824s26.03,38.279,45.748,39.584S521.039,136.339,515.66,115.929Z" transform="translate(-432.24 -76.274)" fill="#54aa13"/>
      <g id="Grupo_129555" data-name="Grupo 129555" transform="translate(10.233)">
        <path id="Trazado_194568" data-name="Trazado 194568" d="M444.93,111.784c-5.313-20.153,6.126-35.733,25.4-34.863l-.142-.553-.277-.018c-19.718-1.3-31.516,14.415-26.137,34.824,3.826,14.517,15.379,27.747,28.827,34.646C459.651,138.77,448.646,125.884,444.93,111.784Z" transform="translate(-442.473 -76.274)" fill="#80d144"/>
      </g>
    </g>
  </g>
</svg>
