<svg xmlns="http://www.w3.org/2000/svg" xmlns:xlink="http://www.w3.org/1999/xlink" width="429.417" height="370.518" viewBox="0 0 429.417 370.518">
  <defs>
    <filter id="Trazado_196320" x="0" y="0" width="429.417" height="370.518" filterUnits="userSpaceOnUse">
      <feOffset dy="3" input="SourceAlpha"/>
      <feGaussianBlur stdDeviation="5" result="blur"/>
      <feFlood flood-opacity="0.161"/>
      <feComposite operator="in" in2="blur"/>
      <feComposite in="SourceGraphic"/>
    </filter>
  </defs>
  <g id="Grupo_131963" data-name="Grupo 131963" transform="translate(4323.168 3408)">
    <g transform="matrix(1, 0, 0, 1, -4323.17, -3408)" filter="url(#Trazado_196320)">
      <path id="Trazado_196320-2" data-name="Trazado 196320" d="M27.441,0H371.976c15.155,0,27.441,8.216,27.441,18.351V322.166c0,10.135-12.286,18.351-27.441,18.351H27.441C12.286,340.518,0,332.3,0,322.166V18.351C0,8.216,12.286,0,27.441,0Z" transform="translate(15 12)" fill="#e5f2db"/>
    </g>
    <text id="_3._Disputas" data-name="3. Disputas" transform="translate(-4108.459 -3142.768)" fill="#12263f" font-size="20" font-family="Roboto-Black, Roboto" font-weight="800"><tspan x="-50.771" y="0">3. Disputas</tspan></text>
    <g id="disputas" transform="translate(-4181.09 -3328.633)">
      <g id="Grupo_129733" data-name="Grupo 129733" transform="translate(8 8)">
        <path id="Trazado_195009" data-name="Trazado 195009" d="M184,40h20.853v4.171H184Z" transform="translate(-138.124 -31.659)" fill="#30610c"/>
        <path id="Trazado_195010" data-name="Trazado 195010" d="M184,72h20.853v4.171H184Z" transform="translate(-138.124 -55.318)" fill="#30610c"/>
        <path id="Trazado_195011" data-name="Trazado 195011" d="M216,104h4.171v4.171H216Z" transform="translate(-161.783 -78.977)" fill="#30610c"/>
        <path id="Trazado_195012" data-name="Trazado 195012" d="M248,104h4.171v4.171H248Z" transform="translate(-185.442 -78.977)" fill="#30610c"/>
        <path id="Trazado_195013" data-name="Trazado 195013" d="M184,104h4.171v4.171H184Z" transform="translate(-138.124 -78.977)" fill="#30610c"/>
        <path id="Trazado_195014" data-name="Trazado 195014" d="M85.416,81.584l6.855-6.855h31.67a10.009,10.009,0,0,0,9.931-8.888l3.336-30.054a7.7,7.7,0,0,0,.052-1.095,10,10,0,0,0-9.983-9.983H82.392l.626-5.578a7.7,7.7,0,0,0,.052-1.095A10.012,10.012,0,0,0,73.087,8h-55.1A10,10,0,0,0,8,17.983c0,.365.026.73.052,1.095l3.336,30.08a9.99,9.99,0,0,0,9.931,8.888H41.364V74.729H33.023V66.388H8V87.24H33.023V78.9h8.341V99.752H33.023V91.411H8v20.853H33.023v-8.341h8.341v20.853H33.023v-8.341H8v20.853H33.023v-8.341H45.535V103.923H68.473v6.256H78.9v8.341H68.473V135.2H93.5v-6.256h16.682V135.2H135.2V118.519H124.775v-8.341H135.2V93.5H110.178v6.256H93.5V93.5H83.07V82.887a4.883,4.883,0,0,0,2.346-1.3ZM28.853,83.07H12.171V70.558H28.853Zm0,25.023H12.171V95.581H28.853Zm0,25.023H12.171V120.6H28.853Zm75.07-89.667a6.256,6.256,0,1,1,6.256,6.256A6.274,6.274,0,0,1,103.923,43.45ZM122.69,70.558H97.667V66.388a12.512,12.512,0,1,1,25.023,0ZM81.923,28.853H127.3a5.818,5.818,0,0,1,5.813,5.813,5.667,5.667,0,0,1-.026.652l-3.362,30.054a5.783,5.783,0,0,1-2.867,4.379V66.362a16.652,16.652,0,0,0-9.8-15.17,10.314,10.314,0,0,0,3.545-7.768A10.427,10.427,0,1,0,103.3,51.191a16.718,16.718,0,0,0-9.8,15.2v4.171H90.551l-8.08,8.08a.9.9,0,0,1-1.486-.6V70.558H75.537a5.815,5.815,0,0,1-5.787-5.187l-.808-7.325h.782a10.009,10.009,0,0,0,9.931-8.888ZM15.559,48.689,12.2,18.635a5.448,5.448,0,0,1-.026-.652,5.818,5.818,0,0,1,5.813-5.813h55.1A5.818,5.818,0,0,1,78.9,17.983a5.67,5.67,0,0,1-.026.652L75.511,48.689a5.817,5.817,0,0,1-5.787,5.187H60.132v7.481a.9.9,0,0,1-1.486.6L51.791,55.1v-5.4a16.652,16.652,0,0,0-9.8-15.17,10.427,10.427,0,1,0-13.763,0,16.652,16.652,0,0,0-9.8,15.17v3.389a5.807,5.807,0,0,1-2.867-4.405ZM28.853,26.767a6.256,6.256,0,1,1,6.256,6.256A6.274,6.274,0,0,1,28.853,26.767ZM47.62,53.876H22.6V49.705a12.512,12.512,0,0,1,25.023,0Zm41.705,77.155H72.643V122.69H89.326Zm41.705,0H114.349V122.69h16.682ZM114.349,97.667h16.682v8.341H114.349Zm-4.171,6.256v6.256H120.6v8.341H110.178v6.256H93.5v-6.256H83.07v-8.341H93.5v-6.256Zm-20.853,2.085H72.643V97.667H89.326ZM68.473,93.5v6.256H45.535V58.047h3.31L55.7,64.9a5.032,5.032,0,0,0,8.6-3.545v-3.31h.443l.86,7.794a9.99,9.99,0,0,0,9.931,8.888h1.277v3.31A5.046,5.046,0,0,0,78.9,82.105V93.5Z" transform="translate(-8 -8)" fill="#30610c"/>
        <path id="Trazado_195015" data-name="Trazado 195015" d="M40,456h8.341v4.171H40Z" transform="translate(-31.659 -339.225)" fill="#30610c"/>
        <path id="Trazado_195016" data-name="Trazado 195016" d="M40,360h8.341v4.171H40Z" transform="translate(-31.659 -268.248)" fill="#30610c"/>
        <path id="Trazado_195017" data-name="Trazado 195017" d="M40,264h8.341v4.171H40Z" transform="translate(-31.659 -197.271)" fill="#30610c"/>
      </g>
    </g>
  </g>
</svg>
