<svg xmlns="http://www.w3.org/2000/svg" xmlns:xlink="http://www.w3.org/1999/xlink" width="429.417" height="370.518" viewBox="0 0 429.417 370.518">
  <defs>
    <filter id="Trazado_196322" x="0" y="0" width="429.417" height="370.518" filterUnits="userSpaceOnUse">
      <feOffset dy="3" input="SourceAlpha"/>
      <feGaussianBlur stdDeviation="5" result="blur"/>
      <feFlood flood-opacity="0.161"/>
      <feComposite operator="in" in2="blur"/>
      <feComposite in="SourceGraphic"/>
    </filter>
  </defs>
  <g id="Grupo_131964" data-name="Grupo 131964" transform="translate(4960.002 2996)">
    <g transform="matrix(1, 0, 0, 1, -4960, -2996)" filter="url(#Trazado_196322)">
      <path id="Trazado_196322-2" data-name="Trazado 196322" d="M27.441,0H371.976c15.155,0,27.441,8.216,27.441,18.351V322.166c0,10.135-12.286,18.351-27.441,18.351H27.441C12.286,340.518,0,332.3,0,322.166V18.351C0,8.216,12.286,0,27.441,0Z" transform="translate(15 12)" fill="#e5f2db"/>
    </g>
    <text id="_4._Análisis" data-name="4. Análisis" transform="translate(-4755.585 -2733.191)" fill="#12263f" font-size="20" font-family="Roboto-Black, Roboto" font-weight="800"><tspan x="-47.319" y="0">4. Análisis</tspan></text>
    <g id="analisis1" transform="translate(-4820.273 -2915.688)">
      <path id="Trazado_195018" data-name="Trazado 195018" d="M128.644,23.728,105.649.733A2.61,2.61,0,0,0,103.855,0H28.807a7.6,7.6,0,0,0-7.581,7.581v4.826A33.46,33.46,0,0,0,0,43.488a2.534,2.534,0,0,0,2.527,2.527H33.38a2.534,2.534,0,0,0,2.527-2.527V12.634a2.534,2.534,0,0,0-2.527-2.527,33.04,33.04,0,0,0-7.1.758V7.581a2.534,2.534,0,0,1,2.527-2.527h72.522V20.468a7.6,7.6,0,0,0,7.581,7.581h15.414V121.8a2.534,2.534,0,0,1-2.527,2.527H28.807A2.534,2.534,0,0,1,26.28,121.8V100.141a2.527,2.527,0,0,0-5.054,0V121.8a7.6,7.6,0,0,0,7.581,7.581H121.8a7.6,7.6,0,0,0,7.581-7.581V25.522A2.61,2.61,0,0,0,128.644,23.728ZM30.853,40.961H5.155A28.355,28.355,0,0,1,30.828,15.288l.025,25.673Zm75.529-20.493V8.617L120.76,22.995H108.909A2.534,2.534,0,0,1,106.382,20.468Z" fill="#30610c"/>
      <path id="Trazado_195019" data-name="Trazado 195019" d="M84.733,350.733A2.5,2.5,0,0,0,84,352.527a2.61,2.61,0,0,0,.733,1.794,2.5,2.5,0,0,0,1.794.733,2.61,2.61,0,0,0,1.794-.733,2.5,2.5,0,0,0,.733-1.794,2.61,2.61,0,0,0-.733-1.794A2.5,2.5,0,0,0,86.527,350,2.61,2.61,0,0,0,84.733,350.733Z" transform="translate(-62.774 -261.559)" fill="#30610c"/>
      <path id="Trazado_195020" data-name="Trazado 195020" d="M102.561,109.18A33.431,33.431,0,0,0,69.18,75.8a2.534,2.534,0,0,0-2.527,2.527v28.326H38.327A2.534,2.534,0,0,0,35.8,109.18a33.38,33.38,0,0,0,66.761,0ZM87.323,87.449,71.707,103.065V80.98A28.114,28.114,0,0,1,87.323,87.449ZM40.98,111.707h28.2a2.519,2.519,0,0,0,1.794-.733h0L90.912,91.037a28.315,28.315,0,1,1-49.931,20.67Z" transform="translate(-26.754 -56.646)" fill="#30610c"/>
      <path id="Trazado_195021" data-name="Trazado 195021" d="M188.468,328.16a7.581,7.581,0,1,0-15.161,0,7.524,7.524,0,0,0,.708,3.184l-9.274,9.274a7.429,7.429,0,0,0-3.26-.733,7.581,7.581,0,1,0,7.581,7.581,8.006,8.006,0,0,0-.733-3.285l9.223-9.223a7.594,7.594,0,0,0,7.1-.2l9.4,9.4a7.577,7.577,0,1,0,14.4,3.285,7.32,7.32,0,0,0-.733-3.234l14.429-14.429a7.373,7.373,0,0,0,3.563.884,7.581,7.581,0,1,0-7.581-7.581,7.283,7.283,0,0,0,.606,2.956l-14.555,14.555a7.668,7.668,0,0,0-3.31-.758,7.32,7.32,0,0,0-3.234.733l-9.678-9.678A7.386,7.386,0,0,0,188.468,328.16Zm-26.987,21.807a2.527,2.527,0,1,1,1.744-4.346l.025.025.025.025a2.53,2.53,0,0,1,.708,1.744A2.487,2.487,0,0,1,161.481,349.967Zm19.407-19.28a2.527,2.527,0,1,1,2.527-2.527A2.534,2.534,0,0,1,180.887,330.687Zm44.827-10.108a2.527,2.527,0,1,1-2.527,2.527A2.534,2.534,0,0,1,225.714,320.579ZM203.377,347.44a2.527,2.527,0,1,1-2.527-2.527A2.534,2.534,0,0,1,203.377,347.44Z" transform="translate(-115.011 -235.777)" fill="#30610c"/>
      <path id="Trazado_195022" data-name="Trazado 195022" d="M327.827,240.054h13.342a2.527,2.527,0,0,0,0-5.054H327.827a2.527,2.527,0,0,0,0,5.054Z" transform="translate(-243.1 -175.618)" fill="#30610c"/>
      <path id="Trazado_195023" data-name="Trazado 195023" d="M424.333,235.733a2.5,2.5,0,0,0-.733,1.794,2.61,2.61,0,0,0,.733,1.794,2.5,2.5,0,0,0,1.794.733,2.657,2.657,0,0,0,1.794-.733,2.5,2.5,0,0,0,.733-1.794,2.61,2.61,0,0,0-.733-1.794,2.5,2.5,0,0,0-1.794-.733A2.61,2.61,0,0,0,424.333,235.733Z" transform="translate(-316.561 -175.618)" fill="#30610c"/>
      <path id="Trazado_195024" data-name="Trazado 195024" d="M327.827,144.054h30.879a2.527,2.527,0,0,0,0-5.054H327.827a2.527,2.527,0,0,0,0,5.054Z" transform="translate(-243.1 -103.876)" fill="#30610c"/>
      <path id="Trazado_195025" data-name="Trazado 195025" d="M327.827,192.054h30.879a2.527,2.527,0,0,0,0-5.054H327.827a2.527,2.527,0,0,0,0,5.054Z" transform="translate(-243.1 -139.747)" fill="#30610c"/>
    </g>
  </g>
</svg>
