<svg xmlns="http://www.w3.org/2000/svg" xmlns:xlink="http://www.w3.org/1999/xlink" width="429.417" height="370.518" viewBox="0 0 429.417 370.518">
  <defs>
    <filter id="Trazado_196321" x="0" y="0" width="429.417" height="370.518" filterUnits="userSpaceOnUse">
      <feOffset dy="3" input="SourceAlpha"/>
      <feGaussianBlur stdDeviation="5" result="blur"/>
      <feFlood flood-opacity="0.161"/>
      <feComposite operator="in" in2="blur"/>
      <feComposite in="SourceGraphic"/>
    </filter>
  </defs>
  <g id="Grupo_131965" data-name="Grupo 131965" transform="translate(4539.42 2996)">
    <g transform="matrix(1, 0, 0, 1, -4539.42, -2996)" filter="url(#Trazado_196321)">
      <path id="Trazado_196321-2" data-name="Trazado 196321" d="M27.441,0H371.976c15.155,0,27.441,8.216,27.441,18.351V322.166c0,10.135-12.286,18.351-27.441,18.351H27.441C12.286,340.518,0,332.3,0,322.166V18.351C0,8.216,12.286,0,27.441,0Z" transform="translate(15 12)" fill="#e5f2db"/>
    </g>
    <text id="_5._Almacenamiento" data-name="5. Almacenamiento" transform="translate(-4324.711 -2737.191)" fill="#12263f" font-size="20" font-family="Roboto-Black, Roboto" font-weight="800"><tspan x="-87.72" y="0">5. Almacenamiento</tspan></text>
    <g id="Grupo_131959" data-name="Grupo 131959" transform="translate(-4381.368 -2917.926)">
      <path id="Trazado_191138" data-name="Trazado 191138" d="M299.513,459.076a14.716,14.716,0,0,1-2.4,3.117,5.723,5.723,0,0,1-3.265,1.022c-10.623.073-21.247.055-31.87.037a5.369,5.369,0,0,1-5.64-5.557q-.043-12.929,0-25.858a5.255,5.255,0,0,1,5.24-5.529c3.434-.125,6.878-.067,10.316-.007a5.654,5.654,0,0,1,4.99,3.058c1.028,1.766,2.09,3.515,3.052,5.317a1.789,1.789,0,0,0,1.86,1.04c3.613-.046,7.232.1,10.84-.052,3.377-.139,5.716,1.086,6.875,4.33Zm-38.992-19.2c0,6.105-.014,11.978.011,17.851.006,1.276.958,1.352,1.944,1.351q15.416-.012,30.831-.007c1.7,0,2.019-.335,2.021-2.089q0-7.314,0-14.629c0-2.315-.155-2.476-2.416-2.477q-15.416,0-30.831,0Zm15.164-4.252c-.954-1.625-1.73-3.078-2.651-4.434a2.009,2.009,0,0,0-1.434-.711c-3.22-.064-6.442-.047-9.663-.028-.778,0-1.377.364-1.4,1.229-.036,1.291-.009,2.584-.009,3.944Z" transform="translate(-165.611 -329.416)" fill="#30610c"/>
      <path id="Trazado_191139" data-name="Trazado 191139" d="M299.525,181.676c-1.151,3.25-3.5,4.4-6.87,4.367-10.065-.1-20.131-.048-30.2-.03-2.192,0-4.107-.6-5.229-2.57a6.589,6.589,0,0,1-.849-3.078c-.066-8.582-.031-17.165-.04-25.748,0-2.951,1.706-4.582,4.228-5.618h12.289a7.667,7.667,0,0,1,4.7,4.188c.739,1.471,1.667,2.847,2.44,4.3a1.572,1.572,0,0,0,1.622.951c3.953-.046,7.908-.028,11.861-.013a9.55,9.55,0,0,1,1.806.168c2.239.443,3.358,2.1,4.238,4ZM260.6,162.6c-.031.364-.072.615-.072.866q-.006,8.3,0,16.593c0,1.412.385,1.756,1.954,1.757q15.42.012,30.841,0c1.708,0,2.015-.34,2.016-2.106q0-7.447,0-14.895c0-1.921-.285-2.215-2.161-2.216q-15.616,0-31.232,0Zm15.105-4.226c-.939-1.6-1.714-3.055-2.628-4.413a1.99,1.99,0,0,0-1.411-.742c-3.262-.065-6.528-.08-9.788.016a1.756,1.756,0,0,0-1.272,1.122,31.415,31.415,0,0,0-.061,4.017Z" transform="translate(-165.623 -149)" fill="#30610c"/>
      <path id="Trazado_191140" data-name="Trazado 191140" d="M299.525,320.24c-1.1,3.276-3.434,4.465-6.819,4.432-10.019-.1-20.039-.034-30.059-.036-4.16,0-6.3-2.116-6.3-6.237q-.007-12.283,0-24.566c0-4.074,2.137-6.217,6.185-6.222,2.919,0,5.838.009,8.756,0a6.1,6.1,0,0,1,5.7,3.248c.93,1.624,1.954,3.2,2.775,4.877a2.166,2.166,0,0,0,2.351,1.314c3.527-.069,7.06.065,10.585-.052,3.374-.112,5.717,1.148,6.827,4.423ZM260.591,301.2c-.027.544-.062.928-.062,1.312q-.005,7.971,0,15.942c0,1.655.335,1.992,1.984,1.993q15.422.007,30.844,0c1.623,0,1.983-.372,1.985-2.008q.007-7.448,0-14.9c0-2.06-.276-2.34-2.321-2.341q-15.487,0-30.975,0Zm15.083-4.259c-.915-1.561-1.69-3.01-2.6-4.364a2.006,2.006,0,0,0-1.419-.746c-3.22-.067-6.444-.088-9.662.016a1.877,1.877,0,0,0-1.379,1.163,26.558,26.558,0,0,0-.066,3.931Z" transform="translate(-165.624 -239.203)" fill="#30610c"/>
      <path id="Trazado_191142" data-name="Trazado 191142" d="M55.533,260.788c0,10.282-.074,20.565.043,30.846a7.619,7.619,0,0,1-4.1,7.169,30.209,30.209,0,0,1-10.86,3.538c-11.164,1.79-22.309,1.792-33.327-.965a30.8,30.8,0,0,1-7.178-3c-2.455-1.346-3.542-3.6-3.534-6.521q.084-31.042-.006-62.084a7.2,7.2,0,0,1,3.359-6.374A26.391,26.391,0,0,1,9.7,219.532a75.145,75.145,0,0,1,35.193.616,21.55,21.55,0,0,1,7.776,3.581,6.83,6.83,0,0,1,2.886,5.82C55.5,239.962,55.533,250.375,55.533,260.788ZM.8,267.036c0,3.077-.085,6.107.055,9.127a3.455,3.455,0,0,0,1.193,2.392,17.452,17.452,0,0,0,4.39,2.212,56.932,56.932,0,0,0,16.451,2.507,70.3,70.3,0,0,0,21.1-1.987,34.633,34.633,0,0,0,5.953-2.547,2.68,2.68,0,0,0,1.428-2.721c-.066-2.174-.018-4.353-.018-6.529v-2.458C35.9,273.071,16.983,273.058.8,267.036Zm50.52-15.664A77.026,77.026,0,0,1,.8,251.351c0,2.689.048,5.635-.022,8.578a2.773,2.773,0,0,0,1.48,2.825,31.723,31.723,0,0,0,6.087,2.561A77.1,77.1,0,0,0,42,265.757a38.393,38.393,0,0,0,7.751-2.925,2.829,2.829,0,0,0,1.491-1.955C51.4,257.632,51.316,254.374,51.316,251.373Zm.009,32.018A77,77,0,0,1,.8,283.346c0,2.725.048,5.679-.022,8.63a2.794,2.794,0,0,0,1.506,2.816A29.734,29.734,0,0,0,8,297.233a76.564,76.564,0,0,0,33.675.6,37.485,37.485,0,0,0,7.694-2.742,3.425,3.425,0,0,0,1.866-2.272C51.452,289.616,51.325,286.392,51.325,283.391ZM.8,235.3c0,2.735.061,5.644-.026,8.548A2.947,2.947,0,0,0,2.4,246.863a30.475,30.475,0,0,0,5.989,2.475,79.146,79.146,0,0,0,33.666.439,20.806,20.806,0,0,0,7.761-2.918,3.077,3.077,0,0,0,1.547-2.942c-.078-1.3-.017-2.611-.017-3.917V235.32A74.565,74.565,0,0,1,.8,235.3Zm25.561-13.35c-6.387.06-12.553.48-18.486,2.41a28.821,28.821,0,0,0-5.964,2.826c-1.546.94-1.545,2.1-.014,3.067a21.781,21.781,0,0,0,5.471,2.653c11.317,3.258,22.785,3.117,34.23.874a31.975,31.975,0,0,0,8.2-3.191c2.152-1.1,2.082-2.509-.011-3.788a24.148,24.148,0,0,0-4.825-2.243C38.868,222.505,32.54,222.045,26.356,221.953Z" transform="translate(3.423 -193.736)" fill="#30610c"/>
      <path id="Trazado_191143" data-name="Trazado 191143" d="M193.6,200.2v44.227h4.506c.523,0,1.046-.014,1.568,0a2.077,2.077,0,0,1,2.279,2.131,2.05,2.05,0,0,1-2.238,2.038c-2,.031-4,.008-6.088.008V292.83c1.776,0,3.544-.009,5.311.006a5.845,5.845,0,0,1,1.549.137,1.887,1.887,0,0,1,1.445,2.184,1.783,1.783,0,0,1-1.748,1.8q-4.5.108-9.014,0a1.869,1.869,0,0,1-1.777-1.794,8.794,8.794,0,0,1-.04-1.434q0-21.691,0-43.381V248.6c-1.921,0-3.777.026-5.632-.008a2.073,2.073,0,0,1-2.208-2.645,2.042,2.042,0,0,1,2.17-1.526h5.67v-1.574q0-21.887,0-43.773c0-2.483.581-3.059,3.083-3.062,2.352,0,4.705-.013,7.057.005,1.576.013,2.464.78,2.463,2.067s-.9,2.085-2.454,2.1C197.557,200.213,195.61,200.2,193.6,200.2Z" transform="translate(-116.868 -179.592)" fill="#30610c"/>
    </g>
  </g>
</svg>
