<svg xmlns="http://www.w3.org/2000/svg" xmlns:xlink="http://www.w3.org/1999/xlink" width="429.417" height="370.518" viewBox="0 0 429.417 370.518">
  <defs>
    <filter id="Trazado_191661" x="0" y="0" width="429.417" height="370.518" filterUnits="userSpaceOnUse">
      <feOffset dy="3" input="SourceAlpha"/>
      <feGaussianBlur stdDeviation="5" result="blur"/>
      <feFlood flood-opacity="0.161"/>
      <feComposite operator="in" in2="blur"/>
      <feComposite in="SourceGraphic"/>
    </filter>
  </defs>
  <g id="Grupo_131912" data-name="Grupo 131912" transform="translate(-165.002 -8503)">
    <g id="Grupo_131911" data-name="Grupo 131911">
      <g transform="matrix(1, 0, 0, 1, 165, 8503)" filter="url(#Trazado_191661)">
        <path id="Trazado_191661-2" data-name="Trazado 191661" d="M27.441,0H371.976c15.155,0,27.441,8.216,27.441,18.351V322.166c0,10.135-12.286,18.351-27.441,18.351H27.441C12.286,340.518,0,332.3,0,322.166V18.351C0,8.216,12.286,0,27.441,0Z" transform="translate(15 12)" fill="#e5f2db"/>
      </g>
      <text id="_1._Detección" data-name="1. Detección" transform="translate(366.57 8768.232)" fill="#12263f" font-size="20" font-family="Roboto-Black, Roboto" font-weight="800"><tspan x="-56.484" y="0">1. Detección</tspan></text>
      <g id="otra_lupa" data-name="otra lupa" transform="translate(316.176 8586.859)">
        <path id="Trazado_194996" data-name="Trazado 194996" d="M64.146,266.991c2.432-.695,4.169-2.382,5.907-4.12,10.3-10.349,20.648-20.648,30.923-31a1.635,1.635,0,0,1,2.383-.372,47.419,47.419,0,0,0,34.3,5.658,48.117,48.117,0,0,0,31.94-22.212,47.4,47.4,0,0,0,7.272-21.74,6.382,6.382,0,0,1,.2-.943v-6.453c-.074-.4-.174-.794-.223-1.191a47.4,47.4,0,0,0-8.339-23.18,48.91,48.91,0,0,0-33.082-20.971c-1.415-.248-2.854-.372-4.293-.571h-6.453c-1.439.2-2.854.323-4.293.571-13.923,2.407-25.091,9.331-33.057,20.971a48.9,48.9,0,0,0-1.762,52.415,1.327,1.327,0,0,1-.3,1.961q-16.007,15.933-31.94,31.891A12.043,12.043,0,0,0,50,252.82V255.3a11.05,11.05,0,0,0,3.723,5.658c.819.745,1.613,1.539,2.358,2.358a10.977,10.977,0,0,0,5.584,3.648C62.483,266.991,63.327,266.991,64.146,266.991Zm63.757-122.1a44.175,44.175,0,1,1-44.151,44.25A44.306,44.306,0,0,1,127.9,144.888ZM88.74,237.036c-.05.074-.074.149-.124.223Q76.7,249.21,64.767,261.11c-1.291,1.291-2.606,1.241-3.921-.025-1.489-1.439-2.928-2.928-4.393-4.368-1.961-1.961-1.961-3.053-.025-4.988q11.317-11.317,22.609-22.634a3.968,3.968,0,0,0,.62-1.142ZM83.851,224.6l4.765-4.765c2.829,2.829,5.758,5.708,8.512,8.463-1.291,1.266-3.077,3.077-4.79,4.765C89.559,230.311,86.681,227.407,83.851,224.6Z" transform="translate(-50 -139.9)" fill="#30610c"/>
        <path id="Trazado_194997" data-name="Trazado 194997" d="M141.638,266.65a38.95,38.95,0,0,0,14.221-3.127c1.638-.72,2.333-2.035,1.762-3.425a2.52,2.52,0,0,0-3.574-1.166,31.71,31.71,0,0,1-12.632,2.68,30.269,30.269,0,1,1,29.88-35.961,29.673,29.673,0,0,1-2.234,18.266c-.149.347-.323.67-.472,1.018-.6,1.539-.174,2.9,1.117,3.5a2.441,2.441,0,0,0,3.35-1.415,42.042,42.042,0,0,0,2.134-5.286,35.207,35.207,0,0,0-17.149-41.52c-14.915-8.091-34.5-3.847-44.5,9.828-8.637,11.838-9.753,24.619-3.152,37.624,5.336,10.473,14.27,16.553,25.959,18.439C138.089,266.377,139.876,266.476,141.638,266.65Z" transform="translate(-63.611 -182.17)" fill="#30610c"/>
        <path id="Trazado_194998" data-name="Trazado 194998" d="M190.914,282.067c.447-.447.794-.745,1.092-1.042,3.747-3.747,7.47-7.495,11.242-11.218,1.489-1.489,2.8-1.489,4.293-.025,2.085,2.06,4.169,4.145,6.229,6.229,1.489,1.489,1.489,2.8.025,4.293-6.9,6.9-13.8,13.823-20.7,20.7-1.464,1.464-2.73,1.464-4.194,0-4.145-4.095-8.264-8.239-12.384-12.359-1.464-1.464-1.439-2.8.05-4.293,2.06-2.085,4.145-4.169,6.229-6.229,1.489-1.464,2.78-1.464,4.293.025C188.333,279.387,189.574,280.677,190.914,282.067Zm14.394-7.3c-.3.273-.62.571-.943.893-3.723,3.7-7.421,7.421-11.143,11.118-1.638,1.638-2.879,1.638-4.542-.025-1.241-1.241-2.482-2.507-3.549-3.574-1.241,1.241-2.382,2.358-3.326,3.3l9.207,9.282c5.832-5.857,11.764-11.764,17.7-17.72C207.666,277.054,206.549,275.962,205.308,274.771Z" transform="translate(-118.955 -236.726)" fill="#30610c"/>
        <path id="Trazado_194999" data-name="Trazado 194999" d="M146.531,425.838a2.712,2.712,0,0,0,2.656-2.581,2.474,2.474,0,0,0-2.432-2.457,2.73,2.73,0,0,0-2.655,2.581A2.457,2.457,0,0,0,146.531,425.838Z" transform="translate(-45.473 -351.087)" fill="#30610c"/>
      </g>
    </g>
  </g>
</svg>
