<svg xmlns="http://www.w3.org/2000/svg" xmlns:xlink="http://www.w3.org/1999/xlink" width="429.417" height="370.518" viewBox="0 0 429.417 370.518">
  <defs>
    <filter id="Trazado_196323" x="0" y="0" width="429.417" height="370.518" filterUnits="userSpaceOnUse">
      <feOffset dy="3" input="SourceAlpha"/>
      <feGaussianBlur stdDeviation="5" result="blur"/>
      <feFlood flood-opacity="0.161"/>
      <feComposite operator="in" in2="blur"/>
      <feComposite in="SourceGraphic"/>
    </filter>
  </defs>
  <g id="Grupo_131962" data-name="Grupo 131962" transform="translate(4749.71 3404)">
    <g transform="matrix(1, 0, 0, 1, -4749.71, -3404)" filter="url(#Trazado_196323)">
      <path id="Trazado_196323-2" data-name="Trazado 196323" d="M27.441,0H371.976c15.155,0,27.441,8.216,27.441,18.351V322.166c0,10.135-12.286,18.351-27.441,18.351H27.441C12.286,340.518,0,332.3,0,322.166V18.351C0,8.216,12.286,0,27.441,0Z" transform="translate(15 12)" fill="#e5f2db"/>
    </g>
    <text id="_2._Colección" data-name="2. Colección" transform="translate(-4539.169 -3141.813)" fill="#12263f" font-size="20" font-family="Roboto-Black, Roboto" font-weight="800"><tspan x="-56.069" y="0">2. Colección</tspan></text>
    <g id="coleccion" transform="translate(-4608.874 -3320.633)">
      <path id="Trazado_195000" data-name="Trazado 195000" d="M327.939,456.9h-13.53a1.809,1.809,0,1,0,0,3.618h13.53a1.809,1.809,0,1,0,0-3.618Z" transform="translate(-225.067 -346.707)" fill="#30610c"/>
      <path id="Trazado_195001" data-name="Trazado 195001" d="M344.039,424.9h-13.53a1.809,1.809,0,1,0,0,3.618h13.53a1.809,1.809,0,1,0,0-3.618Z" transform="translate(-237.285 -322.425)" fill="#30610c"/>
      <path id="Trazado_195002" data-name="Trazado 195002" d="M49.909,75.718H59.58a1.809,1.809,0,0,0,0-3.618H49.909a1.809,1.809,0,0,0,0,3.618Z" transform="translate(-24.358 -54.711)" fill="#30610c"/>
      <path id="Trazado_195003" data-name="Trazado 195003" d="M61.389,106.009A1.822,1.822,0,0,0,59.58,104.2H49.909a1.809,1.809,0,0,0,0,3.618H59.58A1.806,1.806,0,0,0,61.389,106.009Z" transform="translate(-24.358 -79.07)" fill="#30610c"/>
      <path id="Trazado_195004" data-name="Trazado 195004" d="M226.309,75.718h9.647a1.809,1.809,0,1,0,0-3.618h-9.647a1.809,1.809,0,1,0,0,3.618Z" transform="translate(-158.215 -54.711)" fill="#30610c"/>
      <path id="Trazado_195005" data-name="Trazado 195005" d="M237.765,106.009a1.822,1.822,0,0,0-1.809-1.809h-9.647a1.809,1.809,0,1,0,0,3.618h9.647A1.791,1.791,0,0,0,237.765,106.009Z" transform="translate(-158.215 -79.07)" fill="#30610c"/>
      <path id="Trazado_195006" data-name="Trazado 195006" d="M131.233,10.2,121.562.531A1.807,1.807,0,0,0,120.284,0H104.825a3.741,3.741,0,0,0-3.738,3.738V34.681a3.741,3.741,0,0,0,3.738,3.738h9.792v5.933a2.048,2.048,0,0,1-2.05,2.05H79.284a5.6,5.6,0,0,0-3.569-3.569V38.419h9.792a3.741,3.741,0,0,0,3.738-3.738V11.48a1.807,1.807,0,0,0-.531-1.278L79.019.531A1.807,1.807,0,0,0,77.741,0H62.281a3.741,3.741,0,0,0-3.738,3.738V34.681a3.741,3.741,0,0,0,3.738,3.738h9.792v4.414A5.6,5.6,0,0,0,68.5,46.4H35.222a2.048,2.048,0,0,1-2.05-2.05V38.419h9.792A3.741,3.741,0,0,0,46.7,34.681V11.48a1.807,1.807,0,0,0-.531-1.278L36.5.531A1.807,1.807,0,0,0,35.222,0H19.738A3.757,3.757,0,0,0,16,3.738V34.681a3.741,3.741,0,0,0,3.738,3.738H29.53v5.933A5.676,5.676,0,0,0,35.2,50.02H68.48a5.6,5.6,0,0,0,3.569,3.569V65.72a3.925,3.925,0,0,1-2.484-1.158l-4.341-4.341A7.532,7.532,0,0,0,59.846,58H42.915a7.612,7.612,0,0,0-7.6,7.6v50.261a7.6,7.6,0,0,0,7.6,7.6h63.526a7.6,7.6,0,0,0,7.211-5.209l13.289-39.866a3.755,3.755,0,0,0-.506-3.376,3.694,3.694,0,0,0-3.039-1.544H112.422v-.121a7.612,7.612,0,0,0-7.6-7.6h-23.2a1.809,1.809,0,1,0,0,3.618h23.2a3.983,3.983,0,0,1,3.979,3.979v.121H75.691V53.589A5.6,5.6,0,0,0,79.26,50.02h33.282a5.676,5.676,0,0,0,5.668-5.668V38.419H128a3.741,3.741,0,0,0,3.738-3.738V11.48a1.69,1.69,0,0,0-.506-1.278ZM79.55,6.174l3.5,3.5H79.67a.114.114,0,0,1-.121-.121ZM62.161,34.681V3.738a.114.114,0,0,1,.121-.121H75.932V9.551a3.741,3.741,0,0,0,3.738,3.738H85.6V34.681a.114.114,0,0,1-.121.121h-23.2a.114.114,0,0,1-.121-.121ZM37.03,6.174l3.5,3.5H37.151a.114.114,0,0,1-.121-.121ZM19.618,34.681V3.738a.114.114,0,0,1,.121-.121H33.389V9.551a3.741,3.741,0,0,0,3.738,3.738H43.06V34.681a.114.114,0,0,1-.121.121h-23.2A.129.129,0,0,1,19.618,34.681Zm54.264,11.48a2.048,2.048,0,0,1,2.05,2.05h0a2.05,2.05,0,1,1-2.05-2.05Zm49.61,30.967a.122.122,0,0,1,.024.121l-13.289,39.89a3.99,3.99,0,0,1-3.786,2.725h-63.5a3.987,3.987,0,0,1-2.87-1.23L53.02,79.8a3.99,3.99,0,0,1,3.786-2.725h66.613a.086.086,0,0,1,.072.048ZM56.807,73.462A7.6,7.6,0,0,0,49.6,78.671L38.984,110.531V65.6a3.983,3.983,0,0,1,3.979-3.979h16.93a3.977,3.977,0,0,1,2.822,1.158l4.341,4.341A7.517,7.517,0,0,0,72.1,69.338v4.124ZM122.093,6.174l3.5,3.5h-3.376a.114.114,0,0,1-.121-.121ZM128.026,34.8h-23.2a.114.114,0,0,1-.121-.121V3.738a.114.114,0,0,1,.121-.121h13.651V9.551a3.741,3.741,0,0,0,3.738,3.738h5.933V34.681a.129.129,0,0,1-.121.121Z" transform="translate(0 0)" fill="#30610c"/>
      <path id="Trazado_195007" data-name="Trazado 195007" d="M412.28,72.1h-9.671a1.809,1.809,0,1,0,0,3.618h9.671a1.809,1.809,0,0,0,0-3.618Z" transform="translate(-291.996 -54.711)" fill="#30610c"/>
      <path id="Trazado_195008" data-name="Trazado 195008" d="M412.28,104.2h-9.671a1.809,1.809,0,1,0,0,3.618h9.671a1.809,1.809,0,0,0,0-3.618Z" transform="translate(-291.996 -79.07)" fill="#30610c"/>
    </g>
  </g>
</svg>
