<svg xmlns="http://www.w3.org/2000/svg" width="92" height="92" viewBox="0 0 92 92">
  <g id="Grupo_131954" data-name="Grupo 131954" transform="translate(1628.5 5616.242)">
    <path id="Trazado_196318" data-name="Trazado 196318" d="M46,0A46,46,0,1,1,0,46,46,46,0,0,1,46,0Z" transform="translate(-1628.5 -5616.242)" fill="#54aa13"/>
    <path id="Trazado_191682" data-name="Trazado 191682" d="M39.292,0A39.292,39.292,0,1,1,0,39.292,39.292,39.292,0,0,1,39.292,0Z" transform="translate(-1621.5 -5609.534)" fill="#f1ffe6"/>
    <circle id="Elipse_6072" data-name="Elipse 6072" cx="11.054" cy="11.054" r="11.054" transform="translate(-1606.39 -5591.35)" fill="#fdffe6"/>
    <circle id="Elipse_6073" data-name="Elipse 6073" cx="8.304" cy="8.304" r="8.304" transform="translate(-1603.65 -5588.559)" fill="#fefefe"/>
    <path id="Trazado_191227" data-name="Trazado 191227" d="M495.329-50.941c0,5.927-.012,11.855.008,17.782a6.207,6.207,0,0,1-1.483,4.191c-.436.516-.838,1.06-1.274,1.575-.166.2-.208.318-.013.54a4.9,4.9,0,0,1,1.146,3.568c-.009.259-.1.3-.325.3q-6.978-.008-13.956,0c-.241,0-.344-.032-.353-.32a4.885,4.885,0,0,1,1.163-3.561c.186-.21.133-.323-.011-.5-.534-.654-1.064-1.311-1.581-1.979a5.583,5.583,0,0,1-1.184-3.477c-.006-1.2-.01-2.4,0-3.6a5.679,5.679,0,0,0-.824-2.623c-.1-.2-.277-.151-.438-.157a12.592,12.592,0,0,1-1.922-.077,4.015,4.015,0,0,1-3.308-3.927q-.018-13.019,0-26.039a4,4,0,0,1,4.011-4q8.145-.027,16.291,0a4.03,4.03,0,0,1,4.05,4.167Q495.337-60.009,495.329-50.941Z" transform="translate(-2052.482 -5522.432)"/>
    <path id="Trazado_191228" data-name="Trazado 191228" d="M297.416-2.315H281.869a2.607,2.607,0,0,1,.355-.808c.488-1,.98-2,1.5-2.977a1.545,1.545,0,0,0,.092-1.3c-.9-2.663-1.786-5.331-2.681-8a6.615,6.615,0,0,1,2.769-8.112q1.6-1.067,3.208-2.139c-.16-.2-.394-.225-.588-.307a12.068,12.068,0,0,1-7.418-12.117,12.1,12.1,0,0,1,9.752-11,12.1,12.1,0,0,1,8.155,1.211c.3.157.408.282.183.589s-.346.808-.636.932c-.225.1-.641-.263-.974-.414A10.584,10.584,0,0,0,280.807-38.8a10.562,10.562,0,0,0,9.173,12.1,10.541,10.541,0,0,0,11.692-8.827A10.192,10.192,0,0,0,300.2-42.7c-.219-.351-.255-.519.137-.771.965-.623.95-.647,1.51.34a12.134,12.134,0,0,1-4.083,16.224c-.112.07-.222.142-.456.293.723,0,1.318,0,1.913,0a2.448,2.448,0,0,1,2.575,2.42,2.448,2.448,0,0,1-2.554,2.442c-.253,0-.505,0-.816,0A2.465,2.465,0,0,1,298-19.41c-.111.138.03.212.089.3a2.327,2.327,0,0,1-.014,2.829c-.126.181-.089.272.019.43a2.291,2.291,0,0,1,.142,2.575,2.4,2.4,0,0,1-2.27,1.255c-.66-.006-.66,0-.66.657,0,1.216.038,2.433-.013,3.647a4.159,4.159,0,0,0,.541,2.26C296.387-4.441,296.877-3.39,297.416-2.315Z" transform="translate(-1886.561 -5543.13)"/>
    <path id="Trazado_191229" data-name="Trazado 191229" d="M317.684-37.82a7.242,7.242,0,0,0,1.53-5.289,6.578,6.578,0,0,0-.772-2.547c-.142-.257-.047-.33.159-.452,1.193-.712,1.19-.717,1.685.6a8.925,8.925,0,0,1-8.875,12.091,8.977,8.977,0,0,1-8.378-8.283,8.952,8.952,0,0,1,7.092-9.349,9.065,9.065,0,0,1,5.08.417c.268.1.4.193.224.5-.189.336-.234.832-.507,1.019-.288.2-.7-.158-1.061-.256a7.314,7.314,0,0,0-9.135,6.061c-.021.167-.046.333-.071.514.229-.006.31-.193.43-.312,1.643-1.632,3.287-3.261,4.911-4.911.268-.272.4-.272.661,0,.866.9,1.766,1.77,2.646,2.66.167.169.265.241.468.02q3.755-4.087,7.529-8.158a1.643,1.643,0,0,0,.112-.174c-.649,0-1.249-.011-1.848.005-.245.007-.3-.07-.312-.31C319.2-55.3,319.2-55.3,320.53-55.3c1.083,0,2.165.01,3.247-.007.29,0,.364.081.361.364q-.022,2.077,0,4.154c0,.29-.083.357-.365.36-1.266.014-1.266.024-1.266-1.227V-52.4c-.607.652-1.141,1.225-1.673,1.8q-1.48,1.6-2.958,3.2a.714.714,0,0,0-.247.521c.01,2.955.006,5.909.008,8.864A1.216,1.216,0,0,0,317.684-37.82Z" transform="translate(-1907.27 -5537.954)"/>
    <path id="Trazado_191230" data-name="Trazado 191230" d="M491.1-31.865a4.944,4.944,0,0,0-1.84-.93,6.057,6.057,0,0,0,.159-2.863,1.518,1.518,0,0,0-1.508-1.261q-.862-.028-1.725,0a1.607,1.607,0,0,0-1.579,1.593c-.014.489-.005.979,0,1.469a1.639,1.639,0,0,0,1.789,1.8c.067,0,.134.006.245.011a2.534,2.534,0,0,0-.4,1.429c.024.183-.09.168-.213.183a2.548,2.548,0,0,1-3.042-2.666q0-12.739,0-25.478a2.446,2.446,0,0,1,2.637-2.661q7.916,0,15.831,0a2.439,2.439,0,0,1,2.643,2.6q0,12.562,0,25.123v.389a.414.414,0,0,1-.087.006c-.5-.133-1.181-.12-1.454-.445-.253-.3-.079-.966-.082-1.471a1.668,1.668,0,0,0-1.9-1.888c-.389,0-.778,0-1.167,0a1.644,1.644,0,0,0-1.8,1.78c0,.117,0,.235,0,.416-.5-.125-.955-.26-1.423-.351-.306-.059-.2-.272-.2-.428-.008-1.84.008-3.681-.011-5.521a2.427,2.427,0,0,0-2.051-2.356,2.456,2.456,0,0,0-2.662,1.567,2.927,2.927,0,0,0-.154,1.044q.006,4.153,0,8.307Z" transform="translate(-2062.869 -5532.818)" fill="#2432ff"/>
    <path id="Trazado_191231" data-name="Trazado 191231" d="M527.16,90.808c.567.144,1.237.1,1.553.465.237.273.069.9.07,1.375,0,2.144.008,4.288-.007,6.432,0,.327.078.419.413.417,1.219-.008,1.219.006,1.219-1.224V91.616c.509.126.988.243,1.465.364.281.071.152.3.153.458.009,2.195.015,4.389,0,6.584,0,.362.061.485.458.476,1.174-.026,1.175-.005,1.175-1.17V92.444c.1.017.167.026.232.039,1.321.269,1.392.355,1.392,1.686,0,2.482-.011,4.963,0,7.445a4.387,4.387,0,0,1-1.038,2.935q-.809.974-1.581,1.978a.614.614,0,0,1-.553.261q-4.135-.012-8.27,0a.656.656,0,0,1-.587-.293c-.536-.695-1.094-1.373-1.645-2.057a4.152,4.152,0,0,1-.95-2.71c.007-1.064-.017-2.128.007-3.191a6.349,6.349,0,0,0-.745-3.161c-.275-.521-.541-1.048-.79-1.582-.219-.469.007-.792.529-.79a2.739,2.739,0,0,1,2.617,2.651c.025,1.147.017,2.3,0,3.444,0,.3.058.4.383.4,1.249,0,1.249.013,1.249-1.246q0-7.268,0-14.535c0-.152-.008-.3,0-.456a.808.808,0,0,1,1.614-.025c.015.151.006.3.006.455,0,5.1.006,10.2-.011,15.3,0,.43.11.525.525.513,1.11-.03,1.111-.009,1.111-1.132Z" transform="translate(-2094.057 -5657.07)" fill="#ffeddc"/>
    <path id="Trazado_191232" data-name="Trazado 191232" d="M555.058,275.6H543.951a3.029,3.029,0,0,1,.9-1.5.507.507,0,0,1,.421-.11q4.233,0,8.466-.006a.651.651,0,0,1,.526.229A3.112,3.112,0,0,1,555.058,275.6Z" transform="translate(-2115.586 -5822.662)" fill="#54aa13"/>
    <path id="Trazado_191233" data-name="Trazado 191233" d="M507.785,130.343c.81,0,.81,0,.81.812s0,.809-.814.809-.81,0-.81-.812S506.971,130.343,507.785,130.343Z" transform="translate(-2083.613 -5698.464)" fill="#cba424"/>
    <path id="Trazado_191234" data-name="Trazado 191234" d="M604.411,131.626c-.453-.109-.857-.218-1.265-.3-.267-.053-.352-.162-.376-.456-.042-.525.127-.665.648-.642,1,.045,1,.013.993,1.032C604.41,131.36,604.411,131.459,604.411,131.626Z" transform="translate(-2166.436 -5698.363)" fill="#cba424"/>
    <path id="Trazado_191235" data-name="Trazado 191235" d="M314.414,146.508c.059.55.223,1.227-.05,1.615-.221.315-.945.086-1.445.089-2.062.011-4.125,0-6.187.012a.415.415,0,0,1-.486-.34c-.941-2.86-1.905-5.712-2.851-8.57a4.971,4.971,0,0,1,2.088-6.038q1.934-1.3,3.873-2.583c.661-.439,1.226-.4,1.618.107a1.538,1.538,0,0,1-.177,1.9c-.387.325-.808.61-1.208.921a4.029,4.029,0,0,0-1.637,3.319q-.011,3.569,0,7.138a2.411,2.411,0,0,0,2.524,2.513A31.541,31.541,0,0,0,314.414,146.508Z" transform="translate(-1907.33 -5698.504)" fill="#ffeddc"/>
    <path id="Trazado_191236" data-name="Trazado 191236" d="M352.585,160.686a.454.454,0,0,1,.032.081c.049.536.429.973.528,1.441.085.4-.464.841-.512,1.359a2.344,2.344,0,0,0,.433,1.674.361.361,0,0,1-.007.513,2.269,2.269,0,0,0-.15,2.486,2.369,2.369,0,0,0,2.187,1.306c.86.015.864.015.768.85a.769.769,0,0,1-.793.763c-1.1.02-2.2.023-3.3,0a.735.735,0,0,1-.767-.782c-.012-2.516-.033-5.032.015-7.547A2.633,2.633,0,0,1,352.585,160.686Z" transform="translate(-1948.753 -5724.699)" fill="#987b18"/>
    <path id="Trazado_191237" data-name="Trazado 191237" d="M318.753,275.246c.3-.559.455-1.222.871-1.513.354-.248,1.009-.073,1.531-.074,2.23,0,4.46.008,6.69-.01a.607.607,0,0,1,.679.43c.152.388.367.75.577,1.166Z" transform="translate(-1920.879 -5822.326)" fill="#54aa13"/>
    <path id="Trazado_191238" data-name="Trazado 191238" d="M401.117,130.327c.59,0,1.18-.007,1.769,0a.813.813,0,1,1,.007,1.616c-1.213.009-2.426,0-3.64.009-.263,0-.332-.069-.338-.333-.027-1.294-.036-1.294,1.241-1.294Z" transform="translate(-1990.182 -5698.448)" fill="#ffeddc"/>
    <path id="Trazado_191239" data-name="Trazado 191239" d="M377.479,154.276c.506,0,1.012-.006,1.517,0a.822.822,0,0,1,.916.8.811.811,0,0,1-.891.82q-1.542.015-3.085,0a.811.811,0,0,1-.89-.82.82.82,0,0,1,.916-.8C376.468,154.269,376.973,154.276,377.479,154.276Z" transform="translate(-1969.55 -5719.154)" fill="#ffeddc"/>
    <path id="Trazado_191240" data-name="Trazado 191240" d="M377.494,179.829c-.523,0-1.046.009-1.568,0a.81.81,0,1,1-.009-1.615q1.568-.016,3.136,0a.808.808,0,1,1,.009,1.613C378.54,179.841,378.017,179.829,377.494,179.829Z" transform="translate(-1969.548 -5739.845)" fill="#ffeddc"/>
    <path id="Trazado_191241" data-name="Trazado 191241" d="M377.479,203.78c-.506,0-1.012.006-1.517,0a.822.822,0,0,1-.917-.8.811.811,0,0,1,.889-.821q1.542-.014,3.085,0a.811.811,0,0,1,.892.819.822.822,0,0,1-.915.8C378.491,203.787,377.985,203.78,377.479,203.78Z" transform="translate(-1969.549 -5760.553)" fill="#ffeddc"/>
    <path id="Trazado_191242" data-name="Trazado 191242" d="M373.851,130.729a4.5,4.5,0,0,0-.171-1.568c-.075-.175.017-.2.153-.214.468-.053.936-.1,1.4-.168.182-.025.233.035.23.209-.008.454-.01.908,0,1.362,0,.191-.048.271-.252.261A4.2,4.2,0,0,0,373.851,130.729Z" transform="translate(-1968.346 -5697.106)" fill="#987b18"/>
    <path id="Trazado_191243" data-name="Trazado 191243" d="M363.029,18.834c.543.555.982,1.019,1.439,1.464a.614.614,0,0,1,.188.491c0,2.616-.011,5.232.006,7.848,0,.351-.128.415-.433.429-1.2.052-1.2.06-1.2-1.123Z" transform="translate(-1959.16 -5602.053)" fill="#f67409"/>
    <path id="Trazado_191244" data-name="Trazado 191244" d="M388.583,17.974v.587c0,2.665-.012,5.331.012,8a.777.777,0,0,1-.519.847,6.449,6.449,0,0,1-1.067.45.9.9,0,0,1-.047-.5c0-2.412,0-4.824-.007-7.236a.867.867,0,0,1,.253-.674C387.653,19,388.075,18.521,388.583,17.974Z" transform="translate(-1979.842 -5601.31)" fill="#f67409"/>
    <path id="Trazado_191245" data-name="Trazado 191245" d="M340.61,28.8a2.476,2.476,0,0,1-.24-.062c-1.364-.524-1.364-.524-1.364-1.969,0-1.906,0-3.811-.005-5.717a.765.765,0,0,1,.245-.62c.445-.423.866-.871,1.364-1.376Z" transform="translate(-1938.385 -5602.248)" fill="#f67409"/>
    <path id="Trazado_191246" data-name="Trazado 191246" d="M318.314,47.323a7.216,7.216,0,0,1-1.294-2.5.415.415,0,0,1,.136-.481c.376-.363.736-.742,1.158-1.172Z" transform="translate(-1919.357 -5623.097)" fill="#f67409"/>
    <path id="Trazado_191247" data-name="Trazado 191247" d="M503.925-49.273q3.524,0,7.048,0a1.647,1.647,0,0,1,1.849,1.835q0,2.252,0,4.5a1.628,1.628,0,0,1-1.767,1.764q-7.175,0-14.349,0a1.621,1.621,0,0,1-1.746-1.734q-.009-2.328,0-4.656a1.618,1.618,0,0,1,1.715-1.712C499.091-49.277,501.508-49.273,503.925-49.273Z" transform="translate(-2073.223 -5543.167)"/>
    <path id="Trazado_191248" data-name="Trazado 191248" d="M497.252,27.377c-1.816.154-2.556-.621-2.412-2.384.025-.3-.006-.606.007-.909a1.606,1.606,0,0,1,1.548-1.564c.59-.022,1.181-.023,1.771,0a1.605,1.605,0,0,1,1.544,1.568c.019.538.012,1.078,0,1.616a1.622,1.622,0,0,1-1.652,1.671C497.792,27.382,497.522,27.377,497.252,27.377Z" transform="translate(-2073.109 -5605.226)"/>
    <path id="Trazado_191249" data-name="Trazado 191249" d="M542.834,24.782c-.149-1.819.589-2.446,2.427-2.447,1.859,0,2.48.619,2.478,2.481,0,1.813-.624,2.45-2.461,2.448S542.681,26.666,542.834,24.782Z" transform="translate(-2114.604 -5605.08)"/>
    <path id="Trazado_191250" data-name="Trazado 191250" d="M595.745,25c.153,1.814-.626,2.547-2.392,2.4-.3-.024-.608.006-.911-.007a1.614,1.614,0,0,1-1.564-1.55c-.021-.589-.023-1.179,0-1.768a1.6,1.6,0,0,1,1.574-1.537c.539-.017,1.08-.011,1.619,0a1.62,1.62,0,0,1,1.67,1.652C595.75,24.462,595.745,24.731,595.745,25Z" transform="translate(-2156.146 -5605.25)"/>
    <path id="Trazado_191251" data-name="Trazado 191251" d="M593.14,75.127c-1.788.149-2.452-.569-2.447-2.429,0-1.831.6-2.471,2.491-2.468,1.813,0,2.45.623,2.448,2.461S595.032,75.279,593.14,75.127Z" transform="translate(-2155.999 -5646.49)"/>
    <path id="Trazado_191252" data-name="Trazado 191252" d="M499.636,72.717c.149,1.8-.58,2.446-2.434,2.443-1.816,0-2.479-.585-2.472-2.488.007-1.8.611-2.443,2.466-2.441S499.788,70.837,499.636,72.717Z" transform="translate(-2073.03 -5646.49)"/>
    <path id="Trazado_191253" data-name="Trazado 191253" d="M514.277-37.355c2.267,0,4.533.01,6.8-.01.38,0,.475.088.467.467-.026,1.333-.022,2.668,0,4,.005.333-.087.413-.416.413q-6.9-.017-13.8,0c-.331,0-.419-.084-.415-.414q.029-2.026,0-4.052c0-.333.086-.415.416-.413C509.642-37.348,511.96-37.355,514.277-37.355Z" transform="translate(-2083.559 -5553.463)" fill="#cba424"/>
    <path id="Trazado_191254" data-name="Trazado 191254" d="M508.6,35.384c0,.79,0,.79-.782.79-.842,0-.842,0-.842-.831,0-.79,0-.79.782-.79C508.6,34.553,508.6,34.553,508.6,35.384Z" transform="translate(-2083.613 -5615.644)" fill="#cba424"/>
    <path id="Trazado_191255" data-name="Trazado 191255" d="M556.576,35.412c0,.762,0,.762-.76.762-.864,0-.864,0-.864-.859,0-.762,0-.762.76-.762C556.576,34.553,556.576,34.553,556.576,35.412Z" transform="translate(-2125.098 -5615.644)" fill="#cba424"/>
    <path id="Trazado_191256" data-name="Trazado 191256" d="M604.557,35.393c0,.781,0,.781-.791.781-.833,0-.833,0-.833-.84,0-.781,0-.781.791-.781C604.557,34.553,604.557,34.553,604.557,35.393Z" transform="translate(-2166.582 -5615.644)" fill="#cba424"/>
    <path id="Trazado_191257" data-name="Trazado 191257" d="M603.724,84.069c-.791,0-.791,0-.791-.781,0-.84,0-.84.833-.84.791,0,.791,0,.791.781C604.557,84.069,604.557,84.069,603.724,84.069Z" transform="translate(-2166.582 -5657.054)" fill="#cba424"/>
    <path id="Trazado_191258" data-name="Trazado 191258" d="M508.6,83.288c0,.781,0,.781-.791.781-.833,0-.833,0-.833-.841,0-.781,0-.781.791-.781C508.6,82.448,508.6,82.448,508.6,83.288Z" transform="translate(-2083.613 -5657.054)" fill="#cba424"/>
  </g>
</svg>
