<svg xmlns="http://www.w3.org/2000/svg" xmlns:xlink="http://www.w3.org/1999/xlink" width="820" height="556" viewBox="0 0 820 556">
  <defs>
    <filter id="Trazado_191647" x="243.392" y="43.815" width="224.922" height="84.536" filterUnits="userSpaceOnUse">
      <feOffset dy="3" input="SourceAlpha"/>
      <feGaussianBlur stdDeviation="3" result="blur"/>
      <feFlood flood-opacity="0.161"/>
      <feComposite operator="in" in2="blur"/>
      <feComposite in="SourceGraphic"/>
    </filter>
    <filter id="Trazado_191648" x="243.392" y="141.274" width="224.922" height="84.536" filterUnits="userSpaceOnUse">
      <feOffset dy="3" input="SourceAlpha"/>
      <feGaussianBlur stdDeviation="3" result="blur-2"/>
      <feFlood flood-opacity="0.161"/>
      <feComposite operator="in" in2="blur-2"/>
      <feComposite in="SourceGraphic"/>
    </filter>
    <filter id="Trazado_191649" x="245.654" y="238.733" width="224.922" height="84.536" filterUnits="userSpaceOnUse">
      <feOffset dy="3" input="SourceAlpha"/>
      <feGaussianBlur stdDeviation="3" result="blur-3"/>
      <feFlood flood-opacity="0.161"/>
      <feComposite operator="in" in2="blur-3"/>
      <feComposite in="SourceGraphic"/>
    </filter>
    <filter id="Trazado_191650" x="245.654" y="336.192" width="224.922" height="84.536" filterUnits="userSpaceOnUse">
      <feOffset dy="3" input="SourceAlpha"/>
      <feGaussianBlur stdDeviation="3" result="blur-4"/>
      <feFlood flood-opacity="0.161"/>
      <feComposite operator="in" in2="blur-4"/>
      <feComposite in="SourceGraphic"/>
    </filter>
    <filter id="Trazado_191651" x="245.654" y="433.651" width="224.922" height="84.536" filterUnits="userSpaceOnUse">
      <feOffset dy="3" input="SourceAlpha"/>
      <feGaussianBlur stdDeviation="3" result="blur-5"/>
      <feFlood flood-opacity="0.161"/>
      <feComposite operator="in" in2="blur-5"/>
      <feComposite in="SourceGraphic"/>
    </filter>
    <filter id="Trazado_196416" x="336.784" y="113.941" width="42" height="34" filterUnits="userSpaceOnUse">
      <feOffset dy="3" input="SourceAlpha"/>
      <feGaussianBlur stdDeviation="3" result="blur-6"/>
      <feFlood flood-opacity="0.161"/>
      <feComposite operator="in" in2="blur-6"/>
      <feComposite in="SourceGraphic"/>
    </filter>
    <filter id="Trazado_196417" x="327.784" y="126.941" width="60" height="31" filterUnits="userSpaceOnUse">
      <feOffset dy="3" input="SourceAlpha"/>
      <feGaussianBlur stdDeviation="3" result="blur-7"/>
      <feFlood flood-opacity="0.161"/>
      <feComposite operator="in" in2="blur-7"/>
      <feComposite in="SourceGraphic"/>
    </filter>
    <filter id="Trazado_196418" x="336.784" y="210.941" width="42" height="34" filterUnits="userSpaceOnUse">
      <feOffset dy="3" input="SourceAlpha"/>
      <feGaussianBlur stdDeviation="3" result="blur-8"/>
      <feFlood flood-opacity="0.161"/>
      <feComposite operator="in" in2="blur-8"/>
      <feComposite in="SourceGraphic"/>
    </filter>
    <filter id="Trazado_191652" x="327.784" y="223.941" width="60" height="31" filterUnits="userSpaceOnUse">
      <feOffset dy="3" input="SourceAlpha"/>
      <feGaussianBlur stdDeviation="3" result="blur-9"/>
      <feFlood flood-opacity="0.161"/>
      <feComposite operator="in" in2="blur-9"/>
      <feComposite in="SourceGraphic"/>
    </filter>
    <filter id="Trazado_191653" x="336.784" y="307.941" width="42" height="34" filterUnits="userSpaceOnUse">
      <feOffset dy="3" input="SourceAlpha"/>
      <feGaussianBlur stdDeviation="3" result="blur-10"/>
      <feFlood flood-opacity="0.161"/>
      <feComposite operator="in" in2="blur-10"/>
      <feComposite in="SourceGraphic"/>
    </filter>
    <filter id="Trazado_191654" x="327.784" y="320.941" width="60" height="31" filterUnits="userSpaceOnUse">
      <feOffset dy="3" input="SourceAlpha"/>
      <feGaussianBlur stdDeviation="3" result="blur-11"/>
      <feFlood flood-opacity="0.161"/>
      <feComposite operator="in" in2="blur-11"/>
      <feComposite in="SourceGraphic"/>
    </filter>
    <filter id="Trazado_196419" x="334.784" y="404.941" width="42" height="34" filterUnits="userSpaceOnUse">
      <feOffset dy="3" input="SourceAlpha"/>
      <feGaussianBlur stdDeviation="3" result="blur-12"/>
      <feFlood flood-opacity="0.161"/>
      <feComposite operator="in" in2="blur-12"/>
      <feComposite in="SourceGraphic"/>
    </filter>
    <filter id="Trazado_196420" x="325.784" y="417.941" width="60" height="31" filterUnits="userSpaceOnUse">
      <feOffset dy="3" input="SourceAlpha"/>
      <feGaussianBlur stdDeviation="3" result="blur-13"/>
      <feFlood flood-opacity="0.161"/>
      <feComposite operator="in" in2="blur-13"/>
      <feComposite in="SourceGraphic"/>
    </filter>
  </defs>
  <g id="Grupo_131949" data-name="Grupo 131949" transform="translate(-390.002 -1051)">
    <path id="Trazado_196415" data-name="Trazado 196415" d="M10,0H810a10,10,0,0,1,10,10V546a10,10,0,0,1-10,10H10A10,10,0,0,1,0,546V10A10,10,0,0,1,10,0Z" transform="translate(390.002 1051)" fill="#f6f6f6"/>
    <g id="Grupo_128988" data-name="Grupo 128988" transform="translate(855.651 1426.896)">
      <path id="Trazado_191633" data-name="Trazado 191633" d="M336.1,477.162s34.99-3.548,35.442-46.74c.6-46.74-27.6-51.522-27.6-51.522" transform="translate(-336.1 -374.074)" fill="none" stroke="#12263f" stroke-miterlimit="10" stroke-width="1"/>
      <g id="Grupo_128987" data-name="Grupo 128987" transform="translate(1.056)">
        <path id="Trazado_191634" data-name="Trazado 191634" d="M336.8,379.47a35.21,35.21,0,0,0,10.557-3.77l-2.866,5.128,1.056,5.731A30.661,30.661,0,0,0,336.8,379.47Z" transform="translate(-336.8 -375.7)" fill="#808285"/>
      </g>
    </g>
    <g id="Grupo_128991" data-name="Grupo 128991" transform="translate(857.611 1324.42)">
      <path id="Trazado_191635" data-name="Trazado 191635" d="M341.3,411.915s29.711-5.465,30.616-49.926c.9-48.892-29.56-52.289-29.56-52.289" transform="translate(-335.418 -304.572)" fill="none" stroke="#12263f" stroke-miterlimit="10" stroke-width="1"/>
      <g id="Grupo_128990" data-name="Grupo 128990">
        <path id="Trazado_191636" data-name="Trazado 191636" d="M337.4,310.523a35.111,35.111,0,0,0,10.406-4.223l-2.564,5.128,1.357,5.58A41.792,41.792,0,0,0,337.4,310.523Z" transform="translate(-337.4 -306.3)" fill="#808285"/>
      </g>
    </g>
    <path id="Trazado_191637" data-name="Trazado 191637" d="M342.6,341.465s29.56-4.675,28.5-48.714c-1.056-39.514-27.75-46.15-27.75-46.15" transform="translate(522.854 987.782)" fill="none" stroke="#12263f" stroke-miterlimit="10" stroke-width="1"/>
    <path id="Trazado_191638" data-name="Trazado 191638" d="M343.329,280.594S375,276.22,373.795,230.07C372.739,188.746,337.9,180.3,337.9,180.3" transform="translate(520.465 954.09)" fill="none" stroke="#12263f" stroke-miterlimit="10" stroke-width="1"/>
    <path id="Trazado_191639" data-name="Trazado 191639" d="M336,510.439s53.993-5.128,54.747-94.11c.9-101.651-45.7-106.628-45.7-106.628" transform="translate(519.5 1019.848)" fill="none" stroke="#12263f" stroke-miterlimit="10" stroke-width="1"/>
    <path id="Trazado_191640" data-name="Trazado 191640" d="M342,443.98s47.658-9.824,49.468-90.5C393.58,253.447,343.81,246.6,343.81,246.6" transform="translate(522.549 987.782)" fill="none" stroke="#12263f" stroke-miterlimit="10" stroke-width="1"/>
    <path id="Trazado_191641" data-name="Trazado 191641" d="M345.434,375.157S394,358.718,395.846,279.991C398.19,182.411,338.4,180.3,338.4,180.3" transform="translate(520.719 954.09)" fill="none" stroke="#12263f" stroke-miterlimit="10" stroke-width="1"/>
    <path id="Trazado_191642" data-name="Trazado 191642" d="M340.6,476.911s72.543-17.043,74.957-138.137C418.422,188.677,346.18,181.8,346.18,181.8" transform="translate(521.837 954.852)" fill="none" stroke="#12263f" stroke-miterlimit="10" stroke-width="1"/>
    <g id="Grupo_128994" data-name="Grupo 128994" transform="translate(856.103 1229.104)">
      <path id="Trazado_191643" data-name="Trazado 191643" d="M336.4,542.957s75.711-8.144,74.957-140.412C410.452,252.633,345.9,246.6,345.9,246.6" transform="translate(-336.4 -241.321)" fill="none" stroke="#12263f" stroke-miterlimit="10" stroke-width="1"/>
      <g id="Grupo_128993" data-name="Grupo 128993" transform="translate(2.564)">
        <path id="Trazado_191644" data-name="Trazado 191644" d="M338.1,247.625a34.855,34.855,0,0,0,10.256-4.525l-2.413,5.279,1.508,5.58A36.491,36.491,0,0,0,338.1,247.625Z" transform="translate(-338.1 -243.1)" fill="#808285"/>
      </g>
    </g>
    <g id="Grupo_128997" data-name="Grupo 128997" transform="translate(851.579 1129.262)">
      <path id="Trazado_191645" data-name="Trazado 191645" d="M336.9,576.4s101.35-23.829,100.746-193.65C436.892,191.813,338.559,180.2,338.559,180.2" transform="translate(-331.621 -175.223)" fill="none" stroke="#12263f" stroke-miterlimit="10" stroke-width="1"/>
      <g id="Grupo_128996" data-name="Grupo 128996">
        <path id="Trazado_191646" data-name="Trazado 191646" d="M333.4,181.123a35.11,35.11,0,0,0,10.406-4.223l-2.564,5.128,1.357,5.58A33.72,33.72,0,0,0,333.4,181.123Z" transform="translate(-333.4 -176.9)" fill="#808285"/>
      </g>
    </g>
    <g transform="matrix(1, 0, 0, 1, 390, 1051)" filter="url(#Trazado_191647)">
      <path id="Trazado_191647-2" data-name="Trazado 191647" d="M393.478,228.636H202.844c-4.525,0-8.144-4.363-8.144-9.817v-46.9c0-5.454,3.62-9.817,8.144-9.817H393.478c4.525,0,8.144,4.363,8.144,9.817v46.9C401.622,224.273,398,228.636,393.478,228.636Z" transform="translate(57.69 -112.29)" fill="#f67409"/>
    </g>
    <g transform="matrix(1, 0, 0, 1, 390, 1051)" filter="url(#Trazado_191648)">
      <path id="Trazado_191648-2" data-name="Trazado 191648" d="M393.478,228.636H202.844c-4.525,0-8.144-4.363-8.144-9.817v-46.9c0-5.454,3.62-9.817,8.144-9.817H393.478c4.525,0,8.144,4.363,8.144,9.817v46.9C401.622,224.273,398,228.636,393.478,228.636Z" transform="translate(57.69 -14.83)" fill="#727997"/>
    </g>
    <g transform="matrix(1, 0, 0, 1, 390, 1051)" filter="url(#Trazado_191649)">
      <path id="Trazado_191649-2" data-name="Trazado 191649" d="M393.478,228.636H202.844c-4.525,0-8.144-4.363-8.144-9.817v-46.9c0-5.454,3.62-9.817,8.144-9.817H393.478c4.525,0,8.144,4.363,8.144,9.817v46.9C401.622,224.273,398,228.636,393.478,228.636Z" transform="translate(59.95 82.63)" fill="#feb710"/>
    </g>
    <g transform="matrix(1, 0, 0, 1, 390, 1051)" filter="url(#Trazado_191650)">
      <path id="Trazado_191650-2" data-name="Trazado 191650" d="M393.478,228.636H202.844c-4.525,0-8.144-4.363-8.144-9.817v-46.9c0-5.454,3.62-9.817,8.144-9.817H393.478c4.525,0,8.144,4.363,8.144,9.817v46.9C401.622,224.273,398,228.636,393.478,228.636Z" transform="translate(59.95 180.09)" fill="#2432ff"/>
    </g>
    <g transform="matrix(1, 0, 0, 1, 390, 1051)" filter="url(#Trazado_191651)">
      <path id="Trazado_191651-2" data-name="Trazado 191651" d="M393.478,228.636H202.844c-4.525,0-8.144-4.363-8.144-9.817v-46.9c0-5.454,3.62-9.817,8.144-9.817H393.478c4.525,0,8.144,4.363,8.144,9.817v46.9C401.622,224.273,398,228.636,393.478,228.636Z" transform="translate(59.95 277.55)" fill="#54aa13"/>
    </g>
    <g transform="matrix(1, 0, 0, 1, 390, 1051)" filter="url(#Trazado_196416)">
      <path id="Trazado_196416-2" data-name="Trazado 196416" d="M5,0H19a5,5,0,0,1,5,5v6a5,5,0,0,1-5,5H5a5,5,0,0,1-5-5V5A5,5,0,0,1,5,0Z" transform="translate(345.78 119.94)" fill="#f67409"/>
    </g>
    <g transform="matrix(1, 0, 0, 1, 390, 1051)" filter="url(#Trazado_196417)">
      <path id="Trazado_196417-2" data-name="Trazado 196417" d="M21,0,42,13H0Z" transform="translate(378.78 145.94) rotate(180)" fill="#f67409"/>
    </g>
    <g transform="matrix(1, 0, 0, 1, 390, 1051)" filter="url(#Trazado_196418)">
      <path id="Trazado_196418-2" data-name="Trazado 196418" d="M5,0H19a5,5,0,0,1,5,5v6a5,5,0,0,1-5,5H5a5,5,0,0,1-5-5V5A5,5,0,0,1,5,0Z" transform="translate(345.78 216.94)" fill="#727997"/>
    </g>
    <g transform="matrix(1, 0, 0, 1, 390, 1051)" filter="url(#Trazado_191652)">
      <path id="Trazado_191652-2" data-name="Trazado 191652" d="M21,0,42,13H0Z" transform="translate(378.78 242.94) rotate(180)" fill="#727997"/>
    </g>
    <g transform="matrix(1, 0, 0, 1, 390, 1051)" filter="url(#Trazado_191653)">
      <path id="Trazado_191653-2" data-name="Trazado 191653" d="M5,0H19a5,5,0,0,1,5,5v6a5,5,0,0,1-5,5H5a5,5,0,0,1-5-5V5A5,5,0,0,1,5,0Z" transform="translate(345.78 313.94)" fill="#feb710"/>
    </g>
    <g transform="matrix(1, 0, 0, 1, 390, 1051)" filter="url(#Trazado_191654)">
      <path id="Trazado_191654-2" data-name="Trazado 191654" d="M21,0,42,13H0Z" transform="translate(378.78 339.94) rotate(180)" fill="#feb710"/>
    </g>
    <g transform="matrix(1, 0, 0, 1, 390, 1051)" filter="url(#Trazado_196419)">
      <path id="Trazado_196419-2" data-name="Trazado 196419" d="M5,0H19a5,5,0,0,1,5,5v6a5,5,0,0,1-5,5H5a5,5,0,0,1-5-5V5A5,5,0,0,1,5,0Z" transform="translate(343.78 410.94)" fill="#2432ff"/>
    </g>
    <g transform="matrix(1, 0, 0, 1, 390, 1051)" filter="url(#Trazado_196420)">
      <path id="Trazado_196420-2" data-name="Trazado 196420" d="M21,0,42,13H0Z" transform="translate(376.78 436.94) rotate(180)" fill="#2432ff"/>
    </g>
    <path id="Trazado_196421" data-name="Trazado 196421" d="M-52.91,0h-1.453V-9.633l-2.914,1.07V-9.875l4.141-1.555h.227ZM-48.5-.758a.905.905,0,0,1,.223-.625.848.848,0,0,1,.668-.25.874.874,0,0,1,.676.25.887.887,0,0,1,.23.625.839.839,0,0,1-.23.6.89.89,0,0,1-.676.242.863.863,0,0,1-.668-.242A.855.855,0,0,1-48.5-.758ZM-40.129,0V-11.375h3.211a5.169,5.169,0,0,1,2.625.656,4.438,4.438,0,0,1,1.762,1.867A6.078,6.078,0,0,1-31.9-6.07v.727a6.1,6.1,0,0,1-.621,2.82A4.369,4.369,0,0,1-34.3-.664,5.5,5.5,0,0,1-36.98,0Zm1.5-10.148v8.922h1.578a3.434,3.434,0,0,0,2.7-1.079,4.458,4.458,0,0,0,.965-3.073v-.665a4.529,4.529,0,0,0-.91-3.014,3.239,3.239,0,0,0-2.582-1.091ZM-26.355.156a3.693,3.693,0,0,1-2.8-1.129,4.19,4.19,0,0,1-1.078-3.02v-.266A5.073,5.073,0,0,1-29.75-6.5a3.748,3.748,0,0,1,1.344-1.547,3.378,3.378,0,0,1,1.871-.559,3.166,3.166,0,0,1,2.563,1.086,4.7,4.7,0,0,1,.914,3.109v.6h-5.727a3,3,0,0,0,.73,2.02,2.3,2.3,0,0,0,1.777.77,2.517,2.517,0,0,0,1.3-.312,3.259,3.259,0,0,0,.93-.828l.883.688A3.55,3.55,0,0,1-26.355.156Zm-.18-7.578A1.928,1.928,0,0,0-28-6.785,3.1,3.1,0,0,0-28.738-5H-24.5v-.109A2.753,2.753,0,0,0-25.1-6.816,1.815,1.815,0,0,0-26.535-7.422ZM-20.9,0V-7.336h-1.336V-8.453H-20.9v-.719a2.937,2.937,0,0,1,.809-2.2,3.136,3.136,0,0,1,2.285-.789,6.881,6.881,0,0,1,2.211.477l-.242,1.219a5.008,5.008,0,0,0-1.859-.391,1.819,1.819,0,0,0-1.34.418,1.723,1.723,0,0,0-.41,1.254v.734h1.727v1.117h-1.727V0Zm6.023,0h-1.453V-8.453h1.453Zm3.719-8.453.047,1.063A3.08,3.08,0,0,1-8.582-8.609q2.68,0,2.7,3.023V0H-7.324V-5.594a1.946,1.946,0,0,0-.418-1.352A1.675,1.675,0,0,0-9.02-7.383a2.086,2.086,0,0,0-1.234.375,2.546,2.546,0,0,0-.828.984V0h-1.445V-8.453ZM-2.129,0H-3.574V-8.453h1.445ZM-3.691-10.7a.863.863,0,0,1,.215-.594.807.807,0,0,1,.637-.242.819.819,0,0,1,.641.242.854.854,0,0,1,.219.594.826.826,0,0,1-.219.586.834.834,0,0,1-.641.234.821.821,0,0,1-.637-.234A.834.834,0,0,1-3.691-10.7ZM3.574-1.023a2.082,2.082,0,0,0,1.352-.469,1.649,1.649,0,0,0,.641-1.172H6.934a2.621,2.621,0,0,1-.5,1.383A3.293,3.293,0,0,1,5.2-.234,3.55,3.55,0,0,1,3.574.156,3.482,3.482,0,0,1,.828-1,4.59,4.59,0,0,1-.191-4.148v-.242a5.089,5.089,0,0,1,.453-2.2,3.451,3.451,0,0,1,1.3-1.492,3.7,3.7,0,0,1,2-.531,3.39,3.39,0,0,1,2.363.852,3.043,3.043,0,0,1,1,2.211H5.566a1.992,1.992,0,0,0-.621-1.348,1.932,1.932,0,0,0-1.379-.527,2.023,2.023,0,0,0-1.707.793,3.724,3.724,0,0,0-.605,2.293v.273a3.65,3.65,0,0,0,.6,2.25A2.033,2.033,0,0,0,3.574-1.023ZM10.129,0H8.684V-8.453h1.445ZM8.566-10.7a.863.863,0,0,1,.215-.594.807.807,0,0,1,.637-.242.819.819,0,0,1,.641.242.854.854,0,0,1,.219.594.826.826,0,0,1-.219.586.834.834,0,0,1-.641.234.821.821,0,0,1-.637-.234A.834.834,0,0,1,8.566-10.7ZM12.059-4.3a4.993,4.993,0,0,1,.488-2.234A3.643,3.643,0,0,1,13.906-8.07a3.7,3.7,0,0,1,1.988-.539,3.565,3.565,0,0,1,2.793,1.2,4.6,4.6,0,0,1,1.066,3.18v.1a5.036,5.036,0,0,1-.473,2.215A3.589,3.589,0,0,1,17.93-.391a3.743,3.743,0,0,1-2.02.547,3.556,3.556,0,0,1-2.785-1.2A4.575,4.575,0,0,1,12.059-4.2Zm1.453.172a3.616,3.616,0,0,0,.652,2.258,2.088,2.088,0,0,0,1.746.852,2.075,2.075,0,0,0,1.75-.863A3.955,3.955,0,0,0,18.309-4.3a3.61,3.61,0,0,0-.66-2.254,2.1,2.1,0,0,0-1.754-.863,2.075,2.075,0,0,0-1.727.852A3.925,3.925,0,0,0,13.512-4.133ZM16.551-12H18.3L16.207-9.7l-1.164,0Zm6.383,3.547.047,1.063a3.08,3.08,0,0,1,2.531-1.219q2.68,0,2.7,3.023V0H26.77V-5.594a1.946,1.946,0,0,0-.418-1.352,1.675,1.675,0,0,0-1.277-.437,2.086,2.086,0,0,0-1.234.375,2.546,2.546,0,0,0-.828.984V0H21.566V-8.453ZM34-4.3a4.952,4.952,0,0,1,.922-3.129A2.915,2.915,0,0,1,37.34-8.609a2.932,2.932,0,0,1,2.352,1.016V-12h1.445V0H39.809l-.07-.906A2.943,2.943,0,0,1,37.324.156a2.887,2.887,0,0,1-2.395-1.2A5.008,5.008,0,0,1,34-4.187Zm1.445.164a3.749,3.749,0,0,0,.594,2.25,1.92,1.92,0,0,0,1.641.813A2.108,2.108,0,0,0,39.691-2.3V-6.187a2.125,2.125,0,0,0-1.992-1.2,1.929,1.929,0,0,0-1.656.82A4.128,4.128,0,0,0,35.449-4.133ZM46.887.156a3.693,3.693,0,0,1-2.8-1.129,4.19,4.19,0,0,1-1.078-3.02v-.266a5.073,5.073,0,0,1,.48-2.246,3.748,3.748,0,0,1,1.344-1.547,3.378,3.378,0,0,1,1.871-.559A3.166,3.166,0,0,1,49.27-7.523a4.7,4.7,0,0,1,.914,3.109v.6H44.457a3,3,0,0,0,.73,2.02,2.3,2.3,0,0,0,1.777.77,2.517,2.517,0,0,0,1.3-.312,3.259,3.259,0,0,0,.93-.828l.883.688A3.55,3.55,0,0,1,46.887.156Zm-.18-7.578a1.928,1.928,0,0,0-1.469.637A3.1,3.1,0,0,0,44.5-5h4.234v-.109a2.753,2.753,0,0,0-.594-1.707A1.815,1.815,0,0,0,46.707-7.422ZM53.426,0H51.98V-12h1.445Zm-78.9,19.867a5.062,5.062,0,0,1-.883,3.109,2.829,2.829,0,0,1-2.391,1.18,3.1,3.1,0,0,1-2.422-.977v4.07h-1.445v-11.7h1.32l.07.938a2.977,2.977,0,0,1,2.453-1.094,2.882,2.882,0,0,1,2.41,1.148,5.117,5.117,0,0,1,.887,3.2Zm-1.445-.164a3.735,3.735,0,0,0-.609-2.258,1.963,1.963,0,0,0-1.672-.828,2.125,2.125,0,0,0-1.969,1.164V21.82a2.129,2.129,0,0,0,1.984,1.156,1.954,1.954,0,0,0,1.652-.824A4.077,4.077,0,0,0-26.922,19.7Zm7.367-2.859a4.331,4.331,0,0,0-.711-.055A1.9,1.9,0,0,0-22.2,18v6h-1.445V15.547h1.406l.023.977A2.251,2.251,0,0,1-20.2,15.391a1.477,1.477,0,0,1,.641.109Zm.789,2.852a4.993,4.993,0,0,1,.488-2.234,3.643,3.643,0,0,1,1.359-1.531,3.7,3.7,0,0,1,1.988-.539,3.565,3.565,0,0,1,2.793,1.2,4.6,4.6,0,0,1,1.066,3.18v.1a5.036,5.036,0,0,1-.473,2.215,3.589,3.589,0,0,1-1.352,1.527,3.743,3.743,0,0,1-2.02.547,3.556,3.556,0,0,1-2.785-1.2A4.575,4.575,0,0,1-18.766,19.8Zm1.453.172a3.616,3.616,0,0,0,.652,2.258,2.088,2.088,0,0,0,1.746.852,2.075,2.075,0,0,0,1.75-.863,3.955,3.955,0,0,0,.648-2.418,3.61,3.61,0,0,0-.66-2.254,2.1,2.1,0,0,0-1.754-.863,2.075,2.075,0,0,0-1.727.852A3.925,3.925,0,0,0-17.312,19.867Zm15.211,0a5.026,5.026,0,0,1-.891,3.113,2.846,2.846,0,0,1-2.391,1.176,2.947,2.947,0,0,1-2.477-1.133L-7.93,24H-9.258V12h1.445v4.477A2.93,2.93,0,0,1-5.4,15.391,2.863,2.863,0,0,1-2.98,16.555,5.177,5.177,0,0,1-2.1,19.742ZM-3.547,19.7a3.906,3.906,0,0,0-.57-2.281,1.888,1.888,0,0,0-1.641-.8,2.122,2.122,0,0,0-2.055,1.328V21.6a2.181,2.181,0,0,0,2.07,1.328,1.878,1.878,0,0,0,1.617-.8A4.153,4.153,0,0,0-3.547,19.7ZM1.289,24H-.156V12H1.289Zm5.82.156a3.693,3.693,0,0,1-2.8-1.129,4.19,4.19,0,0,1-1.078-3.02v-.266a5.073,5.073,0,0,1,.48-2.246,3.748,3.748,0,0,1,1.344-1.547,3.378,3.378,0,0,1,1.871-.559,3.166,3.166,0,0,1,2.563,1.086,4.7,4.7,0,0,1,.914,3.109v.6H4.68a3,3,0,0,0,.73,2.02,2.3,2.3,0,0,0,1.777.77,2.517,2.517,0,0,0,1.3-.312,3.259,3.259,0,0,0,.93-.828l.883.688A3.55,3.55,0,0,1,7.109,24.156Zm-.18-7.578a1.928,1.928,0,0,0-1.469.637A3.1,3.1,0,0,0,4.727,19H8.961v-.109a2.753,2.753,0,0,0-.594-1.707A1.815,1.815,0,0,0,6.93,16.578Zm6.508-1.031.039.938a3.122,3.122,0,0,1,2.508-1.094A2.417,2.417,0,0,1,18.4,16.75a3.2,3.2,0,0,1,1.1-.984,3.242,3.242,0,0,1,1.6-.375q2.781,0,2.828,2.945V24H22.477V18.422a1.941,1.941,0,0,0-.414-1.355,1.823,1.823,0,0,0-1.391-.449,1.916,1.916,0,0,0-1.336.48,1.949,1.949,0,0,0-.617,1.293V24H17.266V18.461a1.613,1.613,0,0,0-1.8-1.844,1.934,1.934,0,0,0-1.945,1.211V24H12.07V15.547ZM31.32,24a3.036,3.036,0,0,1-.2-.891,3.225,3.225,0,0,1-2.406,1.047,2.984,2.984,0,0,1-2.051-.707,2.287,2.287,0,0,1-.8-1.793,2.39,2.39,0,0,1,1-2.051,4.733,4.733,0,0,1,2.824-.73h1.406v-.664A1.623,1.623,0,0,0,30.641,17a1.821,1.821,0,0,0-1.336-.449,2.108,2.108,0,0,0-1.3.391,1.151,1.151,0,0,0-.523.945H26.031a2,2,0,0,1,.449-1.223,3.066,3.066,0,0,1,1.219-.934,4.1,4.1,0,0,1,1.691-.344,3.342,3.342,0,0,1,2.289.73,2.635,2.635,0,0,1,.859,2.012v3.891a4.757,4.757,0,0,0,.3,1.852V24Zm-2.4-1.1a2.54,2.54,0,0,0,1.289-.352,2.127,2.127,0,0,0,.883-.914V19.9H29.961q-2.656,0-2.656,1.555a1.316,1.316,0,0,0,.453,1.063A1.742,1.742,0,0,0,28.922,22.9Z" transform="translate(747.787 1127.941)" fill="#fff"/>
    <path id="Trazado_196422" data-name="Trazado 196422" d="M-55.2,0h-7.453V-1.039l3.938-4.375a9.355,9.355,0,0,0,1.207-1.613,2.693,2.693,0,0,0,.332-1.285,2.041,2.041,0,0,0-.539-1.461,1.885,1.885,0,0,0-1.437-.57,2.232,2.232,0,0,0-1.676.613,2.343,2.343,0,0,0-.6,1.707h-1.445a3.355,3.355,0,0,1,1.012-2.539,3.751,3.751,0,0,1,2.707-.969,3.6,3.6,0,0,1,2.508.832,2.838,2.838,0,0,1,.922,2.215q0,1.68-2.141,4l-3.047,3.3H-55.2Zm1.711-.758a.905.905,0,0,1,.223-.625.848.848,0,0,1,.668-.25.874.874,0,0,1,.676.25.887.887,0,0,1,.23.625.839.839,0,0,1-.23.6A.89.89,0,0,1-52.6.086a.863.863,0,0,1-.668-.242A.855.855,0,0,1-53.492-.758ZM-39.555,0h-1.5V-11.375h1.5Zm3.883-8.453.047,1.063a3.08,3.08,0,0,1,2.531-1.219q2.68,0,2.7,3.023V0h-1.445V-5.594a1.946,1.946,0,0,0-.418-1.352,1.675,1.675,0,0,0-1.277-.437,2.086,2.086,0,0,0-1.234.375,2.546,2.546,0,0,0-.828.984V0h-1.445V-8.453Zm10.25,6.492,2.094-6.492h1.477L-24.883,0h-1.1l-3.062-8.453h1.477ZM-17.055.156a3.693,3.693,0,0,1-2.8-1.129,4.19,4.19,0,0,1-1.078-3.02v-.266a5.073,5.073,0,0,1,.48-2.246,3.748,3.748,0,0,1,1.344-1.547,3.378,3.378,0,0,1,1.871-.559,3.166,3.166,0,0,1,2.563,1.086,4.7,4.7,0,0,1,.914,3.109v.6h-5.727a3,3,0,0,0,.73,2.02,2.3,2.3,0,0,0,1.777.77,2.517,2.517,0,0,0,1.3-.312,3.259,3.259,0,0,0,.93-.828l.883.688A3.55,3.55,0,0,1-17.055.156Zm-.18-7.578a1.928,1.928,0,0,0-1.469.637A3.1,3.1,0,0,0-19.437-5H-15.2v-.109A2.753,2.753,0,0,0-15.8-6.816,1.815,1.815,0,0,0-17.234-7.422Zm10.07,5.18a1.064,1.064,0,0,0-.441-.91,4.249,4.249,0,0,0-1.539-.559,7.277,7.277,0,0,1-1.742-.562,2.479,2.479,0,0,1-.953-.781,1.869,1.869,0,0,1-.309-1.078,2.193,2.193,0,0,1,.879-1.758,3.432,3.432,0,0,1,2.246-.719,3.532,3.532,0,0,1,2.332.742,2.357,2.357,0,0,1,.895,1.9H-7.25a1.3,1.3,0,0,0-.5-1.023,1.888,1.888,0,0,0-1.27-.43,1.976,1.976,0,0,0-1.234.344,1.082,1.082,0,0,0-.445.9.877.877,0,0,0,.414.789,5.1,5.1,0,0,0,1.5.508A7.8,7.8,0,0,1-7.039-4.3a2.558,2.558,0,0,1,1,.809,1.988,1.988,0,0,1,.324,1.152A2.163,2.163,0,0,1-6.625-.527,3.8,3.8,0,0,1-8.977.156a4.257,4.257,0,0,1-1.8-.359,2.922,2.922,0,0,1-1.223-1A2.42,2.42,0,0,1-12.437-2.6h1.445a1.5,1.5,0,0,0,.582,1.152,2.258,2.258,0,0,0,1.434.426A2.331,2.331,0,0,0-7.66-1.355,1.02,1.02,0,0,0-7.164-2.242ZM-1.875-10.5v2.047H-.3v1.117H-1.875v5.249a1.173,1.173,0,0,0,.211.763.888.888,0,0,0,.719.254,3.5,3.5,0,0,0,.688-.094V0A4.215,4.215,0,0,1-1.367.156,1.8,1.8,0,0,1-2.828-.43,2.517,2.517,0,0,1-3.32-2.094V-7.336H-4.859V-8.453H-3.32V-10.5ZM2.961,0H1.516V-8.453H2.961ZM1.4-10.7a.863.863,0,0,1,.215-.594.807.807,0,0,1,.637-.242.819.819,0,0,1,.641.242.854.854,0,0,1,.219.594.826.826,0,0,1-.219.586.834.834,0,0,1-.641.234.821.821,0,0,1-.637-.234A.834.834,0,0,1,1.4-10.7ZM4.93-4.3a4.968,4.968,0,0,1,.914-3.145A2.923,2.923,0,0,1,8.266-8.609,2.908,2.908,0,0,1,10.68-7.516l.07-.937h1.32V-.2A3.439,3.439,0,0,1,11.1,2.383a3.589,3.589,0,0,1-2.613.945A4.348,4.348,0,0,1,6.7,2.938a3.08,3.08,0,0,1-1.336-1.07L6.109,1A2.826,2.826,0,0,0,8.383,2.148a2.214,2.214,0,0,0,1.645-.594,2.269,2.269,0,0,0,.59-1.672V-.844a2.971,2.971,0,0,1-2.367,1,2.887,2.887,0,0,1-2.4-1.2A5.224,5.224,0,0,1,4.93-4.3Zm1.453.164a3.79,3.79,0,0,0,.586,2.246,1.9,1.9,0,0,0,1.641.816,2.117,2.117,0,0,0,2.008-1.242V-6.172A2.142,2.142,0,0,0,8.625-7.383a1.921,1.921,0,0,0-1.648.82A4.128,4.128,0,0,0,6.383-4.133ZM19.469,0a3.036,3.036,0,0,1-.2-.891A3.225,3.225,0,0,1,16.859.156a2.984,2.984,0,0,1-2.051-.707,2.287,2.287,0,0,1-.8-1.793,2.39,2.39,0,0,1,1-2.051,4.733,4.733,0,0,1,2.824-.73h1.406v-.664A1.623,1.623,0,0,0,18.789-7a1.821,1.821,0,0,0-1.336-.449,2.108,2.108,0,0,0-1.3.391,1.151,1.151,0,0,0-.523.945H14.18a2,2,0,0,1,.449-1.223,3.066,3.066,0,0,1,1.219-.934,4.1,4.1,0,0,1,1.691-.344,3.342,3.342,0,0,1,2.289.73,2.635,2.635,0,0,1,.859,2.012v3.891a4.757,4.757,0,0,0,.3,1.852V0Zm-2.4-1.1a2.54,2.54,0,0,0,1.289-.352,2.127,2.127,0,0,0,.883-.914V-4.1H18.109q-2.656,0-2.656,1.555a1.316,1.316,0,0,0,.453,1.063A1.742,1.742,0,0,0,17.07-1.1Zm9.273.078A2.082,2.082,0,0,0,27.7-1.492a1.649,1.649,0,0,0,.641-1.172H29.7a2.621,2.621,0,0,1-.5,1.383,3.293,3.293,0,0,1-1.23,1.047,3.55,3.55,0,0,1-1.629.391A3.482,3.482,0,0,1,23.6-1a4.59,4.59,0,0,1-1.02-3.152v-.242a5.089,5.089,0,0,1,.453-2.2,3.451,3.451,0,0,1,1.3-1.492,3.7,3.7,0,0,1,2-.531,3.39,3.39,0,0,1,2.363.852,3.043,3.043,0,0,1,1,2.211H28.336a1.992,1.992,0,0,0-.621-1.348,1.932,1.932,0,0,0-1.379-.527,2.023,2.023,0,0,0-1.707.793,3.724,3.724,0,0,0-.605,2.293v.273a3.65,3.65,0,0,0,.6,2.25A2.033,2.033,0,0,0,26.344-1.023ZM32.9,0H31.453V-8.453H32.9ZM31.336-10.7a.863.863,0,0,1,.215-.594.807.807,0,0,1,.637-.242.819.819,0,0,1,.641.242.854.854,0,0,1,.219.594.826.826,0,0,1-.219.586.834.834,0,0,1-.641.234.821.821,0,0,1-.637-.234A.834.834,0,0,1,31.336-10.7ZM34.828-4.3a4.993,4.993,0,0,1,.488-2.234A3.643,3.643,0,0,1,36.676-8.07a3.7,3.7,0,0,1,1.988-.539,3.565,3.565,0,0,1,2.793,1.2,4.6,4.6,0,0,1,1.066,3.18v.1a5.036,5.036,0,0,1-.473,2.215A3.589,3.589,0,0,1,40.7-.391a3.743,3.743,0,0,1-2.02.547,3.556,3.556,0,0,1-2.785-1.2A4.575,4.575,0,0,1,34.828-4.2Zm1.453.172a3.616,3.616,0,0,0,.652,2.258,2.088,2.088,0,0,0,1.746.852,2.075,2.075,0,0,0,1.75-.863A3.955,3.955,0,0,0,41.078-4.3a3.61,3.61,0,0,0-.66-2.254,2.1,2.1,0,0,0-1.754-.863,2.075,2.075,0,0,0-1.727.852A3.925,3.925,0,0,0,36.281-4.133ZM39.32-12h1.75L38.977-9.7l-1.164,0ZM45.7-8.453l.047,1.063a3.08,3.08,0,0,1,2.531-1.219q2.68,0,2.7,3.023V0H49.539V-5.594a1.946,1.946,0,0,0-.418-1.352,1.675,1.675,0,0,0-1.277-.437,2.086,2.086,0,0,0-1.234.375,2.546,2.546,0,0,0-.828.984V0H44.336V-8.453ZM59.891-2.117l1.969-6.336h1.547L60.008,1.3Q59.219,3.414,57.5,3.414l-.273-.023-.539-.1V2.117l.391.031a1.923,1.923,0,0,0,1.145-.3A2.148,2.148,0,0,0,58.9.766l.32-.859L56.2-8.453h1.578ZM-60.012,24h-1.445V12h1.445Zm3.883,0h-1.445V15.547h1.445Zm-1.562-10.7a.863.863,0,0,1,.215-.594.807.807,0,0,1,.637-.242.819.819,0,0,1,.641.242.854.854,0,0,1,.219.594.826.826,0,0,1-.219.586.834.834,0,0,1-.641.234.821.821,0,0,1-.637-.234A.834.834,0,0,1-57.691,13.3Zm5.234,2.242.039.938a3.122,3.122,0,0,1,2.508-1.094A2.417,2.417,0,0,1-47.5,16.75a3.2,3.2,0,0,1,1.1-.984,3.242,3.242,0,0,1,1.6-.375q2.781,0,2.828,2.945V24h-1.445V18.422a1.941,1.941,0,0,0-.414-1.355,1.823,1.823,0,0,0-1.391-.449,1.916,1.916,0,0,0-1.336.48,1.949,1.949,0,0,0-.617,1.293V24h-1.453V18.461a1.613,1.613,0,0,0-1.8-1.844,1.934,1.934,0,0,0-1.945,1.211V24h-1.445V15.547Zm19.8,4.32a5.062,5.062,0,0,1-.883,3.109,2.829,2.829,0,0,1-2.391,1.18,3.1,3.1,0,0,1-2.422-.977v4.07h-1.445v-11.7h1.32l.07.938a2.977,2.977,0,0,1,2.453-1.094,2.882,2.882,0,0,1,2.41,1.148,5.117,5.117,0,0,1,.887,3.2ZM-34.1,19.7a3.735,3.735,0,0,0-.609-2.258,1.963,1.963,0,0,0-1.672-.828,2.125,2.125,0,0,0-1.969,1.164V21.82a2.129,2.129,0,0,0,1.984,1.156,1.954,1.954,0,0,0,1.652-.824A4.077,4.077,0,0,0-34.1,19.7Zm4.852,4.3h-1.445V15.547h1.445Zm-1.562-10.7a.863.863,0,0,1,.215-.594.807.807,0,0,1,.637-.242.819.819,0,0,1,.641.242.854.854,0,0,1,.219.594.826.826,0,0,1-.219.586.834.834,0,0,1-.641.234.821.821,0,0,1-.637-.234A.834.834,0,0,1-30.809,13.3Zm7.383,10.852a3.693,3.693,0,0,1-2.8-1.129,4.19,4.19,0,0,1-1.078-3.02v-.266a5.073,5.073,0,0,1,.48-2.246,3.748,3.748,0,0,1,1.344-1.547,3.378,3.378,0,0,1,1.871-.559,3.166,3.166,0,0,1,2.563,1.086,4.7,4.7,0,0,1,.914,3.109v.6h-5.727a3,3,0,0,0,.73,2.02,2.3,2.3,0,0,0,1.777.77,2.517,2.517,0,0,0,1.3-.312,3.259,3.259,0,0,0,.93-.828l.883.688A3.55,3.55,0,0,1-23.426,24.156Zm-.18-7.578a1.928,1.928,0,0,0-1.469.637A3.1,3.1,0,0,0-25.809,19h4.234v-.109a2.753,2.753,0,0,0-.594-1.707A1.815,1.815,0,0,0-23.605,16.578ZM-17.1,22.82h4.945V24h-6.711V22.938l4.664-6.2h-4.594v-1.2h6.406V16.57ZM-5.309,24a3.036,3.036,0,0,1-.2-.891,3.225,3.225,0,0,1-2.406,1.047,2.984,2.984,0,0,1-2.051-.707,2.287,2.287,0,0,1-.8-1.793,2.39,2.39,0,0,1,1-2.051,4.733,4.733,0,0,1,2.824-.73h1.406v-.664A1.623,1.623,0,0,0-5.988,17a1.821,1.821,0,0,0-1.336-.449,2.108,2.108,0,0,0-1.3.391,1.151,1.151,0,0,0-.523.945H-10.6a2,2,0,0,1,.449-1.223,3.066,3.066,0,0,1,1.219-.934,4.1,4.1,0,0,1,1.691-.344,3.342,3.342,0,0,1,2.289.73,2.635,2.635,0,0,1,.859,2.012v3.891a4.757,4.757,0,0,0,.3,1.852V24Zm-2.4-1.1a2.54,2.54,0,0,0,1.289-.352,2.127,2.127,0,0,0,.883-.914V19.9H-6.668q-2.656,0-2.656,1.555a1.316,1.316,0,0,0,.453,1.063A1.742,1.742,0,0,0-7.707,22.9Zm9.492-3.2a4.952,4.952,0,0,1,.922-3.129,2.915,2.915,0,0,1,2.414-1.184,2.932,2.932,0,0,1,2.352,1.016V12H8.918V24H7.59l-.07-.906a2.943,2.943,0,0,1-2.414,1.063,2.887,2.887,0,0,1-2.395-1.2,5.008,5.008,0,0,1-.926-3.141Zm1.445.164a3.749,3.749,0,0,0,.594,2.25,1.92,1.92,0,0,0,1.641.813A2.108,2.108,0,0,0,7.473,21.7V17.813a2.125,2.125,0,0,0-1.992-1.2,1.929,1.929,0,0,0-1.656.82A4.128,4.128,0,0,0,3.23,19.867Zm11.438,4.289a3.693,3.693,0,0,1-2.8-1.129,4.19,4.19,0,0,1-1.078-3.02v-.266a5.073,5.073,0,0,1,.48-2.246,3.748,3.748,0,0,1,1.344-1.547,3.378,3.378,0,0,1,1.871-.559,3.166,3.166,0,0,1,2.563,1.086,4.7,4.7,0,0,1,.914,3.109v.6H12.238a3,3,0,0,0,.73,2.02,2.3,2.3,0,0,0,1.777.77,2.517,2.517,0,0,0,1.3-.312,3.259,3.259,0,0,0,.93-.828l.883.688A3.55,3.55,0,0,1,14.668,24.156Zm-.18-7.578a1.928,1.928,0,0,0-1.469.637A3.1,3.1,0,0,0,12.285,19H16.52v-.109a2.753,2.753,0,0,0-.594-1.707A1.815,1.815,0,0,0,14.488,16.578ZM23.246,19.7a4.952,4.952,0,0,1,.922-3.129,3.137,3.137,0,0,1,4.766-.168V12h1.445V24H29.051l-.07-.906a2.943,2.943,0,0,1-2.414,1.063,2.887,2.887,0,0,1-2.395-1.2,5.008,5.008,0,0,1-.926-3.141Zm1.445.164a3.749,3.749,0,0,0,.594,2.25,1.92,1.92,0,0,0,1.641.813A2.108,2.108,0,0,0,28.934,21.7V17.813a2.125,2.125,0,0,0-1.992-1.2,1.929,1.929,0,0,0-1.656.82A4.128,4.128,0,0,0,24.691,19.867ZM37.84,24a3.036,3.036,0,0,1-.2-.891,3.225,3.225,0,0,1-2.406,1.047,2.984,2.984,0,0,1-2.051-.707,2.287,2.287,0,0,1-.8-1.793,2.39,2.39,0,0,1,1-2.051,4.733,4.733,0,0,1,2.824-.73h1.406v-.664A1.623,1.623,0,0,0,37.16,17a1.821,1.821,0,0,0-1.336-.449,2.107,2.107,0,0,0-1.3.391,1.151,1.151,0,0,0-.523.945H32.551A2,2,0,0,1,33,16.668a3.066,3.066,0,0,1,1.219-.934,4.1,4.1,0,0,1,1.691-.344,3.342,3.342,0,0,1,2.289.73,2.635,2.635,0,0,1,.859,2.012v3.891a4.757,4.757,0,0,0,.3,1.852V24Zm-2.4-1.1a2.54,2.54,0,0,0,1.289-.352,2.127,2.127,0,0,0,.883-.914V19.9H36.48q-2.656,0-2.656,1.555a1.316,1.316,0,0,0,.453,1.063A1.742,1.742,0,0,0,35.441,22.9Zm7.844-9.4v2.047h1.578v1.117H43.285v5.249a1.173,1.173,0,0,0,.211.763.888.888,0,0,0,.719.254,3.5,3.5,0,0,0,.688-.094V24a4.215,4.215,0,0,1-1.109.155,1.8,1.8,0,0,1-1.461-.586,2.517,2.517,0,0,1-.492-1.664V16.664H40.3V15.547H41.84V13.5Zm2.727,6.2a4.993,4.993,0,0,1,.488-2.234,3.643,3.643,0,0,1,1.359-1.531,3.7,3.7,0,0,1,1.988-.539,3.565,3.565,0,0,1,2.793,1.2,4.6,4.6,0,0,1,1.066,3.18v.1a5.036,5.036,0,0,1-.473,2.215,3.589,3.589,0,0,1-1.352,1.527,3.743,3.743,0,0,1-2.02.547,3.556,3.556,0,0,1-2.785-1.2A4.575,4.575,0,0,1,46.012,19.8Zm1.453.172a3.616,3.616,0,0,0,.652,2.258,2.211,2.211,0,0,0,3.5-.012,3.955,3.955,0,0,0,.648-2.418,3.61,3.61,0,0,0-.66-2.254,2.1,2.1,0,0,0-1.754-.863,2.075,2.075,0,0,0-1.727.852A3.925,3.925,0,0,0,47.465,19.867Zm12.977,1.891a1.064,1.064,0,0,0-.441-.91,4.249,4.249,0,0,0-1.539-.559,7.277,7.277,0,0,1-1.742-.562,2.479,2.479,0,0,1-.953-.781,1.869,1.869,0,0,1-.309-1.078,2.193,2.193,0,0,1,.879-1.758,3.432,3.432,0,0,1,2.246-.719,3.532,3.532,0,0,1,2.332.742,2.357,2.357,0,0,1,.895,1.9H60.355a1.3,1.3,0,0,0-.5-1.023,1.888,1.888,0,0,0-1.27-.43,1.976,1.976,0,0,0-1.234.344,1.082,1.082,0,0,0-.445.9.877.877,0,0,0,.414.789,5.1,5.1,0,0,0,1.5.508,7.8,7.8,0,0,1,1.754.578,2.558,2.558,0,0,1,1,.809,1.988,1.988,0,0,1,.324,1.152,2.163,2.163,0,0,1-.906,1.816,3.8,3.8,0,0,1-2.352.684,4.257,4.257,0,0,1-1.8-.359,2.922,2.922,0,0,1-1.223-1,2.42,2.42,0,0,1-.441-1.395h1.445a1.5,1.5,0,0,0,.582,1.152,2.258,2.258,0,0,0,1.434.426,2.331,2.331,0,0,0,1.316-.332A1.02,1.02,0,0,0,60.441,21.758Z" transform="translate(747.787 1224.941)" fill="#fff"/>
    <path id="Trazado_196423" data-name="Trazado 196423" d="M-63.211-6.391h1.086a2.387,2.387,0,0,0,1.609-.539,1.8,1.8,0,0,0,.586-1.414,1.764,1.764,0,0,0-1.992-2,2.072,2.072,0,0,0-1.5.535,1.873,1.873,0,0,0-.559,1.418h-1.445a2.9,2.9,0,0,1,.988-2.246,3.6,3.6,0,0,1,2.512-.895,3.558,3.558,0,0,1,2.523.852,3.076,3.076,0,0,1,.914,2.367,2.5,2.5,0,0,1-.48,1.438,2.9,2.9,0,0,1-1.309,1.039,2.8,2.8,0,0,1,1.449.984,2.734,2.734,0,0,1,.512,1.68,3.1,3.1,0,0,1-1,2.43,3.745,3.745,0,0,1-2.6.9A3.844,3.844,0,0,1-64.52-.711a2.877,2.877,0,0,1-1-2.289h1.453a1.859,1.859,0,0,0,.586,1.438,2.229,2.229,0,0,0,1.57.539,2.187,2.187,0,0,0,1.6-.547,2.108,2.108,0,0,0,.555-1.57,1.912,1.912,0,0,0-.609-1.523,2.655,2.655,0,0,0-1.758-.547h-1.086Zm7.063,5.633a.905.905,0,0,1,.223-.625.848.848,0,0,1,.668-.25.874.874,0,0,1,.676.25.887.887,0,0,1,.23.625.839.839,0,0,1-.23.6.89.89,0,0,1-.676.242.863.863,0,0,1-.668-.242A.855.855,0,0,1-56.148-.758Zm14.266-10.617,3.719,9.281,3.719-9.281H-32.5V0H-34V-4.43l.141-4.781L-37.594,0h-1.148l-3.727-9.187.148,4.758V0h-1.5V-11.375ZM-30.461-4.3a4.993,4.993,0,0,1,.488-2.234A3.643,3.643,0,0,1-28.613-8.07a3.7,3.7,0,0,1,1.988-.539,3.565,3.565,0,0,1,2.793,1.2,4.6,4.6,0,0,1,1.066,3.18v.1a5.036,5.036,0,0,1-.473,2.215A3.589,3.589,0,0,1-24.59-.391a3.743,3.743,0,0,1-2.02.547,3.556,3.556,0,0,1-2.785-1.2A4.575,4.575,0,0,1-30.461-4.2Zm1.453.172a3.616,3.616,0,0,0,.652,2.258,2.088,2.088,0,0,0,1.746.852,2.075,2.075,0,0,0,1.75-.863A3.955,3.955,0,0,0-24.211-4.3a3.61,3.61,0,0,0-.66-2.254,2.1,2.1,0,0,0-1.754-.863,2.075,2.075,0,0,0-1.727.852A3.925,3.925,0,0,0-29.008-4.133Zm7.7-.164a4.952,4.952,0,0,1,.922-3.129,2.915,2.915,0,0,1,2.414-1.184,2.932,2.932,0,0,1,2.352,1.016V-12h1.445V0H-15.5l-.07-.906A2.943,2.943,0,0,1-17.984.156a2.887,2.887,0,0,1-2.395-1.2A5.008,5.008,0,0,1-21.3-4.187Zm1.445.164a3.749,3.749,0,0,0,.594,2.25,1.92,1.92,0,0,0,1.641.813A2.108,2.108,0,0,0-15.617-2.3V-6.187a2.125,2.125,0,0,0-1.992-1.2,1.929,1.929,0,0,0-1.656.82A4.128,4.128,0,0,0-19.859-4.133ZM-8.422.156a3.693,3.693,0,0,1-2.8-1.129A4.19,4.19,0,0,1-12.3-3.992v-.266a5.073,5.073,0,0,1,.48-2.246,3.748,3.748,0,0,1,1.344-1.547A3.378,3.378,0,0,1-8.6-8.609,3.166,3.166,0,0,1-6.039-7.523a4.7,4.7,0,0,1,.914,3.109v.6h-5.727a3,3,0,0,0,.73,2.02,2.3,2.3,0,0,0,1.777.77,2.517,2.517,0,0,0,1.3-.312,3.259,3.259,0,0,0,.93-.828l.883.688A3.55,3.55,0,0,1-8.422.156ZM-8.6-7.422a1.928,1.928,0,0,0-1.469.637A3.1,3.1,0,0,0-10.8-5H-6.57v-.109a2.753,2.753,0,0,0-.594-1.707A1.815,1.815,0,0,0-8.6-7.422ZM-1.883,0H-3.328V-12h1.445ZM.047-4.3A4.993,4.993,0,0,1,.535-6.539,3.643,3.643,0,0,1,1.895-8.07a3.7,3.7,0,0,1,1.988-.539,3.565,3.565,0,0,1,2.793,1.2,4.6,4.6,0,0,1,1.066,3.18v.1A5.036,5.036,0,0,1,7.27-1.918,3.589,3.589,0,0,1,5.918-.391,3.743,3.743,0,0,1,3.9.156a3.556,3.556,0,0,1-2.785-1.2A4.575,4.575,0,0,1,.047-4.2ZM1.5-4.133a3.616,3.616,0,0,0,.652,2.258A2.088,2.088,0,0,0,3.9-1.023a2.075,2.075,0,0,0,1.75-.863A3.955,3.955,0,0,0,6.3-4.3a3.61,3.61,0,0,0-.66-2.254,2.1,2.1,0,0,0-1.754-.863,2.075,2.075,0,0,0-1.727.852A3.925,3.925,0,0,0,1.5-4.133Zm13.375-4.32.039.938a3.122,3.122,0,0,1,2.508-1.094A2.417,2.417,0,0,1,19.836-7.25a3.2,3.2,0,0,1,1.1-.984,3.242,3.242,0,0,1,1.6-.375q2.781,0,2.828,2.945V0H23.914V-5.578A1.941,1.941,0,0,0,23.5-6.934a1.823,1.823,0,0,0-1.391-.449,1.916,1.916,0,0,0-1.336.48,1.949,1.949,0,0,0-.617,1.293V0H18.7V-5.539a1.613,1.613,0,0,0-1.8-1.844,1.934,1.934,0,0,0-1.945,1.211V0H13.508V-8.453ZM29.109,0H27.656V-8.453h1.453Zm.016-11.992h1.75L28.781-9.7l-1.164,0Zm3.734,3.539.047,1.063a3.08,3.08,0,0,1,2.531-1.219q2.68,0,2.7,3.023V0H36.7V-5.594a1.946,1.946,0,0,0-.418-1.352A1.675,1.675,0,0,0,35-7.383a2.086,2.086,0,0,0-1.234.375,2.546,2.546,0,0,0-.828.984V0H31.492V-8.453ZM41.891,0H40.445V-8.453h1.445ZM40.328-10.7a.863.863,0,0,1,.215-.594.807.807,0,0,1,.637-.242.819.819,0,0,1,.641.242.854.854,0,0,1,.219.594.826.826,0,0,1-.219.586.834.834,0,0,1-.641.234.821.821,0,0,1-.637-.234A.834.834,0,0,1,40.328-10.7Zm5.234,2.242.039.938a3.122,3.122,0,0,1,2.508-1.094A2.417,2.417,0,0,1,50.523-7.25a3.2,3.2,0,0,1,1.1-.984,3.242,3.242,0,0,1,1.6-.375q2.781,0,2.828,2.945V0H54.6V-5.578a1.941,1.941,0,0,0-.414-1.355A1.823,1.823,0,0,0,52.8-7.383a1.917,1.917,0,0,0-1.336.48,1.949,1.949,0,0,0-.617,1.293V0H49.391V-5.539a1.613,1.613,0,0,0-1.8-1.844,1.934,1.934,0,0,0-1.945,1.211V0H44.2V-8.453ZM57.844-4.3a4.993,4.993,0,0,1,.488-2.234A3.643,3.643,0,0,1,59.691-8.07a3.7,3.7,0,0,1,1.988-.539,3.565,3.565,0,0,1,2.793,1.2,4.6,4.6,0,0,1,1.066,3.18v.1a5.036,5.036,0,0,1-.473,2.215A3.589,3.589,0,0,1,63.715-.391,3.743,3.743,0,0,1,61.7.156a3.556,3.556,0,0,1-2.785-1.2A4.575,4.575,0,0,1,57.844-4.2Zm1.453.172a3.616,3.616,0,0,0,.652,2.258,2.088,2.088,0,0,0,1.746.852,2.075,2.075,0,0,0,1.75-.863A3.955,3.955,0,0,0,64.094-4.3a3.61,3.61,0,0,0-.66-2.254,2.1,2.1,0,0,0-1.754-.863,2.075,2.075,0,0,0-1.727.852A3.925,3.925,0,0,0,59.3-4.133ZM-18.668,22.039l2.094-6.492H-15.1L-18.129,24h-1.1l-3.062-8.453h1.477ZM-12.137,24h-1.445V15.547h1.445ZM-13.7,13.3a.863.863,0,0,1,.215-.594.807.807,0,0,1,.637-.242.819.819,0,0,1,.641.242.854.854,0,0,1,.219.594.826.826,0,0,1-.219.586.834.834,0,0,1-.641.234.821.821,0,0,1-.637-.234A.834.834,0,0,1-13.7,13.3Zm8.8,8.453a1.064,1.064,0,0,0-.441-.91,4.249,4.249,0,0,0-1.539-.559,7.277,7.277,0,0,1-1.742-.562,2.479,2.479,0,0,1-.953-.781,1.869,1.869,0,0,1-.309-1.078,2.193,2.193,0,0,1,.879-1.758,3.432,3.432,0,0,1,2.246-.719,3.532,3.532,0,0,1,2.332.742,2.357,2.357,0,0,1,.895,1.9H-4.988a1.3,1.3,0,0,0-.5-1.023,1.888,1.888,0,0,0-1.27-.43A1.976,1.976,0,0,0-8,16.922a1.082,1.082,0,0,0-.445.9.877.877,0,0,0,.414.789,5.1,5.1,0,0,0,1.5.508,7.8,7.8,0,0,1,1.754.578,2.558,2.558,0,0,1,1,.809,1.988,1.988,0,0,1,.324,1.152,2.163,2.163,0,0,1-.906,1.816,3.8,3.8,0,0,1-2.352.684,4.257,4.257,0,0,1-1.8-.359,2.922,2.922,0,0,1-1.223-1,2.42,2.42,0,0,1-.441-1.395H-8.73a1.5,1.5,0,0,0,.582,1.152,2.258,2.258,0,0,0,1.434.426A2.331,2.331,0,0,0-5.4,22.645,1.02,1.02,0,0,0-4.9,21.758ZM0,24H-1.449V15.547H0ZM-1.566,13.3a.863.863,0,0,1,.215-.594.807.807,0,0,1,.637-.242.819.819,0,0,1,.641.242.854.854,0,0,1,.219.594.826.826,0,0,1-.219.586.834.834,0,0,1-.641.234.821.821,0,0,1-.637-.234A.834.834,0,0,1-1.566,13.3ZM9.465,19.867a5.026,5.026,0,0,1-.891,3.113,2.846,2.846,0,0,1-2.391,1.176,2.947,2.947,0,0,1-2.477-1.133L3.637,24H2.309V12H3.754v4.477a2.93,2.93,0,0,1,2.414-1.086,2.863,2.863,0,0,1,2.418,1.164,5.177,5.177,0,0,1,.879,3.188ZM8.02,19.7a3.906,3.906,0,0,0-.57-2.281,1.888,1.888,0,0,0-1.641-.8,2.122,2.122,0,0,0-2.055,1.328V21.6a2.181,2.181,0,0,0,2.07,1.328,1.878,1.878,0,0,0,1.617-.8A4.153,4.153,0,0,0,8.02,19.7ZM12.855,24H11.41V12h1.445Zm5.82.156a3.693,3.693,0,0,1-2.8-1.129,4.19,4.19,0,0,1-1.078-3.02v-.266a5.073,5.073,0,0,1,.48-2.246,3.748,3.748,0,0,1,1.344-1.547,3.378,3.378,0,0,1,1.871-.559,3.166,3.166,0,0,1,2.563,1.086,4.7,4.7,0,0,1,.914,3.109v.6H16.246a3,3,0,0,0,.73,2.02,2.3,2.3,0,0,0,1.777.77,2.517,2.517,0,0,0,1.3-.312,3.259,3.259,0,0,0,.93-.828l.883.688A3.55,3.55,0,0,1,18.676,24.156Zm-.18-7.578a1.928,1.928,0,0,0-1.469.637A3.1,3.1,0,0,0,16.293,19h4.234v-.109a2.753,2.753,0,0,0-.594-1.707A1.815,1.815,0,0,0,18.5,16.578Z" transform="translate(747.787 1323.941)" fill="#fff"/>
    <path id="Trazado_196424" data-name="Trazado 196424" d="M-61.1-3.82h1.578v1.18H-61.1V0h-1.453V-2.641h-5.18v-.852l5.094-7.883H-61.1Zm-4.992,0h3.539V-9.4l-.172.313Zm8.055,3.063a.905.905,0,0,1,.223-.625.848.848,0,0,1,.668-.25.874.874,0,0,1,.676.25.887.887,0,0,1,.23.625.839.839,0,0,1-.23.6.89.89,0,0,1-.676.242.863.863,0,0,1-.668-.242A.855.855,0,0,1-58.039-.758ZM-44.1,0h-1.5V-11.375h1.5Zm3.875-8.453.039.938A3.122,3.122,0,0,1-37.68-8.609,2.417,2.417,0,0,1-35.266-7.25a3.2,3.2,0,0,1,1.1-.984,3.242,3.242,0,0,1,1.6-.375q2.781,0,2.828,2.945V0h-1.445V-5.578A1.941,1.941,0,0,0-31.6-6.934a1.823,1.823,0,0,0-1.391-.449,1.917,1.917,0,0,0-1.336.48,1.949,1.949,0,0,0-.617,1.293V0H-36.4V-5.539a1.613,1.613,0,0,0-1.8-1.844,1.934,1.934,0,0,0-1.945,1.211V0h-1.445V-8.453Zm19.8,4.32A5.062,5.062,0,0,1-21.3-1.023,2.829,2.829,0,0,1-23.7.156,3.1,3.1,0,0,1-26.117-.82V3.25h-1.445v-11.7h1.32l.07.938a2.977,2.977,0,0,1,2.453-1.094,2.882,2.882,0,0,1,2.41,1.148,5.117,5.117,0,0,1,.887,3.2ZM-21.867-4.3a3.735,3.735,0,0,0-.609-2.258,1.963,1.963,0,0,0-1.672-.828,2.125,2.125,0,0,0-1.969,1.164V-2.18a2.129,2.129,0,0,0,1.984,1.156,1.954,1.954,0,0,0,1.652-.824A4.077,4.077,0,0,0-21.867-4.3ZM-17.016,0h-1.445V-12h1.445Zm5.82.156a3.693,3.693,0,0,1-2.8-1.129,4.19,4.19,0,0,1-1.078-3.02v-.266A5.073,5.073,0,0,1-14.59-6.5a3.748,3.748,0,0,1,1.344-1.547,3.378,3.378,0,0,1,1.871-.559A3.166,3.166,0,0,1-8.812-7.523,4.7,4.7,0,0,1-7.9-4.414v.6h-5.727a3,3,0,0,0,.73,2.02,2.3,2.3,0,0,0,1.777.77,2.517,2.517,0,0,0,1.3-.312,3.259,3.259,0,0,0,.93-.828l.883.688A3.55,3.55,0,0,1-11.2.156Zm-.18-7.578a1.928,1.928,0,0,0-1.469.637A3.1,3.1,0,0,0-13.578-5h4.234v-.109a2.753,2.753,0,0,0-.594-1.707A1.815,1.815,0,0,0-11.375-7.422Zm6.508-1.031.039.938A3.122,3.122,0,0,1-2.32-8.609,2.417,2.417,0,0,1,.094-7.25a3.2,3.2,0,0,1,1.1-.984,3.242,3.242,0,0,1,1.6-.375q2.781,0,2.828,2.945V0H4.172V-5.578a1.941,1.941,0,0,0-.414-1.355,1.823,1.823,0,0,0-1.391-.449,1.916,1.916,0,0,0-1.336.48A1.949,1.949,0,0,0,.414-5.609V0H-1.039V-5.539a1.613,1.613,0,0,0-1.8-1.844A1.934,1.934,0,0,0-4.789-6.172V0H-6.234V-8.453ZM11.3.156a3.693,3.693,0,0,1-2.8-1.129A4.19,4.19,0,0,1,7.43-3.992v-.266A5.073,5.073,0,0,1,7.91-6.5,3.748,3.748,0,0,1,9.254-8.051a3.378,3.378,0,0,1,1.871-.559,3.166,3.166,0,0,1,2.563,1.086A4.7,4.7,0,0,1,14.6-4.414v.6H8.875a3,3,0,0,0,.73,2.02,2.3,2.3,0,0,0,1.777.77,2.517,2.517,0,0,0,1.3-.312,3.259,3.259,0,0,0,.93-.828l.883.688A3.55,3.55,0,0,1,11.3.156Zm-.18-7.578a1.928,1.928,0,0,0-1.469.637A3.1,3.1,0,0,0,8.922-5h4.234v-.109a2.753,2.753,0,0,0-.594-1.707A1.815,1.815,0,0,0,11.125-7.422Zm6.516-1.031.047,1.063a3.08,3.08,0,0,1,2.531-1.219q2.68,0,2.7,3.023V0H21.477V-5.594a1.946,1.946,0,0,0-.418-1.352,1.675,1.675,0,0,0-1.277-.437,2.086,2.086,0,0,0-1.234.375,2.546,2.546,0,0,0-.828.984V0H16.273V-8.453ZM27.063-10.5v2.047h1.578v1.117H27.063v5.249a1.173,1.173,0,0,0,.211.763.888.888,0,0,0,.719.254,3.5,3.5,0,0,0,.688-.094V0A4.215,4.215,0,0,1,27.57.156,1.8,1.8,0,0,1,26.109-.43a2.517,2.517,0,0,1-.492-1.664V-7.336H24.078V-8.453h1.539V-10.5ZM35.547,0a3.036,3.036,0,0,1-.2-.891A3.225,3.225,0,0,1,32.938.156a2.984,2.984,0,0,1-2.051-.707,2.287,2.287,0,0,1-.8-1.793,2.39,2.39,0,0,1,1-2.051,4.733,4.733,0,0,1,2.824-.73H35.32v-.664A1.623,1.623,0,0,0,34.867-7a1.821,1.821,0,0,0-1.336-.449,2.107,2.107,0,0,0-1.3.391,1.151,1.151,0,0,0-.523.945H30.258a2,2,0,0,1,.449-1.223,3.066,3.066,0,0,1,1.219-.934,4.1,4.1,0,0,1,1.691-.344,3.342,3.342,0,0,1,2.289.73,2.635,2.635,0,0,1,.859,2.012v3.891a4.757,4.757,0,0,0,.3,1.852V0Zm-2.4-1.1a2.54,2.54,0,0,0,1.289-.352,2.127,2.127,0,0,0,.883-.914V-4.1H34.188q-2.656,0-2.656,1.555a1.316,1.316,0,0,0,.453,1.063A1.742,1.742,0,0,0,33.148-1.1Zm9.273.078a2.082,2.082,0,0,0,1.352-.469,1.649,1.649,0,0,0,.641-1.172h1.367a2.621,2.621,0,0,1-.5,1.383,3.293,3.293,0,0,1-1.23,1.047,3.55,3.55,0,0,1-1.629.391A3.482,3.482,0,0,1,39.676-1a4.59,4.59,0,0,1-1.02-3.152v-.242a5.089,5.089,0,0,1,.453-2.2,3.451,3.451,0,0,1,1.3-1.492,3.7,3.7,0,0,1,2-.531,3.39,3.39,0,0,1,2.363.852,3.043,3.043,0,0,1,1,2.211H44.414a1.992,1.992,0,0,0-.621-1.348,1.932,1.932,0,0,0-1.379-.527,2.023,2.023,0,0,0-1.707.793A3.724,3.724,0,0,0,40.1-4.336v.273a3.65,3.65,0,0,0,.6,2.25A2.033,2.033,0,0,0,42.422-1.023ZM48.977,0H47.531V-8.453h1.445ZM47.414-10.7a.863.863,0,0,1,.215-.594.807.807,0,0,1,.637-.242.819.819,0,0,1,.641.242.854.854,0,0,1,.219.594.826.826,0,0,1-.219.586.834.834,0,0,1-.641.234.821.821,0,0,1-.637-.234A.834.834,0,0,1,47.414-10.7ZM50.906-4.3a4.993,4.993,0,0,1,.488-2.234A3.643,3.643,0,0,1,52.754-8.07a3.7,3.7,0,0,1,1.988-.539,3.565,3.565,0,0,1,2.793,1.2A4.6,4.6,0,0,1,58.6-4.234v.1a5.036,5.036,0,0,1-.473,2.215A3.589,3.589,0,0,1,56.777-.391a3.743,3.743,0,0,1-2.02.547,3.556,3.556,0,0,1-2.785-1.2A4.575,4.575,0,0,1,50.906-4.2Zm1.453.172a3.616,3.616,0,0,0,.652,2.258,2.088,2.088,0,0,0,1.746.852,2.075,2.075,0,0,0,1.75-.863A3.955,3.955,0,0,0,57.156-4.3a3.61,3.61,0,0,0-.66-2.254,2.1,2.1,0,0,0-1.754-.863,2.075,2.075,0,0,0-1.727.852A3.925,3.925,0,0,0,52.359-4.133ZM55.4-12h1.75L55.055-9.7l-1.164,0Zm6.383,3.547.047,1.063a3.08,3.08,0,0,1,2.531-1.219q2.68,0,2.7,3.023V0H65.617V-5.594A1.946,1.946,0,0,0,65.2-6.945a1.675,1.675,0,0,0-1.277-.437,2.086,2.086,0,0,0-1.234.375,2.546,2.546,0,0,0-.828.984V0H60.414V-8.453ZM-30.656,21.883l1.969-6.336h1.547l-3.4,9.758q-.789,2.109-2.508,2.109l-.273-.023-.539-.1V26.117l.391.031a1.923,1.923,0,0,0,1.145-.3,2.148,2.148,0,0,0,.676-1.086l.32-.859-3.016-8.359h1.578Zm10.125-6.336.039.938a3.122,3.122,0,0,1,2.508-1.094A2.417,2.417,0,0,1-15.57,16.75a3.2,3.2,0,0,1,1.1-.984,3.242,3.242,0,0,1,1.6-.375q2.781,0,2.828,2.945V24h-1.445V18.422a1.941,1.941,0,0,0-.414-1.355,1.823,1.823,0,0,0-1.391-.449,1.916,1.916,0,0,0-1.336.48,1.949,1.949,0,0,0-.617,1.293V24H-16.7V18.461a1.613,1.613,0,0,0-1.8-1.844,1.934,1.934,0,0,0-1.945,1.211V24H-21.9V15.547Zm16.172,8.609a3.693,3.693,0,0,1-2.8-1.129,4.19,4.19,0,0,1-1.078-3.02v-.266a5.073,5.073,0,0,1,.48-2.246A3.748,3.748,0,0,1-6.41,15.949a3.378,3.378,0,0,1,1.871-.559,3.166,3.166,0,0,1,2.563,1.086,4.7,4.7,0,0,1,.914,3.109v.6H-6.789a3,3,0,0,0,.73,2.02,2.3,2.3,0,0,0,1.777.77,2.517,2.517,0,0,0,1.3-.312,3.259,3.259,0,0,0,.93-.828l.883.688A3.55,3.55,0,0,1-4.359,24.156Zm-.18-7.578a1.928,1.928,0,0,0-1.469.637A3.1,3.1,0,0,0-6.742,19h4.234v-.109A2.753,2.753,0,0,0-3.1,17.184,1.815,1.815,0,0,0-4.539,16.578ZM2.1,15.547v9.43q0,2.438-2.211,2.438a2.7,2.7,0,0,1-.883-.14V26.125a2.794,2.794,0,0,0,.656.063A.982.982,0,0,0,.4,25.926a1.3,1.3,0,0,0,.254-.911V15.547ZM.508,13.3a.867.867,0,0,1,.215-.59.79.79,0,0,1,.629-.246.819.819,0,0,1,.641.242.854.854,0,0,1,.219.594.826.826,0,0,1-.219.586.834.834,0,0,1-.641.234.808.808,0,0,1-.633-.234A.843.843,0,0,1,.508,13.3ZM4.047,19.7a4.993,4.993,0,0,1,.488-2.234A3.643,3.643,0,0,1,5.895,15.93a3.7,3.7,0,0,1,1.988-.539,3.565,3.565,0,0,1,2.793,1.2,4.6,4.6,0,0,1,1.066,3.18v.1a5.036,5.036,0,0,1-.473,2.215,3.589,3.589,0,0,1-1.352,1.527,3.743,3.743,0,0,1-2.02.547,3.556,3.556,0,0,1-2.785-1.2A4.575,4.575,0,0,1,4.047,19.8Zm1.453.172a3.616,3.616,0,0,0,.652,2.258,2.088,2.088,0,0,0,1.746.852,2.075,2.075,0,0,0,1.75-.863A3.955,3.955,0,0,0,10.3,19.7a3.61,3.61,0,0,0-.66-2.254,2.1,2.1,0,0,0-1.754-.863,2.075,2.075,0,0,0-1.727.852A3.925,3.925,0,0,0,5.5,19.867Zm12.141-3.023a4.331,4.331,0,0,0-.711-.055A1.9,1.9,0,0,0,15,18v6H13.555V15.547h1.406l.023.977A2.251,2.251,0,0,1,17,15.391a1.477,1.477,0,0,1,.641.109ZM23.875,24a3.036,3.036,0,0,1-.2-.891,3.225,3.225,0,0,1-2.406,1.047,2.984,2.984,0,0,1-2.051-.707,2.287,2.287,0,0,1-.8-1.793,2.39,2.39,0,0,1,1-2.051,4.733,4.733,0,0,1,2.824-.73h1.406v-.664A1.623,1.623,0,0,0,23.2,17a1.821,1.821,0,0,0-1.336-.449,2.108,2.108,0,0,0-1.3.391,1.151,1.151,0,0,0-.523.945H18.586a2,2,0,0,1,.449-1.223,3.066,3.066,0,0,1,1.219-.934,4.1,4.1,0,0,1,1.691-.344,3.342,3.342,0,0,1,2.289.73,2.635,2.635,0,0,1,.859,2.012v3.891a4.757,4.757,0,0,0,.3,1.852V24Zm-2.4-1.1a2.54,2.54,0,0,0,1.289-.352,2.127,2.127,0,0,0,.883-.914V19.9H22.516q-2.656,0-2.656,1.555a1.316,1.316,0,0,0,.453,1.063A1.742,1.742,0,0,0,21.477,22.9Zm10.8-1.141a1.064,1.064,0,0,0-.441-.91,4.249,4.249,0,0,0-1.539-.559,7.277,7.277,0,0,1-1.742-.562,2.479,2.479,0,0,1-.953-.781,1.869,1.869,0,0,1-.309-1.078,2.193,2.193,0,0,1,.879-1.758,3.432,3.432,0,0,1,2.246-.719,3.532,3.532,0,0,1,2.332.742,2.357,2.357,0,0,1,.895,1.9H32.2a1.3,1.3,0,0,0-.5-1.023,1.888,1.888,0,0,0-1.27-.43,1.976,1.976,0,0,0-1.234.344,1.082,1.082,0,0,0-.445.9.877.877,0,0,0,.414.789,5.1,5.1,0,0,0,1.5.508,7.8,7.8,0,0,1,1.754.578,2.558,2.558,0,0,1,1,.809,1.988,1.988,0,0,1,.324,1.152,2.163,2.163,0,0,1-.906,1.816,3.8,3.8,0,0,1-2.352.684,4.257,4.257,0,0,1-1.8-.359,2.922,2.922,0,0,1-1.223-1,2.42,2.42,0,0,1-.441-1.395h1.445a1.5,1.5,0,0,0,.582,1.152,2.258,2.258,0,0,0,1.434.426,2.331,2.331,0,0,0,1.316-.332A1.02,1.02,0,0,0,32.281,21.758Z" transform="translate(747.787 1420.941)" fill="#fff"/>
    <path id="Trazado_196425" data-name="Trazado 196425" d="M-64.277-5.7l.578-5.672h5.828v1.336h-4.6l-.344,3.1a3.671,3.671,0,0,1,1.9-.492A3.138,3.138,0,0,1-58.449-6.4a4.026,4.026,0,0,1,.914,2.777,3.886,3.886,0,0,1-.949,2.77A3.46,3.46,0,0,1-61.137.156,3.6,3.6,0,0,1-63.6-.68a3.337,3.337,0,0,1-1.086-2.312h1.367a2.3,2.3,0,0,0,.7,1.473,2.162,2.162,0,0,0,1.484.5,1.95,1.95,0,0,0,1.582-.687,2.874,2.874,0,0,0,.574-1.9A2.638,2.638,0,0,0-59.6-5.441a2.113,2.113,0,0,0-1.652-.691,2.383,2.383,0,0,0-1.484.414l-.383.313Zm8.5,4.945a.905.905,0,0,1,.223-.625.848.848,0,0,1,.668-.25.874.874,0,0,1,.676.25.887.887,0,0,1,.23.625.839.839,0,0,1-.23.6.89.89,0,0,1-.676.242.863.863,0,0,1-.668-.242A.855.855,0,0,1-55.777-.758ZM-34.7-5.32A7.037,7.037,0,0,1-35.262-2.4,4.261,4.261,0,0,1-36.855-.5a4.385,4.385,0,0,1-2.406.656A4.347,4.347,0,0,1-41.645-.5a4.363,4.363,0,0,1-1.613-1.883,6.752,6.752,0,0,1-.59-2.832v-.82a6.953,6.953,0,0,1,.57-2.9,4.347,4.347,0,0,1,1.613-1.926,4.329,4.329,0,0,1,2.387-.668,4.41,4.41,0,0,1,2.41.66,4.253,4.253,0,0,1,1.605,1.914A7.071,7.071,0,0,1-34.7-6.039Zm-1.492-.734A5.1,5.1,0,0,0-37-9.16a2.68,2.68,0,0,0-2.273-1.082A2.651,2.651,0,0,0-41.516-9.16a5,5,0,0,0-.84,3v.836a5.107,5.107,0,0,0,.824,3.082,2.662,2.662,0,0,0,2.27,1.121,2.652,2.652,0,0,0,2.25-1.059,5.079,5.079,0,0,0,.82-3.035Zm10.656,1.922a5.062,5.062,0,0,1-.883,3.109A2.829,2.829,0,0,1-28.809.156,3.1,3.1,0,0,1-31.23-.82V3.25h-1.445v-11.7h1.32l.07.938a2.977,2.977,0,0,1,2.453-1.094,2.882,2.882,0,0,1,2.41,1.148,5.117,5.117,0,0,1,.887,3.2ZM-26.98-4.3a3.735,3.735,0,0,0-.609-2.258,1.963,1.963,0,0,0-1.672-.828A2.125,2.125,0,0,0-31.23-6.219V-2.18a2.129,2.129,0,0,0,1.984,1.156,1.954,1.954,0,0,0,1.652-.824A4.077,4.077,0,0,0-26.98-4.3ZM-20.191.156a3.693,3.693,0,0,1-2.8-1.129,4.19,4.19,0,0,1-1.078-3.02v-.266a5.073,5.073,0,0,1,.48-2.246,3.748,3.748,0,0,1,1.344-1.547,3.378,3.378,0,0,1,1.871-.559,3.166,3.166,0,0,1,2.563,1.086,4.7,4.7,0,0,1,.914,3.109v.6h-5.727a3,3,0,0,0,.73,2.02,2.3,2.3,0,0,0,1.777.77,2.517,2.517,0,0,0,1.3-.312,3.259,3.259,0,0,0,.93-.828l.883.688A3.55,3.55,0,0,1-20.191.156Zm-.18-7.578a1.928,1.928,0,0,0-1.469.637A3.1,3.1,0,0,0-22.574-5h4.234v-.109a2.753,2.753,0,0,0-.594-1.707A1.815,1.815,0,0,0-20.371-7.422Zm9.234.266a4.331,4.331,0,0,0-.711-.055A1.9,1.9,0,0,0-13.777-6V0h-1.445V-8.453h1.406l.023.977a2.251,2.251,0,0,1,2.016-1.133,1.477,1.477,0,0,1,.641.109ZM-4.9,0a3.036,3.036,0,0,1-.2-.891A3.225,3.225,0,0,1-7.512.156,2.984,2.984,0,0,1-9.562-.551a2.287,2.287,0,0,1-.8-1.793,2.39,2.39,0,0,1,1-2.051,4.733,4.733,0,0,1,2.824-.73h1.406v-.664A1.623,1.623,0,0,0-5.582-7a1.821,1.821,0,0,0-1.336-.449,2.107,2.107,0,0,0-1.3.391,1.151,1.151,0,0,0-.523.945h-1.453a2,2,0,0,1,.449-1.223,3.066,3.066,0,0,1,1.219-.934,4.1,4.1,0,0,1,1.691-.344,3.342,3.342,0,0,1,2.289.73,2.635,2.635,0,0,1,.859,2.012v3.891a4.757,4.757,0,0,0,.3,1.852V0ZM-7.3-1.1a2.54,2.54,0,0,0,1.289-.352,2.127,2.127,0,0,0,.883-.914V-4.1H-6.262q-2.656,0-2.656,1.555a1.316,1.316,0,0,0,.453,1.063A1.742,1.742,0,0,0-7.3-1.1Zm9.273.078a2.082,2.082,0,0,0,1.352-.469,1.649,1.649,0,0,0,.641-1.172H5.332a2.621,2.621,0,0,1-.5,1.383A3.293,3.293,0,0,1,3.6-.234,3.55,3.55,0,0,1,1.973.156,3.482,3.482,0,0,1-.773-1a4.59,4.59,0,0,1-1.02-3.152v-.242a5.089,5.089,0,0,1,.453-2.2,3.451,3.451,0,0,1,1.3-1.492,3.7,3.7,0,0,1,2-.531,3.39,3.39,0,0,1,2.363.852,3.043,3.043,0,0,1,1,2.211H3.965a1.992,1.992,0,0,0-.621-1.348,1.932,1.932,0,0,0-1.379-.527,2.023,2.023,0,0,0-1.707.793A3.724,3.724,0,0,0-.348-4.336v.273a3.65,3.65,0,0,0,.6,2.25A2.033,2.033,0,0,0,1.973-1.023ZM8.527,0H7.082V-8.453H8.527ZM6.965-10.7a.863.863,0,0,1,.215-.594.807.807,0,0,1,.637-.242.819.819,0,0,1,.641.242.854.854,0,0,1,.219.594.826.826,0,0,1-.219.586.834.834,0,0,1-.641.234.821.821,0,0,1-.637-.234A.834.834,0,0,1,6.965-10.7ZM10.457-4.3a4.993,4.993,0,0,1,.488-2.234A3.643,3.643,0,0,1,12.3-8.07a3.7,3.7,0,0,1,1.988-.539,3.565,3.565,0,0,1,2.793,1.2,4.6,4.6,0,0,1,1.066,3.18v.1a5.036,5.036,0,0,1-.473,2.215A3.589,3.589,0,0,1,16.328-.391a3.743,3.743,0,0,1-2.02.547,3.556,3.556,0,0,1-2.785-1.2A4.575,4.575,0,0,1,10.457-4.2Zm1.453.172a3.616,3.616,0,0,0,.652,2.258,2.088,2.088,0,0,0,1.746.852,2.075,2.075,0,0,0,1.75-.863A3.955,3.955,0,0,0,16.707-4.3a3.61,3.61,0,0,0-.66-2.254,2.1,2.1,0,0,0-1.754-.863,2.075,2.075,0,0,0-1.727.852A3.925,3.925,0,0,0,11.91-4.133Zm9.422-4.32.047,1.063A3.08,3.08,0,0,1,23.91-8.609q2.68,0,2.7,3.023V0H25.168V-5.594a1.946,1.946,0,0,0-.418-1.352,1.675,1.675,0,0,0-1.277-.437,2.086,2.086,0,0,0-1.234.375,2.546,2.546,0,0,0-.828.984V0H19.965V-8.453ZM32.3.156A3.693,3.693,0,0,1,29.5-.973a4.19,4.19,0,0,1-1.078-3.02v-.266a5.073,5.073,0,0,1,.48-2.246A3.748,3.748,0,0,1,30.25-8.051a3.378,3.378,0,0,1,1.871-.559,3.166,3.166,0,0,1,2.563,1.086A4.7,4.7,0,0,1,35.6-4.414v.6H29.871a3,3,0,0,0,.73,2.02,2.3,2.3,0,0,0,1.777.77,2.517,2.517,0,0,0,1.3-.312,3.259,3.259,0,0,0,.93-.828l.883.688A3.55,3.55,0,0,1,32.3.156Zm-.18-7.578a1.928,1.928,0,0,0-1.469.637A3.1,3.1,0,0,0,29.918-5h4.234v-.109a2.753,2.753,0,0,0-.594-1.707A1.815,1.815,0,0,0,32.121-7.422Zm10.07,5.18a1.064,1.064,0,0,0-.441-.91,4.249,4.249,0,0,0-1.539-.559,7.277,7.277,0,0,1-1.742-.562,2.479,2.479,0,0,1-.953-.781,1.869,1.869,0,0,1-.309-1.078,2.193,2.193,0,0,1,.879-1.758,3.432,3.432,0,0,1,2.246-.719,3.532,3.532,0,0,1,2.332.742,2.357,2.357,0,0,1,.895,1.9H42.105a1.3,1.3,0,0,0-.5-1.023,1.888,1.888,0,0,0-1.27-.43,1.976,1.976,0,0,0-1.234.344,1.082,1.082,0,0,0-.445.9.877.877,0,0,0,.414.789,5.1,5.1,0,0,0,1.5.508,7.8,7.8,0,0,1,1.754.578,2.558,2.558,0,0,1,1,.809,1.988,1.988,0,0,1,.324,1.152A2.163,2.163,0,0,1,42.73-.527a3.8,3.8,0,0,1-2.352.684,4.257,4.257,0,0,1-1.8-.359,2.922,2.922,0,0,1-1.223-1A2.42,2.42,0,0,1,36.918-2.6h1.445a1.5,1.5,0,0,0,.582,1.152,2.258,2.258,0,0,0,1.434.426A2.331,2.331,0,0,0,41.7-1.355,1.02,1.02,0,0,0,42.191-2.242ZM49.129-4.3a4.952,4.952,0,0,1,.922-3.129,2.915,2.915,0,0,1,2.414-1.184,2.932,2.932,0,0,1,2.352,1.016V-12h1.445V0H54.934l-.07-.906A2.943,2.943,0,0,1,52.449.156a2.887,2.887,0,0,1-2.395-1.2,5.008,5.008,0,0,1-.926-3.141Zm1.445.164a3.749,3.749,0,0,0,.594,2.25,1.92,1.92,0,0,0,1.641.813A2.108,2.108,0,0,0,54.816-2.3V-6.187a2.125,2.125,0,0,0-1.992-1.2,1.929,1.929,0,0,0-1.656.82A4.128,4.128,0,0,0,50.574-4.133ZM62.012.156a3.693,3.693,0,0,1-2.8-1.129,4.19,4.19,0,0,1-1.078-3.02v-.266a5.073,5.073,0,0,1,.48-2.246,3.748,3.748,0,0,1,1.344-1.547,3.378,3.378,0,0,1,1.871-.559,3.166,3.166,0,0,1,2.563,1.086,4.7,4.7,0,0,1,.914,3.109v.6H59.582a3,3,0,0,0,.73,2.02,2.3,2.3,0,0,0,1.777.77,2.517,2.517,0,0,0,1.3-.312,3.259,3.259,0,0,0,.93-.828l.883.688A3.55,3.55,0,0,1,62.012.156Zm-.18-7.578a1.928,1.928,0,0,0-1.469.637A3.1,3.1,0,0,0,59.629-5h4.234v-.109a2.753,2.753,0,0,0-.594-1.707A1.815,1.815,0,0,0,61.832-7.422Zm-115.406,30.4a2.082,2.082,0,0,0,1.352-.469,1.649,1.649,0,0,0,.641-1.172h1.367a2.621,2.621,0,0,1-.5,1.383,3.293,3.293,0,0,1-1.23,1.047,3.55,3.55,0,0,1-1.629.391A3.482,3.482,0,0,1-56.32,23a4.59,4.59,0,0,1-1.02-3.152v-.242a5.089,5.089,0,0,1,.453-2.2,3.451,3.451,0,0,1,1.3-1.492,3.7,3.7,0,0,1,2-.531,3.39,3.39,0,0,1,2.363.852,3.043,3.043,0,0,1,1,2.211h-1.367a1.992,1.992,0,0,0-.621-1.348,1.932,1.932,0,0,0-1.379-.527,2.023,2.023,0,0,0-1.707.793,3.724,3.724,0,0,0-.605,2.293v.273a3.65,3.65,0,0,0,.6,2.25A2.033,2.033,0,0,0-53.574,22.977ZM-47.02,24h-1.445V15.547h1.445Zm-1.562-10.7a.863.863,0,0,1,.215-.594.807.807,0,0,1,.637-.242.819.819,0,0,1,.641.242.854.854,0,0,1,.219.594.826.826,0,0,1-.219.586.834.834,0,0,1-.641.234.821.821,0,0,1-.637-.234A.834.834,0,0,1-48.582,13.3ZM-41.2,24.156A3.693,3.693,0,0,1-44,23.027a4.19,4.19,0,0,1-1.078-3.02v-.266a5.073,5.073,0,0,1,.48-2.246,3.748,3.748,0,0,1,1.344-1.547,3.378,3.378,0,0,1,1.871-.559,3.166,3.166,0,0,1,2.563,1.086,4.7,4.7,0,0,1,.914,3.109v.6h-5.727a3,3,0,0,0,.73,2.02,2.3,2.3,0,0,0,1.777.77,2.517,2.517,0,0,0,1.3-.312,3.259,3.259,0,0,0,.93-.828l.883.688A3.55,3.55,0,0,1-41.2,24.156Zm-.18-7.578a1.928,1.928,0,0,0-1.469.637A3.1,3.1,0,0,0-43.582,19h4.234v-.109a2.753,2.753,0,0,0-.594-1.707A1.815,1.815,0,0,0-41.379,16.578Zm6.516-1.031.047,1.063a3.08,3.08,0,0,1,2.531-1.219q2.68,0,2.7,3.023V24h-1.445V18.406a1.946,1.946,0,0,0-.418-1.352,1.675,1.675,0,0,0-1.277-.437,2.086,2.086,0,0,0-1.234.375,2.546,2.546,0,0,0-.828.984V24H-36.23V15.547Zm10.852,7.43a2.082,2.082,0,0,0,1.352-.469,1.649,1.649,0,0,0,.641-1.172h1.367a2.621,2.621,0,0,1-.5,1.383,3.293,3.293,0,0,1-1.23,1.047,3.55,3.55,0,0,1-1.629.391A3.482,3.482,0,0,1-26.758,23a4.59,4.59,0,0,1-1.02-3.152v-.242a5.089,5.089,0,0,1,.453-2.2,3.451,3.451,0,0,1,1.3-1.492,3.7,3.7,0,0,1,2-.531,3.39,3.39,0,0,1,2.363.852,3.043,3.043,0,0,1,1,2.211H-22.02a1.992,1.992,0,0,0-.621-1.348,1.932,1.932,0,0,0-1.379-.527,2.023,2.023,0,0,0-1.707.793,3.724,3.724,0,0,0-.605,2.293v.273a3.65,3.65,0,0,0,.6,2.25A2.033,2.033,0,0,0-24.012,22.977ZM-17.457,24H-18.9V15.547h1.445ZM-19.02,13.3a.863.863,0,0,1,.215-.594.807.807,0,0,1,.637-.242.819.819,0,0,1,.641.242.854.854,0,0,1,.219.594.826.826,0,0,1-.219.586.834.834,0,0,1-.641.234.821.821,0,0,1-.637-.234A.834.834,0,0,1-19.02,13.3ZM-9.926,24a3.036,3.036,0,0,1-.2-.891,3.225,3.225,0,0,1-2.406,1.047,2.984,2.984,0,0,1-2.051-.707,2.287,2.287,0,0,1-.8-1.793,2.39,2.39,0,0,1,1-2.051,4.733,4.733,0,0,1,2.824-.73h1.406v-.664A1.623,1.623,0,0,0-10.605,17a1.821,1.821,0,0,0-1.336-.449,2.108,2.108,0,0,0-1.3.391,1.151,1.151,0,0,0-.523.945h-1.453a2,2,0,0,1,.449-1.223,3.066,3.066,0,0,1,1.219-.934,4.1,4.1,0,0,1,1.691-.344,3.342,3.342,0,0,1,2.289.73,2.635,2.635,0,0,1,.859,2.012v3.891a4.757,4.757,0,0,0,.3,1.852V24Zm-2.4-1.1a2.54,2.54,0,0,0,1.289-.352,2.127,2.127,0,0,0,.883-.914V19.9h-1.133q-2.656,0-2.656,1.555a1.316,1.316,0,0,0,.453,1.063A1.742,1.742,0,0,0-12.324,22.9Zm9.492-3.2a4.952,4.952,0,0,1,.922-3.129A2.915,2.915,0,0,1,.5,15.391a2.932,2.932,0,0,1,2.352,1.016V12H4.3V24H2.973l-.07-.906A2.943,2.943,0,0,1,.488,24.156a2.887,2.887,0,0,1-2.395-1.2,5.008,5.008,0,0,1-.926-3.141Zm1.445.164a3.749,3.749,0,0,0,.594,2.25,1.92,1.92,0,0,0,1.641.813A2.108,2.108,0,0,0,2.855,21.7V17.813a2.125,2.125,0,0,0-1.992-1.2,1.929,1.929,0,0,0-1.656.82A4.128,4.128,0,0,0-1.387,19.867Zm11.438,4.289a3.693,3.693,0,0,1-2.8-1.129,4.19,4.19,0,0,1-1.078-3.02v-.266a5.073,5.073,0,0,1,.48-2.246A3.748,3.748,0,0,1,8,15.949a3.378,3.378,0,0,1,1.871-.559,3.166,3.166,0,0,1,2.563,1.086,4.7,4.7,0,0,1,.914,3.109v.6H7.621a3,3,0,0,0,.73,2.02,2.3,2.3,0,0,0,1.777.77,2.517,2.517,0,0,0,1.3-.312,3.259,3.259,0,0,0,.93-.828l.883.688A3.55,3.55,0,0,1,10.051,24.156Zm-.18-7.578a1.928,1.928,0,0,0-1.469.637A3.1,3.1,0,0,0,7.668,19H11.9v-.109a2.753,2.753,0,0,0-.594-1.707A1.815,1.815,0,0,0,9.871,16.578ZM18.629,19.7a4.952,4.952,0,0,1,.922-3.129,3.137,3.137,0,0,1,4.766-.168V12h1.445V24H24.434l-.07-.906a2.943,2.943,0,0,1-2.414,1.063,2.887,2.887,0,0,1-2.395-1.2,5.008,5.008,0,0,1-.926-3.141Zm1.445.164a3.749,3.749,0,0,0,.594,2.25,1.92,1.92,0,0,0,1.641.813A2.108,2.108,0,0,0,24.316,21.7V17.813a2.125,2.125,0,0,0-1.992-1.2,1.929,1.929,0,0,0-1.656.82A4.128,4.128,0,0,0,20.074,19.867ZM33.223,24a3.036,3.036,0,0,1-.2-.891,3.225,3.225,0,0,1-2.406,1.047,2.984,2.984,0,0,1-2.051-.707,2.287,2.287,0,0,1-.8-1.793,2.39,2.39,0,0,1,1-2.051,4.733,4.733,0,0,1,2.824-.73H33v-.664A1.623,1.623,0,0,0,32.543,17a1.821,1.821,0,0,0-1.336-.449,2.108,2.108,0,0,0-1.3.391,1.151,1.151,0,0,0-.523.945H27.934a2,2,0,0,1,.449-1.223,3.066,3.066,0,0,1,1.219-.934,4.1,4.1,0,0,1,1.691-.344,3.342,3.342,0,0,1,2.289.73,2.635,2.635,0,0,1,.859,2.012v3.891a4.757,4.757,0,0,0,.3,1.852V24Zm-2.4-1.1a2.54,2.54,0,0,0,1.289-.352A2.127,2.127,0,0,0,33,21.633V19.9H31.863q-2.656,0-2.656,1.555a1.316,1.316,0,0,0,.453,1.063A1.742,1.742,0,0,0,30.824,22.9Zm7.844-9.4v2.047h1.578v1.117H38.668v5.249a1.173,1.173,0,0,0,.211.763.888.888,0,0,0,.719.254,3.5,3.5,0,0,0,.688-.094V24a4.215,4.215,0,0,1-1.109.155,1.8,1.8,0,0,1-1.461-.586,2.517,2.517,0,0,1-.492-1.664V16.664H35.684V15.547h1.539V13.5Zm2.727,6.2a4.993,4.993,0,0,1,.488-2.234,3.643,3.643,0,0,1,1.359-1.531,3.7,3.7,0,0,1,1.988-.539,3.565,3.565,0,0,1,2.793,1.2,4.6,4.6,0,0,1,1.066,3.18v.1a5.036,5.036,0,0,1-.473,2.215,3.589,3.589,0,0,1-1.352,1.527,3.743,3.743,0,0,1-2.02.547,3.556,3.556,0,0,1-2.785-1.2A4.575,4.575,0,0,1,41.395,19.8Zm1.453.172a3.616,3.616,0,0,0,.652,2.258,2.211,2.211,0,0,0,3.5-.012,3.955,3.955,0,0,0,.648-2.418,3.61,3.61,0,0,0-.66-2.254,2.1,2.1,0,0,0-1.754-.863,2.075,2.075,0,0,0-1.727.852A3.925,3.925,0,0,0,42.848,19.867Zm12.977,1.891a1.064,1.064,0,0,0-.441-.91,4.249,4.249,0,0,0-1.539-.559,7.277,7.277,0,0,1-1.742-.562,2.479,2.479,0,0,1-.953-.781,1.869,1.869,0,0,1-.309-1.078,2.193,2.193,0,0,1,.879-1.758,3.432,3.432,0,0,1,2.246-.719,3.532,3.532,0,0,1,2.332.742,2.357,2.357,0,0,1,.895,1.9H55.738a1.3,1.3,0,0,0-.5-1.023,1.888,1.888,0,0,0-1.27-.43,1.976,1.976,0,0,0-1.234.344,1.082,1.082,0,0,0-.445.9.877.877,0,0,0,.414.789,5.1,5.1,0,0,0,1.5.508,7.8,7.8,0,0,1,1.754.578,2.558,2.558,0,0,1,1,.809,1.988,1.988,0,0,1,.324,1.152,2.163,2.163,0,0,1-.906,1.816,3.8,3.8,0,0,1-2.352.684,4.257,4.257,0,0,1-1.8-.359,2.922,2.922,0,0,1-1.223-1,2.42,2.42,0,0,1-.441-1.395H52a1.5,1.5,0,0,0,.582,1.152,2.258,2.258,0,0,0,1.434.426,2.331,2.331,0,0,0,1.316-.332A1.02,1.02,0,0,0,55.824,21.758Z" transform="translate(747.787 1517.941)" fill="#fff"/>
  </g>
</svg>
