<svg xmlns="http://www.w3.org/2000/svg" width="74.376" height="74.376" viewBox="0 0 74.376 74.376">
  <g id="Grupo_131923" data-name="Grupo 131923" transform="translate(-899 -4689.304)">
    <g id="personal" transform="translate(785 4485.304)">
      <path id="Trazado_194805" data-name="Trazado 194805" d="M114,266.312V204h35.59c-1.162.232-2.343.368-3.466.678a19.586,19.586,0,0,0,.445,37.953c1.1.252,2.246.407,3.447.639a8.731,8.731,0,1,0,9.7,10.379,8.631,8.631,0,0,0-1.452-6.758,8.913,8.913,0,0,0-5.828-3.64c.523-.116,1.026-.155,1.51-.232a19.442,19.442,0,0,0,16.672-21.494c-.929-8.171-5.557-13.671-13.264-16.5a32.569,32.569,0,0,0-4.57-1.026h35.59v62.312a.905.905,0,0,1-.1-.194c-.968-3.718-3.234-5.461-7.048-5.461h-6.952a8.809,8.809,0,0,0,7.358-9.624,8.7,8.7,0,0,0-17.311.058,8.877,8.877,0,0,0,7.358,9.6h-3.118c1.936,2.517,2.324,5.306,2.246,8.249-.077,3.137-.019,6.293-.019,9.43h-4.357c0-3.757.019-7.494-.019-11.25a6.244,6.244,0,0,0-5.4-6.313,72.114,72.114,0,0,0-7.668-.058v12.9h-4.4V260.639h-6.177a6.531,6.531,0,0,0-6.855,6.835v10.882h-4.357c0-3.524.039-7.068-.019-10.592a11.218,11.218,0,0,1,2.033-6.816,1.31,1.31,0,0,0,.116-.31h-3.021a8.851,8.851,0,0,0,7.378-9.566A8.711,8.711,0,0,0,120.719,251c-.465,3.582,1.588,8.384,7.358,9.6-.271.019-.523.019-.794.019-2.3,0-4.589-.058-6.893.019a6.353,6.353,0,0,0-5.925,4.066C114.271,265.228,114.155,265.77,114,266.312Z" fill="none"/>
      <path id="Trazado_194806" data-name="Trazado 194806" d="M226.066,204a35.552,35.552,0,0,1,4.57,1.026c7.707,2.827,12.335,8.307,13.264,16.5,1.2,10.631-6.08,19.809-16.672,21.494-.5.077-1.007.116-1.51.232a8.913,8.913,0,0,1,5.828,3.64A8.554,8.554,0,0,1,233,253.648a8.715,8.715,0,1,1-9.7-10.379c-1.22-.213-2.343-.387-3.447-.639a19.586,19.586,0,0,1-.445-37.953c1.142-.31,2.324-.465,3.466-.678Zm-3.815,20.932c-1.491-1.51-2.9-2.924-4.241-4.279l-2.924,2.924,7.261,7.261,11.579-11.579-3-3Z" transform="translate(-73.3)" fill="#30610c"/>
      <path id="Trazado_194807" data-name="Trazado 194807" d="M114,429.68a15.015,15.015,0,0,1,.484-1.588,6.353,6.353,0,0,1,5.925-4.066c2.3-.077,4.589-.019,6.893-.019.271,0,.523,0,.794-.019-5.77-1.239-7.823-6.041-7.358-9.6a8.711,8.711,0,0,1,17.331.077,8.818,8.818,0,0,1-7.378,9.566h3.021c-.058.136-.077.232-.116.31a11.387,11.387,0,0,0-2.033,6.816c.039,3.524.019,7.068.019,10.592H114Z" transform="translate(0 -163.368)" fill="#30610c"/>
      <path id="Trazado_194808" data-name="Trazado 194808" d="M380.054,441.644c0-3.137-.058-6.293.019-9.43.078-2.943-.31-5.732-2.246-8.249h3.118a8.86,8.86,0,0,1-7.358-9.6A8.7,8.7,0,0,1,390.9,414.3a8.809,8.809,0,0,1-7.358,9.624h6.952c3.815,0,6.08,1.762,7.048,5.461a.606.606,0,0,0,.1.194v12.044Q388.864,441.653,380.054,441.644Z" transform="translate(-209.279 -163.287)" fill="#30610c"/>
      <path id="Trazado_194809" data-name="Trazado 194809" d="M227.2,514.218V503.335a6.541,6.541,0,0,1,6.855-6.835h6.177v13.012h4.4v-12.9a72.164,72.164,0,0,1,7.668.058,6.23,6.23,0,0,1,5.4,6.313c.039,3.757,0,7.494.019,11.25C247.532,514.218,237.385,514.218,227.2,514.218Z" transform="translate(-91.28 -235.861)" fill="#30610c"/>
    </g>
  </g>
</svg>
