<svg xmlns="http://www.w3.org/2000/svg" width="72" height="72" viewBox="0 0 72 72">
  <g id="Grupo_131918" data-name="Grupo 131918" transform="translate(8362.533 6833.5)">
    <g id="transformando" transform="translate(-8363.033 -6834)">
      <path id="Trazado_194755" data-name="Trazado 194755" d="M22.406,61H20.345a1.145,1.145,0,1,0,0,2.29h2.061a1.145,1.145,0,1,0,0-2.29Z" transform="translate(2.642 8.71)" fill="#30610c" stroke="#30610c" stroke-width="1"/>
      <path id="Trazado_194756" data-name="Trazado 194756" d="M19.29,43.016V36.145a1.145,1.145,0,1,0-2.29,0v6.871a1.145,1.145,0,0,0,2.29,0Z" transform="translate(2.323 4.935)" fill="#30610c" stroke="#30610c" stroke-width="1"/>
      <path id="Trazado_194757" data-name="Trazado 194757" d="M27.871,38.435a3.435,3.435,0,1,0-6.871,0v2.29a3.435,3.435,0,1,0,6.871,0Zm-2.29,2.29a1.145,1.145,0,0,1-2.29,0v-2.29a1.145,1.145,0,0,1,2.29,0Z" transform="translate(2.903 4.935)" fill="#30610c" stroke="#30610c" stroke-width="1"/>
      <path id="Trazado_194758" data-name="Trazado 194758" d="M47.871,38.435a3.435,3.435,0,1,0-6.871,0v2.29a3.435,3.435,0,1,0,6.871,0Zm-2.29,2.29a1.145,1.145,0,0,1-2.29,0v-2.29a1.145,1.145,0,0,1,2.29,0Z" transform="translate(5.806 4.935)" fill="#30610c" stroke="#30610c" stroke-width="1"/>
      <path id="Trazado_194759" data-name="Trazado 194759" d="M31.29,43.016V36.145a1.145,1.145,0,1,0-2.29,0v6.871a1.145,1.145,0,1,0,2.29,0Z" transform="translate(4.065 4.935)" fill="#30610c" stroke="#30610c" stroke-width="1"/>
      <path id="Trazado_194760" data-name="Trazado 194760" d="M35.29,36.145a1.145,1.145,0,1,0-2.29,0v6.871a1.145,1.145,0,0,0,2.29,0Z" transform="translate(4.645 4.935)" fill="#30610c" stroke="#30610c" stroke-width="1"/>
      <path id="Trazado_194761" data-name="Trazado 194761" d="M39.29,43.016V36.145a1.145,1.145,0,1,0-2.29,0v6.871a1.145,1.145,0,0,0,2.29,0Z" transform="translate(5.226 4.935)" fill="#30610c" stroke="#30610c" stroke-width="1"/>
      <path id="Trazado_194762" data-name="Trazado 194762" d="M45,46.145v6.871a1.145,1.145,0,0,0,2.29,0V46.145a1.145,1.145,0,0,0-2.29,0Z" transform="translate(6.387 6.387)" fill="#30610c" stroke="#30610c" stroke-width="1"/>
      <path id="Trazado_194763" data-name="Trazado 194763" d="M37,50.726a3.435,3.435,0,0,0,6.871,0v-2.29a3.435,3.435,0,1,0-6.871,0Zm2.29-2.29a1.145,1.145,0,1,1,2.29,0v2.29a1.145,1.145,0,0,1-2.29,0Z" transform="translate(5.226 6.387)" fill="#30610c" stroke="#30610c" stroke-width="1"/>
      <path id="Trazado_194764" data-name="Trazado 194764" d="M17,50.726a3.435,3.435,0,0,0,6.871,0v-2.29a3.435,3.435,0,1,0-6.871,0Zm2.29-2.29a1.145,1.145,0,1,1,2.29,0v2.29a1.145,1.145,0,0,1-2.29,0Z" transform="translate(2.323 6.387)" fill="#30610c" stroke="#30610c" stroke-width="1"/>
      <path id="Trazado_194765" data-name="Trazado 194765" d="M29,50.726a3.435,3.435,0,0,0,6.871,0v-2.29a3.435,3.435,0,1,0-6.871,0Zm2.29-2.29a1.145,1.145,0,1,1,2.29,0v2.29a1.145,1.145,0,1,1-2.29,0Z" transform="translate(4.065 6.387)" fill="#30610c" stroke="#30610c" stroke-width="1"/>
      <path id="Trazado_194766" data-name="Trazado 194766" d="M25,46.145v6.871a1.145,1.145,0,0,0,2.29,0V46.145a1.145,1.145,0,1,0-2.29,0Z" transform="translate(3.484 6.387)" fill="#30610c" stroke="#30610c" stroke-width="1"/>
      <path id="Trazado_194767" data-name="Trazado 194767" d="M6.145,7.29h9.161a1.082,1.082,0,0,0,1.145-1.145A1.082,1.082,0,0,0,15.306,5H6.145A1.082,1.082,0,0,0,5,6.145,1.082,1.082,0,0,0,6.145,7.29Z" transform="translate(0.581 0.581)" fill="#30610c" stroke="#30610c" stroke-width="1"/>
      <path id="Trazado_194768" data-name="Trazado 194768" d="M6.145,11.29h9.161a1.082,1.082,0,0,0,1.145-1.145A1.082,1.082,0,0,0,15.306,9H6.145A1.082,1.082,0,0,0,5,10.145,1.082,1.082,0,0,0,6.145,11.29Z" transform="translate(0.581 1.161)" fill="#30610c" stroke="#30610c" stroke-width="1"/>
      <path id="Trazado_194769" data-name="Trazado 194769" d="M6.145,15.29h9.161a1.145,1.145,0,1,0,0-2.29H6.145a1.145,1.145,0,1,0,0,2.29Z" transform="translate(0.581 1.742)" fill="#30610c" stroke="#30610c" stroke-width="1"/>
      <path id="Trazado_194770" data-name="Trazado 194770" d="M6.145,19.29h9.161a1.145,1.145,0,1,0,0-2.29H6.145a1.145,1.145,0,1,0,0,2.29Z" transform="translate(0.581 2.323)" fill="#30610c" stroke="#30610c" stroke-width="1"/>
      <path id="Trazado_194771" data-name="Trazado 194771" d="M28.145,7.29h9.161a1.082,1.082,0,0,0,1.145-1.145A1.082,1.082,0,0,0,37.306,5H28.145A1.082,1.082,0,0,0,27,6.145,1.082,1.082,0,0,0,28.145,7.29Z" transform="translate(3.774 0.581)" fill="#30610c" stroke="#30610c" stroke-width="1"/>
      <path id="Trazado_194772" data-name="Trazado 194772" d="M28.145,11.29h9.161a1.082,1.082,0,0,0,1.145-1.145A1.082,1.082,0,0,0,37.306,9H28.145A1.082,1.082,0,0,0,27,10.145,1.082,1.082,0,0,0,28.145,11.29Z" transform="translate(3.774 1.161)" fill="#30610c" stroke="#30610c" stroke-width="1"/>
      <path id="Trazado_194773" data-name="Trazado 194773" d="M28.145,15.29h9.161a1.145,1.145,0,0,0,0-2.29H28.145a1.145,1.145,0,0,0,0,2.29Z" transform="translate(3.774 1.742)" fill="#30610c" stroke="#30610c" stroke-width="1"/>
      <path id="Trazado_194774" data-name="Trazado 194774" d="M28.145,19.29h9.161a1.145,1.145,0,0,0,0-2.29H28.145a1.145,1.145,0,0,0,0,2.29Z" transform="translate(3.774 2.323)" fill="#30610c" stroke="#30610c" stroke-width="1"/>
      <path id="Trazado_194775" data-name="Trazado 194775" d="M70.855,5.7A1.082,1.082,0,0,0,72,4.55v-2.4A1.082,1.082,0,0,0,70.855,1H52.532a1.082,1.082,0,0,0-1.145,1.145v22.9a1.082,1.082,0,0,0,1.145,1.145h8.016v3.435h-22.9V26.194h8.016a1.082,1.082,0,0,0,1.145-1.145V2.145A1.082,1.082,0,0,0,45.661,1H27.339a1.082,1.082,0,0,0-1.145,1.145v22.9a1.082,1.082,0,0,0,1.145,1.145h1.031a1.082,1.082,0,0,0,1.145-1.145A1.218,1.218,0,0,0,28.484,23.9V3.29H44.516V23.9H32.835a1.145,1.145,0,1,0,0,2.29h2.519v3.435h-22.9V26.194h8.016a1.082,1.082,0,0,0,1.145-1.145V2.145A1.082,1.082,0,0,0,20.468,1H2.145A1.082,1.082,0,0,0,1,2.145v15a1.082,1.082,0,0,0,1.145,1.145A1.082,1.082,0,0,0,3.29,17.147V3.29H19.323V23.9H3.29V21.727a1.082,1.082,0,0,0-1.145-1.145A1.082,1.082,0,0,0,1,21.727v3.321a1.082,1.082,0,0,0,1.145,1.145h8.016v4.581a1.082,1.082,0,0,0,1.145,1.145H35.355v3.435H16a3.594,3.594,0,0,0-3.55,3.665V62.839H11.306a1.082,1.082,0,0,0-1.145,1.145A7.967,7.967,0,0,0,18.177,72a1.145,1.145,0,1,0,0-2.29,5.76,5.76,0,0,1-5.611-4.581H30.774a2.3,2.3,0,0,0,2.29,2.29h6.871a2.3,2.3,0,0,0,2.29-2.29H60.434a5.76,5.76,0,0,1-5.611,4.581H29.629a1.145,1.145,0,1,0,0,2.29H54.823a7.967,7.967,0,0,0,8.016-8.016,1.082,1.082,0,0,0-1.145-1.145H60.548V43.256a1.145,1.145,0,0,0-2.29,0V62.839H42.226a2.3,2.3,0,0,0-2.29,2.29H33.065a2.3,2.3,0,0,0-2.29-2.29H14.742V39.019A1.375,1.375,0,0,1,16,37.645H56.884a1.392,1.392,0,0,1,1.374,1.374,1.145,1.145,0,0,0,2.29,0,3.69,3.69,0,0,0-3.665-3.665H37.645V31.919H61.694a1.082,1.082,0,0,0,1.145-1.145V26.194h8.016A1.082,1.082,0,0,0,72,25.048V9.131a1.145,1.145,0,0,0-2.29,0V23.9H53.677V3.29H69.71V4.55A1.148,1.148,0,0,0,70.855,5.7Z" fill="#30610c" stroke="#30610c" stroke-width="1"/>
      <path id="Trazado_194776" data-name="Trazado 194776" d="M59.306,5H50.145A1.082,1.082,0,0,0,49,6.145,1.082,1.082,0,0,0,50.145,7.29h9.161a1.082,1.082,0,0,0,1.145-1.145A1.082,1.082,0,0,0,59.306,5Z" transform="translate(6.968 0.581)" fill="#30610c" stroke="#30610c" stroke-width="1"/>
      <path id="Trazado_194777" data-name="Trazado 194777" d="M59.306,9H50.145A1.082,1.082,0,0,0,49,10.145a1.082,1.082,0,0,0,1.145,1.145h9.161a1.082,1.082,0,0,0,1.145-1.145A1.082,1.082,0,0,0,59.306,9Z" transform="translate(6.968 1.161)" fill="#30610c" stroke="#30610c" stroke-width="1"/>
      <path id="Trazado_194778" data-name="Trazado 194778" d="M59.306,13H50.145a1.145,1.145,0,0,0,0,2.29h9.161a1.145,1.145,0,0,0,0-2.29Z" transform="translate(6.968 1.742)" fill="#30610c" stroke="#30610c" stroke-width="1"/>
      <path id="Trazado_194779" data-name="Trazado 194779" d="M59.306,17H50.145a1.145,1.145,0,0,0,0,2.29h9.161a1.145,1.145,0,0,0,0-2.29Z" transform="translate(6.968 2.323)" fill="#30610c" stroke="#30610c" stroke-width="1"/>
    </g>
  </g>
</svg>
