<svg xmlns="http://www.w3.org/2000/svg" width="127.492" height="134.868" viewBox="0 0 127.492 134.868">
  <g id="Grupo_131951" data-name="Grupo 131951" transform="translate(1919.634 6352.762)">
    <g id="recopilacion-de-datos" transform="translate(-1933.635 -6352.762)">
      <g id="Grupo_129711" data-name="Grupo 129711" transform="translate(15.976 36.043)">
        <g id="Grupo_129689" data-name="Grupo 129689" transform="translate(46.396 73.985)">
          <path id="Trazado_194887" data-name="Trazado 194887" d="M197.634,417.7h30.749v14.533H197.634Z" transform="translate(-197.634 -417.7)" fill="#678d98"/>
        </g>
        <g id="Grupo_129690" data-name="Grupo 129690" transform="translate(46.396 73.985)">
          <path id="Trazado_194888" data-name="Trazado 194888" d="M197.634,417.7H208.6v14.533H197.634Z" transform="translate(-197.634 -417.7)" fill="#537983"/>
        </g>
        <g id="Grupo_129691" data-name="Grupo 129691" transform="translate(29.94 88.255)">
          <path id="Trazado_194889" data-name="Trazado 194889" d="M135.16,477.833v-2.009a3.951,3.951,0,0,1,3.951-3.951h55.76a3.951,3.951,0,0,1,3.951,3.951v2.009a2.634,2.634,0,0,1-2.634,2.634H137.794A2.634,2.634,0,0,1,135.16,477.833Z" transform="translate(-135.16 -471.873)" fill="#7ca1b1"/>
        </g>
        <g id="Grupo_129692" data-name="Grupo 129692" transform="translate(29.94 88.255)">
          <path id="Trazado_194890" data-name="Trazado 194890" d="M146.181,477.833v-2.009a3.951,3.951,0,0,1,3.951-3.951H139.111a3.951,3.951,0,0,0-3.951,3.951v2.009a2.634,2.634,0,0,0,2.634,2.634h11.021A2.634,2.634,0,0,1,146.181,477.833Z" transform="translate(-135.16 -471.873)" fill="#678d98"/>
        </g>
        <g id="Grupo_129693" data-name="Grupo 129693" transform="translate(2.565 63.853)">
          <path id="Trazado_194891" data-name="Trazado 194891" d="M31.237,379.236V387a2.634,2.634,0,0,0,2.634,2.634H147.015A2.634,2.634,0,0,0,149.649,387v-7.761H31.237Z" transform="translate(-31.237 -379.236)" fill="#7ca1b1"/>
        </g>
        <g id="Grupo_129695" data-name="Grupo 129695" transform="translate(2.565 63.854)">
          <g id="Grupo_129694" data-name="Grupo 129694">
            <path id="Trazado_194892" data-name="Trazado 194892" d="M42.238,387v-7.761h-11V387a2.634,2.634,0,0,0,2.634,2.634h11A2.634,2.634,0,0,1,42.238,387Z" transform="translate(-31.237 -379.237)" fill="#678d98"/>
          </g>
        </g>
        <path id="Trazado_194893" data-name="Trazado 194893" d="M126.988,163.505l4.7-4.7a.79.79,0,0,1,.559-.232h17.4V140.744a3.914,3.914,0,0,0-3.914-3.914h-38.17v8.032a.79.79,0,0,1-.79.79H74.111a.79.79,0,0,1-.79-.79V136.83H35.151a3.913,3.913,0,0,0-3.914,3.914v20.428l2.37-2.371a.79.79,0,0,1,.559-.232H53.338a.79.79,0,0,1,.79.79v30.3a.79.79,0,0,1-.79.79h-22.1v10.23H149.649v-10.23h-22.1a.79.79,0,0,1-.79-.79v-25.6a.79.79,0,0,1,.232-.558Z" transform="translate(-28.672 -136.83)" fill="#dff6fd"/>
        <g id="Grupo_129696" data-name="Grupo 129696" transform="translate(2.565)">
          <path id="Trazado_194894" data-name="Trazado 194894" d="M33.608,158.8a.79.79,0,0,1,.559-.232h8.072V140.744a3.914,3.914,0,0,1,3.914-3.914h-11a3.913,3.913,0,0,0-3.914,3.914v20.428Z" transform="translate(-31.237 -136.83)" fill="#c8effe"/>
          <path id="Trazado_194895" data-name="Trazado 194895" d="M31.237,340.4h11v10.23h-11Z" transform="translate(-31.237 -286.778)" fill="#c8effe"/>
        </g>
        <g id="Grupo_129705" data-name="Grupo 129705" transform="translate(0 21.74)">
          <g id="Grupo_129700" data-name="Grupo 129700" transform="translate(98.085)">
            <g id="Grupo_129698" data-name="Grupo 129698">
              <g id="Grupo_129697" data-name="Grupo 129697">
                <path id="Trazado_194896" data-name="Trazado 194896" d="M398.795,219.593l-4.7,4.7a.79.79,0,0,0-.232.559v25.6a.79.79,0,0,0,.79.79h23.876a.79.79,0,0,0,.79-.79v-30.3a.79.79,0,0,0-.79-.79H399.353a.789.789,0,0,0-.559.232Z" transform="translate(-393.859 -219.361)" fill="#62dbfb"/>
              </g>
            </g>
            <g id="Grupo_129699" data-name="Grupo 129699" transform="translate(0 0)">
              <path id="Trazado_194897" data-name="Trazado 194897" d="M402.325,250.455v-25.6a.789.789,0,0,1,.232-.559l4.7-4.7a.79.79,0,0,1,.559-.232h-8.466a.789.789,0,0,0-.559.232l-4.7,4.7a.79.79,0,0,0-.232.559v25.6a.79.79,0,0,0,.79.79h8.466A.79.79,0,0,1,402.325,250.455Z" transform="translate(-393.859 -219.362)" fill="#01d0fb"/>
            </g>
          </g>
          <g id="Grupo_129704" data-name="Grupo 129704">
            <g id="Grupo_129702" data-name="Grupo 129702">
              <g id="Grupo_129701" data-name="Grupo 129701">
                <path id="Trazado_194898" data-name="Trazado 194898" d="M26.436,219.593l-4.7,4.7a.79.79,0,0,0-.232.559v25.6a.79.79,0,0,0,.79.79H46.166a.79.79,0,0,0,.79-.79v-30.3a.79.79,0,0,0-.79-.79H26.994a.789.789,0,0,0-.559.232Z" transform="translate(-21.5 -219.361)" fill="#6cf5c2"/>
              </g>
            </g>
            <g id="Grupo_129703" data-name="Grupo 129703" transform="translate(0 0)">
              <path id="Trazado_194899" data-name="Trazado 194899" d="M29.8,250.455v-25.6a.789.789,0,0,1,.232-.559l4.7-4.7a.79.79,0,0,1,.559-.232h-8.3a.789.789,0,0,0-.559.232l-4.7,4.7a.79.79,0,0,0-.232.559v25.6a.79.79,0,0,0,.79.79h8.3A.79.79,0,0,1,29.8,250.455Z" transform="translate(-21.5 -219.362)" fill="#05e39c"/>
            </g>
          </g>
        </g>
        <g id="Grupo_129710" data-name="Grupo 129710" transform="translate(39.644 21.296)">
          <g id="Grupo_129706" data-name="Grupo 129706">
            <path id="Trazado_194900" data-name="Trazado 194900" d="M186.7,217.677h-13.65A1.054,1.054,0,0,0,172,218.731v5.546h18.176l-2.5-5.953A1.053,1.053,0,0,0,186.7,217.677Z" transform="translate(-172 -217.677)" fill="#fed402"/>
          </g>
          <g id="Grupo_129707" data-name="Grupo 129707">
            <path id="Trazado_194901" data-name="Trazado 194901" d="M180.956,217.677h-7.9A1.054,1.054,0,0,0,172,218.731v5.545h7.9v-5.545A1.054,1.054,0,0,1,180.956,217.677Z" transform="translate(-172 -217.677)" fill="#fac600"/>
          </g>
          <g id="Grupo_129708" data-name="Grupo 129708" transform="translate(0 6.599)">
            <path id="Trazado_194902" data-name="Trazado 194902" d="M215.463,270.291H172.79a.79.79,0,0,1-.79-.79V242.73h43.463a.79.79,0,0,1,.79.79V269.5A.79.79,0,0,1,215.463,270.291Z" transform="translate(-172 -242.73)" fill="#fed402"/>
          </g>
          <g id="Grupo_129709" data-name="Grupo 129709" transform="translate(0 6.599)">
            <path id="Trazado_194903" data-name="Trazado 194903" d="M179.9,269.5V242.73H172V269.5a.79.79,0,0,0,.79.79h7.9A.791.791,0,0,1,179.9,269.5Z" transform="translate(-172 -242.73)" fill="#fac600"/>
          </g>
        </g>
      </g>
      <g id="Grupo_129714" data-name="Grupo 129714" transform="translate(60.625 1.975)">
        <g id="Grupo_129712" data-name="Grupo 129712" transform="translate(0 0)">
          <path id="Trazado_194904" data-name="Trazado 194904" d="M197.719,7.732l-6.488,6.488a.79.79,0,0,0-.231.559V49.6a.79.79,0,0,0,.79.79h32.663a.79.79,0,0,0,.79-.79V8.29a.79.79,0,0,0-.79-.79H198.278a.79.79,0,0,0-.559.232Z" transform="translate(-191 -7.5)" fill="#fee97d"/>
        </g>
        <g id="Grupo_129713" data-name="Grupo 129713">
          <path id="Trazado_194905" data-name="Trazado 194905" d="M198.9,49.6V14.777a.79.79,0,0,1,.232-.559l6.488-6.488a.79.79,0,0,1,.559-.232h-7.9a.789.789,0,0,0-.559.232l-6.488,6.488a.79.79,0,0,0-.232.559V49.6a.79.79,0,0,0,.79.79h7.9A.79.79,0,0,1,198.9,49.6Z" transform="translate(-191 -7.499)" fill="#fedf30"/>
        </g>
      </g>
      <g id="Grupo_129715" data-name="Grupo 129715" transform="translate(14.001 0)">
        <path id="Trazado_194906" data-name="Trazado 194906" d="M139.518,70.463a1.975,1.975,0,0,0,1.976-1.976V58.573a2.767,2.767,0,0,0-2.565-2.756V39.957a5.886,5.886,0,0,0-5.889-5.889h-21V21.7a1.976,1.976,0,1,0-3.951,0V34.067H96.845V27.922a1.976,1.976,0,0,0-3.951,0V42.89H62.6V9.744l5.793-5.793h24.5V18.7a1.976,1.976,0,0,0,3.951,0V2.766A2.769,2.769,0,0,0,94.079,0H67.9a2.747,2.747,0,0,0-1.956.81L59.46,7.3a2.748,2.748,0,0,0-.81,1.956V34.067H48.03V21.7a1.976,1.976,0,1,0-3.951,0V34.067H22.455a5.886,5.886,0,0,0-5.889,5.889v19.61l-1.754,1.754A2.747,2.747,0,0,0,14,63.277v25.6a2.767,2.767,0,0,0,2.565,2.756v16.025a4.615,4.615,0,0,0,4.61,4.61H60.4v10.055H49.867a5.933,5.933,0,0,0-5.927,5.927v2.009a4.615,4.615,0,0,0,4.61,4.61h58.394a4.615,4.615,0,0,0,4.61-4.61v-2.009a5.934,5.934,0,0,0-5.927-5.927H95.1V112.267h39.221a4.615,4.615,0,0,0,4.61-4.61V91.632a2.767,2.767,0,0,0,2.565-2.756V77.707a1.976,1.976,0,0,0-3.951,0v9.984H116.036V63.768l4.01-4.01h17.5v8.729a1.975,1.975,0,0,0,1.976,1.976Zm-61.771,14.3a1.97,1.97,0,0,0,1.4-.579L83.8,79.522a1.976,1.976,0,1,0-2.794-2.794l-1.286,1.286v-12.1H97.9v23.61H57.6V65.914H75.772v12.1l-1.286-1.286a1.975,1.975,0,1,0-2.794,2.794l4.658,4.658a1.968,1.968,0,0,0,1.4.578ZM57.6,61.963V59.315H69.712l1.112,2.648ZM17.952,63.768l4.01-4.01h17.5V87.691H17.952Zm87.675,62.506a1.978,1.978,0,0,1,1.976,1.976v2.009a.659.659,0,0,1-.659.659H48.55a.659.659,0,0,1-.659-.659v-2.009a1.978,1.978,0,0,1,1.976-1.976H78.274a1.976,1.976,0,0,0,0-3.951H64.348V112.267h26.8v10.055H87.493a1.976,1.976,0,0,0,0,3.951Zm29.35-18.616a.659.659,0,0,1-.659.659H21.175a.659.659,0,0,1-.659-.659v-5.785h114.46v5.785Zm0-51.85H119.555a2.747,2.747,0,0,0-1.956.81l-4.7,4.7a2.747,2.747,0,0,0-.811,1.956v25.6a2.769,2.769,0,0,0,2.766,2.766h20.126v6.278H20.517V91.642H40.643a2.769,2.769,0,0,0,2.766-2.766v-30.3a2.769,2.769,0,0,0-2.766-2.766H21.471a2.766,2.766,0,0,0-.954.171V39.957a1.94,1.94,0,0,1,1.938-1.938H44.078v8.72l-1.286-1.286A1.975,1.975,0,0,0,40,48.247l4.658,4.658a1.975,1.975,0,0,0,2.794,0l4.658-4.658a1.975,1.975,0,1,0-2.794-2.794L48.03,46.739v-8.72H58.65v6.056a2.769,2.769,0,0,0,2.766,2.766H75.771V61.963h-.662L73.117,57.22a3.022,3.022,0,0,0-2.793-1.856H56.674a3.033,3.033,0,0,0-3.029,3.029V90.71a2.769,2.769,0,0,0,2.766,2.766H99.084a2.769,2.769,0,0,0,2.766-2.766V64.729a2.769,2.769,0,0,0-2.766-2.766H79.723V46.841H94.079a2.769,2.769,0,0,0,2.766-2.766V38.019h11.244v8.72L106.8,45.453a1.976,1.976,0,1,0-2.794,2.794l4.659,4.658a1.976,1.976,0,0,0,2.794,0l4.658-4.658a1.976,1.976,0,1,0-2.794-2.794l-1.286,1.286v-8.72h21a1.94,1.94,0,0,1,1.938,1.938V55.807Z" transform="translate(-14.001 0)"/>
        <path id="Trazado_194907" data-name="Trazado 194907" d="M427.081,239.82h-10.66a1.976,1.976,0,1,0,0,3.951h10.66a1.976,1.976,0,1,0,0-3.951Z" transform="translate(-308.963 -176.648)"/>
        <path id="Trazado_194908" data-name="Trazado 194908" d="M427.081,261.431h-10.66a1.976,1.976,0,1,0,0,3.951h10.66a1.976,1.976,0,1,0,0-3.951Z" transform="translate(-308.963 -192.566)"/>
        <path id="Trazado_194909" data-name="Trazado 194909" d="M429.057,285.211a1.975,1.975,0,0,0-1.976-1.976h-10.66a1.976,1.976,0,1,0,0,3.951h10.66A1.975,1.975,0,0,0,429.057,285.211Z" transform="translate(-308.963 -208.627)"/>
        <path id="Trazado_194910" data-name="Trazado 194910" d="M416.422,304.943a1.976,1.976,0,0,0,0,3.951H421.2a1.976,1.976,0,1,0,0-3.951Z" transform="translate(-308.963 -224.617)"/>
        <path id="Trazado_194911" data-name="Trazado 194911" d="M54.722,239.82H44.063a1.976,1.976,0,1,0,0,3.951H54.722a1.976,1.976,0,0,0,0-3.951Z" transform="translate(-34.689 -176.648)"/>
        <path id="Trazado_194912" data-name="Trazado 194912" d="M54.722,261.431H44.063a1.976,1.976,0,1,0,0,3.951H54.722a1.976,1.976,0,0,0,0-3.951Z" transform="translate(-34.689 -192.566)"/>
        <path id="Trazado_194913" data-name="Trazado 194913" d="M54.722,283.235H44.063a1.976,1.976,0,0,0,0,3.951H54.722a1.976,1.976,0,0,0,0-3.951Z" transform="translate(-34.689 -208.627)"/>
        <path id="Trazado_194914" data-name="Trazado 194914" d="M48.842,304.943H44.064a1.976,1.976,0,1,0,0,3.951h4.778a1.976,1.976,0,1,0,0-3.951Z" transform="translate(-34.689 -224.617)"/>
        <path id="Trazado_194915" data-name="Trazado 194915" d="M232.5,34.814h-.527V25.476a1.976,1.976,0,1,0-3.951,0v9.339h-1.054V28.87a1.976,1.976,0,1,0-3.951,0v5.944h-1.054V26.833a1.976,1.976,0,1,0-3.951,0v7.981h-1.054V30.906a1.976,1.976,0,0,0-3.951,0v3.908h-.527a1.976,1.976,0,1,0,0,3.951H232.5a1.976,1.976,0,1,0,0-3.951Z" transform="translate(-158.739 -17.31)"/>
        <path id="Trazado_194916" data-name="Trazado 194916" d="M213.564,91.5h-1.088a1.976,1.976,0,1,0,0,3.951h1.088a1.976,1.976,0,0,0,0-3.951Z" transform="translate(-158.739 -67.398)"/>
        <path id="Trazado_194917" data-name="Trazado 194917" d="M213.564,113h-1.088a1.976,1.976,0,1,0,0,3.951h1.088a1.976,1.976,0,0,0,0-3.951Z" transform="translate(-158.739 -83.234)"/>
        <path id="Trazado_194918" data-name="Trazado 194918" d="M213.564,134.5h-1.088a1.976,1.976,0,1,0,0,3.951h1.088a1.976,1.976,0,0,0,0-3.951Z" transform="translate(-158.739 -99.071)"/>
        <path id="Trazado_194919" data-name="Trazado 194919" d="M248.924,91.5H234.78a1.976,1.976,0,0,0,0,3.951h14.144a1.976,1.976,0,0,0,0-3.951Z" transform="translate(-175.168 -67.398)"/>
        <path id="Trazado_194920" data-name="Trazado 194920" d="M248.924,113H234.78a1.976,1.976,0,0,0,0,3.951h14.144a1.976,1.976,0,0,0,0-3.951Z" transform="translate(-175.168 -83.234)"/>
        <path id="Trazado_194921" data-name="Trazado 194921" d="M248.924,134.5H234.78a1.976,1.976,0,0,0,0,3.951h14.144a1.976,1.976,0,0,0,0-3.951Z" transform="translate(-175.168 -99.071)"/>
      </g>
    </g>
  </g>
</svg>
