<svg xmlns="http://www.w3.org/2000/svg" width="57.117" height="57.106" viewBox="0 0 57.117 57.106">
  <g id="Grupo_131920" data-name="Grupo 131920" transform="translate(8351.704 6508.499)">
    <g id="Layer_61" data-name="Layer 61" transform="translate(-8353.704 -6510.499)">
      <path id="Trazado_194790" data-name="Trazado 194790" d="M39.119,7.711H4.855A2.855,2.855,0,0,1,4.855,2H39.119a2.855,2.855,0,0,1,0,5.711Z" fill="#30610c"/>
      <path id="Trazado_194791" data-name="Trazado 194791" d="M33.408,13.711H4.855A2.855,2.855,0,1,1,4.855,8H33.408a2.855,2.855,0,0,1,0,5.711Z" transform="translate(0 11.132)" fill="#30610c"/>
      <path id="Trazado_194792" data-name="Trazado 194792" d="M27.7,19.711H4.855a2.855,2.855,0,0,1,0-5.711H27.7a2.855,2.855,0,0,1,0,5.711Z" transform="translate(0 22.264)" fill="#30610c"/>
      <path id="Trazado_194793" data-name="Trazado 194793" d="M21.987,25.711H4.855a2.855,2.855,0,1,1,0-5.711H21.987a2.855,2.855,0,1,1,0,5.711Z" transform="translate(0 33.395)" fill="#30610c"/>
      <path id="Trazado_194794" data-name="Trazado 194794" d="M19.855,53.4A2.855,2.855,0,0,1,17,50.54V4.855a2.855,2.855,0,1,1,5.711,0V50.54A2.855,2.855,0,0,1,19.855,53.4Z" transform="translate(27.829)" fill="#30610c"/>
      <path id="Trazado_194795" data-name="Trazado 194795" d="M25.429,31.284a2.855,2.855,0,0,1-2.027-.828L14.836,21.89a2.867,2.867,0,0,1,4.055-4.055L25.429,24.4l6.539-6.567a2.867,2.867,0,0,1,4.055,4.055l-8.566,8.566a2.855,2.855,0,0,1-2.027.828Z" transform="translate(22.256 27.822)" fill="#30610c"/>
    </g>
  </g>
</svg>
