<svg xmlns="http://www.w3.org/2000/svg" width="120.647" height="120.647" viewBox="0 0 120.647 120.647">
  <g id="Grupo_131982" data-name="Grupo 131982" transform="translate(626.324 9619.324)">
    <g id="XMLID_1118_" transform="translate(-626.324 -9619.324)">
      <circle id="XMLID_2901_" cx="17.98" cy="17.98" r="17.98" transform="translate(2.356 82.331)" fill="#fff"/>
      <path id="XMLID_2900_" d="M46.017,441.394a12.949,12.949,0,0,0-12.42,9.3,17.962,17.962,0,0,0,24.839,0A12.949,12.949,0,0,0,46.017,441.394Z" transform="translate(-25.68 -337.384)" fill="#9de2d0"/>
      <path id="XMLID_2892_" d="M73.614,399.049a5.655,5.655,0,1,1-5.655-5.655A5.655,5.655,0,0,1,73.614,399.049Z" transform="translate(-47.622 -300.695)" fill="#ffdad5"/>
      <g id="XMLID_2080_" transform="translate(82.331 82.331)">
        <circle id="XMLID_2094_" cx="17.98" cy="17.98" r="17.98" fill="#fff"/>
        <path id="XMLID_2093_" d="M385.411,441.394a12.949,12.949,0,0,0-12.42,9.3,17.962,17.962,0,0,0,24.839,0A12.949,12.949,0,0,0,385.411,441.394Z" transform="translate(-367.431 -419.715)" fill="#ffec80"/>
        <path id="XMLID_2087_" d="M413.008,399.049a5.655,5.655,0,1,1-5.655-5.655A5.655,5.655,0,0,1,413.008,399.049Z" transform="translate(-389.372 -383.026)" fill="#ffdad5"/>
      </g>
      <g id="XMLID_2106_" transform="translate(2.356 2.356)">
        <circle id="XMLID_2112_" cx="17.98" cy="17.98" r="17.98" fill="#fff"/>
        <path id="XMLID_2111_" d="M46.017,102a12.949,12.949,0,0,0-12.42,9.3,17.962,17.962,0,0,0,24.839,0,12.949,12.949,0,0,0-12.42-9.3Z" transform="translate(-28.037 -80.321)" fill="#f6838d"/>
        <path id="XMLID_2109_" d="M73.614,59.655A5.655,5.655,0,1,1,67.958,54,5.655,5.655,0,0,1,73.614,59.655Z" transform="translate(-49.978 -43.632)" fill="#ffdad5"/>
      </g>
      <g id="XMLID_2097_" transform="translate(82.331 2.356)">
        <circle id="XMLID_2103_" cx="17.98" cy="17.98" r="17.98" fill="#fff"/>
        <path id="XMLID_2102_" d="M385.411,102a12.949,12.949,0,0,0-12.42,9.3,17.962,17.962,0,0,0,24.839,0,12.949,12.949,0,0,0-12.42-9.3Z" transform="translate(-367.431 -80.321)" fill="#cecbf1"/>
        <path id="XMLID_2100_" d="M413.008,59.655A5.655,5.655,0,1,1,407.352,54,5.655,5.655,0,0,1,413.008,59.655Z" transform="translate(-389.372 -43.632)" fill="#dd9366"/>
      </g>
      <path id="XMLID_2428_" d="M175.151,232.736H116.713A4.713,4.713,0,0,1,112,228.023V216.713A4.713,4.713,0,0,1,116.713,212h58.439a4.713,4.713,0,0,1,4.713,4.713v11.311A4.713,4.713,0,0,1,175.151,232.736Z" transform="translate(-85.608 -162.044)" fill="#9b98e7"/>
      <g id="XMLID_73_">
        <path id="XMLID_1636_" d="M31.708,352.828a2.356,2.356,0,0,0-2.638,3.905,15.611,15.611,0,0,1,4.288,21.576,15.485,15.485,0,0,0-6.571-5.832,8.012,8.012,0,1,0-12.9,0,15.472,15.472,0,0,0-6.571,5.832,15.61,15.61,0,0,1,4.207-21.52A2.356,2.356,0,0,0,8.858,352.9a20.336,20.336,0,1,0,22.85-.072ZM17.037,367.734a3.3,3.3,0,1,1,3.3,3.3A3.3,3.3,0,0,1,17.037,367.734Zm-6.349,14.232a10.592,10.592,0,0,1,19.3,0,15.573,15.573,0,0,1-19.3,0Z" transform="translate(0 -269.379)"/>
        <path id="XMLID_1642_" d="M359.73,339.394a20.336,20.336,0,1,0,20.336,20.336A20.36,20.36,0,0,0,359.73,339.394Zm-9.648,32.612a10.592,10.592,0,0,1,19.3,0,15.574,15.574,0,0,1-19.3,0Zm9.648-10.933a3.3,3.3,0,1,1,3.3-3.3A3.3,3.3,0,0,1,359.73,361.073Zm13.022,7.277a15.485,15.485,0,0,0-6.571-5.832,8.012,8.012,0,1,0-12.9,0,15.473,15.473,0,0,0-6.571,5.832,15.624,15.624,0,1,1,26.045,0Z" transform="translate(-259.419 -259.419)"/>
        <path id="XMLID_1647_" d="M20.336,40.673A20.336,20.336,0,1,0,0,20.336,20.36,20.36,0,0,0,20.336,40.673Zm-9.648-8.061a10.592,10.592,0,0,1,19.3,0,15.573,15.573,0,0,1-19.3,0ZM17.037,18.38a3.3,3.3,0,1,1,3.3,3.3A3.3,3.3,0,0,1,17.037,18.38Zm3.3-13.667A15.614,15.614,0,0,1,33.359,28.956a15.484,15.484,0,0,0-6.571-5.832,8.012,8.012,0,1,0-12.9,0,15.473,15.473,0,0,0-6.571,5.832A15.613,15.613,0,0,1,20.336,4.713Z"/>
        <path id="XMLID_1652_" d="M359.73,40.673a20.336,20.336,0,1,0-20.336-20.336A20.36,20.36,0,0,0,359.73,40.673Zm-9.648-8.061a10.592,10.592,0,0,1,19.3,0,15.573,15.573,0,0,1-19.3,0Zm9.648-10.933a3.3,3.3,0,1,1,3.3-3.3A3.3,3.3,0,0,1,359.73,21.679Zm0-16.966a15.614,15.614,0,0,1,13.022,24.243,15.481,15.481,0,0,0-6.571-5.832,8.012,8.012,0,1,0-12.9,0,15.473,15.473,0,0,0-6.571,5.832A15.613,15.613,0,0,1,359.73,4.713Z" transform="translate(-259.419)"/>
        <path id="XMLID_1659_" d="M175.742,248.356A2.356,2.356,0,0,0,173.386,246H150.273a2.356,2.356,0,1,0,0,4.713h23.112A2.356,2.356,0,0,0,175.742,248.356Z" transform="translate(-113.062 -188.033)"/>
        <path id="XMLID_1664_" d="M294.056,250.713a2.358,2.358,0,1,0-1.666-.691A2.374,2.374,0,0,0,294.056,250.713Z" transform="translate(-222.964 -188.033)"/>
        <path id="XMLID_1665_" d="M346.436,250.713a2.358,2.358,0,1,0-1.666-.691A2.379,2.379,0,0,0,346.436,250.713Z" transform="translate(-263.001 -188.033)"/>
        <path id="XMLID_1668_" d="M150.62,156.278h-3.377V131.371h20.265a7.077,7.077,0,0,0,7.069-7.069V112.991a7.077,7.077,0,0,0-7.069-7.069H147.243V81.016h3.377a2.356,2.356,0,0,0,0-4.713h-5.734a2.357,2.357,0,0,0-2.356,2.356v27.263h-8.483V78.659a2.356,2.356,0,0,0-2.356-2.356h-5.734a2.356,2.356,0,1,0,0,4.713h3.377v24.906H109.069A7.077,7.077,0,0,0,102,112.991V124.3a7.077,7.077,0,0,0,7.069,7.069h20.265v24.906h-3.377a2.356,2.356,0,1,0,0,4.713h5.734a2.356,2.356,0,0,0,2.356-2.356V131.371h8.483v27.263a2.356,2.356,0,0,0,2.356,2.356h5.734a2.356,2.356,0,0,0,0-4.713ZM106.713,124.3V112.991a2.359,2.359,0,0,1,2.356-2.356h58.439a2.359,2.359,0,0,1,2.356,2.356V124.3a2.359,2.359,0,0,1-2.356,2.356H109.069A2.359,2.359,0,0,1,106.713,124.3Z" transform="translate(-77.965 -58.323)"/>
        <path id="XMLID_1669_" d="M76.98,340.078a2.364,2.364,0,1,0,1.666-.688A2.379,2.379,0,0,0,76.98,340.078Z" transform="translate(-58.313 -259.416)"/>
      </g>
    </g>
  </g>
</svg>
