<svg xmlns="http://www.w3.org/2000/svg" width="109.143" height="109.143" viewBox="0 0 109.143 109.143">
  <g id="Grupo_131981" data-name="Grupo 131981" transform="translate(-669.537 -2008.43)">
    <g id="aprendizaje-mixto" transform="translate(668.537 2007.43)">
      <g id="Grupo_129890" data-name="Grupo 129890" transform="translate(2.76 2.76)">
        <g id="Grupo_129872" data-name="Grupo 129872" transform="translate(31.687)">
          <path id="Trazado_195273" data-name="Trazado 195273" d="M44.645,2a7.04,7.04,0,0,1,7.041,7.041v7.041H20a7.032,7.032,0,0,0,7.041-7.041V2Z" transform="translate(-20 -2)" fill="#969faa"/>
        </g>
        <g id="Grupo_129873" data-name="Grupo 129873">
          <path id="Trazado_195274" data-name="Trazado 195274" d="M33.687,16.083H2V9.041A7.04,7.04,0,0,1,9.041,2h17.6V9.041A7.04,7.04,0,0,0,33.687,16.083Z" transform="translate(-2 -2)" fill="#969faa"/>
        </g>
        <g id="Grupo_129874" data-name="Grupo 129874" transform="translate(0 84.498)">
          <path id="Trazado_195275" data-name="Trazado 195275" d="M65.373,50V64.083a7.04,7.04,0,0,1-7.041,7.041H9.041A7.04,7.04,0,0,1,2,64.083V50Z" transform="translate(-2 -50)" fill="#969faa"/>
        </g>
        <g id="Grupo_129875" data-name="Grupo 129875" transform="translate(0 14.083)">
          <path id="Trazado_195276" data-name="Trazado 195276" d="M33.687,10H2V80.415H65.373V10Z" transform="translate(-2 -10)" fill="#69d6f4"/>
        </g>
        <g id="Grupo_129876" data-name="Grupo 129876" transform="translate(7.041 91.539)">
          <path id="Trazado_195277" data-name="Trazado 195277" d="M13.041,55.76v3.521a1.766,1.766,0,0,1-1.76,1.76H7.76A1.766,1.766,0,0,1,6,59.281V55.76A1.766,1.766,0,0,1,7.76,54h3.521A1.766,1.766,0,0,1,13.041,55.76Z" transform="translate(-6 -54)" fill="#e6e9ed"/>
        </g>
        <g id="Grupo_129877" data-name="Grupo 129877" transform="translate(24.645 91.539)">
          <path id="Trazado_195278" data-name="Trazado 195278" d="M30.083,55.76v3.521a1.766,1.766,0,0,1-1.76,1.76H17.76A1.766,1.766,0,0,1,16,59.281V55.76A1.766,1.766,0,0,1,17.76,54H28.323A1.766,1.766,0,0,1,30.083,55.76Z" transform="translate(-16 -54)" fill="#e6e9ed"/>
        </g>
        <g id="Grupo_129878" data-name="Grupo 129878" transform="translate(49.29 91.539)">
          <path id="Trazado_195279" data-name="Trazado 195279" d="M37.041,55.76v3.521a1.766,1.766,0,0,1-1.76,1.76H31.76A1.766,1.766,0,0,1,30,59.281V55.76A1.766,1.766,0,0,1,31.76,54h3.521A1.766,1.766,0,0,1,37.041,55.76Z" transform="translate(-30 -54)" fill="#e6e9ed"/>
        </g>
        <g id="Grupo_129879" data-name="Grupo 129879" transform="translate(24.645)">
          <path id="Trazado_195280" data-name="Trazado 195280" d="M16,2H30.083V9.041A7.041,7.041,0,1,1,16,9.041Z" transform="translate(-16 -2)" fill="#fcd770"/>
        </g>
        <g id="Grupo_129880" data-name="Grupo 129880" transform="translate(91.539 28.166)">
          <path id="Trazado_195281" data-name="Trazado 195281" d="M68.083,18V63.77H54V56.728h7.041V18Z" transform="translate(-54 -18)" fill="#b4dd7f"/>
        </g>
        <g id="Grupo_129881" data-name="Grupo 129881" transform="translate(21.124 28.166)">
          <path id="Trazado_195282" data-name="Trazado 195282" d="M70.332,56.728V63.77h-8.8v1.76a5.281,5.281,0,1,1-10.562,0V63.77H14V18h7.041V56.728h49.29Z" transform="translate(-14 -18)" fill="#b4dd7f"/>
        </g>
        <g id="Grupo_129882" data-name="Grupo 129882" transform="translate(28.166 21.124)">
          <path id="Trazado_195283" data-name="Trazado 195283" d="M60.249,14a7.04,7.04,0,0,0-7.041,7.041A7.04,7.04,0,0,0,46.166,14H18V59.77H88.415V14Z" transform="translate(-18 -14)" fill="#e6e9ed"/>
        </g>
        <g id="Grupo_129883" data-name="Grupo 129883" transform="translate(77.456 63.373)">
          <path id="Trazado_195284" data-name="Trazado 195284" d="M53.041,38V69.687H46V38Z" transform="translate(-46 -38)" fill="#fcd770"/>
        </g>
        <g id="Grupo_129884" data-name="Grupo 129884" transform="translate(84.498 63.373)">
          <path id="Trazado_195285" data-name="Trazado 195285" d="M57.041,48.562V69.687H50V38h7.041V48.562Z" transform="translate(-50 -38)" fill="#ff826e"/>
        </g>
        <g id="Grupo_129885" data-name="Grupo 129885" transform="translate(77.456 95.06)">
          <path id="Trazado_195286" data-name="Trazado 195286" d="M60.083,56v3.521a7.041,7.041,0,0,1-14.083,0V56H60.083Z" transform="translate(-46 -56)" fill="#aab2bd"/>
        </g>
        <g id="Grupo_129886" data-name="Grupo 129886" transform="translate(77.456 52.811)">
          <path id="Trazado_195287" data-name="Trazado 195287" d="M55.594,33.567l4.489,9H46l4.489-9a2.863,2.863,0,0,1,5.105,0Z" transform="translate(-46 -32)" fill="#aab2bd"/>
        </g>
        <g id="Grupo_129887" data-name="Grupo 129887" transform="translate(70.415 28.166)">
          <path id="Trazado_195288" data-name="Trazado 195288" d="M42,18H63.124V28.562H42Z" transform="translate(-42 -18)" fill="#f0d0b4"/>
        </g>
        <g id="Grupo_129888" data-name="Grupo 129888" transform="translate(38.734 52.474)">
          <circle id="Elipse_6241" data-name="Elipse 6241" cx="3.616" cy="3.616" r="3.616" transform="translate(0 0)" fill="#ff826e"/>
        </g>
        <g id="Grupo_129889" data-name="Grupo 129889" transform="translate(38.728 28.166)">
          <path id="Trazado_195289" data-name="Trazado 195289" d="M36.516,22.489a2.863,2.863,0,0,1,0,5.105l-8.4,4.19A2.848,2.848,0,0,1,24,29.231V20.852A2.848,2.848,0,0,1,28.119,18.3Z" transform="translate(-24 -18)" fill="#ff826e"/>
        </g>
      </g>
      <g id="Grupo_129916" data-name="Grupo 129916" transform="translate(1 1)">
        <g id="Grupo_129891" data-name="Grupo 129891" transform="translate(77.456 52.811)">
          <path id="Trazado_195290" data-name="Trazado 195290" d="M53.8,87.332a8.812,8.812,0,0,1-8.8-8.8V42.907l4.679-9.36a4.609,4.609,0,0,1,8.246,0L62.6,42.907V78.53A8.812,8.812,0,0,1,53.8,87.332ZM48.521,43.738V78.53a5.281,5.281,0,0,0,10.562,0V43.738l-4.308-8.615a1.128,1.128,0,0,0-1.945,0Z" transform="translate(-45 -31)"/>
        </g>
        <g id="Grupo_129892" data-name="Grupo 129892" transform="translate(79.217 63.373)">
          <path id="Trazado_195291" data-name="Trazado 195291" d="M46,37H60.083v3.521H46Z" transform="translate(-46 -37)"/>
        </g>
        <g id="Grupo_129893" data-name="Grupo 129893" transform="translate(79.217 95.06)">
          <path id="Trazado_195292" data-name="Trazado 195292" d="M46,55H60.083v3.521H46Z" transform="translate(-46 -55)"/>
        </g>
        <g id="Grupo_129894" data-name="Grupo 129894" transform="translate(84.498 65.134)">
          <path id="Trazado_195293" data-name="Trazado 195293" d="M49,38h3.521V69.687H49Z" transform="translate(-49 -38)"/>
        </g>
        <g id="Grupo_129895" data-name="Grupo 129895">
          <path id="Trazado_195294" data-name="Trazado 195294" d="M59.092,110.143H9.8a8.812,8.812,0,0,1-8.8-8.8V9.8A8.812,8.812,0,0,1,9.8,1h49.29a8.812,8.812,0,0,1,8.8,8.8V30.926H64.373V9.8a5.288,5.288,0,0,0-5.281-5.281H9.8A5.288,5.288,0,0,0,4.521,9.8v91.539A5.288,5.288,0,0,0,9.8,106.622h49.29a5.288,5.288,0,0,0,5.281-5.281v-17.6h3.521v17.6A8.812,8.812,0,0,1,59.092,110.143Z" transform="translate(-1 -1)"/>
        </g>
        <g id="Grupo_129896" data-name="Grupo 129896" transform="translate(24.645 91.539)">
          <path id="Trazado_195295" data-name="Trazado 195295" d="M29.083,63.562H18.521A3.524,3.524,0,0,1,15,60.041V56.521A3.524,3.524,0,0,1,18.521,53H29.083A3.524,3.524,0,0,1,32.6,56.521v3.521A3.524,3.524,0,0,1,29.083,63.562ZM18.521,56.521v3.521H29.085l0-3.521Z" transform="translate(-15 -53)"/>
        </g>
        <g id="Grupo_129897" data-name="Grupo 129897" transform="translate(7.041 91.539)">
          <path id="Trazado_195296" data-name="Trazado 195296" d="M12.041,63.562H8.521A3.524,3.524,0,0,1,5,60.041V56.521A3.524,3.524,0,0,1,8.521,53h3.521a3.524,3.524,0,0,1,3.521,3.521v3.521A3.524,3.524,0,0,1,12.041,63.562ZM8.521,56.521v3.521h3.522l0-3.521Z" transform="translate(-5 -53)"/>
        </g>
        <g id="Grupo_129898" data-name="Grupo 129898" transform="translate(49.29 91.539)">
          <path id="Trazado_195297" data-name="Trazado 195297" d="M36.041,63.562H32.521A3.524,3.524,0,0,1,29,60.041V56.521A3.524,3.524,0,0,1,32.521,53h3.521a3.524,3.524,0,0,1,3.521,3.521v3.521A3.524,3.524,0,0,1,36.041,63.562Zm-3.521-7.041v3.521h3.522l0-3.521Z" transform="translate(-29 -53)"/>
        </g>
        <g id="Grupo_129899" data-name="Grupo 129899" transform="translate(1.76 14.083)">
          <path id="Trazado_195298" data-name="Trazado 195298" d="M2,9H65.373v3.521H2Z" transform="translate(-2 -9)"/>
        </g>
        <g id="Grupo_129900" data-name="Grupo 129900" transform="translate(1.76 84.498)">
          <path id="Trazado_195299" data-name="Trazado 195299" d="M2,49H65.373v3.521H2Z" transform="translate(-2 -49)"/>
        </g>
        <g id="Grupo_129901" data-name="Grupo 129901" transform="translate(24.645 1.76)">
          <path id="Trazado_195300" data-name="Trazado 195300" d="M23.8,17.843a8.812,8.812,0,0,1-8.8-8.8V2h3.521V9.041a5.281,5.281,0,1,0,10.562,0V2H32.6V9.041A8.812,8.812,0,0,1,23.8,17.843Z" transform="translate(-15 -2)"/>
        </g>
        <g id="Grupo_129902" data-name="Grupo 129902" transform="translate(31.817 7.231)">
          <circle id="Elipse_6242" data-name="Elipse 6242" cx="1.808" cy="1.808" r="1.808" transform="translate(0 0)"/>
        </g>
        <g id="Grupo_129903" data-name="Grupo 129903" transform="translate(56.403 7.231)">
          <circle id="Elipse_6243" data-name="Elipse 6243" cx="1.808" cy="1.808" r="1.808" transform="translate(0 0)"/>
        </g>
        <g id="Grupo_129904" data-name="Grupo 129904" transform="translate(93.3 28.166)">
          <path id="Trazado_195301" data-name="Trazado 195301" d="M69.843,66.29H54V62.77H66.323V20.521H61.041V17h8.8Z" transform="translate(-54 -17)"/>
        </g>
        <g id="Grupo_129905" data-name="Grupo 129905" transform="translate(21.124 28.166)">
          <path id="Trazado_195302" data-name="Trazado 195302" d="M57.009,73.332a7.049,7.049,0,0,1-7.041-7.041H13V17H23.562v3.521H16.521V62.77H53.488V66.29a3.521,3.521,0,1,0,7.041,0V62.77H71.092V66.29H64.051A7.049,7.049,0,0,1,57.009,73.332Z" transform="translate(-13 -17)"/>
        </g>
        <g id="Grupo_129906" data-name="Grupo 129906" transform="translate(28.166 21.124)">
          <path id="Trazado_195303" data-name="Trazado 195303" d="M55.728,62.29H17V13H46.926a8.812,8.812,0,0,1,8.8,8.8ZM20.521,58.77H52.207V21.8a5.288,5.288,0,0,0-5.281-5.281H20.521Z" transform="translate(-17 -13)"/>
        </g>
        <g id="Grupo_129907" data-name="Grupo 129907" transform="translate(63.373 21.124)">
          <path id="Trazado_195304" data-name="Trazado 195304" d="M75.728,62.29h-8.8V58.77h5.281V16.521H45.8A5.288,5.288,0,0,0,40.521,21.8V58.77H52.843V62.29H37V21.8A8.812,8.812,0,0,1,45.8,13H75.728Z" transform="translate(-37 -13)"/>
        </g>
        <g id="Grupo_129908" data-name="Grupo 129908" transform="translate(38.728 28.166)">
          <path id="Trazado_195305" data-name="Trazado 195305" d="M27.609,34.6A4.613,4.613,0,0,1,23,30V21.609a4.61,4.61,0,0,1,6.67-4.123l8.386,4.193a4.609,4.609,0,0,1,0,8.246L29.67,34.118a4.656,4.656,0,0,1-2.061.486Zm0-14.083a1.089,1.089,0,0,0-1.088,1.088V30a1.119,1.119,0,0,0,1.576.973l8.386-4.193a1.089,1.089,0,0,0,0-1.947L28.1,20.635A1.1,1.1,0,0,0,27.609,20.521Z" transform="translate(-23 -17)"/>
        </g>
        <g id="Grupo_129909" data-name="Grupo 129909" transform="translate(38.728 52.811)">
          <path id="Trazado_195306" data-name="Trazado 195306" d="M28.281,41.562a5.281,5.281,0,1,1,5.281-5.281A5.288,5.288,0,0,1,28.281,41.562Zm0-7.041a1.76,1.76,0,1,0,1.76,1.76A1.763,1.763,0,0,0,28.281,34.521Z" transform="translate(-23 -31)"/>
        </g>
        <g id="Grupo_129910" data-name="Grupo 129910" transform="translate(35.207 56.332)">
          <path id="Trazado_195307" data-name="Trazado 195307" d="M21,33h5.281v3.521H21Z" transform="translate(-21 -33)"/>
        </g>
        <g id="Grupo_129911" data-name="Grupo 129911" transform="translate(47.53 56.332)">
          <path id="Trazado_195308" data-name="Trazado 195308" d="M28,33H40.323v3.521H28Z" transform="translate(-28 -33)"/>
        </g>
        <g id="Grupo_129912" data-name="Grupo 129912" transform="translate(70.415 28.166)">
          <path id="Trazado_195309" data-name="Trazado 195309" d="M65.645,31.083H41V17H65.645ZM44.521,27.562h17.6V20.521h-17.6Z" transform="translate(-41 -17)"/>
        </g>
        <g id="Grupo_129913" data-name="Grupo 129913" transform="translate(70.415 45.77)">
          <path id="Trazado_195310" data-name="Trazado 195310" d="M41,27h3.521v3.521H41Z" transform="translate(-41 -27)"/>
        </g>
        <g id="Grupo_129914" data-name="Grupo 129914" transform="translate(77.456 45.77)">
          <path id="Trazado_195311" data-name="Trazado 195311" d="M45,27H62.6v3.521H45Z" transform="translate(-45 -27)"/>
        </g>
        <g id="Grupo_129915" data-name="Grupo 129915" transform="translate(7.041 56.332)">
          <path id="Trazado_195312" data-name="Trazado 195312" d="M8.521,57.645H5V54.124H8.521Zm0-7.041H5V47.083H8.521Zm0-7.041H5V40.041H8.521Zm0-7.041H5V33H8.521Z" transform="translate(-5 -33)"/>
        </g>
      </g>
    </g>
  </g>
</svg>
