<svg xmlns="http://www.w3.org/2000/svg" width="85.67" height="66.179" viewBox="0 0 85.67 66.179">
  <g id="rapido" transform="translate(0 -58.245)">
    <g id="Grupo_129638" data-name="Grupo 129638" transform="translate(4.633 78.785)">
      <g id="Grupo_129637" data-name="Grupo 129637">
        <rect id="Rectángulo_41338" data-name="Rectángulo 41338" width="9.839" height="5.02" fill="#30610c"/>
      </g>
    </g>
    <g id="Grupo_129640" data-name="Grupo 129640" transform="translate(4.633 98.864)">
      <g id="Grupo_129639" data-name="Grupo 129639" transform="translate(0 0)">
        <rect id="Rectángulo_41339" data-name="Rectángulo 41339" width="9.839" height="5.02" fill="#30610c"/>
      </g>
    </g>
    <g id="Grupo_129642" data-name="Grupo 129642" transform="translate(0 88.825)">
      <g id="Grupo_129641" data-name="Grupo 129641" transform="translate(0 0)">
        <rect id="Rectángulo_41340" data-name="Rectángulo 41340" width="14.472" height="5.02" fill="#30610c"/>
      </g>
    </g>
    <g id="Grupo_129644" data-name="Grupo 129644" transform="translate(19.492 58.245)">
      <g id="Grupo_129643" data-name="Grupo 129643">
        <path id="Trazado_194798" data-name="Trazado 194798" d="M149.579,58.245a33.09,33.09,0,1,0,33.09,33.09A33.127,33.127,0,0,0,149.579,58.245Zm0,61.159a28.07,28.07,0,1,1,28.07-28.07A28.1,28.1,0,0,1,149.579,119.4Z" transform="translate(-116.489 -58.245)" fill="#30610c"/>
      </g>
    </g>
    <g id="Grupo_129646" data-name="Grupo 129646" transform="translate(49.182 76.368)">
      <g id="Grupo_129645" data-name="Grupo 129645">
        <path id="Trazado_194799" data-name="Trazado 194799" d="M298.95,182.77V166.557h-5.02v18.867l12.936,8.815,2.827-4.148Z" transform="translate(-293.93 -166.557)" fill="#30610c"/>
      </g>
    </g>
  </g>
</svg>
