<svg xmlns="http://www.w3.org/2000/svg" width="127.747" height="127.747" viewBox="0 0 127.747 127.747">
  <g id="Grupo_131952" data-name="Grupo 131952" transform="translate(1912.716 6092.566)">
    <g id="base-de-datos-en-la-nube" transform="translate(-1913.716 -6093.566)">
      <g id="Grupo_129727" data-name="Grupo 129727" transform="translate(3.06 3.06)">
        <g id="Grupo_129716" data-name="Grupo 129716" transform="translate(84.478 86.538)">
          <path id="Trazado_194922" data-name="Trazado 194922" d="M43,44H75.967v8.242H43Z" transform="translate(-43 -44)" fill="#ffeaa7"/>
        </g>
        <g id="Grupo_129717" data-name="Grupo 129717" transform="translate(84.478 61.813)">
          <path id="Trazado_194923" data-name="Trazado 194923" d="M43,32H75.967v8.242H43Z" transform="translate(-43 -32)" fill="#ffeaa7"/>
        </g>
        <g id="Grupo_129718" data-name="Grupo 129718" transform="translate(78.296 94.78)">
          <path id="Trazado_194924" data-name="Trazado 194924" d="M46.181,48H81.209a4.133,4.133,0,0,1,4.121,4.121v8.242a4.133,4.133,0,0,1-4.121,4.121H44.121A4.133,4.133,0,0,1,40,60.363V52.121A4.133,4.133,0,0,1,44.121,48Z" transform="translate(-40 -48)" fill="#fcd770"/>
        </g>
        <g id="Grupo_129719" data-name="Grupo 129719" transform="translate(78.296 70.055)">
          <path id="Trazado_194925" data-name="Trazado 194925" d="M46.181,36H81.209a4.133,4.133,0,0,1,4.121,4.121v8.242a4.133,4.133,0,0,1-4.121,4.121H44.121A4.133,4.133,0,0,1,40,48.363V40.121A4.133,4.133,0,0,1,44.121,36Z" transform="translate(-40 -36)" fill="#fcd770"/>
        </g>
        <g id="Grupo_129720" data-name="Grupo 129720" transform="translate(78.296 45.33)">
          <path id="Trazado_194926" data-name="Trazado 194926" d="M40,36.363V28.121A4.133,4.133,0,0,1,44.121,24H81.209a4.133,4.133,0,0,1,4.121,4.121v8.242a4.133,4.133,0,0,1-4.121,4.121H44.121A4.133,4.133,0,0,1,40,36.363Z" transform="translate(-40 -24)" fill="#fcd770"/>
        </g>
        <g id="Grupo_129721" data-name="Grupo 129721" transform="translate(24.725 115.384)">
          <path id="Trazado_194927" data-name="Trazado 194927" d="M14,58H34.6v8.242H14Z" transform="translate(-14 -58)" fill="#aab2bd"/>
        </g>
        <g id="Grupo_129722" data-name="Grupo 129722" transform="translate(0 103.022)">
          <path id="Trazado_194928" data-name="Trazado 194928" d="M72.055,52v8.242a4.133,4.133,0,0,1-4.121,4.121H6.121A4.133,4.133,0,0,1,2,60.242V52Z" transform="translate(-2 -52)" fill="#ccd1d9"/>
        </g>
        <g id="Grupo_129723" data-name="Grupo 129723" transform="translate(0 70.055)">
          <path id="Trazado_194929" data-name="Trazado 194929" d="M2,68.967V40.121A4.133,4.133,0,0,1,6.121,36H67.934a4.133,4.133,0,0,1,4.121,4.121V68.967Z" transform="translate(-2 -36)" fill="#69d6f4"/>
        </g>
        <g id="Grupo_129724" data-name="Grupo 129724" transform="translate(41.209 78.296)">
          <path id="Trazado_194930" data-name="Trazado 194930" d="M22,40H42.6V56.483H22Z" transform="translate(-22 -40)" fill="#ff826e"/>
        </g>
        <g id="Grupo_129725" data-name="Grupo 129725" transform="translate(10.302 37.088)">
          <path id="Trazado_194931" data-name="Trazado 194931" d="M44.088,28.242a8.242,8.242,0,0,1,0,16.483H15.242a8.242,8.242,0,0,1,0-16.483,8.4,8.4,0,0,1,2.617.453,12.363,12.363,0,0,1,23.613,0A8.4,8.4,0,0,1,44.088,28.242Z" transform="translate(-7 -20)" fill="#e6e9ed"/>
        </g>
        <g id="Grupo_129726" data-name="Grupo 129726" transform="translate(10.302)">
          <path id="Trazado_194932" data-name="Trazado 194932" d="M44.088,10.242a8.242,8.242,0,0,1,0,16.483H15.242a8.242,8.242,0,0,1,0-16.483,8.4,8.4,0,0,1,2.617.453,12.363,12.363,0,0,1,23.613,0A8.4,8.4,0,0,1,44.088,10.242Z" transform="translate(-7 -2)" fill="#e6e9ed"/>
        </g>
      </g>
      <g id="Grupo_129728" data-name="Grupo 129728" transform="translate(1 1)">
        <path id="Trazado_194933" data-name="Trazado 194933" d="M68.994,35H7.181A6.189,6.189,0,0,0,1,41.181V78.269A6.189,6.189,0,0,0,7.181,84.45H25.725v4.121H19.544v4.121H56.632V88.571H50.45V84.45H68.994a6.189,6.189,0,0,0,6.181-6.181V41.181A6.189,6.189,0,0,0,68.994,35ZM7.181,39.121H68.994a2.063,2.063,0,0,1,2.06,2.06V67.967H5.121V41.181A2.063,2.063,0,0,1,7.181,39.121ZM46.33,88.571H29.846V84.45H46.33Zm22.665-8.242H7.181a2.062,2.062,0,0,1-2.06-2.06V72.088H71.055v6.181A2.063,2.063,0,0,1,68.994,80.329Z" transform="translate(-1 35.055)"/>
        <path id="Trazado_194934" data-name="Trazado 194934" d="M45.725,39H21V59.6H45.725ZM41.6,55.483H25.121V43.121H41.6Z" transform="translate(20.209 39.296)"/>
        <path id="Trazado_194935" data-name="Trazado 194935" d="M5,39H9.121v4.121H5Z" transform="translate(3.242 39.296)"/>
        <path id="Trazado_194936" data-name="Trazado 194936" d="M9,39H29.6v4.121H9Z" transform="translate(7.483 39.296)"/>
        <path id="Trazado_194937" data-name="Trazado 194937" d="M5,43H33.846v4.121H5Z" transform="translate(3.242 43.538)"/>
        <path id="Trazado_194938" data-name="Trazado 194938" d="M5,47H33.846v4.121H5Z" transform="translate(3.242 47.78)"/>
        <path id="Trazado_194939" data-name="Trazado 194939" d="M43,51h4.121v4.121H43Z" transform="translate(43.538 52.022)"/>
        <path id="Trazado_194940" data-name="Trazado 194940" d="M47,51h4.121v4.121H47Z" transform="translate(47.78 52.022)"/>
        <path id="Trazado_194941" data-name="Trazado 194941" d="M43,39h4.121v4.121H43Z" transform="translate(43.538 39.296)"/>
        <path id="Trazado_194942" data-name="Trazado 194942" d="M47,39h4.121v4.121H47Z" transform="translate(47.78 39.296)"/>
        <path id="Trazado_194943" data-name="Trazado 194943" d="M123.445,60.753V52.511a6.189,6.189,0,0,0-6.181-6.181H100.78V23.665A6.189,6.189,0,0,0,94.6,17.483H55.236A10.206,10.206,0,0,0,43.809,9.341a14.432,14.432,0,0,0-26.167,0A10.3,10.3,0,1,0,16.3,29.846H28.665v8.39a14.328,14.328,0,0,0-11.023,8.192A10.3,10.3,0,1,0,16.3,66.934H45.148a10.3,10.3,0,1,0-1.339-20.505,14.317,14.317,0,0,0-11.023-8.192v-8.39H45.148A10.321,10.321,0,0,0,55.242,21.6H94.6a2.063,2.063,0,0,1,2.06,2.06V46.33H80.176a6.189,6.189,0,0,0-6.181,6.181v8.242a6.189,6.189,0,0,0,6.181,6.181v4.121a6.189,6.189,0,0,0-6.181,6.181v8.242a6.189,6.189,0,0,0,6.181,6.181V95.78a6.189,6.189,0,0,0-6.181,6.181V110.2a6.189,6.189,0,0,0,6.181,6.181h37.088a6.189,6.189,0,0,0,6.181-6.181v-8.242a6.189,6.189,0,0,0-6.181-6.181V91.659a6.189,6.189,0,0,0,6.181-6.181V77.236a6.189,6.189,0,0,0-6.181-6.181V66.934A6.189,6.189,0,0,0,123.445,60.753ZM40.568,49.461l.624,2.019,2-.674a6.033,6.033,0,0,1,1.953-.356,6.181,6.181,0,1,1,0,12.363H16.3a6.181,6.181,0,1,1,0-12.363,6.083,6.083,0,0,1,1.953.354l2,.676.624-2.017a10.3,10.3,0,0,1,19.685,0Zm4.58-23.736H16.3a6.181,6.181,0,0,1,0-12.363,6.083,6.083,0,0,1,1.953.354l2,.676.624-2.017a10.3,10.3,0,0,1,19.685,0l.624,2.019,2-.674a6.033,6.033,0,0,1,1.953-.356,6.181,6.181,0,0,1,0,12.363ZM78.115,60.753V52.511a2.063,2.063,0,0,1,2.06-2.06h37.088a2.063,2.063,0,0,1,2.06,2.06v8.242a2.063,2.063,0,0,1-2.06,2.06H80.176A2.063,2.063,0,0,1,78.115,60.753Zm41.209,41.209V110.2a2.063,2.063,0,0,1-2.06,2.06H80.176a2.063,2.063,0,0,1-2.06-2.06v-8.242a2.063,2.063,0,0,1,2.06-2.06h37.088A2.063,2.063,0,0,1,119.324,101.961Zm-6.181-6.181H84.3V91.659h28.846Zm6.181-18.544v8.242a2.063,2.063,0,0,1-2.06,2.06H80.176a2.063,2.063,0,0,1-2.06-2.06V77.236a2.063,2.063,0,0,1,2.06-2.06h37.088A2.063,2.063,0,0,1,119.324,77.236Zm-6.181-6.181H84.3V66.934h28.846Z" transform="translate(4.302 -1)"/>
        <path id="Trazado_194944" data-name="Trazado 194944" d="M43,27h4.121v4.121H43Z" transform="translate(43.538 26.571)"/>
        <path id="Trazado_194945" data-name="Trazado 194945" d="M47,27h4.121v4.121H47Z" transform="translate(47.78 26.571)"/>
      </g>
    </g>
  </g>
</svg>
