<svg xmlns="http://www.w3.org/2000/svg" width="64.376" height="74.896" viewBox="0 0 64.376 74.896">
  <g id="Grupo_131921" data-name="Grupo 131921" transform="translate(8355.294 6354.855)">
    <path id="globo-terraqueo" d="M61.863,17.613A35.543,35.543,0,0,0,54.535,4.105,2.165,2.165,0,0,0,51.366,4L47.344,8.035A27.8,27.8,0,1,0,8.388,47.694l-3.982,4a2.164,2.164,0,0,0,.13,3.175A35.526,35.526,0,0,0,27.6,63.4q.9,0,1.805-.047v6.218H14.191a2.165,2.165,0,1,0,0,4.33H48.954a2.165,2.165,0,1,0,0-4.33H33.738V62.859A35.8,35.8,0,0,0,61.863,17.613ZM27.81,4.33A23.481,23.481,0,1,1,4.329,27.81,23.507,23.507,0,0,1,27.81,4.33Zm8.556,53.479A31.144,31.144,0,0,1,9.187,53.028l2.535-2.545A27.8,27.8,0,0,0,50.187,11.317L52.73,8.763A31.552,31.552,0,0,1,36.366,57.809Zm0,0" transform="translate(-8354.793 -6354.355)" fill="#30610c" stroke="#707070" stroke-width="1"/>
  </g>
</svg>
