<svg xmlns="http://www.w3.org/2000/svg" width="53.82" height="87.369" viewBox="0 0 53.82 87.369">
  <g id="Grupo_131917" data-name="Grupo 131917" transform="translate(-277.863 -4703.965)">
    <g id="reloj_de_arena" data-name="reloj de arena" transform="translate(363.263 4629.465)">
      <g id="Grupo_129632" data-name="Grupo 129632" transform="translate(-84.9 75)">
        <path id="Trazado_194752" data-name="Trazado 194752" d="M63.777,69.034c4.129-3.992,9.256-8.947,9.325-23.468H77.92V36H25.1v9.6h4.817c.069,14.521,5.2,19.476,9.325,23.468C42.2,71.924,44.3,73.954,44.3,79.219s-2.133,7.295-5.093,10.151c-4.129,3.957-9.291,8.912-9.291,23.468H25.1v9.532H77.885v-9.6H73.1c0-14.555-5.162-19.476-9.291-23.468-2.959-2.822-5.093-4.886-5.093-10.151C58.719,73.954,60.818,71.89,63.777,69.034Zm-3.338-3.441c-3.2,3.1-6.538,6.3-6.538,13.592s3.338,10.5,6.572,13.592c3.854,3.682,7.811,7.5,7.811,19.992H34.7c0-12.491,3.992-16.31,7.811-19.992,3.235-3.1,6.572-6.3,6.572-13.592s-3.338-10.5-6.538-13.592c-3.82-3.682-7.777-7.536-7.846-19.992H68.285C68.25,58.057,64.293,61.911,60.439,65.593Z" transform="translate(-25.1 -36)" fill="#30610c" stroke="#707070" stroke-width="1"/>
        <path id="Trazado_194753" data-name="Trazado 194753" d="M67,217.783H90.984c0-5.265-5.987-10.151-12.009-14.383C72.953,207.7,67,212.588,67,217.783Z" transform="translate(-52.582 -145.797)" fill="#30610c" stroke="#707070" stroke-width="1"/>
        <path id="Trazado_194754" data-name="Trazado 194754" d="M67,83.4c0,5.2,5.953,10.082,12.009,14.383C85,93.551,91.018,88.665,91.018,83.4,82.829,87.873,75.637,88.011,67,83.4Z" transform="translate(-52.582 -67.09)" fill="#30610c" stroke="#707070" stroke-width="1"/>
      </g>
    </g>
  </g>
</svg>
