<svg xmlns="http://www.w3.org/2000/svg" width="92" height="92" viewBox="0 0 92 92">
  <g id="Grupo_131960" data-name="Grupo 131960" transform="translate(-6642 10201.898)">
    <g id="Grupo_131958" data-name="Grupo 131958" transform="translate(6217 -11965.727)">
      <path id="Trazado_191491" data-name="Trazado 191491" d="M46,0A46,46,0,1,1,0,46,46,46,0,0,1,46,0Z" transform="translate(425 1763.828)" fill="#54aa13"/>
    </g>
    <path id="Trazado_196317" data-name="Trazado 196317" d="M39.292,0A39.292,39.292,0,1,1,0,39.292,39.292,39.292,0,0,1,39.292,0Z" transform="translate(6649 -10195.189)" fill="#f1ffe6"/>
    <g id="Grupo_131959" data-name="Grupo 131959" transform="translate(6667.541 -10180.656)">
      <path id="Trazado_191493" data-name="Trazado 191493" d="M-89.053,257.94q8.732,0,17.464,0a5.014,5.014,0,0,1,5.156,4.48,4.99,4.99,0,0,1-3.618,5.4c-.414.112-.528.259-.528.687q.02,20.174.011,40.347c0,1.042-.223,1.267-1.255,1.267h-34.561c-.975,0-1.219-.24-1.22-1.2,0-5-.011-9.995.015-14.992,0-.567-.161-.688-.687-.658-.821.046-1.648.015-2.472.012-.765,0-1.064-.289-1.064-1.035q0-14.6,0-29.2a5.024,5.024,0,0,1,5.133-5.118Q-97.864,257.926-89.053,257.94Z" transform="translate(111.815 -257.937)"/>
      <path id="Trazado_191494" data-name="Trazado 191494" d="M193.469,371.251q0-7.5,0-14.991a2.512,2.512,0,0,1,3.56-2.352,2.419,2.419,0,0,1,1.479,2.24c.027.753.016,1.508,0,2.262,0,.249.062.337.319.325.437-.021.877-.012,1.315,0a.8.8,0,0,1,.893.864c.006,3.524,0,7.048.009,10.573,0,.27-.066.348-.345.354-1.344.028-1.344.038-1.344-1.3,0-2.788-.007-5.576.009-8.363,0-.365-.083-.46-.454-.466-.392-.007-.4.164-.4.462q.008,12.545.009,25.09a4.021,4.021,0,0,1-.21,1.336q-.742,2.156-1.448,4.326c-.143.439-.356.775-.856.783-.53.008-.744-.349-.893-.8-.5-1.528-1.015-3.051-1.531-4.574a2.676,2.676,0,0,1-.12-.878Q193.472,378.693,193.469,371.251Z" transform="translate(-150.539 -340.208)"/>
      <path id="Trazado_191495" data-name="Trazado 191495" d="M-65.016,329.735c.175-.006.35-.017.525-.017q15.86,0,31.72-.012c.477,0,.592.116.592.592q-.021,19.227-.012,38.454c0,.175-.011.35-.017.525-.284.248-.632.17-.957.171q-8.31.008-16.62,0H-64.038c-1.108,0-1.152-.044-1.152-1.154q0-18.8,0-37.605C-65.186,330.367-65.264,330.019-65.016,329.735Z" transform="translate(71.753 -319.614)" fill="#fdffe6"/>
      <path id="Trazado_191496" data-name="Trazado 191496" d="M-48.752,276.563a5.117,5.117,0,0,0,.032-6.632c.07-.158.212-.083.318-.083q15.565-.006,31.131,0a3.352,3.352,0,0,1,3.422,3.379,3.35,3.35,0,0,1-3.4,3.348q-15.618.011-31.236,0C-48.554,276.577-48.622,276.57-48.752,276.563Z" transform="translate(57.62 -268.157)" fill="#fdffe6"/>
      <path id="Trazado_191497" data-name="Trazado 191497" d="M-99.887,287.207c0-4.68-.01-9.361.007-14.041a3.183,3.183,0,0,1,1.867-3,3.2,3.2,0,0,1,3.476.295,3.345,3.345,0,0,1,1.257,3.637,3.4,3.4,0,0,1-2.986,2.436c-.887.069-1.1.289-1.1,1.169q0,11.754.011,23.507c0,.483-.122.634-.6.591a7.571,7.571,0,0,0-1.418,0c-.463.046-.532-.137-.53-.554.016-3.944.01-7.888.01-11.832Q-99.888,288.311-99.887,287.207Z" transform="translate(101.573 -268.12)" fill="#fdffe6"/>
      <path id="Trazado_191498" data-name="Trazado 191498" d="M-69.125,329.819q0,19.483-.011,38.966c0,.462.118.589.585.588q16.117-.021,32.235-.012c.044.843.044.843-.773.843q-16.149,0-32.3.011c-.478,0-.593-.117-.592-.593q.021-19.515.011-39.031C-69.968,329.775-69.968,329.775-69.125,329.819Z" transform="translate(75.862 -319.698)" fill="#ffffae"/>
      <path id="Trazado_191499" data-name="Trazado 191499" d="M207.062,486.517c0,2.208-.013,4.416.011,6.623,0,.45-.133.554-.561.544-1.133-.025-1.133,0-1.133-1.117,0-4.205.009-8.411-.012-12.616,0-.5.147-.611.615-.6,1.08.031,1.081.008,1.081,1.065Z" transform="translate(-160.766 -448.219)" fill="#f67409"/>
      <path id="Trazado_191500" data-name="Trazado 191500" d="M205.408,395.044c0-1.647.01-3.294-.008-4.94,0-.385.062-.553.507-.544,1.184.023,1.184,0,1.184,1.172,0,3.066-.013,6.132.013,9.2,0,.5-.154.608-.617.595-1.078-.03-1.079-.008-1.079-1.066Z" transform="translate(-160.794 -371.051)" fill="#f67409"/>
      <path id="Trazado_191501" data-name="Trazado 191501" d="M206.145,367.417c-.337-.1-.889.261-.823-.528.064-.773.312-1.182.875-1.168.547.013.777.4.834,1.156C207.1,367.756,206.452,367.269,206.145,367.417Z" transform="translate(-160.722 -350.564)" fill="#2432ff"/>
      <path id="Trazado_191502" data-name="Trazado 191502" d="M208.291,594.652l-.447-1.352h1.009l-.449,1.36Z" transform="translate(-162.895 -546.142)" fill="#d1daea"/>
      <path id="Trazado_191503" data-name="Trazado 191503" d="M-42.9,356.9c-4.856,0-9.713-.006-14.569.01-.419,0-.565-.07-.551-.528.036-1.165.01-1.165,1.165-1.165.877,0,1.754-.016,2.63.008.338.009.438-.077.435-.427-.018-2.016-.01-4.032-.008-6.048,0-.828.276-1.1,1.1-1.107.631,0,1.263-.015,1.893.006.29.009.394-.064.383-.371-.023-.683-.014-1.367-.005-2.051a.845.845,0,0,1,.937-.948q1.578-.015,3.156,0c.643.005.95.324.954.985.007,1.21.012,2.42-.005,3.629,0,.324.055.446.419.444,1.271-.008,1.271.008,1.271-1.268q0-2.63,0-5.259c0-.762.29-1.055,1.04-1.058q1.473-.006,2.945,0c.763,0,1.054.29,1.064,1.037,0,.07,0,.141,0,.21.03.414-.185.98.087,1.2.256.209.8.069,1.217.075.386.006.772-.008,1.157,0a.843.843,0,0,1,.9.877c.006.1,0,.211,0,.315.031.432-.194,1.021.088,1.252.266.218.833.07,1.268.077.333.005.666,0,1,0,.71.009,1.008.311,1.009,1.038,0,2.262.022,4.524-.014,6.784-.008.531.15.625.635.607,1.05-.039,2.1,0,3.155-.019.325-.006.446.056.444.419-.008,1.271.008,1.271-1.268,1.271Z" transform="translate(65.589 -329.961)"/>
      <path id="Trazado_191504" data-name="Trazado 191504" d="M35.181,557.251q4.047,0,8.095,0c.825,0,1.105.279,1.106,1.1q0,2.286,0,4.573c0,.761-.292,1.061-1.038,1.061q-8.226,0-16.452,0c-.721,0-1.024-.3-1.026-1.019q-.007-2.339,0-4.678c0-.747.3-1.033,1.063-1.034Q31.055,557.249,35.181,557.251Z" transform="translate(-6.503 -515.162)"/>
      <path id="Trazado_191505" data-name="Trazado 191505" d="M-57.936,465.62c0-1.051,0-2.1,0-3.152,0-.689.307-1,.989-1q3.231-.008,6.462,0a.854.854,0,0,1,.962.975q.009,3.231,0,6.462a.855.855,0,0,1-.964.975q-3.231.01-6.462,0c-.68,0-.984-.315-.988-1C-57.941,467.792-57.936,466.706-57.936,465.62Z" transform="translate(65.514 -432.844)"/>
      <path id="Trazado_191506" data-name="Trazado 191506" d="M23.935,487.04c-3.208,0-6.416-.007-9.624.01-.388,0-.5-.084-.489-.483.024-1.21,0-1.21,1.224-1.21q9.229,0,18.458-.011c.433,0,.555.093.542.537-.034,1.157-.01,1.158-1.172,1.158Z" transform="translate(3.844 -453.368)"/>
      <path id="Trazado_191507" data-name="Trazado 191507" d="M23.935,510.978c-3.208,0-6.416-.009-9.624.011-.406,0-.485-.112-.479-.493.021-1.2,0-1.2,1.179-1.2q9.255,0,18.511-.012c.449,0,.544.119.532.547-.031,1.148-.009,1.149-1.18,1.149Z" transform="translate(3.836 -473.939)"/>
      <path id="Trazado_191508" data-name="Trazado 191508" d="M23.981,533.249c3.19,0,6.381.008,9.571-.01.392,0,.494.09.487.485-.023,1.208,0,1.208-1.225,1.208q-9.229,0-18.458.011c-.436,0-.553-.1-.54-.539.033-1.155.01-1.156,1.174-1.156Z" transform="translate(3.852 -494.527)"/>
      <path id="Trazado_191509" data-name="Trazado 191509" d="M57.308,463.105c-2.366,0-4.732-.008-7.1.009-.363,0-.469-.078-.463-.454.017-1.238,0-1.238,1.247-1.238,4.47,0,8.939.005,13.409-.009.4,0,.527.086.517.507-.029,1.185-.008,1.186-1.2,1.186Z" transform="translate(-27.028 -432.801)"/>
      <path id="Trazado_191510" data-name="Trazado 191510" d="M-52.982,594.783c-1.525,0-3.049-.007-4.574.006-.313,0-.453-.037-.45-.412.009-1.277-.009-1.277,1.261-1.277,2.786,0,5.573.011,8.359-.012.431,0,.508.132.5.523-.022,1.172-.006,1.172-1.154,1.172Z" transform="translate(65.573 -545.96)"/>
      <path id="Trazado_191511" data-name="Trazado 191511" d="M-54.682,570.859c-1,0-2-.01-3,.006-.274,0-.346-.074-.352-.349-.031-1.341-.04-1.341,1.3-1.341,1.682,0,3.364.009,5.045-.008.324,0,.406.078.406.4,0,1.288.014,1.288-1.248,1.288Z" transform="translate(65.6 -525.403)"/>
      <path id="Trazado_191512" data-name="Trazado 191512" d="M57.469,364.47c.064,1.059.064,1.059-.985,1.059-.679,0-.679,0-.679-.7V354.544c0-.825,0-.825.845-.781a1.083,1.083,0,0,1,.157.8c0,2.343.017,4.686,0,7.029A4.05,4.05,0,0,0,57.469,364.47Z" transform="translate(-32.236 -340.275)" fill="#8abf00"/>
      <path id="Trazado_191513" data-name="Trazado 191513" d="M9.583,379.9c.06,1.061.06,1.061-.977,1.061-.687,0-.687,0-.687-.688V372.5c0-.819,0-.819.843-.775a1,1,0,0,1,.156.748c.005,1.59.028,3.18-.007,4.77A3.693,3.693,0,0,0,9.583,379.9Z" transform="translate(8.918 -355.708)" fill="#f8ca52"/>
      <path id="Trazado_191514" data-name="Trazado 191514" d="M81.328,379.9c.063,1.059.062,1.027-.994,1.072-.549.024-.69-.134-.684-.683.031-2.594.014-5.188.014-7.783,0-.833,0-.833.845-.79a1,1,0,0,1,.155.749c.005,1.59.028,3.181-.007,4.77A3.71,3.71,0,0,0,81.328,379.9Z" transform="translate(-52.727 -355.709)" fill="#0056bf"/>
      <path id="Trazado_191515" data-name="Trazado 191515" d="M62.557,364.472a1.923,1.923,0,0,1-.831-1.751c.023-2.986.011-5.972.012-8.958.839-.043.84-.043.838.784Q62.568,359.51,62.557,364.472Z" transform="translate(-37.323 -340.277)" fill="#aadb00"/>
      <path id="Trazado_191516" data-name="Trazado 191516" d="M105.358,395.338c.059,1.057.059,1.057-.982,1.057-.683,0-.683,0-.684-.693v-5.247c0-.82,0-.82.843-.776a.929.929,0,0,1,.152.7c.006.891.047,1.784-.011,2.671A3.257,3.257,0,0,0,105.358,395.338Z" transform="translate(-73.389 -371.14)" fill="#f79a1c"/>
      <path id="Trazado_191517" data-name="Trazado 191517" d="M14.671,379.9a1.9,1.9,0,0,1-.832-1.747c.026-2.145.01-4.29.01-6.434.84-.044.842-.044.84.774Q14.682,376.2,14.671,379.9Z" transform="translate(3.83 -355.709)" fill="#fed885"/>
      <path id="Trazado_191518" data-name="Trazado 191518" d="M86.5,379.874a1.911,1.911,0,0,1-.831-1.748c.027-2.145.011-4.29.012-6.435a.933.933,0,0,1,.1-.014c.735-.021.736-.021.735.7Q86.511,376.123,86.5,379.874Z" transform="translate(-57.9 -355.678)" fill="#0068dc"/>
      <path id="Trazado_191519" data-name="Trazado 191519" d="M-14.363,400.48c.064,1.059.064,1.059-.981,1.059-.683,0-.683,0-.683-.7q0-2.2,0-4.4c0-.822,0-.822.845-.778a.863.863,0,0,1,.148.645c.006.663.048,1.33-.009,1.988A3.086,3.086,0,0,0-14.363,400.48Z" transform="translate(29.496 -376.285)" fill="#8abf00"/>
      <path id="Trazado_191520" data-name="Trazado 191520" d="M33.448,410.53c.054,1.16.053,1.132-1.091,1.172-.5.017-.6-.143-.588-.606.034-1.01.038-2.022,0-3.032-.018-.479.119-.669.6-.585a2.431,2.431,0,0,0,.26.018,1.271,1.271,0,0,1,.135.95A2.443,2.443,0,0,0,33.448,410.53Z" transform="translate(-11.577 -386.435)" fill="#e8353f"/>
      <path id="Trazado_191521" data-name="Trazado 191521" d="M110.443,395.339a1.894,1.894,0,0,1-.832-1.743c.032-1.3.01-2.611.01-3.916.84-.044.842-.044.84.777Q110.454,392.9,110.443,395.339Z" transform="translate(-78.474 -371.141)" fill="#fcb616"/>
      <path id="Trazado_191522" data-name="Trazado 191522" d="M-9.277,400.481a1.876,1.876,0,0,1-.83-1.741c.033-1.024.01-2.05.011-3.075.838-.043.841-.043.838.781Q-9.265,398.464-9.277,400.481Z" transform="translate(24.41 -376.286)" fill="#aadb00"/>
      <path id="Trazado_191523" data-name="Trazado 191523" d="M38.626,410.655a1.32,1.32,0,0,1-.819-1.316c-.03-.571-.005-1.144,0-1.716a.466.466,0,0,1,.052-.008c.788-.031.79-.031.787.735S38.631,409.887,38.626,410.655Z" transform="translate(-16.754 -386.559)" fill="#fe4b50"/>
      <path id="Trazado_191524" data-name="Trazado 191524" d="M45.367,569.161c2.367,0,4.734.011,7.1-.01.4,0,.5.1.482.487-.033.84-.024,1.683,0,2.524.007.3-.086.373-.379.373q-7.206-.013-14.412,0c-.3,0-.381-.083-.374-.378.019-.859.025-1.719,0-2.577-.011-.35.1-.429.433-.427C40.6,569.168,42.982,569.161,45.367,569.161Z" transform="translate(-16.744 -525.388)" fill="#fefefe"/>
      <path id="Trazado_191525" data-name="Trazado 191525" d="M-45.992,475.942c0-.736.01-1.473-.006-2.209-.005-.253.069-.324.322-.322q2.209.017,4.418,0c.253,0,.324.069.322.322q-.017,2.209,0,4.418c0,.253-.069.324-.322.322q-2.209-.017-4.418,0c-.253,0-.328-.069-.322-.322C-45.982,477.414-45.992,476.678-45.992,475.942Z" transform="translate(55.253 -443.111)" fill="#fefefe"/>
    </g>
  </g>
</svg>
