<svg xmlns="http://www.w3.org/2000/svg" width="140.93" height="135.495" viewBox="0 0 140.93 135.495">
  <g id="Grupo_131970" data-name="Grupo 131970" transform="translate(-1673.302 10470.107)">
    <g id="prediccion" transform="translate(1673.302 -10479.979)">
      <g id="Grupo_129736" data-name="Grupo 129736" transform="translate(32.243 97.456)">
        <path id="Trazado_195026" data-name="Trazado 195026" d="M117.138,328.071H135.45v33.143H117.138Z" transform="translate(-117.138 -328.071)" fill="#98eaf9"/>
      </g>
      <g id="Grupo_129737" data-name="Grupo 129737" transform="translate(68.722 71.105)">
        <path id="Trazado_195027" data-name="Trazado 195027" d="M249.67,232.336h18.312v60.038H249.67Z" transform="translate(-249.67 -232.336)" fill="#e0e7ef"/>
      </g>
      <g id="Grupo_129738" data-name="Grupo 129738" transform="translate(105.202 79.959)">
        <path id="Trazado_195028" data-name="Trazado 195028" d="M382.2,264.5h18.312v50.641H382.2Z" transform="translate(-382.203 -264.502)" fill="#ff7a7a"/>
      </g>
      <g id="Grupo_129739" data-name="Grupo 129739" transform="translate(13.765 21.537)">
        <path id="Trazado_195029" data-name="Trazado 195029" d="M126.933,69.579,109.686,52.253V63.137A35.617,35.617,0,0,0,77.8,82.89l-2.6,5.222A20.812,20.812,0,0,1,56.565,99.654H50.008v14.13h6.506A35.616,35.616,0,0,0,88.5,93.839l2.5-5.1a20.812,20.812,0,0,1,18.689-11.654v9.744Z" transform="translate(-50.008 -52.253)" fill="#c193da"/>
      </g>
      <g id="Grupo_129740" data-name="Grupo 129740" transform="translate(90.69 15.12)">
        <circle id="Elipse_6222" data-name="Elipse 6222" cx="23.744" cy="23.744" r="23.744" fill="#ffce62"/>
      </g>
      <g id="Grupo_129741" data-name="Grupo 129741" transform="translate(0 9.871)">
        <path id="Trazado_195030" data-name="Trazado 195030" d="M137.626,127.847h-11.36V79.959a2.753,2.753,0,0,0-2.753-2.753H105.2a2.753,2.753,0,0,0-2.753,2.753v47.888H89.787V70.562a2.753,2.753,0,0,0-2.753-2.753H68.723a2.753,2.753,0,0,0-2.753,2.753v57.285H53.307V97.456A2.753,2.753,0,0,0,50.555,94.7H32.243a2.753,2.753,0,0,0-2.753,2.753v30.391H16.517V85.82H20.27A38.7,38.7,0,0,0,54.725,64.334l2.5-5.1a18.194,18.194,0,0,1,13.465-9.9V56.11a2.777,2.777,0,0,0,4.7,1.946L88.615,44.831a26.5,26.5,0,1,0,39.054-28.918,2.752,2.752,0,1,0-2.754,4.766,20.99,20.99,0,1,1-20.754-.12,2.753,2.753,0,0,0-2.7-4.8A26.568,26.568,0,0,0,88.625,32.888L75.393,19.6a2.777,2.777,0,0,0-4.7,1.942v8.23a38.68,38.68,0,0,0-31.6,21.18l-2.6,5.222A17.957,17.957,0,0,1,20.322,66.186h-3.8V12.624a2.753,2.753,0,0,0-5.505,0V127.847H2.753a2.753,2.753,0,1,0,0,5.505h8.26v9.261a2.753,2.753,0,1,0,5.505,0v-9.261H137.626a2.753,2.753,0,0,0,0-5.505ZM20.322,71.69a23.429,23.429,0,0,0,21.1-13.069l2.6-5.222A33.144,33.144,0,0,1,73.442,35.173a2.753,2.753,0,0,0,2.753-2.753V28.2L86.8,38.859,76.194,49.466v-3.1a2.753,2.753,0,0,0-2.753-2.753,23.714,23.714,0,0,0-21.161,13.2l-2.5,5.1a33.147,33.147,0,0,1-29.512,18.4H16.517V71.69h3.8ZM35,127.847V100.209H47.8v27.638Zm36.48,0V73.315H84.282v54.533Zm36.48,0V82.711h12.807v45.136Z" transform="translate(0 -9.871)"/>
        <path id="Trazado_195031" data-name="Trazado 195031" d="M378.739,67.119a2.753,2.753,0,0,0,5.505,0,4.679,4.679,0,1,1,4.679,4.679,2.753,2.753,0,0,0-2.752,2.753v3.805a2.752,2.752,0,1,0,5.5,0V76.921a10.228,10.228,0,0,0,4.633-2.792,10.1,10.1,0,0,0,2.784-7.548,10.184,10.184,0,0,0-20.354.538Z" transform="translate(-274.49 -43.98)"/>
        <path id="Trazado_195032" data-name="Trazado 195032" d="M411.1,154.714a2.752,2.752,0,1,0-.76,3.818A2.781,2.781,0,0,0,411.1,154.714Z" transform="translate(-294.3 -113.966)"/>
        <path id="Trazado_195033" data-name="Trazado 195033" d="M405.96,22.763a2.751,2.751,0,1,0,1.489-3.592A2.777,2.777,0,0,0,405.96,22.763Z" transform="translate(-294.069 -16.463)"/>
      </g>
    </g>
  </g>
</svg>
