<svg xmlns="http://www.w3.org/2000/svg" width="70.039" height="70.015" viewBox="0 0 70.039 70.015">
  <g id="Grupo_131969" data-name="Grupo 131969" transform="translate(-1082.928 -1886.101)">
    <g id="Grupo_128942" data-name="Grupo 128942" transform="translate(1082.928 1886.101)">
      <path id="Trazado_152962" data-name="Trazado 152962" d="M628.787,210.435H609.365a1.741,1.741,0,0,1-.785-1.679c.03-1.911.012-3.822.008-5.734,0-.239-.027-.478-.04-.708H595.811v2.242c.243.012.443.029.644.032,1.131.015,1.362.183,1.722,1.253.3.9.613,1.807.912,2.713.317.96.188,1.315-.666,1.881h-7.659c-.855-.566-.983-.921-.666-1.883s.64-1.945.97-2.914a1.288,1.288,0,0,1,1.469-1.047c.284-.005.567,0,.829,0v-2.334H563.923c-1.8,0-2.012-.207-2.012-1.98V159.536q0-4.922-.008-9.844c0-.229-.027-.575-.172-.669a5.443,5.443,0,0,1-2.152-3.129v-1.641c1.321-3.165,2.337-3.829,5.857-3.829h56.738c.957,0,1.914-.013,2.871.006a4.611,4.611,0,0,1,4.318,3.2,4.541,4.541,0,0,1-1.591,5.122,1.162,1.162,0,0,0-.506,1.072q.019,18.828.01,37.657v.767c.231.01.385.022.54.024,1.525.022,1.791.287,1.791,1.791,0,6.265-.008,12.529.012,18.794A1.592,1.592,0,0,1,628.787,210.435Zm-20.2-10.544c0-1.419-.025-2.763.01-4.105a1.185,1.185,0,0,0-.872-1.275c-3.477-1.415-6.938-2.869-10.41-4.3a2.9,2.9,0,0,1-1.749-1.715,2.788,2.788,0,0,1,.607-3.045,2.955,2.955,0,0,1,3.316-.785q3.968,1.368,7.94,2.728a10.147,10.147,0,0,0,2.656.833c2.673.111,5.354.04,7.882.04a15.216,15.216,0,0,1-2.218-1.317c-3.044-2.535-3.328-7.8-.634-10.786a5.158,5.158,0,0,1,8.142.2,8.244,8.244,0,0,1,1.645,3.886V149.786H564.293v50.105ZM594.6,147.415h29.736c.274,0,.548.009.82-.011a2.309,2.309,0,0,0,2.039-2.885,2.393,2.393,0,0,0-2.658-1.764H564.65a5.836,5.836,0,0,0-.615.014,2.323,2.323,0,0,0-1.873,3.344,2.371,2.371,0,0,0,2.355,1.31Q579.557,147.4,594.6,147.415Zm16.333,60.633h16.3V190.6h-.851q-8.068,0-16.137-.008a3.62,3.62,0,0,1-1.136-.166c-2.8-.945-5.6-1.913-8.394-2.875-.667-.229-1.334-.455-2-.689-.441-.155-.837-.026-.928.4-.047.222.24.551.44.776.122.138.364.171.554.25L609,192.516a3.07,3.07,0,0,1,1.929,2.852q0,5.914,0,11.826Zm4.686-27a5.386,5.386,0,0,0,1.272,3.814,2.834,2.834,0,0,0,4.372.068,5.678,5.678,0,0,0-.076-7.414,2.818,2.818,0,0,0-4.137-.014A4.946,4.946,0,0,0,615.615,181.05Zm9.331,7.2v-5.7c-.656,2.729-1.995,4.821-5,5.7Zm-28.568,19.841c-.138-1.132-.169-1.161-1.218-1.161H594c-1.021,0-1.106.084-1.162,1.161Z" transform="translate(-559.58 -140.42)" fill="#30610c"/>
      <path id="Trazado_152965" data-name="Trazado 152965" d="M594.439,185.271c.549.88,1.106,1.71,1.589,2.581a2.884,2.884,0,0,1,.371,1.272c.041,1.731.021,3.463.016,5.2,0,1.033-.423,1.452-1.456,1.456-1.818.006-3.636,0-5.495,0V193.47h4.611a24.72,24.72,0,0,0-.064-4.281,8.425,8.425,0,0,0-1.407-2.475c-1.292.506-2.5,1.089-3.776,1.462a15.158,15.158,0,1,1-2.885-29.694,14.6,14.6,0,0,1,8.4,3.427.828.828,0,0,0,1.076.149,11.124,11.124,0,0,1,6.378-1.3c1.267.1,2.549.017,3.882.017v2.33h-.915c-1.39,0-2.788.086-4.169-.023a7.92,7.92,0,0,0-4.01,1.046,15.2,15.2,0,0,1-2.147,21.147Zm-2.114-21.931a12.708,12.708,0,0,0-14.652-.464,12.848,12.848,0,0,0-5.157,14.633,12.614,12.614,0,0,0,11.052,8.8v-.739q0-5.74,0-11.48c0-1.307.358-1.667,1.659-1.668h12.289a13.09,13.09,0,0,0-2.764-6.844.758.758,0,0,0-1.074-.286c-2.213.956-4.443,1.871-6.668,2.8-.6.248-1.2.484-1.827.737l-.885-2.135Zm-1.062,21.281-2.844-4.564,1.982-1.228,2.752,4.388c2.383-1.859,4.572-6.211,4.26-8.418H585.935v11.568A12.529,12.529,0,0,0,591.263,184.621Z" transform="translate(-563.732 -147.924)" fill="#30610c"/>
      <path id="Trazado_152966" data-name="Trazado 152966" d="M588.267,228.489v2.258H569.7v-2.258Z" transform="translate(-563.796 -177.104)" fill="#30610c"/>
      <path id="Trazado_152967" data-name="Trazado 152967" d="M588.259,236.507v2.256H569.7v-2.256Z" transform="translate(-563.794 -180.444)" fill="#30610c"/>
      <path id="Trazado_152968" data-name="Trazado 152968" d="M588.245,220.5v2.227H569.676V220.5Z" transform="translate(-563.785 -173.776)" fill="#30610c"/>
      <path id="Trazado_152969" data-name="Trazado 152969" d="M588.264,212.482v2.246H569.7v-2.246Z" transform="translate(-563.795 -170.436)" fill="#30610c"/>
      <path id="Trazado_152970" data-name="Trazado 152970" d="M637.658,164.746v-2.23H655.1v2.23Z" transform="translate(-592.103 -149.624)" fill="#30610c"/>
      <path id="Trazado_152971" data-name="Trazado 152971" d="M637.66,172.73v-2.235H655.1v2.235Z" transform="translate(-592.103 -152.947)" fill="#30610c"/>
      <path id="Trazado_152972" data-name="Trazado 152972" d="M637.67,180.734V178.48h17.422v2.254Z" transform="translate(-592.107 -156.273)" fill="#30610c"/>
      <path id="Trazado_152973" data-name="Trazado 152973" d="M655.106,186.49v2.235H637.673V186.49Z" transform="translate(-592.109 -159.61)" fill="#30610c"/>
      <path id="Trazado_152974" data-name="Trazado 152974" d="M636.1,206.518v2.246H625.715v-2.246Z" transform="translate(-587.128 -167.952)" fill="#30610c"/>
      <path id="Trazado_152975" data-name="Trazado 152975" d="M625.668,202.75v-2.245h10.4v2.245Z" transform="translate(-587.108 -165.447)" fill="#30610c"/>
      <path id="Trazado_152976" data-name="Trazado 152976" d="M625.677,194.484h10.407v2.247H625.677Z" transform="translate(-587.112 -162.939)" fill="#30610c"/>
      <path id="Trazado_152977" data-name="Trazado 152977" d="M613.744,232.755h-8.108v-2.242h8.108Z" transform="translate(-578.764 -177.947)" fill="#30610c"/>
      <path id="Trazado_152978" data-name="Trazado 152978" d="M613.729,226.754h-8.08v-2.248h8.08Z" transform="translate(-578.77 -175.445)" fill="#30610c"/>
      <path id="Trazado_152979" data-name="Trazado 152979" d="M613.774,236.52v2.231h-8.1V236.52Z" transform="translate(-578.78 -180.449)" fill="#30610c"/>
      <path id="Trazado_152980" data-name="Trazado 152980" d="M671.9,244.531v2.231h-2.257v-2.231Z" transform="translate(-605.428 -183.786)" fill="#30610c"/>
      <path id="Trazado_152981" data-name="Trazado 152981" d="M665.935,252.728H663.7v-2.26h2.235Z" transform="translate(-602.95 -186.259)" fill="#30610c"/>
      <path id="Trazado_152982" data-name="Trazado 152982" d="M671.9,252.746h-2.232v-2.232H671.9Z" transform="translate(-605.435 -186.278)" fill="#30610c"/>
    </g>
  </g>
</svg>
