<svg xmlns="http://www.w3.org/2000/svg" width="162.575" height="109.185" viewBox="0 0 162.575 109.185">
  <g id="Grupo_131972" data-name="Grupo 131972" transform="translate(-1662.48 9924.186)">
    <g id="codigo-postal" transform="translate(1662.48 -10008.209)">
      <g id="Grupo_129776" data-name="Grupo 129776" transform="translate(0 84.023)">
        <g id="Grupo_129775" data-name="Grupo 129775" transform="translate(3.13 3.177)">
          <g id="Grupo_129770" data-name="Grupo 129770" transform="translate(13.192)">
            <path id="Trazado_195080" data-name="Trazado 195080" d="M184.162,94.023a10.29,10.29,0,0,1,10.29,10.29v69.655a10.29,10.29,0,0,1-10.29,10.29H62.3l7.171-7.171c3.313-3.316,2.673-8.247-.518-11.329a7.791,7.791,0,0,0-10.984,0l-6.595,6.595v-68.04a10.29,10.29,0,0,1,10.29-10.29Z" transform="translate(-51.377 -94.023)" fill="#ffd88e"/>
          </g>
          <g id="Grupo_129771" data-name="Grupo 129771" transform="translate(121.217 19.805)">
            <path id="Trazado_195081" data-name="Trazado 195081" d="M391.395,156.36h19.188v19.188H391.395Z" transform="translate(-391.395 -156.36)" fill="#fff"/>
          </g>
          <g id="Grupo_129772" data-name="Grupo 129772" transform="translate(19.976 3.395)">
            <circle id="Elipse_6227" data-name="Elipse 6227" cx="27.994" cy="27.994" r="27.994" transform="translate(0 39.583) rotate(-45)" fill="#fff6be"/>
          </g>
          <g id="Grupo_129773" data-name="Grupo 129773" transform="translate(0 69.425)">
            <path id="Trazado_195082" data-name="Trazado 195082" d="M41.141,326.182,23.77,343.553a8.2,8.2,0,0,1-11.343.34,8.07,8.07,0,0,1-.208-11.617l17.5-17.5a7.683,7.683,0,0,1,10.9.081C43.747,317.995,44.5,322.818,41.141,326.182Z" transform="translate(-9.853 -312.544)" fill="#868eaf"/>
          </g>
          <g id="Grupo_129774" data-name="Grupo 129774" transform="translate(47.587 27.071)">
            <path id="Trazado_195083" data-name="Trazado 195083" d="M181.736,197.276a11.831,11.831,0,0,0,1.7-6.422,11.9,11.9,0,1,0-22.035,6.518l7.274,11.768a3.4,3.4,0,0,0,5.785-.01l7.231-11.785Z" transform="translate(-159.637 -179.231)" fill="#ff7d95"/>
          </g>
        </g>
        <path id="Trazado_195084" data-name="Trazado 195084" d="M403.759,171.9a3.177,3.177,0,0,0,3.177-3.177V149.537a3.177,3.177,0,0,0-3.177-3.177H384.571a3.177,3.177,0,0,0-3.177,3.177v19.188a3.177,3.177,0,0,0,3.177,3.177Zm-16.011-19.188h12.834v12.834H387.748Z" transform="translate(-260.223 -126.555)"/>
        <path id="Trazado_195085" data-name="Trazado 195085" d="M332.394,260.607a3.177,3.177,0,0,0,3.177,3.177h34.756a3.177,3.177,0,0,0,0-6.354H335.571A3.177,3.177,0,0,0,332.394,260.607Z" transform="translate(-226.791 -202.338)"/>
        <path id="Trazado_195086" data-name="Trazado 195086" d="M290.16,309.449a3.177,3.177,0,0,0,3.177,3.177H341.51a3.177,3.177,0,0,0,0-6.354H293.337A3.177,3.177,0,0,0,290.16,309.449Z" transform="translate(-197.975 -235.663)"/>
        <path id="Trazado_195087" data-name="Trazado 195087" d="M3.538,190.3a11.531,11.531,0,0,0,15.755-.418l9.27-9.27H149.108a13.482,13.482,0,0,0,13.467-13.467V97.49a13.482,13.482,0,0,0-13.467-13.467H101.385a3.177,3.177,0,0,0,0,6.354h47.723a7.121,7.121,0,0,1,7.113,7.113v69.655a7.121,7.121,0,0,1-7.113,7.113H34.918l1.748-1.748a10.936,10.936,0,0,0,1.864-12.843l4.926-4.963A31.173,31.173,0,1,0,62.7,99.008,31.463,31.463,0,0,0,31.533,130.18a30.937,30.937,0,0,0,7.353,20.108l-4.759,4.795a10.947,10.947,0,0,0-13.457,1.606L19.5,157.86V97.49a7.121,7.121,0,0,1,7.113-7.113H73.439a3.177,3.177,0,1,0,0-6.354H26.612A13.482,13.482,0,0,0,13.146,97.49v66.725l-9.9,9.9A11.355,11.355,0,0,0,3.538,190.3Zm41.618-77.668a24.817,24.817,0,1,1-7.268,17.548,24.655,24.655,0,0,1,7.268-17.548ZM7.742,178.6l17.431-17.431a4.6,4.6,0,0,1,6.481.008c1.968,1.846,2.61,4.744.517,6.836L14.8,185.388a5.037,5.037,0,0,1-6.93.262,4.945,4.945,0,0,1-.127-7.046Z" transform="translate(0 -84.023)"/>
        <path id="Trazado_195088" data-name="Trazado 195088" d="M151.792,192.081c0,.03.011.041.02.032l7.341,11.876a6.53,6.53,0,0,0,5.591,3.117h.011a6.531,6.531,0,0,0,5.593-3.136l7.274-11.854a15.08,15.08,0,1,0-27.984-7.8A14.934,14.934,0,0,0,151.792,192.081Zm12.8-16.494a8.829,8.829,0,0,1,8.847,8.518,8.934,8.934,0,0,1-1.277,4.757l-7.231,11.785a.193.193,0,0,1-.187.1h0a.193.193,0,0,1-.187-.1l-7.308-11.823a8.949,8.949,0,0,1-1.257-4.514,8.758,8.758,0,0,1,8.6-8.724Z" transform="translate(-102.097 -142.161)"/>
        <path id="Trazado_195089" data-name="Trazado 195089" d="M272.4,85.464a3.176,3.176,0,1,0-.88,4.407A3.212,3.212,0,0,0,272.4,85.464Z" transform="translate(-181.892 -84.051)"/>
      </g>
      <path id="Trazado_195090" data-name="Trazado 195090" d="M192.949,208.925a3.176,3.176,0,1,0-.88,4.407,3.212,3.212,0,0,0,.88-4.407Z" transform="translate(-127.687 -84.265)"/>
    </g>
  </g>
</svg>
