<svg xmlns="http://www.w3.org/2000/svg" width="128.896" height="128.896" viewBox="0 0 128.896 128.896">
  <g id="Grupo_131973" data-name="Grupo 131973" transform="translate(-1679.319 9673.269)">
    <g id="clasificacion-de-datos" transform="translate(1678.319 -9674.269)">
      <g id="Grupo_129787" data-name="Grupo 129787" transform="translate(3.079 3.079)">
        <g id="Grupo_129777" data-name="Grupo 129777" transform="translate(22.869 79.001)">
          <path id="Trazado_195091" data-name="Trazado 195091" d="M37.948,72.411v.852A12.493,12.493,0,0,1,25.474,85.737,12.484,12.484,0,0,1,13,73.264v-.852a11.924,11.924,0,0,1,.249-2.432L19.237,40H31.711L37.7,69.979a11.924,11.924,0,0,1,.249,2.432Zm-8.316.852a4.158,4.158,0,1,0-4.158,4.158A4.17,4.17,0,0,0,29.632,73.264Z" transform="translate(-13 -40)" fill="#969faa"/>
        </g>
        <g id="Grupo_129778" data-name="Grupo 129778" transform="translate(25.862 69.396)">
          <path id="Trazado_195092" data-name="Trazado 195092" d="M33.4,35.38l-1.123,1.871a15.133,15.133,0,0,0-2.121,7.734H17.683a15.133,15.133,0,0,0-2.121-7.734L14.44,35.38a35.507,35.507,0,0,0,18.96,0Z" transform="translate(-14.44 -35.38)" fill="#ccd1d9"/>
        </g>
        <g id="Grupo_129779" data-name="Grupo 129779" transform="translate(0 0)">
          <path id="Trazado_195093" data-name="Trazado 195093" d="M46.823,71.4A35.345,35.345,0,1,1,71,26.553,35.344,35.344,0,0,1,52.124,69.442a33.709,33.709,0,0,1-5.3,1.954Z" transform="translate(-2 -2)" fill="#fcd770"/>
        </g>
        <g id="Grupo_129780" data-name="Grupo 129780" transform="translate(8.316 8.316)">
          <path id="Trazado_195094" data-name="Trazado 195094" d="M33.027,6A27.027,27.027,0,1,1,6,33.027,27.026,27.026,0,0,1,33.027,6Z" transform="translate(-6 -6)" fill="#69d6f4"/>
        </g>
        <g id="Grupo_129781" data-name="Grupo 129781" transform="translate(14.272 31.252)">
          <ellipse id="Elipse_6228" data-name="Elipse 6228" cx="4.402" cy="4.088" rx="4.402" ry="4.088" transform="translate(0 0)" fill="#ff826e"/>
        </g>
        <g id="Grupo_129782" data-name="Grupo 129782" transform="translate(31.252 31.252)">
          <circle id="Elipse_6229" data-name="Elipse 6229" cx="4.088" cy="4.088" r="4.088" transform="translate(0 0)" fill="#ff826e"/>
        </g>
        <g id="Grupo_129783" data-name="Grupo 129783" transform="translate(47.602 31.252)">
          <ellipse id="Elipse_6230" data-name="Elipse 6230" cx="4.402" cy="4.088" rx="4.402" ry="4.088" transform="translate(0 0)" fill="#ff826e"/>
        </g>
        <g id="Grupo_129784" data-name="Grupo 129784" transform="translate(87.317 91.475)">
          <path id="Trazado_195095" data-name="Trazado 195095" d="M81.421,50.158V75.106a4.17,4.17,0,0,1-4.158,4.158H48.158A4.17,4.17,0,0,1,44,75.106V50.158A4.17,4.17,0,0,1,48.158,46H77.264A4.17,4.17,0,0,1,81.421,50.158Z" transform="translate(-44 -46)" fill="#e6e9ed"/>
        </g>
        <g id="Grupo_129785" data-name="Grupo 129785" transform="translate(87.317 45.737)">
          <path id="Trazado_195096" data-name="Trazado 195096" d="M81.421,28.158V53.106a4.17,4.17,0,0,1-4.158,4.158H48.158A4.17,4.17,0,0,1,44,53.106V28.158A4.17,4.17,0,0,1,48.158,24H77.264A4.17,4.17,0,0,1,81.421,28.158Z" transform="translate(-44 -24)" fill="#e6e9ed"/>
        </g>
        <g id="Grupo_129786" data-name="Grupo 129786" transform="translate(87.317 0)">
          <path id="Trazado_195097" data-name="Trazado 195097" d="M81.421,6.158V31.106a4.17,4.17,0,0,1-4.158,4.158H48.158A4.17,4.17,0,0,1,44,31.106V6.158A4.17,4.17,0,0,1,48.158,2H77.264A4.17,4.17,0,0,1,81.421,6.158Z" transform="translate(-44 -2)" fill="#e6e9ed"/>
        </g>
      </g>
      <g id="Grupo_129788" data-name="Grupo 129788" transform="translate(1 1)">
        <path id="Trazado_195098" data-name="Trazado 195098" d="M34.106,5A29.106,29.106,0,1,0,63.211,34.106,29.138,29.138,0,0,0,34.106,5Zm0,54.053A24.948,24.948,0,1,1,59.053,34.106,24.975,24.975,0,0,1,34.106,59.053Z" transform="translate(3.316 3.316)"/>
        <path id="Trazado_195099" data-name="Trazado 195099" d="M22.237,53a6.237,6.237,0,1,0,6.237,6.237A6.245,6.245,0,0,0,22.237,53Zm0,8.316a2.079,2.079,0,1,1,2.079-2.079A2.08,2.08,0,0,1,22.237,61.316Z" transform="translate(15.185 55.107)"/>
        <path id="Trazado_195100" data-name="Trazado 195100" d="M22.237,16a6.237,6.237,0,1,0,6.237,6.237A6.245,6.245,0,0,0,22.237,16Zm0,8.316a2.079,2.079,0,1,1,2.079-2.079A2.081,2.081,0,0,1,22.237,24.316Z" transform="translate(15.185 15.185)"/>
        <path id="Trazado_195101" data-name="Trazado 195101" d="M14.237,16a6.237,6.237,0,1,0,6.237,6.237A6.245,6.245,0,0,0,14.237,16Zm0,8.316a2.079,2.079,0,1,1,2.079-2.079A2.081,2.081,0,0,1,14.237,24.316Z" transform="translate(6.553 15.185)"/>
        <path id="Trazado_195102" data-name="Trazado 195102" d="M24,22.237A6.237,6.237,0,1,0,30.237,16,6.245,6.245,0,0,0,24,22.237Zm8.316,0a2.079,2.079,0,1,1-2.079-2.079A2.081,2.081,0,0,1,32.316,22.237Z" transform="translate(23.816 15.185)"/>
        <path id="Trazado_195103" data-name="Trazado 195103" d="M47,49H71.948v4.158H47Z" transform="translate(48.633 50.791)"/>
        <path id="Trazado_195104" data-name="Trazado 195104" d="M47,53H63.632v4.158H47Z" transform="translate(48.633 55.107)"/>
        <path id="Trazado_195105" data-name="Trazado 195105" d="M57,53h4.158v4.158H57Z" transform="translate(59.422 55.107)"/>
        <path id="Trazado_195106" data-name="Trazado 195106" d="M47,57H71.948v4.158H47Z" transform="translate(48.633 59.422)"/>
        <path id="Trazado_195107" data-name="Trazado 195107" d="M47,27H71.948v4.158H47Z" transform="translate(48.633 27.053)"/>
        <path id="Trazado_195108" data-name="Trazado 195108" d="M47,31H71.948v4.158H47Z" transform="translate(48.633 31.369)"/>
        <path id="Trazado_195109" data-name="Trazado 195109" d="M57,35h4.158v4.158H57Z" transform="translate(59.422 35.685)"/>
        <path id="Trazado_195110" data-name="Trazado 195110" d="M47,35H63.632v4.158H47Z" transform="translate(48.633 35.685)"/>
        <path id="Trazado_195111" data-name="Trazado 195111" d="M94.554,38.421h29.106a6.245,6.245,0,0,0,6.237-6.237V7.237A6.245,6.245,0,0,0,123.659,1H94.554a6.245,6.245,0,0,0-6.237,6.237V17.632H79.14L72.9,23.873A37.42,37.42,0,1,0,27.567,74.226l.707,1.185a13.06,13.06,0,0,1,1.832,6.47l-5.952,29.765a14.511,14.511,0,0,0-.285,2.854v.844a14.553,14.553,0,1,0,29.106,0V114.5a14.668,14.668,0,0,0-.283-2.854L46.739,81.882a13.041,13.041,0,0,1,1.832-6.468l.707-1.187c1.067-.324,2.108-.7,3.133-1.121l26.472,40.157h9.434v10.395a6.245,6.245,0,0,0,6.237,6.237h29.106a6.245,6.245,0,0,0,6.237-6.237V98.712a6.245,6.245,0,0,0-6.237-6.237H94.554a6.245,6.245,0,0,0-6.237,6.237v10.395h-7.2L56.222,71.33A37.674,37.674,0,0,0,69.194,59.66l7.867,7.867H88.317V77.922a6.245,6.245,0,0,0,6.237,6.237h29.106a6.245,6.245,0,0,0,6.237-6.237V52.974a6.245,6.245,0,0,0-6.237-6.237H94.554a6.245,6.245,0,0,0-6.237,6.237V63.369H78.783l-7.353-7.353A37.025,37.025,0,0,0,74.4,28.249l6.461-6.459h7.455V32.185a6.245,6.245,0,0,0,6.237,6.237Zm-2.079,60.29a2.08,2.08,0,0,1,2.079-2.079h29.106a2.08,2.08,0,0,1,2.079,2.079v24.948a2.08,2.08,0,0,1-2.079,2.079H94.554a2.08,2.08,0,0,1-2.079-2.079Zm0-45.737A2.081,2.081,0,0,1,94.554,50.9h29.106a2.081,2.081,0,0,1,2.079,2.079V77.922A2.08,2.08,0,0,1,123.659,80H94.554a2.08,2.08,0,0,1-2.079-2.079Zm-43.86,59.484a10.394,10.394,0,0,1,.2,2.042v.844a10.395,10.395,0,1,1-20.79,0V114.5a10.321,10.321,0,0,1,.2-2.037l5.661-28.3h9.1ZM42.719,80h-8.6A17.189,17.189,0,0,0,32.9,75.39a37.438,37.438,0,0,0,5.518.453,37.388,37.388,0,0,0,5.516-.453A17.266,17.266,0,0,0,42.719,80Zm-4.3-8.316A33.264,33.264,0,1,1,71.685,38.421,33.3,33.3,0,0,1,38.421,71.685ZM92.475,7.237a2.081,2.081,0,0,1,2.079-2.079h29.106a2.081,2.081,0,0,1,2.079,2.079V32.185a2.081,2.081,0,0,1-2.079,2.079H94.554a2.081,2.081,0,0,1-2.079-2.079Z" transform="translate(-1 -1)"/>
        <path id="Trazado_195112" data-name="Trazado 195112" d="M47,5H71.948V9.158H47Z" transform="translate(48.633 3.316)"/>
        <path id="Trazado_195113" data-name="Trazado 195113" d="M47,9h4.158v4.158H47Z" transform="translate(48.633 7.632)"/>
        <path id="Trazado_195114" data-name="Trazado 195114" d="M51,9H67.632v4.158H51Z" transform="translate(52.949 7.632)"/>
        <path id="Trazado_195115" data-name="Trazado 195115" d="M47,13H71.948v4.158H47Z" transform="translate(48.633 11.948)"/>
      </g>
    </g>
  </g>
</svg>
