<svg xmlns="http://www.w3.org/2000/svg" width="124.945" height="132.173" viewBox="0 0 124.945 132.173">
  <g id="Grupo_131974" data-name="Grupo 131974" transform="translate(-1683.271 9420.265)">
    <g id="recopilacion-de-datos" transform="translate(1669.27 -9420.265)">
      <g id="Grupo_129811" data-name="Grupo 129811" transform="translate(15.937 35.323)">
        <g id="Grupo_129789" data-name="Grupo 129789" transform="translate(45.469 72.507)">
          <path id="Trazado_195116" data-name="Trazado 195116" d="M197.634,417.7h30.134v14.243H197.634Z" transform="translate(-197.634 -417.7)" fill="#678d98"/>
        </g>
        <g id="Grupo_129790" data-name="Grupo 129790" transform="translate(45.469 72.507)">
          <path id="Trazado_195117" data-name="Trazado 195117" d="M197.634,417.7h10.748v14.243H197.634Z" transform="translate(-197.634 -417.7)" fill="#537983"/>
        </g>
        <g id="Grupo_129791" data-name="Grupo 129791" transform="translate(29.341 86.491)">
          <path id="Trazado_195118" data-name="Trazado 195118" d="M135.16,477.714v-1.969a3.872,3.872,0,0,1,3.872-3.872h54.645a3.872,3.872,0,0,1,3.872,3.872v1.969a2.581,2.581,0,0,1-2.581,2.582H137.742A2.581,2.581,0,0,1,135.16,477.714Z" transform="translate(-135.16 -471.873)" fill="#7ca1b1"/>
        </g>
        <g id="Grupo_129792" data-name="Grupo 129792" transform="translate(29.341 86.491)">
          <path id="Trazado_195119" data-name="Trazado 195119" d="M145.961,477.714v-1.969a3.872,3.872,0,0,1,3.872-3.872h-10.8a3.872,3.872,0,0,0-3.872,3.872v1.969a2.581,2.581,0,0,0,2.582,2.582h10.8A2.581,2.581,0,0,1,145.961,477.714Z" transform="translate(-135.16 -471.873)" fill="#678d98"/>
        </g>
        <g id="Grupo_129793" data-name="Grupo 129793" transform="translate(2.514 62.577)">
          <path id="Trazado_195120" data-name="Trazado 195120" d="M31.237,379.236v7.606a2.581,2.581,0,0,0,2.582,2.582H144.7a2.581,2.581,0,0,0,2.581-2.582v-7.606H31.237Z" transform="translate(-31.237 -379.236)" fill="#7ca1b1"/>
        </g>
        <g id="Grupo_129795" data-name="Grupo 129795" transform="translate(2.514 62.577)">
          <g id="Grupo_129794" data-name="Grupo 129794">
            <path id="Trazado_195121" data-name="Trazado 195121" d="M42.018,386.843v-7.606H31.237v7.606a2.581,2.581,0,0,0,2.582,2.581H44.6A2.582,2.582,0,0,1,42.018,386.843Z" transform="translate(-31.237 -379.237)" fill="#678d98"/>
          </g>
        </g>
        <path id="Trazado_195122" data-name="Trazado 195122" d="M125.075,162.972l4.61-4.61a.774.774,0,0,1,.548-.227h17.05v-17.47a3.835,3.835,0,0,0-3.835-3.835H106.039V144.7a.774.774,0,0,1-.774.774H73.254a.774.774,0,0,1-.774-.774V136.83H35.072a3.835,3.835,0,0,0-3.835,3.835v20.02l2.323-2.323a.774.774,0,0,1,.548-.227H52.9a.774.774,0,0,1,.774.774v29.7a.774.774,0,0,1-.774.774H31.237v10.025H147.282V189.382h-21.66a.774.774,0,0,1-.774-.774V163.52A.774.774,0,0,1,125.075,162.972Z" transform="translate(-28.723 -136.83)" fill="#dff6fd"/>
        <g id="Grupo_129796" data-name="Grupo 129796" transform="translate(2.514)">
          <path id="Trazado_195123" data-name="Trazado 195123" d="M33.56,158.362a.774.774,0,0,1,.548-.227h7.91v-17.47a3.835,3.835,0,0,1,3.835-3.835H35.072a3.835,3.835,0,0,0-3.835,3.835v20.02Z" transform="translate(-31.237 -136.83)" fill="#c8effe"/>
          <path id="Trazado_195124" data-name="Trazado 195124" d="M31.237,340.4H42.018v10.025H31.237Z" transform="translate(-31.237 -287.85)" fill="#c8effe"/>
        </g>
        <g id="Grupo_129805" data-name="Grupo 129805" transform="translate(0 21.305)">
          <g id="Grupo_129800" data-name="Grupo 129800" transform="translate(96.125)">
            <g id="Grupo_129798" data-name="Grupo 129798">
              <g id="Grupo_129797" data-name="Grupo 129797">
                <path id="Trazado_195125" data-name="Trazado 195125" d="M398.7,219.588l-4.61,4.61a.774.774,0,0,0-.227.548v25.088a.774.774,0,0,0,.774.774h23.4a.774.774,0,0,0,.774-.774v-29.7a.774.774,0,0,0-.774-.774H399.244A.774.774,0,0,0,398.7,219.588Z" transform="translate(-393.859 -219.361)" fill="#62dbfb"/>
              </g>
            </g>
            <g id="Grupo_129799" data-name="Grupo 129799" transform="translate(0 0)">
              <path id="Trazado_195126" data-name="Trazado 195126" d="M402.156,249.834V224.746a.773.773,0,0,1,.227-.548l4.61-4.61a.775.775,0,0,1,.548-.227h-8.3a.774.774,0,0,0-.548.227l-4.61,4.61a.774.774,0,0,0-.227.548v25.088a.774.774,0,0,0,.774.774h8.3A.774.774,0,0,1,402.156,249.834Z" transform="translate(-393.859 -219.362)" fill="#01d0fb"/>
            </g>
          </g>
          <g id="Grupo_129804" data-name="Grupo 129804">
            <g id="Grupo_129802" data-name="Grupo 129802">
              <g id="Grupo_129801" data-name="Grupo 129801">
                <path id="Trazado_195127" data-name="Trazado 195127" d="M26.337,219.588l-4.61,4.61a.774.774,0,0,0-.227.548v25.088a.774.774,0,0,0,.774.774h23.4a.774.774,0,0,0,.774-.774v-29.7a.774.774,0,0,0-.774-.774H26.885a.774.774,0,0,0-.548.227Z" transform="translate(-21.5 -219.361)" fill="#6cf5c2"/>
              </g>
            </g>
            <g id="Grupo_129803" data-name="Grupo 129803" transform="translate(0 0)">
              <path id="Trazado_195128" data-name="Trazado 195128" d="M29.632,249.834V224.746a.773.773,0,0,1,.227-.548l4.61-4.61a.774.774,0,0,1,.548-.227H26.885a.774.774,0,0,0-.548.227l-4.61,4.61a.774.774,0,0,0-.227.548v25.088a.774.774,0,0,0,.774.774h8.132A.774.774,0,0,1,29.632,249.834Z" transform="translate(-21.5 -219.362)" fill="#05e39c"/>
            </g>
          </g>
        </g>
        <g id="Grupo_129810" data-name="Grupo 129810" transform="translate(38.852 20.871)">
          <g id="Grupo_129806" data-name="Grupo 129806">
            <path id="Trazado_195129" data-name="Trazado 195129" d="M186.41,217.677H173.033A1.033,1.033,0,0,0,172,218.71v5.435h17.812l-2.45-5.834A1.032,1.032,0,0,0,186.41,217.677Z" transform="translate(-172 -217.677)" fill="#fed402"/>
          </g>
          <g id="Grupo_129807" data-name="Grupo 129807">
            <path id="Trazado_195130" data-name="Trazado 195130" d="M180.777,217.677h-7.745A1.033,1.033,0,0,0,172,218.71v5.435h7.745V218.71A1.033,1.033,0,0,1,180.777,217.677Z" transform="translate(-172 -217.677)" fill="#fac600"/>
          </g>
          <g id="Grupo_129808" data-name="Grupo 129808" transform="translate(0 6.467)">
            <path id="Trazado_195131" data-name="Trazado 195131" d="M214.595,269.741h-41.82a.774.774,0,0,1-.774-.775V242.73h42.595a.774.774,0,0,1,.774.774v25.462A.774.774,0,0,1,214.595,269.741Z" transform="translate(-172 -242.73)" fill="#fed402"/>
          </g>
          <g id="Grupo_129809" data-name="Grupo 129809" transform="translate(0 6.467)">
            <path id="Trazado_195132" data-name="Trazado 195132" d="M179.745,268.966V242.73H172v26.236a.774.774,0,0,0,.774.774h7.745A.775.775,0,0,1,179.745,268.966Z" transform="translate(-172 -242.73)" fill="#fac600"/>
          </g>
        </g>
      </g>
      <g id="Grupo_129814" data-name="Grupo 129814" transform="translate(59.693 1.936)">
        <g id="Grupo_129812" data-name="Grupo 129812" transform="translate(0 0)">
          <path id="Trazado_195133" data-name="Trazado 195133" d="M197.585,7.727l-6.358,6.358a.774.774,0,0,0-.227.548V48.758a.774.774,0,0,0,.774.774h32.011a.774.774,0,0,0,.774-.774V8.274a.774.774,0,0,0-.774-.774H198.132a.775.775,0,0,0-.548.227Z" transform="translate(-191 -7.5)" fill="#fee97d"/>
        </g>
        <g id="Grupo_129813" data-name="Grupo 129813">
          <path id="Trazado_195134" data-name="Trazado 195134" d="M198.745,48.757V14.632a.775.775,0,0,1,.227-.548l6.358-6.358a.774.774,0,0,1,.548-.227h-7.745a.774.774,0,0,0-.548.227l-6.358,6.358a.775.775,0,0,0-.227.548V48.757a.774.774,0,0,0,.774.774h7.745A.774.774,0,0,1,198.745,48.757Z" transform="translate(-191 -7.499)" fill="#fedf30"/>
        </g>
      </g>
      <g id="Grupo_129815" data-name="Grupo 129815" transform="translate(14.001 0)">
        <path id="Trazado_195135" data-name="Trazado 195135" d="M137.009,69.055a1.936,1.936,0,0,0,1.936-1.936V57.4a2.712,2.712,0,0,0-2.514-2.7V39.158a5.768,5.768,0,0,0-5.771-5.771H110.08V21.262a1.936,1.936,0,1,0-3.872,0V33.387H95.189V27.364a1.936,1.936,0,1,0-3.872,0V42.033H61.629V9.55l5.678-5.677h24.01V18.329a1.936,1.936,0,1,0,3.872,0V2.711A2.714,2.714,0,0,0,92.478,0H66.826a2.693,2.693,0,0,0-1.917.794L58.551,7.152a2.693,2.693,0,0,0-.794,1.917V33.387H47.35V21.262a1.936,1.936,0,1,0-3.872,0V33.387H22.286a5.768,5.768,0,0,0-5.771,5.771V58.376L14.8,60.1A2.692,2.692,0,0,0,14,62.013V87.1a2.712,2.712,0,0,0,2.514,2.7v15.705a4.523,4.523,0,0,0,4.518,4.518H59.47v9.854H49.15a5.815,5.815,0,0,0-5.808,5.808v1.969a4.523,4.523,0,0,0,4.518,4.518h57.227a4.523,4.523,0,0,0,4.518-4.518v-1.969a5.815,5.815,0,0,0-5.808-5.808H93.476v-9.854h38.438a4.523,4.523,0,0,0,4.518-4.518V89.8a2.712,2.712,0,0,0,2.514-2.7V76.154a1.936,1.936,0,1,0-3.872,0v9.784H114V62.494l3.93-3.93h17.146v8.555a1.936,1.936,0,0,0,1.936,1.936ZM76.473,83.065a1.93,1.93,0,0,0,1.369-.567l4.565-4.565a1.936,1.936,0,0,0-2.738-2.738l-1.26,1.26V64.6H96.222V87.735h-39.5V64.6H74.537V76.455l-1.26-1.26a1.936,1.936,0,1,0-2.738,2.738L75.1,82.5a1.928,1.928,0,0,0,1.368.567ZM56.725,60.725v-2.6H68.6l1.09,2.6ZM17.873,62.494l3.93-3.93H38.949V85.939H17.873ZM103.8,123.75a1.938,1.938,0,0,1,1.936,1.936v1.969a.646.646,0,0,1-.645.645H47.86a.646.646,0,0,1-.645-.645v-1.969a1.938,1.938,0,0,1,1.936-1.936H76.989a1.936,1.936,0,0,0,0-3.872H63.342v-9.854H89.6v9.854h-3.58a1.936,1.936,0,0,0,0,3.872Zm28.764-18.244a.646.646,0,0,1-.645.645H21.032a.646.646,0,0,1-.645-.645v-5.67H132.559v5.67Zm0-50.814H117.446a2.693,2.693,0,0,0-1.917.794L110.92,60.1a2.692,2.692,0,0,0-.795,1.917V87.1a2.714,2.714,0,0,0,2.711,2.711H132.56v6.153H20.387V89.811H40.11A2.714,2.714,0,0,0,42.821,87.1V57.4a2.714,2.714,0,0,0-2.711-2.711H21.321a2.711,2.711,0,0,0-.935.168v-15.7a1.9,1.9,0,0,1,1.9-1.9H43.477V45.8l-1.26-1.26a1.936,1.936,0,0,0-2.738,2.738l4.565,4.565a1.936,1.936,0,0,0,2.738,0l4.565-4.565a1.936,1.936,0,0,0-2.738-2.738L47.35,45.8V37.259H57.757v5.935A2.714,2.714,0,0,0,60.468,45.9H74.537v14.82h-.649l-1.952-4.648A2.962,2.962,0,0,0,69.2,54.258H55.821a2.972,2.972,0,0,0-2.969,2.969V88.9a2.714,2.714,0,0,0,2.711,2.711h41.82a2.714,2.714,0,0,0,2.711-2.711V63.435a2.714,2.714,0,0,0-2.711-2.711H78.409V45.9H92.478a2.714,2.714,0,0,0,2.711-2.711V37.259h11.019V45.8l-1.26-1.26a1.936,1.936,0,0,0-2.738,2.738l4.565,4.565a1.936,1.936,0,0,0,2.738,0l4.565-4.565a1.936,1.936,0,1,0-2.738-2.738l-1.26,1.26V37.259h20.58a1.9,1.9,0,0,1,1.9,1.9V54.692Z" transform="translate(-14.001 0)"/>
        <path id="Trazado_195136" data-name="Trazado 195136" d="M426.829,239.82H416.382a1.936,1.936,0,1,0,0,3.872h10.447a1.936,1.936,0,1,0,0-3.872Z" transform="translate(-311.071 -177.91)"/>
        <path id="Trazado_195137" data-name="Trazado 195137" d="M426.829,261.431H416.382a1.936,1.936,0,1,0,0,3.872h10.447a1.936,1.936,0,1,0,0-3.872Z" transform="translate(-311.071 -193.942)"/>
        <path id="Trazado_195138" data-name="Trazado 195138" d="M428.765,285.171a1.936,1.936,0,0,0-1.936-1.936H416.382a1.936,1.936,0,1,0,0,3.872h10.447A1.936,1.936,0,0,0,428.765,285.171Z" transform="translate(-311.071 -210.118)"/>
        <path id="Trazado_195139" data-name="Trazado 195139" d="M416.382,304.943a1.936,1.936,0,1,0,0,3.872h4.683a1.936,1.936,0,1,0,0-3.872Z" transform="translate(-311.071 -226.222)"/>
        <path id="Trazado_195140" data-name="Trazado 195140" d="M54.47,239.82H44.023a1.936,1.936,0,1,0,0,3.872H54.469a1.936,1.936,0,0,0,0-3.872Z" transform="translate(-34.837 -177.91)"/>
        <path id="Trazado_195141" data-name="Trazado 195141" d="M54.47,261.431H44.023a1.936,1.936,0,0,0,0,3.872H54.469a1.936,1.936,0,0,0,0-3.872Z" transform="translate(-34.837 -193.942)"/>
        <path id="Trazado_195142" data-name="Trazado 195142" d="M54.47,283.235H44.023a1.936,1.936,0,0,0,0,3.872H54.469a1.936,1.936,0,0,0,0-3.872Z" transform="translate(-34.837 -210.118)"/>
        <path id="Trazado_195143" data-name="Trazado 195143" d="M48.707,304.943H44.024a1.936,1.936,0,1,0,0,3.872h4.683a1.936,1.936,0,1,0,0-3.872Z" transform="translate(-34.837 -226.222)"/>
        <path id="Trazado_195144" data-name="Trazado 195144" d="M232.056,34.588h-.516V25.436a1.936,1.936,0,0,0-3.872,0v9.152h-1.033V28.763a1.936,1.936,0,1,0-3.872,0v5.825H221.73V26.767a1.936,1.936,0,1,0-3.872,0v7.821h-1.033v-3.83a1.936,1.936,0,0,0-3.872,0v3.83h-.516a1.936,1.936,0,0,0,0,3.872h19.619a1.936,1.936,0,1,0,0-3.872Z" transform="translate(-159.774 -17.433)"/>
        <path id="Trazado_195145" data-name="Trazado 195145" d="M213.5,91.5h-1.066a1.936,1.936,0,0,0,0,3.872H213.5a1.936,1.936,0,1,0,0-3.872Z" transform="translate(-159.774 -67.879)"/>
        <path id="Trazado_195146" data-name="Trazado 195146" d="M213.5,113h-1.066a1.936,1.936,0,0,0,0,3.872H213.5a1.936,1.936,0,0,0,0-3.872Z" transform="translate(-159.774 -83.829)"/>
        <path id="Trazado_195147" data-name="Trazado 195147" d="M213.5,134.5h-1.066a1.936,1.936,0,0,0,0,3.872H213.5a1.936,1.936,0,0,0,0-3.872Z" transform="translate(-159.774 -99.779)"/>
        <path id="Trazado_195148" data-name="Trazado 195148" d="M248.6,91.5H234.74a1.936,1.936,0,0,0,0,3.872H248.6a1.936,1.936,0,1,0,0-3.872Z" transform="translate(-176.32 -67.879)"/>
        <path id="Trazado_195149" data-name="Trazado 195149" d="M248.6,113H234.74a1.936,1.936,0,0,0,0,3.872H248.6a1.936,1.936,0,0,0,0-3.872Z" transform="translate(-176.32 -83.829)"/>
        <path id="Trazado_195150" data-name="Trazado 195150" d="M248.6,134.5H234.74a1.936,1.936,0,0,0,0,3.872H248.6a1.936,1.936,0,0,0,0-3.872Z" transform="translate(-176.32 -99.779)"/>
      </g>
    </g>
  </g>
</svg>
