<svg xmlns="http://www.w3.org/2000/svg" width="138.87" height="137.282" viewBox="0 0 138.87 137.282">
  <g id="Grupo_131950" data-name="Grupo 131950" transform="translate(-701.501 -5343.366)">
    <g id="comportamiento" transform="translate(700.501 5342.366)">
      <g id="Grupo_129687" data-name="Grupo 129687" transform="translate(3.102 3.24)">
        <g id="Grupo_129678" data-name="Grupo 129678" transform="translate(67.333)">
          <path id="Trazado_194867" data-name="Trazado 194867" d="M32,2H99.2V15.439H32Z" transform="translate(-32 -2)" fill="#b4dd7f"/>
        </g>
        <g id="Grupo_129679" data-name="Grupo 129679" transform="translate(57.567 89.439)">
          <path id="Trazado_194868" data-name="Trazado 194868" d="M41.079,42.64,71,72.564A13.459,13.459,0,0,1,57.564,86L27.64,56.079A38.235,38.235,0,0,0,41.079,42.64Z" transform="translate(-27.64 -42.64)" fill="#969faa"/>
        </g>
        <g id="Grupo_129680" data-name="Grupo 129680" transform="translate(0 32.578)">
          <circle id="Elipse_6219" data-name="Elipse 6219" cx="38.368" cy="38.368" r="38.368" transform="translate(0 0)" fill="#e6e9ed"/>
        </g>
        <g id="Grupo_129681" data-name="Grupo 129681" transform="translate(9.461 42.07)">
          <circle id="Elipse_6220" data-name="Elipse 6220" cx="28.908" cy="28.908" r="28.908" transform="translate(0 0)" fill="#69d6f4"/>
        </g>
        <g id="Grupo_129682" data-name="Grupo 129682" transform="translate(11.337)">
          <path id="Trazado_194869" data-name="Trazado 194869" d="M39.164,4.24a8.956,8.956,0,1,1,5.913,15.679H29.4a4.493,4.493,0,0,0-4.48,4.48v4.48a4.512,4.512,0,0,0-4.48,4.48v.381a4.493,4.493,0,0,0,1.322,3.181L23.6,38.756a4.493,4.493,0,0,1,1.322,3.181v11.58L18.67,48.835l-2.105-1.59a22.517,22.517,0,0,1-4.681-4.659,22,22,0,0,1-2.352-3.763A23.883,23.883,0,0,1,30.9,4.24Z" transform="translate(-7 -2)" fill="#b27946"/>
        </g>
        <g id="Grupo_129683" data-name="Grupo 129683" transform="translate(18.056 50.555)">
          <path id="Trazado_194870" data-name="Trazado 194870" d="M23.439,73.493A29.079,29.079,0,0,1,10,66.168V41.552A17.863,17.863,0,0,1,21.2,25l8.959,8.959,4.48-4.48a17.863,17.863,0,0,1,11.2,16.552V69.685a29.1,29.1,0,0,1-22.4,3.808Z" transform="translate(-10 -25)" fill="#ff826e"/>
        </g>
        <g id="Grupo_129684" data-name="Grupo 129684" transform="translate(24.776 17.919)">
          <path id="Trazado_194871" data-name="Trazado 194871" d="M26.439,52.557,17.48,43.6V32.018a4.493,4.493,0,0,0-1.322-3.181L14.322,27A4.493,4.493,0,0,1,13,23.82v-.381a4.512,4.512,0,0,1,4.48-4.48V14.48A4.493,4.493,0,0,1,21.959,10H37.638s6.72,8.959,6.72,20.159l-6.72,2.24V33.72a7.591,7.591,0,0,1-.582,2.912,7.605,7.605,0,0,1-6.137,4.659v6.787Z" transform="translate(-13 -10)" fill="#f0d0b4"/>
        </g>
        <g id="Grupo_129685" data-name="Grupo 129685" transform="translate(103.17 83.856)">
          <path id="Trazado_194872" data-name="Trazado 194872" d="M48,40H74.878V66.878H48Z" transform="translate(-48 -40)" fill="#fcd770"/>
        </g>
        <g id="Grupo_129686" data-name="Grupo 129686" transform="translate(103.17 48.548)">
          <path id="Trazado_194873" data-name="Trazado 194873" d="M48,24H74.878V50.878H48Z" transform="translate(-48 -24)" fill="#fcd770"/>
        </g>
      </g>
      <g id="Grupo_129688" data-name="Grupo 129688" transform="translate(1 1)">
        <circle id="Elipse_6221" data-name="Elipse 6221" cx="2.102" cy="2.102" r="2.102" transform="translate(45.201 27.008)"/>
        <path id="Trazado_194874" data-name="Trazado 194874" d="M81.634,74.069A39.718,39.718,0,0,0,61.429,39.545a38.264,38.264,0,0,0-5.252-17.061,11.06,11.06,0,0,0,7.539-10.413A11.173,11.173,0,0,0,45.866,3.214H38.331A26.011,26.011,0,0,0,12.2,29.048a25.675,25.675,0,0,0,4.077,13.795A39.775,39.775,0,0,0,1,74.069c0,21.976,18.087,39.856,40.317,39.856a40.406,40.406,0,0,0,18.956-4.7l29.393,29.057h.927a15.609,15.609,0,0,0,15.679-15.5v-.917L76.879,92.808a39.221,39.221,0,0,0,4.755-18.739Zm-49.276-3.06V99.09A26.906,26.906,0,0,1,23.4,93.816l0-23.322a15.269,15.269,0,0,1,8.5-13.673l9.416,9.309,4.937-4.88a15.269,15.269,0,0,1,8.5,13.673V97.044a26.492,26.492,0,0,1-17.919,3.2V68.272l-5.718-2.825-2,3.961ZM26.071,52.248l2.112,1.565a19.641,19.641,0,0,0-9.264,16.68l0,18.227a26.258,26.258,0,0,1,7.154-36.473Zm21.966,4.885V53.588a9.219,9.219,0,0,0,4.834-3.512,26.362,26.362,0,0,1,6.366,43.742v-18.9a19.7,19.7,0,0,0-11.2-17.789Zm2.24-15.659v2.894a5.279,5.279,0,0,1-1.584,3.78,5.406,5.406,0,0,1-3.823,1.565H39.077v4.428h4.48v3.512l-2.24,2.214L34.6,53.225V42.692a6.574,6.574,0,0,0-1.969-4.7L30.774,36.16a2.192,2.192,0,0,1-.656-1.568v-.379A2.229,2.229,0,0,1,32.358,32H34.6V25.356a2.229,2.229,0,0,1,2.24-2.214h14.5a34.939,34.939,0,0,1,5.613,16.135ZM38.331,7.643h3.935a10.855,10.855,0,0,0-.95,4.428H45.8a6.72,6.72,0,1,1,6.72,6.643H36.837a6.69,6.69,0,0,0-6.72,6.643v2.593a6.661,6.661,0,0,0-4.48,6.264v.379a6.574,6.574,0,0,0,1.969,4.7l1.855,1.833a2.192,2.192,0,0,1,.656,1.568v7.024l-4.78-3.543A21.359,21.359,0,0,1,38.331,7.643ZM5.48,74.069A35.363,35.363,0,0,1,19,46.356a25.513,25.513,0,0,0,3.315,3.069A30.649,30.649,0,0,0,9.959,74.069a31.36,31.36,0,0,0,62.716,0A30.777,30.777,0,0,0,54.586,45.986a9.575,9.575,0,0,0,.166-1.32L59,43.267a35.316,35.316,0,0,1,18.156,30.8,35.84,35.84,0,0,1-71.675,0Zm96.277,49.594a11.154,11.154,0,0,1-10.272,10.154L64.2,106.844A40.4,40.4,0,0,0,74.471,96.69Z" transform="translate(-1 -1)"/>
        <path id="Trazado_194875" data-name="Trazado 194875" d="M47,70.358H78.358V39H47ZM51.48,43.48h22.4v22.4H51.48Z" transform="translate(56.033 44.856)"/>
        <path id="Trazado_194876" data-name="Trazado 194876" d="M56.356,51.909l-2.9-2.9L50.293,52.18l6.063,6.063L69.139,45.46l-3.167-3.167Z" transform="translate(60.115 49.002)"/>
        <path id="Trazado_194877" data-name="Trazado 194877" d="M47,54.358H78.358V23H47ZM51.48,27.48h22.4v22.4H51.48Z" transform="translate(56.033 25.548)"/>
        <path id="Trazado_194878" data-name="Trazado 194878" d="M56.356,35.909l-2.9-2.9L50.293,36.18l6.063,6.063L69.139,29.46l-3.167-3.167Z" transform="translate(60.115 29.627)"/>
        <path id="Trazado_194879" data-name="Trazado 194879" d="M31,1V18.919h71.675V1ZM62.358,5.48h8.959v8.959H62.358Zm-4.48,8.959H48.919V5.48h8.959ZM75.8,5.48h8.959v8.959H75.8Zm-40.317,0h8.959v8.959H35.48ZM98.2,14.439H89.236V5.48H98.2Z" transform="translate(36.195 -1)"/>
        <path id="Trazado_194880" data-name="Trazado 194880" d="M37,11H77.317v4.48H37Z" transform="translate(43.634 11.398)"/>
        <path id="Trazado_194881" data-name="Trazado 194881" d="M37,15H77.317v4.48H37Z" transform="translate(43.634 15.987)"/>
        <path id="Trazado_194882" data-name="Trazado 194882" d="M37,19h4.48v4.48H37Z" transform="translate(43.634 20.841)"/>
        <path id="Trazado_194883" data-name="Trazado 194883" d="M53,19h4.48v4.48H53Z" transform="translate(63.472 20.841)"/>
        <path id="Trazado_194884" data-name="Trazado 194884" d="M49,19h4.48v4.48H49Z" transform="translate(58.512 20.841)"/>
        <path id="Trazado_194885" data-name="Trazado 194885" d="M45,19h4.48v4.48H45Z" transform="translate(53.553 20.841)"/>
        <path id="Trazado_194886" data-name="Trazado 194886" d="M41,19h4.48v4.48H41Z" transform="translate(48.594 20.841)"/>
      </g>
    </g>
  </g>
</svg>
